<svg width="50" height="50" viewBox="0 0 50 50" fill="none" xmlns="http://www.w3.org/2000/svg">
<g clip-path="url(#clip0_104_144)">
<mask id="path-1-inside-1_104_144" fill="white">
<path d="M46.1316 38.3493C45.3752 39.5448 44.5355 40.6538 43.622 41.6762C42.9714 42.4038 42.2855 43.0865 41.5643 43.7275C41.5098 43.7756 41.4522 43.8268 41.3945 43.8749C41.2823 43.9711 41.1669 44.0704 41.0547 44.1634C40.9682 44.2339 40.8816 44.3076 40.7919 44.3781C40.7086 44.4454 40.6252 44.5127 40.5419 44.58C40.5419 44.58 40.5387 44.58 40.5355 44.5833C40.09 44.939 39.6316 45.2788 39.1669 45.5961C39.0932 45.6474 39.0163 45.6986 38.9393 45.7467C38.7855 45.8493 38.6316 45.9518 38.4778 46.0512C38.3175 46.1538 38.1573 46.2531 37.997 46.3525C37.9137 46.4038 37.8304 46.4518 37.747 46.4999C37.6188 46.58 37.4842 46.657 37.3528 46.7307C37.3496 46.7307 37.3464 46.7339 37.34 46.7371C37.2118 46.8108 37.0772 46.8845 36.9457 46.9582C36.8496 47.0127 36.7502 47.064 36.6445 47.1153C36.6348 47.1185 36.6252 47.1281 36.6124 47.1313C36.324 47.282 36.0355 47.4262 35.7438 47.564C35.5483 47.6602 35.3528 47.7499 35.1573 47.8333C35.1028 47.8589 35.0451 47.8845 34.9874 47.9102C34.9682 47.9198 34.9425 47.9294 34.9233 47.939C34.8977 47.9518 34.872 47.9615 34.8464 47.9711C34.7887 47.9967 34.731 48.0224 34.6733 48.0448C34.5034 48.1153 34.3368 48.1826 34.1669 48.2499C34.1413 48.2627 34.1124 48.2724 34.0868 48.282C34.0163 48.3076 33.9457 48.3365 33.8752 48.3621C33.8624 48.3653 33.8528 48.3717 33.84 48.3749C33.8272 48.3813 33.8111 48.3877 33.7983 48.3909C33.7342 48.4198 33.6637 48.4422 33.5964 48.4679C33.5515 48.4839 33.5098 48.4999 33.4618 48.5159C33.4329 48.5288 33.4009 48.5384 33.3688 48.5512C33.3432 48.5608 33.3143 48.5704 33.2887 48.58C33.1445 48.6313 33.0002 48.6794 32.856 48.7275C32.6541 48.7916 32.4522 48.8557 32.2534 48.9166C32.2534 48.9166 32.2502 48.9166 32.247 48.9166C32.2214 48.9262 32.199 48.9294 32.1733 48.939C32.1284 48.9518 32.0868 48.9647 32.0419 48.9775C32.0259 48.9807 32.0098 48.9871 31.9938 48.9903C31.8977 49.0191 31.8047 49.0448 31.7086 49.0704C31.6893 49.0736 31.6637 49.0832 31.6445 49.0865C31.5996 49.0993 31.5483 49.1121 31.5002 49.1249C31.4522 49.1377 31.4041 49.1506 31.356 49.1634C31.2502 49.1922 31.1413 49.2179 31.0355 49.2467C31.0034 49.2531 30.9714 49.2627 30.9393 49.2691C30.9137 49.2756 30.8913 49.282 30.8656 49.2884C30.7214 49.3236 30.5707 49.3589 30.4265 49.3909C30.3688 49.4038 30.3111 49.4166 30.2502 49.4294C30.1188 49.4582 29.9874 49.4871 29.856 49.5127C29.8528 49.5127 29.8464 49.5127 29.8432 49.5127C29.8207 49.5159 29.7951 49.5224 29.7727 49.5256C29.5707 49.564 29.3688 49.6025 29.1669 49.6345C28.8015 49.6954 28.4361 49.7499 28.0675 49.7948C27.9874 49.8076 27.9041 49.814 27.8239 49.8236C27.6829 49.8397 27.5451 49.8525 27.4041 49.8653C27.3175 49.8749 27.2278 49.8845 27.1413 49.8909C26.9874 49.907 26.84 49.9166 26.6861 49.9262C26.5355 49.939 26.3848 49.9454 26.2342 49.9518C25.9938 49.9679 25.7566 49.9743 25.5131 49.9775H25.5098C25.4618 49.9775 25.4105 49.9807 25.3656 49.9775C25.3528 49.9775 25.3432 49.9775 25.3304 49.9775C25.2759 49.9775 25.2182 49.9775 25.1637 49.9775C25.1092 49.9775 25.0579 49.9807 25.0002 49.9807C24.9361 49.9807 24.872 49.9807 24.8047 49.9807C24.7631 49.9807 24.7182 49.9807 24.6765 49.9807C24.4618 49.9807 24.2438 49.9743 24.0291 49.9615C23.6509 49.9486 23.2727 49.923 22.8945 49.8941C22.824 49.8877 22.7534 49.8813 22.6829 49.8717C22.5868 49.8621 22.4906 49.8525 22.3945 49.8429C21.9105 49.798 21.4297 49.7307 20.949 49.6538C20.7631 49.6217 20.5772 49.5897 20.3913 49.5544C20.3336 49.5416 20.2727 49.532 20.2118 49.5191C20.1573 49.5095 20.106 49.4999 20.0515 49.4903C20.0323 49.4871 20.0131 49.4775 19.9938 49.4775C19.9041 49.4582 19.8143 49.439 19.7214 49.4198C19.6957 49.4166 19.6701 49.407 19.6445 49.4038C19.5387 49.3813 19.4361 49.3589 19.3304 49.3332C18.9425 49.2435 18.5579 49.1441 18.1733 49.0352C18.1348 49.0224 18.0964 49.0127 18.0611 49.0031C18.0323 48.9967 18.0066 48.9871 17.9778 48.9775C17.5355 48.8493 17.0964 48.7082 16.6573 48.548C16.5932 48.5256 16.5291 48.5031 16.465 48.4775C16.372 48.4454 16.2823 48.4102 16.1925 48.3749C16.0772 48.33 15.9618 48.2884 15.8464 48.2403C15.7695 48.2115 15.6957 48.1794 15.622 48.1506C15.5675 48.1313 15.5163 48.1089 15.465 48.0865C15.4329 48.0736 15.4041 48.0608 15.3688 48.048C15.3656 48.048 15.3592 48.0448 15.356 48.0416C15.3368 48.0352 15.3175 48.0288 15.3015 48.0191C15.2855 48.0127 15.2663 48.0063 15.2502 47.9967C15.2278 47.9871 15.2086 47.9807 15.1893 47.9711C15.1092 47.939 15.0323 47.9038 14.9522 47.8653C14.9201 47.8525 14.8913 47.8365 14.8592 47.8204C14.7823 47.7852 14.7054 47.7531 14.6316 47.7179C14.5611 47.689 14.4938 47.657 14.4265 47.6249C14.372 47.6025 14.3207 47.5768 14.2663 47.5544C14.1541 47.4999 14.0451 47.4454 13.9361 47.3909C13.8464 47.3461 13.7566 47.298 13.6669 47.2531C13.6509 47.2467 13.6316 47.2371 13.6156 47.2275C13.5131 47.1762 13.4073 47.1185 13.3047 47.064C13.2951 47.064 13.2855 47.0544 13.2759 47.048C13.2598 47.0416 13.247 47.032 13.231 47.0224C13.122 46.9679 13.0163 46.9102 12.9105 46.8525C12.8592 46.8236 12.8111 46.798 12.7598 46.7659C12.747 46.7595 12.7342 46.7531 12.7214 46.7435C12.6573 46.705 12.5932 46.6698 12.5259 46.6313C12.5131 46.6281 12.497 46.6185 12.481 46.6057C12.4169 46.5704 12.3528 46.5352 12.2855 46.4935C12.2246 46.455 12.1637 46.423 12.1028 46.3813C12.1028 46.3813 12.0964 46.3813 12.0932 46.3749C12.074 46.3653 12.0547 46.3525 12.0323 46.3397C12.0034 46.3204 11.9714 46.3012 11.9425 46.2852C11.8848 46.2499 11.8272 46.2147 11.7727 46.1826C11.7342 46.1602 11.699 46.1377 11.6605 46.1121C11.622 46.0897 11.5836 46.064 11.5483 46.0416C11.4714 45.9935 11.3945 45.9422 11.3207 45.8941C11.3079 45.8845 11.2919 45.8749 11.2759 45.8653C11.2631 45.8589 11.2534 45.8493 11.2406 45.8429C11.2278 45.8332 11.215 45.8268 11.2022 45.8172L11.1797 45.8044C11.1797 45.8044 11.1733 45.8012 11.1701 45.8012C11.1028 45.7595 11.0419 45.7179 10.9778 45.6698C10.8977 45.6217 10.8207 45.5672 10.7438 45.5127C10.7406 45.5095 10.731 45.5063 10.7278 45.4999C10.7182 45.4967 10.7086 45.4871 10.699 45.4807C10.6637 45.455 10.6316 45.4326 10.5996 45.4102C10.5675 45.3877 10.5355 45.3653 10.5034 45.3461C10.4522 45.3076 10.4009 45.2756 10.3528 45.2403C10.3464 45.2403 10.34 45.2307 10.3368 45.2275C10.1413 45.0897 9.95216 44.9486 9.76626 44.8012C9.64446 44.7082 9.52267 44.6153 9.40408 44.5224C9.25985 44.407 9.11562 44.2884 8.97459 44.1698C8.95536 44.1506 8.92972 44.1313 8.90728 44.1153C8.70857 43.9518 8.51305 43.7788 8.32074 43.6025C8.1669 43.4679 8.01626 43.33 7.86882 43.189C7.82395 43.1506 7.78228 43.1089 7.74062 43.0672C7.62523 42.9615 7.51305 42.8525 7.40408 42.7403C7.33357 42.6762 7.26626 42.6089 7.19895 42.5384C7.06113 42.4006 6.92972 42.2595 6.7951 42.1185C6.77267 42.0961 6.75344 42.0768 6.73421 42.0544C6.73421 42.0512 6.72459 42.048 6.72139 42.0416C6.64126 41.955 6.55792 41.8717 6.48421 41.782C6.33677 41.6185 6.19254 41.4582 6.05472 41.2916C6.00664 41.2403 5.96177 41.1858 5.9169 41.1377C5.5419 40.6922 5.17972 40.2339 4.83677 39.7659C4.64446 39.5031 4.45857 39.2371 4.27587 38.9647C4.24382 38.9198 4.21177 38.8717 4.17972 38.8268C4.12844 38.7499 4.07716 38.673 4.02587 38.5929C4.02267 38.5833 4.01946 38.58 4.01305 38.5704C3.73421 38.1409 3.46818 37.705 3.22139 37.2595C3.19254 37.2115 3.16049 37.157 3.13485 37.0993C2.95856 36.7916 2.79831 36.4775 2.63805 36.1602C2.53549 35.9486 2.43292 35.7435 2.33357 35.532C1.99382 34.7948 1.68933 34.0448 1.4201 33.2788C1.29831 32.9262 1.17972 32.5704 1.07395 32.2082C1.06433 32.1794 1.05472 32.1538 1.04831 32.1217C1.02587 32.048 1.00344 31.9775 0.981001 31.9006C0.923309 31.6986 0.868822 31.4967 0.814334 31.2948C-0.871563 24.8493 0.0194623 17.7339 3.86882 11.6474C11.2438 -0.0257211 26.6829 -3.50649 38.3528 3.86851C50.0259 11.2435 53.5066 26.6826 46.1316 38.3493Z"/>
</mask>
<path d="M46.1316 38.3493C45.3752 39.5448 44.5355 40.6538 43.622 41.6762C42.9714 42.4038 42.2855 43.0865 41.5643 43.7275C41.5098 43.7756 41.4522 43.8268 41.3945 43.8749C41.2823 43.9711 41.1669 44.0704 41.0547 44.1634C40.9682 44.2339 40.8816 44.3076 40.7919 44.3781C40.7086 44.4454 40.6252 44.5127 40.5419 44.58C40.5419 44.58 40.5387 44.58 40.5355 44.5833C40.09 44.939 39.6316 45.2788 39.1669 45.5961C39.0932 45.6474 39.0163 45.6986 38.9393 45.7467C38.7855 45.8493 38.6316 45.9518 38.4778 46.0512C38.3175 46.1538 38.1573 46.2531 37.997 46.3525C37.9137 46.4038 37.8304 46.4518 37.747 46.4999C37.6188 46.58 37.4842 46.657 37.3528 46.7307C37.3496 46.7307 37.3464 46.7339 37.34 46.7371C37.2118 46.8108 37.0772 46.8845 36.9457 46.9582C36.8496 47.0127 36.7502 47.064 36.6445 47.1153C36.6348 47.1185 36.6252 47.1281 36.6124 47.1313C36.324 47.282 36.0355 47.4262 35.7438 47.564C35.5483 47.6602 35.3528 47.7499 35.1573 47.8333C35.1028 47.8589 35.0451 47.8845 34.9874 47.9102C34.9682 47.9198 34.9425 47.9294 34.9233 47.939C34.8977 47.9518 34.872 47.9615 34.8464 47.9711C34.7887 47.9967 34.731 48.0224 34.6733 48.0448C34.5034 48.1153 34.3368 48.1826 34.1669 48.2499C34.1413 48.2627 34.1124 48.2724 34.0868 48.282C34.0163 48.3076 33.9457 48.3365 33.8752 48.3621C33.8624 48.3653 33.8528 48.3717 33.84 48.3749C33.8272 48.3813 33.8111 48.3877 33.7983 48.3909C33.7342 48.4198 33.6637 48.4422 33.5964 48.4679C33.5515 48.4839 33.5098 48.4999 33.4618 48.5159C33.4329 48.5288 33.4009 48.5384 33.3688 48.5512C33.3432 48.5608 33.3143 48.5704 33.2887 48.58C33.1445 48.6313 33.0002 48.6794 32.856 48.7275C32.6541 48.7916 32.4522 48.8557 32.2534 48.9166C32.2534 48.9166 32.2502 48.9166 32.247 48.9166C32.2214 48.9262 32.199 48.9294 32.1733 48.939C32.1284 48.9518 32.0868 48.9647 32.0419 48.9775C32.0259 48.9807 32.0098 48.9871 31.9938 48.9903C31.8977 49.0191 31.8047 49.0448 31.7086 49.0704C31.6893 49.0736 31.6637 49.0832 31.6445 49.0865C31.5996 49.0993 31.5483 49.1121 31.5002 49.1249C31.4522 49.1377 31.4041 49.1506 31.356 49.1634C31.2502 49.1922 31.1413 49.2179 31.0355 49.2467C31.0034 49.2531 30.9714 49.2627 30.9393 49.2691C30.9137 49.2756 30.8913 49.282 30.8656 49.2884C30.7214 49.3236 30.5707 49.3589 30.4265 49.3909C30.3688 49.4038 30.3111 49.4166 30.2502 49.4294C30.1188 49.4582 29.9874 49.4871 29.856 49.5127C29.8528 49.5127 29.8464 49.5127 29.8432 49.5127C29.8207 49.5159 29.7951 49.5224 29.7727 49.5256C29.5707 49.564 29.3688 49.6025 29.1669 49.6345C28.8015 49.6954 28.4361 49.7499 28.0675 49.7948C27.9874 49.8076 27.9041 49.814 27.8239 49.8236C27.6829 49.8397 27.5451 49.8525 27.4041 49.8653C27.3175 49.8749 27.2278 49.8845 27.1413 49.8909C26.9874 49.907 26.84 49.9166 26.6861 49.9262C26.5355 49.939 26.3848 49.9454 26.2342 49.9518C25.9938 49.9679 25.7566 49.9743 25.5131 49.9775H25.5098C25.4618 49.9775 25.4105 49.9807 25.3656 49.9775C25.3528 49.9775 25.3432 49.9775 25.3304 49.9775C25.2759 49.9775 25.2182 49.9775 25.1637 49.9775C25.1092 49.9775 25.0579 49.9807 25.0002 49.9807C24.9361 49.9807 24.872 49.9807 24.8047 49.9807C24.7631 49.9807 24.7182 49.9807 24.6765 49.9807C24.4618 49.9807 24.2438 49.9743 24.0291 49.9615C23.6509 49.9486 23.2727 49.923 22.8945 49.8941C22.824 49.8877 22.7534 49.8813 22.6829 49.8717C22.5868 49.8621 22.4906 49.8525 22.3945 49.8429C21.9105 49.798 21.4297 49.7307 20.949 49.6538C20.7631 49.6217 20.5772 49.5897 20.3913 49.5544C20.3336 49.5416 20.2727 49.532 20.2118 49.5191C20.1573 49.5095 20.106 49.4999 20.0515 49.4903C20.0323 49.4871 20.0131 49.4775 19.9938 49.4775C19.9041 49.4582 19.8143 49.439 19.7214 49.4198C19.6957 49.4166 19.6701 49.407 19.6445 49.4038C19.5387 49.3813 19.4361 49.3589 19.3304 49.3332C18.9425 49.2435 18.5579 49.1441 18.1733 49.0352C18.1348 49.0224 18.0964 49.0127 18.0611 49.0031C18.0323 48.9967 18.0066 48.9871 17.9778 48.9775C17.5355 48.8493 17.0964 48.7082 16.6573 48.548C16.5932 48.5256 16.5291 48.5031 16.465 48.4775C16.372 48.4454 16.2823 48.4102 16.1925 48.3749C16.0772 48.33 15.9618 48.2884 15.8464 48.2403C15.7695 48.2115 15.6957 48.1794 15.622 48.1506C15.5675 48.1313 15.5163 48.1089 15.465 48.0865C15.4329 48.0736 15.4041 48.0608 15.3688 48.048C15.3656 48.048 15.3592 48.0448 15.356 48.0416C15.3368 48.0352 15.3175 48.0288 15.3015 48.0191C15.2855 48.0127 15.2663 48.0063 15.2502 47.9967C15.2278 47.9871 15.2086 47.9807 15.1893 47.9711C15.1092 47.939 15.0323 47.9038 14.9522 47.8653C14.9201 47.8525 14.8913 47.8365 14.8592 47.8204C14.7823 47.7852 14.7054 47.7531 14.6316 47.7179C14.5611 47.689 14.4938 47.657 14.4265 47.6249C14.372 47.6025 14.3207 47.5768 14.2663 47.5544C14.1541 47.4999 14.0451 47.4454 13.9361 47.3909C13.8464 47.3461 13.7566 47.298 13.6669 47.2531C13.6509 47.2467 13.6316 47.2371 13.6156 47.2275C13.5131 47.1762 13.4073 47.1185 13.3047 47.064C13.2951 47.064 13.2855 47.0544 13.2759 47.048C13.2598 47.0416 13.247 47.032 13.231 47.0224C13.122 46.9679 13.0163 46.9102 12.9105 46.8525C12.8592 46.8236 12.8111 46.798 12.7598 46.7659C12.747 46.7595 12.7342 46.7531 12.7214 46.7435C12.6573 46.705 12.5932 46.6698 12.5259 46.6313C12.5131 46.6281 12.497 46.6185 12.481 46.6057C12.4169 46.5704 12.3528 46.5352 12.2855 46.4935C12.2246 46.455 12.1637 46.423 12.1028 46.3813C12.1028 46.3813 12.0964 46.3813 12.0932 46.3749C12.074 46.3653 12.0547 46.3525 12.0323 46.3397C12.0034 46.3204 11.9714 46.3012 11.9425 46.2852C11.8848 46.2499 11.8272 46.2147 11.7727 46.1826C11.7342 46.1602 11.699 46.1377 11.6605 46.1121C11.622 46.0897 11.5836 46.064 11.5483 46.0416C11.4714 45.9935 11.3945 45.9422 11.3207 45.8941C11.3079 45.8845 11.2919 45.8749 11.2759 45.8653C11.2631 45.8589 11.2534 45.8493 11.2406 45.8429C11.2278 45.8332 11.215 45.8268 11.2022 45.8172L11.1797 45.8044C11.1797 45.8044 11.1733 45.8012 11.1701 45.8012C11.1028 45.7595 11.0419 45.7179 10.9778 45.6698C10.8977 45.6217 10.8207 45.5672 10.7438 45.5127C10.7406 45.5095 10.731 45.5063 10.7278 45.4999C10.7182 45.4967 10.7086 45.4871 10.699 45.4807C10.6637 45.455 10.6316 45.4326 10.5996 45.4102C10.5675 45.3877 10.5355 45.3653 10.5034 45.3461C10.4522 45.3076 10.4009 45.2756 10.3528 45.2403C10.3464 45.2403 10.34 45.2307 10.3368 45.2275C10.1413 45.0897 9.95216 44.9486 9.76626 44.8012C9.64446 44.7082 9.52267 44.6153 9.40408 44.5224C9.25985 44.407 9.11562 44.2884 8.97459 44.1698C8.95536 44.1506 8.92972 44.1313 8.90728 44.1153C8.70857 43.9518 8.51305 43.7788 8.32074 43.6025C8.1669 43.4679 8.01626 43.33 7.86882 43.189C7.82395 43.1506 7.78228 43.1089 7.74062 43.0672C7.62523 42.9615 7.51305 42.8525 7.40408 42.7403C7.33357 42.6762 7.26626 42.6089 7.19895 42.5384C7.06113 42.4006 6.92972 42.2595 6.7951 42.1185C6.77267 42.0961 6.75344 42.0768 6.73421 42.0544C6.73421 42.0512 6.72459 42.048 6.72139 42.0416C6.64126 41.955 6.55792 41.8717 6.48421 41.782C6.33677 41.6185 6.19254 41.4582 6.05472 41.2916C6.00664 41.2403 5.96177 41.1858 5.9169 41.1377C5.5419 40.6922 5.17972 40.2339 4.83677 39.7659C4.64446 39.5031 4.45857 39.2371 4.27587 38.9647C4.24382 38.9198 4.21177 38.8717 4.17972 38.8268C4.12844 38.7499 4.07716 38.673 4.02587 38.5929C4.02267 38.5833 4.01946 38.58 4.01305 38.5704C3.73421 38.1409 3.46818 37.705 3.22139 37.2595C3.19254 37.2115 3.16049 37.157 3.13485 37.0993C2.95856 36.7916 2.79831 36.4775 2.63805 36.1602C2.53549 35.9486 2.43292 35.7435 2.33357 35.532C1.99382 34.7948 1.68933 34.0448 1.4201 33.2788C1.29831 32.9262 1.17972 32.5704 1.07395 32.2082C1.06433 32.1794 1.05472 32.1538 1.04831 32.1217C1.02587 32.048 1.00344 31.9775 0.981001 31.9006C0.923309 31.6986 0.868822 31.4967 0.814334 31.2948C-0.871563 24.8493 0.0194623 17.7339 3.86882 11.6474C11.2438 -0.0257211 26.6829 -3.50649 38.3528 3.86851C50.0259 11.2435 53.5066 26.6826 46.1316 38.3493Z" fill="#F7F2DA" stroke="#E85D04" stroke-width="2" mask="url(#path-1-inside-1_104_144)"/>
<path d="M15.8393 41.2083L12.4963 46.5769L12.4675 46.6218C12.4034 46.5866 12.3393 46.5513 12.272 46.5096C12.2111 46.4712 12.1502 46.4391 12.0893 46.3974C12.0893 46.3974 12.0829 46.3974 12.0797 46.391C12.0604 46.3814 12.0412 46.3686 12.0188 46.3558C11.9899 46.3365 11.9579 46.3173 11.929 46.3013C11.8713 46.266 11.8137 46.2308 11.7592 46.1987C11.7207 46.1763 11.6854 46.1539 11.647 46.1282C11.6085 46.1058 11.5701 46.0801 11.5348 46.0577C11.4579 46.0096 11.381 45.9583 11.3072 45.9103C11.2944 45.9007 11.2784 45.891 11.2624 45.8814C11.2495 45.875 11.2399 45.8654 11.2271 45.859C11.2143 45.8494 11.2015 45.843 11.1887 45.8333L11.1662 45.8205C11.1662 45.8205 11.1598 45.8173 11.1566 45.8173C11.0893 45.7756 11.0284 45.734 10.9643 45.6859C10.8842 45.6378 10.8072 45.5833 10.7303 45.5289C10.7271 45.5257 10.7175 45.5224 10.7143 45.516C10.7047 45.5128 10.6951 45.5032 10.6854 45.4968C10.6502 45.4712 10.6181 45.4487 10.5861 45.4263C10.554 45.4039 10.522 45.3814 10.4899 45.3622C10.4387 45.3237 10.3874 45.2917 10.3393 45.2564C10.3329 45.2564 10.3265 45.2468 10.3233 45.2436C10.1278 45.1058 9.93865 44.9648 9.75275 44.8173C9.63096 44.7244 9.50916 44.6314 9.39057 44.5385C9.24634 44.4231 9.10211 44.3045 8.96109 44.1859C8.94186 44.1667 8.91622 44.1474 8.89378 44.1314C8.69506 43.968 8.49955 43.7949 8.30724 43.6186C8.1534 43.484 8.00275 43.3462 7.85532 43.2051C7.81045 43.1667 7.76878 43.125 7.72711 43.0833C7.61173 42.9776 7.49955 42.8686 7.39057 42.7564C7.32006 42.6923 7.25275 42.625 7.18545 42.5545C7.04763 42.4167 6.91622 42.2757 6.7816 42.1346C6.75916 42.1122 6.73993 42.093 6.7207 42.0705C6.7207 42.0673 6.71109 42.0641 6.70788 42.0577C6.62775 41.9712 6.54442 41.8878 6.4707 41.7981C6.58288 41.7308 6.69186 41.6667 6.80724 41.6026C6.95468 41.5192 7.10211 41.4391 7.25275 41.3654C7.41622 41.2821 7.58288 41.2051 7.74955 41.1314C8.46109 40.8205 9.19506 40.5833 9.95147 40.4391C9.98032 40.4359 10.006 40.4295 10.0348 40.4231C10.9643 40.2564 11.9226 40.2244 12.9002 40.3526C12.9451 40.359 12.9899 40.3654 13.038 40.3718C13.0476 40.3718 13.0572 40.375 13.0669 40.3782C13.1053 40.3814 13.147 40.391 13.1854 40.3942C13.3265 40.4167 13.4675 40.4455 13.6085 40.4744C13.6502 40.484 13.6951 40.4936 13.7367 40.5032C13.7784 40.5128 13.8233 40.5224 13.8649 40.5321C14.5188 40.6859 15.1758 40.9103 15.8329 41.2148L15.8393 41.2083Z" fill="#FBA479"/>
<path d="M41.56 43.7276C41.5056 43.7757 41.4479 43.827 41.3902 43.8751C41.278 43.9712 41.1626 44.0706 41.0504 44.1635C40.9639 44.234 40.8774 44.3078 40.7876 44.3783C40.7043 44.4456 40.6209 44.5129 40.5376 44.5802C40.5376 44.5802 40.5344 44.5802 40.5312 44.5834C40.0857 44.9392 39.6274 45.2789 39.1626 45.5962C39.0889 45.6475 39.012 45.6988 38.935 45.7469C38.7812 45.8494 38.6274 45.952 38.4735 46.0513C38.3133 46.1539 38.153 46.2533 37.9927 46.3526C37.9094 46.4039 37.8261 46.452 37.7427 46.5001C37.6145 46.5802 37.4799 46.6571 37.3485 46.7308C37.3453 46.7308 37.3421 46.734 37.3357 46.7372C37.2075 46.811 37.0729 46.8847 36.9415 46.9584C36.8453 47.0129 36.7459 47.0642 36.6402 47.1155C36.6306 47.1187 36.6209 47.1283 36.6081 47.1315C36.3197 47.2821 36.0312 47.4263 35.7395 47.5642C35.544 47.6603 35.3485 47.7501 35.153 47.8334C35.0985 47.859 35.0408 47.8847 34.9831 47.9103C34.9639 47.9199 34.9383 47.9296 34.919 47.9392C34.8934 47.952 34.8677 47.9616 34.8421 47.9712C34.7844 47.9969 34.7267 48.0225 34.669 48.0449C34.4991 48.1154 34.3325 48.1828 34.1626 48.2501C34.137 48.2629 34.1081 48.2725 34.0825 48.2821C34.012 48.3078 33.9415 48.3366 33.8709 48.3622C33.8581 48.3655 33.8485 48.3719 33.8357 48.3751C33.8229 48.3815 33.8068 48.3879 33.794 48.3911C33.7299 48.4199 33.6594 48.4424 33.5921 48.468C33.5472 48.484 33.5056 48.5001 33.4575 48.5161C33.4286 48.5289 33.3966 48.5385 33.3645 48.5513C33.3389 48.561 33.31 48.5706 33.2844 48.5802C33.1402 48.6315 32.9959 48.6796 32.8517 48.7276C32.6498 48.7917 32.4479 48.8558 32.2492 48.9167C32.2492 48.9167 32.2459 48.9167 32.2427 48.9167C32.2171 48.9263 32.1947 48.9296 32.169 48.9392C32.1242 48.952 32.0825 48.9648 32.0376 48.9776C32.0216 48.9808 32.0056 48.9872 31.9895 48.9905C31.8934 49.0193 31.8004 49.0449 31.7043 49.0706C31.685 49.0738 31.6594 49.0834 31.6402 49.0866C31.5953 49.0994 31.544 49.1122 31.4959 49.1251C31.4479 49.1379 31.3998 49.1507 31.3517 49.1635C31.2459 49.1924 31.137 49.218 31.0312 49.2469C30.9991 49.2533 30.9671 49.2629 30.935 49.2693C30.9094 49.2757 30.887 49.2821 30.8613 49.2885C30.7171 49.3238 30.5665 49.359 30.4222 49.3911C30.3645 49.4039 30.3068 49.4167 30.2459 49.4296C30.1145 49.4584 29.9831 49.4872 29.8517 49.5129C29.8485 49.5129 29.8421 49.5129 29.8389 49.5129C29.8165 49.5161 29.7908 49.5225 29.7684 49.5257C29.5665 49.5642 29.3645 49.6026 29.1626 49.6347C28.7972 49.6956 28.4318 49.7501 28.0633 49.7949C27.9831 49.8078 27.8998 49.8142 27.8197 49.8238C27.6786 49.8398 27.5408 49.8526 27.3998 49.8655C27.3133 49.8751 27.2235 49.8847 27.137 49.8911C26.9831 49.9071 26.8357 49.9167 26.6818 49.9264C26.5312 49.9392 26.3806 49.9456 26.2299 49.952C25.9895 49.968 25.7524 49.9744 25.5088 49.9776H25.5056C25.4575 49.9776 25.4062 49.9808 25.3613 49.9776C25.3485 49.9776 25.3389 49.9776 25.3261 49.9776C25.2716 49.9776 25.2139 49.9776 25.1594 49.9776C25.1049 49.9776 25.0536 49.9808 24.9959 49.9808C24.9318 49.9808 24.8677 49.9808 24.8004 49.9808C24.7588 49.9808 24.7139 49.9808 24.6722 49.9808C24.4575 49.9808 24.2395 49.9744 24.0248 49.9616C23.6466 49.9488 23.2684 49.9231 22.8902 49.8943C22.8197 49.8879 22.7492 49.8815 22.6786 49.8719C22.5825 49.8622 22.4863 49.8526 22.3902 49.843C21.9062 49.7981 21.4254 49.7308 20.9447 49.6539C20.7588 49.6219 20.5729 49.5898 20.387 49.5546C20.3293 49.5417 20.2684 49.5321 20.2075 49.5193C20.153 49.5097 20.1017 49.5001 20.0472 49.4905C20.028 49.4872 20.0088 49.4776 19.9895 49.4776C19.8998 49.4584 19.81 49.4392 19.7171 49.4199C19.6915 49.4167 19.6658 49.4071 19.6402 49.4039C19.5344 49.3815 19.4318 49.359 19.3261 49.3334C18.9383 49.2437 18.5536 49.1443 18.169 49.0353C18.1306 49.0225 18.0921 49.0129 18.0568 49.0033C18.028 48.9969 18.0024 48.9872 17.9735 48.9776C17.5312 48.8494 17.0921 48.7084 16.653 48.5481C16.5889 48.5257 16.5248 48.5033 16.4607 48.4776C16.3677 48.4456 16.278 48.4103 16.1883 48.3751C16.0729 48.3302 15.9575 48.2885 15.8421 48.2404C15.7652 48.2116 15.6915 48.1796 15.6177 48.1507C15.5633 48.1315 15.512 48.109 15.4607 48.0866C15.4286 48.0738 15.3998 48.061 15.3645 48.0481C15.3613 48.0481 15.3549 48.0449 15.3517 48.0417C15.3325 48.0353 15.3133 48.0289 15.2972 48.0193C15.2812 48.0129 15.262 48.0065 15.2459 47.9969C15.2235 47.9872 15.2043 47.9808 15.185 47.9712C15.1049 47.9392 15.028 47.9039 14.9479 47.8655C14.9158 47.8526 14.887 47.8366 14.8549 47.8206C14.778 47.7853 14.7011 47.7533 14.6274 47.718C14.5568 47.6892 14.4895 47.6571 14.4222 47.6251C14.3677 47.6026 14.3165 47.577 14.262 47.5546C14.1498 47.5001 14.0408 47.4456 13.9318 47.3911C13.8421 47.3462 13.7524 47.2981 13.6626 47.2533C13.6466 47.2469 13.6274 47.2372 13.6113 47.2276C13.5088 47.1764 13.403 47.1187 13.3004 47.0642C13.2908 47.0642 13.2812 47.0546 13.2716 47.0481C13.2556 47.0417 13.2427 47.0321 13.2267 47.0225C13.1177 46.968 13.012 46.9103 12.9062 46.8526C12.8549 46.8238 12.8068 46.7981 12.7556 46.7661C12.7427 46.7597 12.7299 46.7533 12.7171 46.7437C12.653 46.7052 12.5889 46.6699 12.5216 46.6315C12.5088 46.6283 12.4927 46.6187 12.4767 46.6058C12.4126 46.5706 12.3485 46.5353 12.2812 46.4937C12.2203 46.4552 12.1594 46.4231 12.0985 46.3815C12.0985 46.3815 12.0921 46.3815 12.0889 46.3751C12.0697 46.3655 12.0504 46.3526 12.028 46.3398C11.9991 46.3206 11.9671 46.3014 11.9383 46.2853C11.8806 46.2501 11.8229 46.2148 11.7684 46.1828C11.7299 46.1603 11.6947 46.1379 11.6562 46.1122C11.6177 46.0898 11.5793 46.0642 11.544 46.0417C11.4671 45.9937 11.3902 45.9424 11.3165 45.8943C11.3036 45.8847 11.2876 45.8751 11.2716 45.8655C11.2588 45.859 11.2491 45.8494 11.2363 45.843C11.2235 45.8334 11.2107 45.827 11.1979 45.8174L11.1754 45.8046C11.1754 45.8046 11.169 45.8013 11.1658 45.8013C11.0985 45.7597 11.0376 45.718 10.9735 45.6699C10.8934 45.6219 10.8165 45.5674 10.7395 45.5129C10.7363 45.5097 10.7267 45.5065 10.7235 45.5001C10.7139 45.4969 10.7043 45.4872 10.6947 45.4808C10.6594 45.4552 10.6274 45.4328 10.5953 45.4103C10.5633 45.3879 10.5312 45.3654 10.4991 45.3462C10.4479 45.3078 10.3966 45.2757 10.3485 45.2404C10.3421 45.2404 10.3357 45.2308 10.3325 45.2276C10.137 45.0898 9.94787 44.9488 9.76197 44.8013C9.64017 44.7084 9.51838 44.6155 9.39979 44.5225C9.25556 44.4071 9.11133 44.2885 8.9703 44.1699C8.95107 44.1507 8.92543 44.1315 8.903 44.1155C8.70428 43.952 8.50876 43.7789 8.31646 43.6026C8.16261 43.468 8.01197 43.3302 7.86453 43.1892C7.81966 43.1507 7.77799 43.109 7.73633 43.0674C8.30684 42.1058 9.07928 41.2244 9.95748 40.4263C9.9703 40.4135 9.98312 40.4039 9.99594 40.3911C10.3293 40.0898 10.6786 39.8013 11.0376 39.5225C11.0665 39.5001 11.0985 39.4744 11.1306 39.452C11.1594 39.4263 11.1915 39.4039 11.2235 39.3815C11.4959 39.1764 11.7748 38.9744 12.0536 38.7789C12.4158 38.5289 12.7812 38.2885 13.1498 38.0578C14.9447 36.9296 16.7491 36.0449 18.012 35.3783C18.2331 35.2597 18.4415 35.1507 18.6241 35.0449C18.7588 34.9712 18.8806 34.9007 18.9927 34.8334C19.0504 34.7981 19.1049 34.7629 19.1562 34.7308C19.2107 34.6956 19.262 34.6603 19.31 34.6283C19.3165 34.6283 19.3261 34.6283 19.3325 34.6283C19.5857 34.6603 19.8613 34.7052 20.1402 34.7597L20.2812 34.9071L20.4254 35.0578L21.2139 35.8847L21.8806 36.5802L21.9607 36.6667L22.044 36.7533L24.2139 39.0257L24.2331 38.984L26.0536 35.5033L26.8581 33.968C26.9703 34.1122 27.2491 34.2693 27.6626 34.4424C28.2363 34.6796 29.0633 34.952 30.0312 35.2757C31.3774 35.7308 32.9927 36.2821 34.5921 36.9937C34.5985 36.9937 34.6081 37.0001 34.6145 37.0065C35.7908 37.5289 36.9511 38.1411 37.9831 38.859C38.0024 38.8719 38.0216 38.8879 38.0408 38.9007C38.0472 38.9039 38.0536 38.9103 38.06 38.9135C39.8229 40.1571 41.1915 41.7212 41.56 43.7148V43.7276Z" fill="#FBA479"/>
<path d="M38.0736 38.9071C38.0736 38.9071 38.0672 38.92 38.0608 38.9232C37.8268 39.2597 37.6185 39.6315 37.4326 40.0289C36.3268 42.3462 35.9294 45.5129 35.7371 47.5674C35.5416 47.6636 35.3461 47.7533 35.1505 47.8366C35.0961 47.8623 35.0384 47.8879 34.9807 47.9136C34.9614 47.9232 34.9358 47.9328 34.9166 47.9424C34.8909 47.9552 34.8653 47.9648 34.8396 47.9744C34.782 48.0001 34.7243 48.0257 34.6666 48.0482C34.4967 48.1187 34.33 48.186 34.1602 48.2533C34.1345 48.2661 34.1057 48.2757 34.08 48.2853C34.0095 48.311 33.939 48.3398 33.8685 48.3655C33.8557 48.3687 33.8461 48.3751 33.8332 48.3783C33.8204 48.3847 33.8044 48.3911 33.7916 48.3943C33.7275 48.4232 33.657 48.4456 33.5896 48.4712C33.5448 48.4873 33.5031 48.5033 33.455 48.5193C33.4262 48.5321 33.3941 48.5418 33.3621 48.5546C33.3364 48.5642 33.3076 48.5738 33.282 48.5834C33.1377 48.6347 32.9935 48.6828 32.8493 48.7309C32.6473 48.795 32.4454 48.8591 32.2467 48.92C32.2467 48.92 32.2435 48.92 32.2403 48.92C32.2146 48.9296 32.1922 48.9328 32.1666 48.9424C32.1217 48.9552 32.08 48.968 32.0352 48.9809C32.0191 48.9841 32.0031 48.9905 31.9871 48.9937C31.8909 49.0225 31.798 49.0482 31.7018 49.0738C31.6826 49.077 31.657 49.0866 31.6377 49.0898C31.5928 49.1027 31.5416 49.1155 31.4935 49.1283C31.4454 49.1411 31.3973 49.1539 31.3493 49.1668C31.2435 49.1956 31.1345 49.2212 31.0287 49.2501C30.9967 49.2565 30.9646 49.2661 30.9326 49.2725C30.907 49.2789 30.8845 49.2853 30.8589 49.2918C30.7146 49.327 30.564 49.3623 30.4198 49.3943C30.3621 49.4071 30.3044 49.42 30.2435 49.4328C30.1121 49.4616 29.9807 49.4905 29.8493 49.5161C29.8461 49.5161 29.8396 49.5161 29.8364 49.5161C29.814 49.5193 29.7884 49.5257 29.7659 49.5289C29.564 49.5674 29.3621 49.6059 29.1602 49.6379C28.7948 49.6988 28.4294 49.7533 28.0608 49.7982C27.9807 49.811 27.8973 49.8174 27.8172 49.827C27.6762 49.843 27.5384 49.8559 27.3973 49.8687C27.3108 49.8783 27.2211 49.8879 27.1345 49.8943C26.9807 49.9103 26.8332 49.92 26.6794 49.9296C26.5287 49.9424 26.3781 49.9488 26.2275 49.9552C25.9871 49.9712 25.7499 49.9777 25.5063 49.9809H25.5031C25.455 49.9809 25.4037 49.9841 25.3589 49.9809C25.3461 49.9809 25.3364 49.9809 25.3236 49.9809C25.2691 49.9809 25.2114 49.9809 25.157 49.9809C25.1025 49.9809 25.0512 49.9841 24.9935 49.9841C24.9294 49.9841 24.8653 49.9841 24.798 49.9841C24.7563 49.9841 24.7114 49.9841 24.6698 49.9841C24.455 49.9841 24.2371 49.9777 24.0223 49.9648C23.6441 49.952 23.2659 49.9264 22.8877 49.8975C22.8172 49.8911 22.7467 49.8847 22.6762 49.8751C22.58 49.8655 22.4839 49.8559 22.3877 49.8462C21.9037 49.8014 21.423 49.7341 20.9422 49.6571C20.7563 49.6251 20.5704 49.593 20.3845 49.5578C20.3268 49.545 20.2659 49.5353 20.205 49.5225C20.1505 49.5129 20.0993 49.5033 20.0448 49.4937C20.0255 49.4905 20.0063 49.4809 19.9871 49.4809C19.8973 49.4616 19.8076 49.4424 19.7146 49.4232C19.689 49.42 19.6634 49.4103 19.6377 49.4071C19.532 49.3847 19.4294 49.3623 19.3236 49.3366C18.9358 49.2469 18.5512 49.1475 18.1666 49.0386C18.1281 49.0257 18.0896 49.0161 18.0544 49.0065C18.0255 49.0001 17.9999 48.9905 17.9711 48.9809C17.5287 48.8527 17.0896 48.7116 16.6505 48.5514C16.5864 48.5289 16.5223 48.5065 16.4582 48.4809C16.3653 48.4488 16.2755 48.4136 16.1858 48.3783C16.0704 48.3334 15.955 48.2918 15.8396 48.2437C15.7627 48.2148 15.689 48.1828 15.6153 48.1539C15.5608 48.1347 15.5095 48.1123 15.4582 48.0898C15.4262 48.077 15.3973 48.0642 15.3621 48.0514C15.3589 48.0514 15.3525 48.0482 15.3493 48.045C15.33 48.0386 15.3108 48.0321 15.2948 48.0225C15.2787 48.0161 15.2595 48.0097 15.2435 48.0001C15.2211 47.9905 15.2018 47.9841 15.1826 47.9744C15.1025 47.9424 15.0255 47.9071 14.9454 47.8687C14.9134 47.8559 14.8845 47.8398 14.8525 47.8238C14.7755 47.7886 14.6986 47.7565 14.6249 47.7212C14.5544 47.6924 14.4871 47.6604 14.4198 47.6283C14.3653 47.6059 14.314 47.5802 14.2595 47.5578C14.1473 47.5033 14.0384 47.4488 13.9294 47.3943C13.8396 47.3494 13.7499 47.3014 13.6602 47.2565C13.6441 47.2501 13.6249 47.2405 13.6089 47.2309C13.5063 47.1796 13.4005 47.1219 13.298 47.0674C13.2884 47.0674 13.2787 47.0578 13.2691 47.0514C13.2531 47.045 13.2403 47.0353 13.2243 47.0257C13.1153 46.9712 13.0095 46.9136 12.9037 46.8559C12.8525 46.827 12.8044 46.8014 12.7531 46.7693C12.7403 46.7629 12.7275 46.7565 12.7146 46.7469C12.6505 46.7084 12.5864 46.6732 12.5191 46.6347C12.5159 46.6123 12.5095 46.5866 12.5031 46.5642C12.4903 46.4969 12.4743 46.4296 12.4582 46.3591C11.9775 44.3238 11.2339 41.9841 10.0512 40.4071C10.0448 40.4007 10.0384 40.3943 10.0352 40.3847C10.9999 39.5129 12.0928 38.7405 13.1858 38.0514C15.3076 40.936 19.4326 42.795 24.0896 42.593C28.8044 42.3879 32.7948 40.1251 34.6281 37.0033C34.6281 37.0001 34.6313 36.9969 34.6345 36.9905C35.8204 37.5193 36.9935 38.1347 38.0352 38.8591C38.0512 38.8719 38.0672 38.8815 38.0832 38.8943L38.0736 38.9071Z" fill="white"/>
<path d="M24.9705 45.1316C24.8968 45.9649 24.8968 47.9233 24.791 49.997C24.8551 49.997 24.9192 49.997 24.9865 49.997C25.041 49.997 25.0955 49.997 25.15 49.9938C25.2045 49.9938 25.2622 49.9938 25.3167 49.9938C25.3295 49.9938 25.3391 49.9938 25.3519 49.9938C25.3968 49.9938 25.4481 49.9938 25.4961 49.9938C25.1981 47.981 25.0122 46.0419 24.9737 45.1348L24.9705 45.1316Z" fill="#E1DFEA"/>
<path d="M38.9391 45.7502C38.7853 45.8528 38.6314 45.9554 38.4776 46.0547C38.3173 46.1573 38.1571 46.2566 37.9968 46.356C37.9135 46.4073 37.8301 46.4554 37.7468 46.5034L37.4359 40.0291L37.375 38.8015C37.5833 38.8175 37.7885 38.84 37.9872 38.8656C38 38.8656 38.0128 38.8688 38.0256 38.8688C40.3301 39.1861 42.1891 40.2022 43.6186 41.6701C42.9679 42.3977 42.2821 43.0804 41.5609 43.7214C41.5064 43.7695 41.4487 43.8207 41.391 43.8688C41.2788 43.965 41.1635 44.0643 41.0513 44.1573C40.9647 44.2278 40.8782 44.3015 40.7885 44.372C40.7051 44.4393 40.6218 44.5066 40.5385 44.574C40.5385 44.574 40.5353 44.574 40.5321 44.5772C40.0865 44.9329 39.6282 45.2727 39.1635 45.59C39.0897 45.6413 39.0128 45.6925 38.9359 45.7406L38.9391 45.7502Z" fill="#FBA479"/>
<path d="M16.8328 26.013C17.8905 22.3046 19.5956 18.3335 20.6116 14.763C20.6116 14.763 24.3616 13.295 24.9193 13.2373C25.2687 13.2021 25.6213 13.1989 25.9706 13.2309C26.3136 13.3142 26.6469 13.4296 26.9642 13.5771C27.4706 13.811 30.5411 16.42 30.5411 16.42C30.3424 20.1251 30.5315 24.17 30.3264 28.0194C30.2431 29.5899 29.7751 31.4104 28.4001 32.3046C26.4225 33.5931 26.4161 35.7437 23.6982 35.2918C19.7046 34.6251 18.6373 31.1027 17.7495 29.5033C16.9514 28.0707 16.4001 27.5226 16.8296 26.0098L16.8328 26.013Z" fill="#FBA479"/>
<path d="M23.9174 20.2565C23.7507 20.154 23.4366 19.9809 23.4366 19.9809L22.9045 20.295C22.9045 20.295 22.9911 19.795 22.8981 19.7501C20.4622 18.6219 19.5039 19.8206 19.5039 19.8206C20.2251 19.9104 20.9494 20.1027 21.6257 20.4136C22.5552 20.8431 23.0488 21.2854 23.3981 21.92C23.6225 21.4008 23.8148 20.8527 23.9174 20.2565Z" fill="#261411"/>
<path d="M26.0002 20.5451C26.1861 20.4906 26.5387 20.4105 26.5387 20.4105L26.965 20.856C26.965 20.856 27.0195 20.3496 27.1188 20.3336C29.7695 19.9137 30.3656 21.3271 30.3656 21.3271C29.6477 21.2182 28.8977 21.2021 28.1605 21.3175C27.1477 21.4746 26.5547 21.7662 26.0451 22.2823C25.9714 21.7214 25.9361 21.1444 26.0002 20.5419V20.5451Z" fill="#261411"/>
<path d="M19.6758 22.3494C19.6758 22.3494 19.6758 22.3494 19.6758 22.3526C19.6854 22.3814 19.695 22.4103 19.7046 22.4391C20.0989 23.359 22.3457 23.8045 23.0892 23.4103C23.0412 22.3878 22.7014 21.4487 21.5924 21.5257C20.586 21.593 20.0732 21.5898 19.6758 22.343C19.6758 22.343 19.6758 22.3462 19.6758 22.3494Z" fill="white"/>
<path d="M22.1186 22.7212C22.0128 23.2179 21.6795 23.5865 21.3141 23.6635C21.2212 23.6827 21.125 23.6827 21.0289 23.6635C20.5609 23.5609 20.2885 22.9712 20.4231 22.3462C20.5577 21.7212 21.0449 21.3013 21.5128 21.4038C21.9391 21.4968 22.2019 21.9936 22.1474 22.5513C22.141 22.6058 22.1346 22.6635 22.1218 22.7212H22.1186Z" fill="#60312B"/>
<path d="M22.1188 22.7212C22.0131 23.218 21.6797 23.5866 21.3144 23.6635C21.199 23.5001 21.1541 23.2629 21.2086 23.0129C21.2951 22.6123 21.606 22.343 21.9073 22.4071C22.0003 22.4264 22.0804 22.4777 22.1477 22.5514C22.1413 22.6059 22.1349 22.6635 22.1221 22.7212H22.1188Z" fill="#261411"/>
<path d="M22.4642 22.6411L21.6758 22.7629C21.6758 22.7629 22.2495 23.1603 22.5764 23.2148C22.554 23.0225 22.5155 22.8302 22.4642 22.6411Z" fill="white"/>
<path d="M19.7073 22.4424C19.8643 22.8911 20.7073 24.811 23.1015 23.4937C23.3387 22.7982 23.1977 20.7789 21.3066 20.6027C19.9509 20.4745 19.7233 22.2245 19.6881 22.3238C19.6848 22.3302 19.6816 22.3398 19.6816 22.3462C20.0791 21.5962 21.015 21.5674 21.5791 21.6668C22.6945 21.8655 22.8868 22.4136 23.0951 23.4136C22.3547 23.8046 20.1079 23.3623 19.7105 22.4424H19.7073Z" fill="#EF7950"/>
<path d="M29.5967 23.7982C29.5806 23.8239 29.5646 23.8463 29.5454 23.8687C28.946 24.6091 26.7761 24.4296 26.1992 23.8783C26.5069 22.9553 27.0614 22.186 28.055 22.5418C28.9556 22.8655 29.4268 22.9937 29.5967 23.7854C29.5967 23.7854 29.5967 23.7886 29.5967 23.7918V23.7982Z" fill="white"/>
<path d="M27.8592 24.5386C27.7951 24.5546 27.7278 24.561 27.6605 24.5578C27.2054 24.5322 26.8688 24.0194 26.9073 23.4136C26.9458 22.8078 27.3496 22.3399 27.8047 22.3655C28.247 22.3911 28.5772 22.8719 28.5611 23.452C28.5611 23.4713 28.5611 23.4905 28.5611 23.5097C28.5259 24.0258 28.231 24.4424 27.8624 24.5386H27.8592Z" fill="#60312B"/>
<path d="M27.8597 24.5386C27.7123 24.4072 27.6225 24.1764 27.6386 23.92C27.6642 23.5322 27.9206 23.2309 28.2155 23.2469C28.3533 23.2566 28.4751 23.3335 28.5616 23.4553C28.5616 23.4745 28.5616 23.4937 28.5616 23.513C28.5264 24.029 28.2315 24.4457 27.8629 24.5418L27.8597 24.5386Z" fill="#261411"/>
<path d="M28.9042 23.468L28.1895 23.5802C28.1895 23.5802 28.5516 23.8302 28.8529 23.952C28.8721 23.7917 28.8882 23.6315 28.9042 23.4712V23.468Z" fill="white"/>
<path d="M29.5446 23.8719C29.2849 24.2405 28.0157 25.779 26.1696 23.952C26.1311 23.2533 26.7849 21.4456 28.5606 21.7726C29.833 22.0065 29.5862 23.6636 29.5958 23.7661C29.5958 23.7726 29.5958 23.7822 29.5958 23.7886C29.426 22.9969 28.7593 22.7277 28.2208 22.6732C27.1471 22.5642 26.6471 23.0193 26.1984 23.8815C26.7753 24.4328 28.9452 24.6091 29.5446 23.8719Z" fill="#EF7950"/>
<path d="M25.8741 26.2563C26.1241 26.2692 26.3388 26.4006 26.3485 26.673C26.3613 27.1474 25.5696 27.2243 25.2042 27.314C24.5119 27.4839 23.5824 27.3076 23.0664 26.8108C24.7811 27.2467 25.8773 26.2563 25.8773 26.2563H25.8741Z" fill="#EF7950"/>
<path d="M26.7678 21.9231C26.7678 21.9231 25.6076 24.7789 25.7967 26.7564C25.2646 25.9584 25.1877 23.4359 26.7678 21.9231Z" fill="#EF7950"/>
<path d="M19.914 13.7469C20.1288 13.4713 24.7698 9.7982 33.0486 11.811C33.9813 12.0386 31.5903 15.2982 31.5903 15.2982C30.507 16.9328 26.5198 17.1283 26.2409 17.0546C26.0166 16.9937 22.5647 14.4008 22.3499 14.2918C20.132 17.1572 17.9877 23.1604 17.7441 23.3431C17.9108 22.4296 17.7121 16.5642 19.914 13.7501V13.7469Z" fill="#261411"/>
<path d="M30.2079 23.5096C30.631 22.9038 31.9611 22.8814 32.4355 23.4391C32.9643 24.0609 31.7143 27.0385 31.0349 26.9904C29.4515 26.875 30.2079 23.5064 30.2079 23.5064V23.5096Z" fill="#FBA479"/>
<path d="M30.2518 25.1346C30.2454 24.9039 30.239 24.6443 30.2646 24.4167C30.2775 24.2949 30.3191 24.1635 30.3448 24.0449C30.3608 23.9808 30.3832 23.9007 30.4089 23.8558C30.6461 23.4519 31.1332 23.4744 31.4762 23.4648C31.6204 23.4616 31.8672 23.4551 31.9858 23.5353C32.082 23.5994 32.1204 23.7564 32.1685 23.8494C31.9121 23.5481 31.2871 23.6539 30.9762 23.8301C30.6493 24.0128 30.505 24.5801 30.5948 24.9359C30.8896 24.9231 31.1268 25.2693 31.0755 25.5385C31.0243 25.8077 30.4762 25.9263 30.4089 25.6539C30.88 25.593 30.5211 25.1923 30.2518 25.1346Z" fill="#EF7950"/>
<path d="M18.7052 21.5674C18.4199 20.8142 17.0193 20.436 16.3686 20.8975C15.6443 21.4135 16.1667 24.8975 16.9007 25.0257C18.6058 25.3302 18.7052 21.5642 18.7052 21.5642V21.5674Z" fill="#FBA479"/>
<path d="M18.2282 23.2724C18.2987 23.0321 18.3724 22.7596 18.4077 22.5096C18.4269 22.375 18.4205 22.2276 18.4205 22.093C18.4205 22.0224 18.4173 21.9295 18.4012 21.8782C18.2602 21.3878 17.7378 21.2821 17.3756 21.1763C17.225 21.1346 16.9653 21.0641 16.8179 21.1154C16.6993 21.1571 16.6192 21.3141 16.5391 21.4006C16.8916 21.1506 17.523 21.4295 17.8051 21.6987C18.1 21.9808 18.1032 22.6186 17.9141 22.968C17.6064 22.8782 17.2602 23.1763 17.2442 23.4776C17.2282 23.7756 17.7762 24.0481 17.9173 23.7789C17.4333 23.5898 17.9205 23.2628 18.225 23.2692L18.2282 23.2724Z" fill="#EF7950"/>
<path d="M30.5359 16.013C30.7698 15.9489 31.5359 14.5835 31.648 14.872C31.7827 15.2085 30.7794 22.1989 30.4718 23.7278C30.2891 21.4489 29.5487 18.5226 29.4141 16.2662L30.5359 16.013Z" fill="#261411"/>
<path d="M31.3651 33.7566C30.9934 34.6155 27.7337 37.5354 25.1472 38.8687C24.8619 39.0162 24.5895 39.1412 24.3267 39.2469C24.2273 39.2854 24.1312 39.3207 24.035 39.3527C23.5735 39.5066 23.16 39.5771 22.8235 39.529C22.503 39.4841 22.1248 39.3111 21.7113 39.0418C21.6248 38.9873 21.535 38.9264 21.4453 38.8591C21.2369 38.7085 21.0222 38.5418 20.8043 38.3527C18.5254 36.4136 15.769 32.6412 15.5959 31.3399C15.2658 28.8784 18.2369 22.4841 18.2369 22.4841C18.1055 23.4264 17.7273 28.8303 19.6087 31.6348C20.1536 32.4489 20.8908 33.045 21.8812 33.247C22.4677 33.3687 23.0126 33.122 23.3555 32.5931C23.3555 32.5835 23.3555 32.5707 23.3555 32.5611C23.3812 32.2469 23.41 31.9361 23.4485 31.6252C23.4613 31.513 23.4773 31.4008 23.4934 31.2886L24.3107 31.4008C24.2978 31.497 24.285 31.5899 24.2722 31.6861C24.2241 32.0034 24.1696 32.3207 24.1055 32.638C24.1055 32.6508 24.1023 32.6604 24.0991 32.67C24.285 33.2662 24.7402 33.6476 25.3363 33.6925C26.3748 33.7694 27.2017 33.3367 27.8555 32.6123C30.0158 30.2213 30.3363 24.6508 30.4677 23.7181C30.4677 23.7181 32.3523 31.4713 31.3651 33.747V33.7566Z" fill="#261411"/>
<path d="M20.2024 28.1509C20.6543 28.933 22.5454 30.731 24.1511 30.8785C25.3915 30.9907 27.087 29.6253 27.6415 29.1413C27.1511 29.1317 26.2793 29.0548 25.8467 29.0163C25.3595 28.9714 21.4396 28.6028 20.1992 28.1477L20.2024 28.1509Z" fill="#60281F"/>
<path d="M27.0986 29.0259C27.0825 29.0515 27.0665 29.0739 27.0473 29.0996C27.0184 29.138 26.9896 29.1765 26.9607 29.2182C26.7492 29.4938 26.496 29.7502 26.2204 29.8624C26.2075 29.8656 26.1979 29.872 26.1851 29.8752C25.7107 30.013 23.7845 29.7695 22.5473 29.5579C22.0537 29.4714 21.6691 29.3945 21.528 29.3432C21.528 29.3432 21.5248 29.3432 21.5216 29.3432C21.5056 29.3368 21.4896 29.3303 21.4832 29.3271C21.1498 29.1284 20.9447 28.6348 20.7812 28.2278C22.1018 28.5419 24.6498 28.8336 26.3229 28.9746C26.5473 28.9938 26.7588 29.0098 26.9447 29.0227C26.9992 29.0259 27.0505 29.0291 27.0986 29.0323V29.0259Z" fill="white"/>
<path d="M27.0465 29.0996C27.0177 29.1381 26.9888 29.1765 26.96 29.2182C26.7517 29.4938 26.5017 29.7599 26.2196 29.8624C26.2068 29.8656 26.1972 29.872 26.1843 29.8752C25.71 30.0131 23.7837 29.7695 22.5465 29.5579C22.0529 29.4714 21.6683 29.3945 21.5273 29.3432C21.5273 29.3432 21.5241 29.3432 21.5209 29.3432C21.5049 29.3368 21.492 29.3304 21.4824 29.3272C21.9568 29.3656 25.7164 29.731 25.8799 29.6894C25.9888 29.6605 25.9792 29.6605 26.0401 29.5676C26.1491 29.3913 26.2517 29.1797 26.3222 28.9746C26.5465 28.9938 26.7581 29.0099 26.944 29.0227L27.0465 29.106V29.0996Z" fill="#E8E6E6"/>
<path d="M27.7755 29.0515C27.6313 29.0515 27.3973 29.0451 27.0992 29.0259C27.0511 29.0259 27.0031 29.0195 26.9518 29.0163H26.9486C26.9069 29.0163 26.8652 29.0131 26.8204 29.0067C26.8107 29.0067 26.8011 29.0067 26.7915 29.0067C26.7787 29.0067 26.7627 29.0067 26.7531 29.0067C26.7402 29.0067 26.7242 29.0067 26.7114 29.0067C26.6761 29.0035 26.6409 29.0003 26.6024 28.997C26.564 28.997 26.5287 28.9938 26.4902 28.9874H26.4806C26.4293 28.9842 26.3781 28.981 26.3236 28.9746C26.2979 28.9746 26.2723 28.9714 26.2434 28.9682C26.189 28.965 26.1377 28.9586 26.08 28.9554C26.0543 28.9554 26.0255 28.9522 25.9999 28.949C25.9454 28.9458 25.8877 28.9394 25.83 28.9361C25.7178 28.9233 25.5992 28.9137 25.4838 28.9009C25.4838 28.9009 25.4806 28.9009 25.4774 28.9009C25.4005 28.8945 25.3236 28.8849 25.2434 28.8785C25.2306 28.8785 25.221 28.8785 25.2082 28.8752C25.1857 28.8752 25.1601 28.872 25.1377 28.8688H25.1216C25.1216 28.8688 25.1088 28.8688 25.1024 28.8688C25.096 28.8688 25.0896 28.8688 25.0832 28.8688C25.0351 28.8656 24.987 28.8592 24.939 28.8528C24.8781 28.8496 24.8172 28.84 24.7531 28.8336C24.689 28.8272 24.6281 28.8208 24.564 28.8111C24.5447 28.8111 24.5255 28.8079 24.5063 28.8047C24.487 28.8047 24.4646 28.8015 24.4422 28.7983C24.4197 28.7983 24.3973 28.7951 24.3781 28.7919C24.2723 28.7791 24.1697 28.7695 24.0672 28.7535H24.064C24.0447 28.7535 24.0191 28.7503 23.9998 28.747C23.9838 28.747 23.971 28.7438 23.955 28.7406C23.9197 28.7406 23.8877 28.7342 23.8524 28.7278C23.8524 28.7278 23.846 28.7278 23.8428 28.7278C23.8428 28.7278 23.83 28.7278 23.8236 28.7278C23.814 28.7278 23.8075 28.7278 23.7979 28.7278C23.7402 28.7214 23.6793 28.715 23.6216 28.7054C23.6024 28.7054 23.5832 28.7054 23.5672 28.699H23.564C23.5479 28.699 23.5287 28.699 23.5095 28.6958C23.487 28.6926 23.4646 28.6894 23.439 28.6861C23.4037 28.6829 23.3716 28.6765 23.3364 28.6733C23.3236 28.6733 23.3107 28.6701 23.2979 28.6701C23.2787 28.6701 23.2595 28.6669 23.2402 28.6605C23.1697 28.6509 23.1601 28.6509 23.1473 28.6477C23.1152 28.6445 23.0832 28.6413 23.0511 28.6349C23.0191 28.6317 22.987 28.6253 22.9582 28.622C22.9101 28.6156 22.862 28.6092 22.814 28.6028C22.7178 28.59 22.6281 28.574 22.5351 28.5611C22.4934 28.5547 22.455 28.5483 22.4133 28.5419C22.3845 28.5419 22.3492 28.5323 22.3204 28.5291C22.2915 28.5259 22.2627 28.5227 22.2338 28.5163C22.205 28.5163 22.1761 28.5099 22.1473 28.5035C22.0896 28.4938 22.0351 28.4842 21.9774 28.4746C21.9229 28.465 21.8684 28.4554 21.814 28.4458C21.8011 28.4458 21.7915 28.4426 21.7755 28.4394C21.7627 28.4394 21.7498 28.4361 21.737 28.4329C21.7274 28.4329 21.7178 28.4329 21.7082 28.4297C21.705 28.4297 21.7018 28.4297 21.6954 28.4297C21.6793 28.4297 21.6601 28.4265 21.6409 28.4233C21.5864 28.4137 21.5383 28.4041 21.4838 28.3945C21.4582 28.3913 21.4325 28.3849 21.4069 28.3817C21.3813 28.3785 21.3556 28.372 21.3332 28.3688L21.2691 28.356C21.2499 28.3528 21.2274 28.3464 21.2082 28.3432C21.2082 28.3432 21.205 28.3432 21.2018 28.3432C21.1986 28.3432 21.1922 28.3432 21.1857 28.34C21.1793 28.34 21.1729 28.34 21.1633 28.3368L21.1024 28.324C21.0832 28.324 21.064 28.3176 21.0415 28.3111C20.9518 28.2919 20.862 28.2727 20.7819 28.2535C20.471 28.1797 20.2274 28.106 20.08 28.0291C20.0415 28.0131 20.0159 27.9938 19.9902 27.9746C19.9934 27.9938 20.0031 28.0131 20.0095 28.0355C20.0383 28.1124 20.0864 28.2054 20.1537 28.3047C20.3396 28.5932 20.6665 28.9746 21.0864 29.3624C21.1152 29.3913 21.1441 29.4169 21.1729 29.4426C21.2114 29.481 21.2531 29.5131 21.2947 29.5483C21.6441 29.8496 22.0415 30.1445 22.4582 30.3913C22.9774 30.699 23.5351 30.9297 24.0736 30.9906C24.096 30.9938 24.1184 30.997 24.1441 31.0003C24.205 31.0035 24.2691 31.0099 24.3332 31.0067C24.5864 31.0035 24.8524 30.9458 25.1248 30.8592C25.3556 30.7823 25.5864 30.6797 25.814 30.5644C25.9934 30.4746 26.1729 30.372 26.3428 30.2663C26.4133 30.2214 26.4806 30.1797 26.5479 30.1349C27.1857 29.715 27.689 29.2727 27.8524 29.122C27.8813 29.0964 27.8973 29.0772 27.9069 29.0708C27.8877 29.074 27.8364 29.0772 27.7627 29.0772L27.7755 29.0515ZM27.5543 29.2214C27.4934 29.2759 27.4165 29.3368 27.3364 29.4009C27.3332 29.4041 27.3236 29.4105 27.3204 29.4137C27.2947 29.4329 27.2691 29.4522 27.2434 29.4746C27.2242 29.4906 27.2018 29.5099 27.1793 29.5259C27.1729 29.5291 27.1665 29.5355 27.1601 29.5387C27.1505 29.5451 27.1441 29.5515 27.1377 29.5579C27.1152 29.5772 27.0896 29.5964 27.0672 29.6124C27.0607 29.6156 27.0543 29.6188 27.0511 29.6253C27.0287 29.6381 27.0127 29.6541 26.9934 29.6701C26.9678 29.6894 26.9422 29.7086 26.9133 29.7278C26.8877 29.747 26.8588 29.7663 26.8332 29.7855C26.8075 29.8047 26.7787 29.824 26.7531 29.8432C26.7402 29.856 26.7242 29.8624 26.7114 29.8753C26.705 29.8753 26.6986 29.8849 26.6922 29.8881C26.6922 29.8881 26.6922 29.8881 26.689 29.8881C26.6857 29.8913 26.6761 29.8945 26.6729 29.9009C26.6441 29.9201 26.6152 29.9394 26.5864 29.9586C26.5672 29.9714 26.5479 29.9842 26.5287 29.997C26.4998 30.0163 26.4678 30.0355 26.439 30.0579C26.4293 30.0611 26.4197 30.0708 26.4101 30.074C26.3716 30.0996 26.3332 30.122 26.2947 30.1445C26.2402 30.1797 26.189 30.2118 26.1313 30.247C26.0543 30.2919 25.9774 30.3336 25.9037 30.3752C25.9037 30.3752 25.8845 30.3849 25.8749 30.3913C25.8556 30.4041 25.8332 30.4137 25.8107 30.4265C25.7979 30.4329 25.7819 30.4394 25.7659 30.449C25.7466 30.4586 25.7274 30.4682 25.7114 30.4778C25.7082 30.4778 25.7018 30.481 25.6986 30.4842C25.6633 30.5003 25.6313 30.5163 25.596 30.5323C25.5607 30.5483 25.5255 30.5644 25.4902 30.5804C25.4293 30.606 25.3684 30.6317 25.3107 30.6541C25.3107 30.6541 25.3043 30.6573 25.3011 30.6573C25.2402 30.6797 25.1793 30.7022 25.1216 30.7214C25.1216 30.7214 25.1088 30.7278 25.0992 30.731C25.096 30.731 25.0896 30.731 25.0864 30.7342C25.0864 30.7342 25.08 30.7342 25.0768 30.7342C25.0511 30.7438 25.0287 30.7503 25.0031 30.7567C24.971 30.7663 24.9422 30.7759 24.9069 30.7855C24.8748 30.7951 24.846 30.8015 24.814 30.8079C24.8011 30.8079 24.7947 30.8111 24.7819 30.8144C24.7434 30.824 24.7018 30.8304 24.6633 30.8368C24.6633 30.8368 24.6569 30.8368 24.6537 30.8368C24.6441 30.8368 24.6377 30.8368 24.6281 30.8368C24.5896 30.8432 24.5479 30.8496 24.5063 30.8528C24.4774 30.8528 24.4518 30.8592 24.4229 30.8592C24.4229 30.8592 24.4005 30.8592 24.3909 30.8592C24.3813 30.8592 24.3684 30.8592 24.3588 30.8592H24.33C24.3075 30.8592 24.2851 30.8592 24.2595 30.8592C24.2274 30.8592 24.1954 30.8592 24.1633 30.856C24.1281 30.8528 24.0928 30.8496 24.0607 30.8432C24.0319 30.84 23.9966 30.8336 23.9678 30.8304C23.9646 30.8304 23.9582 30.8304 23.955 30.8304C23.9325 30.8272 23.9101 30.8208 23.8845 30.8176C23.8781 30.8176 23.8684 30.8176 23.862 30.8144C23.846 30.8144 23.8332 30.8079 23.8172 30.8047C23.7915 30.7983 23.7691 30.7919 23.7466 30.7855C23.7242 30.7791 23.6986 30.7727 23.6761 30.7663C23.6473 30.7599 23.6216 30.7535 23.596 30.7438C23.5736 30.7374 23.5511 30.731 23.5319 30.7246C23.5255 30.7246 23.5191 30.7214 23.5127 30.7182C23.4999 30.715 23.4838 30.7086 23.4678 30.7054C23.4582 30.7054 23.4518 30.7022 23.4422 30.699C23.4293 30.6958 23.4133 30.6894 23.4005 30.6829C23.3973 30.6829 23.3909 30.6829 23.3877 30.6797C23.3652 30.6701 23.3396 30.6605 23.3172 30.6509C23.2883 30.6381 23.2595 30.6285 23.2306 30.6188C23.1922 30.6028 23.1601 30.59 23.1249 30.574C23.096 30.5611 23.0704 30.5515 23.0447 30.5355C23.0383 30.5355 23.0319 30.5323 23.0287 30.5291C22.955 30.497 22.8845 30.4586 22.8075 30.4201C22.7883 30.4073 22.7659 30.3977 22.7434 30.3849C22.7274 30.3785 22.7146 30.3688 22.6986 30.3624C22.6793 30.3496 22.6537 30.3368 22.6345 30.324C22.6249 30.3176 22.612 30.3111 22.6056 30.3047C22.5832 30.2919 22.5607 30.2791 22.5351 30.2663C22.5287 30.2631 22.5223 30.2567 22.5127 30.2535C22.4838 30.2342 22.4518 30.215 22.4229 30.199C22.4197 30.199 22.4133 30.1958 22.4101 30.1894C22.3909 30.1765 22.3716 30.1669 22.3492 30.1509C22.346 30.1509 22.3396 30.1445 22.3364 30.1413C22.3204 30.1285 22.3043 30.122 22.2883 30.1092C22.2819 30.106 22.2723 30.0996 22.2659 30.0932C22.2402 30.0804 22.2146 30.0644 22.1922 30.0483C22.1601 30.0259 22.1313 30.0035 22.096 29.981C22.08 29.9682 22.064 29.9586 22.0479 29.9458C22.0287 29.9329 22.0127 29.9201 21.9934 29.9073C21.9838 29.9009 21.9742 29.8945 21.9646 29.8881C21.9422 29.8753 21.9261 29.8592 21.9037 29.8432C21.8684 29.8176 21.8332 29.7919 21.8011 29.7631C21.6954 29.6829 21.5928 29.5996 21.4934 29.5163C21.4742 29.5002 21.455 29.4842 21.439 29.4682C21.4261 29.4554 21.4101 29.4458 21.3973 29.4297C21.3973 29.4297 21.3845 29.4201 21.3781 29.4137C21.3396 29.3817 21.3043 29.3496 21.2691 29.3176C21.2659 29.3176 21.2595 29.3111 21.2563 29.3079C21.1761 29.2374 21.1024 29.1669 21.0287 29.0964C20.9902 29.0579 20.9518 29.0195 20.9165 28.9842C20.9165 28.9842 20.9101 28.981 20.9069 28.9778C20.8941 28.9618 20.8781 28.949 20.862 28.9329C20.8428 28.9169 20.8268 28.8977 20.8107 28.8785C20.7947 28.8624 20.7787 28.8432 20.7627 28.8272C20.7306 28.7919 20.6986 28.7567 20.6697 28.7246C20.6537 28.7086 20.6377 28.6926 20.6248 28.6733C20.5672 28.606 20.5127 28.5419 20.4646 28.4778C20.439 28.449 20.4165 28.4169 20.3941 28.3881C20.3813 28.3753 20.3716 28.3592 20.362 28.3432C20.3588 28.3432 20.3556 28.3336 20.3524 28.3304C20.346 28.324 20.3396 28.3176 20.3364 28.3111C20.3364 28.3111 20.3332 28.3047 20.3332 28.3015C20.3204 28.2855 20.3107 28.2727 20.3043 28.2599C20.2947 28.247 20.2851 28.231 20.2787 28.2182C20.2691 28.2054 20.2659 28.1958 20.2595 28.1861C20.2498 28.1733 20.2434 28.1637 20.237 28.1477C20.237 28.1477 20.237 28.1477 20.237 28.1445C20.2531 28.1477 20.2659 28.1573 20.2819 28.1605C20.2851 28.1605 20.2883 28.1605 20.2947 28.1605C20.314 28.1669 20.3364 28.1733 20.3556 28.1829C20.3716 28.1861 20.3877 28.1926 20.4037 28.1958C20.4069 28.1958 20.4165 28.199 20.4229 28.2022C20.4678 28.215 20.5191 28.231 20.5672 28.2438C20.5928 28.2503 20.6216 28.2567 20.6473 28.2631C20.7018 28.2759 20.7531 28.2919 20.8107 28.3047C20.8236 28.3079 20.8396 28.3111 20.8524 28.3144C20.8973 28.3272 20.939 28.3368 20.9838 28.3432C21.0127 28.3496 21.0447 28.356 21.0736 28.3624C21.0864 28.3624 21.1024 28.3656 21.112 28.3688C21.112 28.3688 21.1184 28.3688 21.1249 28.3688C21.1441 28.372 21.1633 28.3785 21.1793 28.3817C21.2082 28.3881 21.2402 28.3945 21.2691 28.4009C21.2979 28.4073 21.33 28.4137 21.3588 28.4169C21.3748 28.4201 21.3909 28.4233 21.4101 28.4297C21.4197 28.4297 21.4293 28.4297 21.439 28.4329H21.4422C21.4422 28.4329 21.4518 28.4329 21.455 28.4329C21.4902 28.4394 21.5223 28.4458 21.5575 28.4554C21.5928 28.4618 21.6281 28.4682 21.6601 28.4746C21.6986 28.4778 21.7306 28.4874 21.7659 28.4938C21.8043 28.5003 21.846 28.5067 21.8877 28.5131C21.9293 28.5195 21.971 28.5259 22.0127 28.5323C22.0736 28.5451 22.1345 28.5515 22.2018 28.5611C22.221 28.5644 22.2466 28.5676 22.2691 28.574C22.3107 28.5804 22.3556 28.5868 22.3973 28.5932C22.4422 28.5996 22.4838 28.606 22.5255 28.6124C22.612 28.6252 22.6986 28.6381 22.7883 28.6509C22.8909 28.6637 22.9966 28.6797 23.0992 28.6926C23.2274 28.7086 23.3524 28.7278 23.4774 28.7406C23.4998 28.7438 23.5223 28.747 23.5479 28.7502C23.5768 28.7535 23.612 28.7567 23.6409 28.7631C23.6922 28.7695 23.7434 28.7759 23.7947 28.7823C23.8204 28.7855 23.8492 28.7887 23.8748 28.7951C23.8813 28.7951 23.8877 28.7951 23.8941 28.7951C23.9486 28.8015 24.0063 28.8079 24.0575 28.8144C24.0992 28.8176 24.1377 28.824 24.1761 28.8272C24.2146 28.8304 24.2531 28.8368 24.2915 28.84C24.3236 28.84 24.3588 28.8464 24.3909 28.8528H24.4037C24.4486 28.856 24.4999 28.8656 24.5447 28.8688C24.5575 28.8688 24.5672 28.8688 24.5768 28.872H24.5864C24.6088 28.872 24.6313 28.8753 24.6537 28.8785C24.6633 28.8785 24.6761 28.8817 24.6857 28.8817C24.6954 28.8817 24.705 28.8817 24.7178 28.8817C24.737 28.8817 24.7563 28.8849 24.7723 28.8881C24.8075 28.8881 24.8428 28.8945 24.8748 28.9009C24.9293 28.9073 24.9838 28.9137 25.0351 28.9169C25.064 28.9169 25.0896 28.9201 25.1152 28.9233L25.1569 28.9297H25.1633C25.1633 28.9297 25.1825 28.9297 25.1922 28.9297C25.205 28.9297 25.2114 28.9297 25.2242 28.9297C25.237 28.9297 25.2531 28.9329 25.2659 28.9329H25.2755C25.314 28.9361 25.3556 28.9426 25.3877 28.9458C25.3909 28.9458 25.3941 28.9458 25.4005 28.9458H25.4037C25.4261 28.9458 25.4486 28.949 25.4678 28.9522C25.6248 28.9682 25.7466 28.981 25.8204 28.9874C25.8268 28.9874 25.8332 28.9874 25.8396 28.9874H25.8588C25.8845 28.9874 25.9133 28.9938 25.9454 28.997C26.0351 29.0035 26.1409 29.0131 26.2531 29.0227C26.2659 29.0227 26.2819 29.0227 26.2979 29.0259C26.3172 29.0259 26.3364 29.0259 26.3524 29.0291C26.4165 29.0323 26.4806 29.0419 26.5479 29.0451C26.6281 29.0515 26.7114 29.0579 26.7947 29.0644C26.814 29.0644 26.8332 29.0644 26.8492 29.0676H26.8556C26.8973 29.0676 26.939 29.074 26.9806 29.0772C26.9902 29.0772 26.9998 29.0772 27.0095 29.0772C27.0191 29.0772 27.0287 29.0772 27.0383 29.0772C27.0383 29.0772 27.0607 29.0772 27.0704 29.0772C27.08 29.0772 27.0896 29.0772 27.0992 29.0772C27.1184 29.0772 27.1409 29.0772 27.1601 29.0804C27.1793 29.0804 27.1986 29.0804 27.221 29.0804H27.2274C27.2723 29.0804 27.314 29.0836 27.3556 29.0868C27.3781 29.0868 27.3973 29.0868 27.4165 29.09C27.439 29.09 27.455 29.09 27.4774 29.09C27.4999 29.09 27.5223 29.09 27.5479 29.09C27.5832 29.09 27.6152 29.09 27.6441 29.09C27.6152 29.1156 27.5832 29.1413 27.5511 29.1701L27.5543 29.2214Z" fill="#EF7950"/>
<path d="M23.7207 27.497C23.7207 27.497 22.8522 26.0418 21.1278 27.4842C20.8073 27.7534 20.3618 27.9906 19.9387 28.0098C19.3233 28.0386 18.9675 27.4008 18.6887 26.9649C17.8618 28.3175 19.8073 30.2245 22.9291 28.872C23.3105 28.7053 23.5573 29.0771 23.9163 29.1765C24.1759 28.6604 24.115 28.1444 23.7175 27.4938L23.7207 27.497Z" fill="#261411"/>
<path d="M24.4583 27.5995C24.4583 27.5995 25.6891 26.4361 26.9551 28.295C27.1891 28.6412 27.5513 28.9938 27.9551 29.1252C28.5417 29.3207 29.0545 28.8047 29.4423 28.4585C29.8686 29.9841 27.4744 31.2886 24.8398 29.1348C24.516 28.872 24.1795 29.1604 23.8077 29.1604C23.6987 28.5931 23.9007 28.1123 24.4583 27.5963V27.5995Z" fill="#261411"/>
<path d="M29.0982 14.0033C29.3867 13.654 29.7745 13.3751 30.0822 13.0514C29.5501 13.42 26.4123 14.0418 26.2296 14.0995C26.5053 13.8719 26.7937 13.6475 27.0758 13.436C26.1944 13.7437 22.8418 13.9969 22.8418 13.9969C23.1944 14.3142 25.8995 16.2758 26.4027 16.4232C27.095 16.6283 31.1142 15.5322 32.2296 13.0386C31.8162 13.1379 29.6174 13.8078 29.1014 14.0033H29.0982Z" fill="#3A2827"/>
<path d="M18.6536 34.4873C18.519 35.7629 18.8523 37.0963 19.2081 38.295C19.3811 38.0162 19.5863 37.7597 19.8331 37.5642C19.9036 38.6476 20.4068 39.7277 20.7593 40.7341C20.942 40.5001 21.0991 40.2277 21.2786 40.0001C21.2786 40.6668 22.4228 42.4072 22.426 42.404C22.426 42.404 23.9997 41.045 24.1856 40.404C24.2978 40.6732 24.3715 40.9777 24.4869 41.2533C25.1023 40.3815 25.8811 39.4809 26.2433 38.4585C26.4292 38.7149 26.5542 39.0162 26.644 39.3303C27.3138 38.2758 27.9965 37.0835 28.2177 35.8206L18.6536 34.4905V34.4873Z" fill="#261411"/>
<path d="M26.4427 38.0225C26.3625 37.7405 26.2471 37.4681 26.0805 37.2373C25.8754 37.8174 25.5196 38.3559 25.1478 38.8687C24.9298 39.17 24.7055 39.4616 24.5036 39.7501C24.4362 39.5866 24.385 39.4136 24.3273 39.2437C24.2984 39.1572 24.2664 39.0674 24.2343 38.9841C24.2055 39.0866 24.135 39.2116 24.0388 39.3495C23.6061 39.9616 22.6574 40.7822 22.6542 40.7822C22.6542 40.7822 21.9715 39.7469 21.7183 39.0386C21.6606 38.8751 21.6254 38.7309 21.6254 38.6187C21.5677 38.6956 21.51 38.7758 21.4555 38.8559C21.3593 38.9969 21.2632 39.1443 21.1574 39.279C21.0516 38.9777 20.9298 38.6668 20.8145 38.3495C20.5837 37.7245 20.3689 37.077 20.3273 36.4296C20.1061 36.6059 19.9202 36.8367 19.7664 37.0867C19.4651 36.077 18.9619 33.1956 19.6189 31.6347C20.1638 32.4488 20.901 33.045 21.8914 33.2469C22.4779 33.3687 23.0228 33.1219 23.3657 32.5931C23.3657 32.5834 23.3657 32.5706 23.3657 32.561C23.3914 32.2469 23.4202 31.936 23.4587 31.6251C23.4715 31.5129 23.4875 31.4008 23.5036 31.2886L24.3209 31.4008C24.308 31.4969 24.2952 31.5899 24.2824 31.686C24.2343 32.0033 24.1798 32.3206 24.1157 32.6379C24.1157 32.6508 24.1125 32.6604 24.1093 32.67C24.2952 33.2661 24.7504 33.6475 25.3465 33.6924C26.385 33.7693 27.2119 33.3367 27.8657 32.6123C27.8209 34.8527 26.9971 37.154 26.4491 38.0161L26.4427 38.0225Z" fill="#3A2827"/>
</g>
<defs>
<clipPath id="clip0_104_144">
<rect width="50" height="50" fill="white"/>
</clipPath>
</defs>
</svg>
