<svg width="50" height="50" viewBox="0 0 50 50" fill="none" xmlns="http://www.w3.org/2000/svg">
<g clip-path="url(#clip0_104_202)">
<path d="M25.4927 49.4839C25.444 49.4839 25.4228 49.4847 25.4096 49.4852C25.3976 49.4857 25.3923 49.4859 25.3789 49.485L25.3504 49.4831L25.3218 49.4845C25.2703 49.4869 25.2189 49.4869 25.1675 49.4845L25.1556 49.4839H25.1437C25.1092 49.4839 25.0765 49.4849 25.0514 49.4856L25.0482 49.4857C25.0207 49.4865 25.0005 49.4871 24.9802 49.4871C24.8731 49.4871 24.7717 49.4871 24.6749 49.4841L24.6749 49.484L24.6651 49.4839C24.084 49.4777 23.5038 49.4464 22.9205 49.3992C22.8492 49.3927 22.7906 49.3873 22.7336 49.3795L22.7228 49.378L22.7119 49.377C21.9636 49.3081 21.2189 49.205 20.4745 49.0645C20.4392 49.0568 20.4051 49.0504 20.3776 49.0453L20.3713 49.0441C20.3423 49.0387 20.3199 49.0345 20.298 49.0299L20.2899 49.0282L20.2819 49.0268L20.2043 49.0128L20.1421 49.0016C20.1312 48.9985 20.1119 48.9932 20.0885 48.9885C20.079 48.9867 20.068 48.9847 20.0558 48.983C19.9753 48.9658 19.893 48.9482 19.8079 48.9306C18.7983 48.7142 17.7971 48.4286 16.8043 48.0767L16.8042 48.0767C16.654 48.0235 16.4999 47.9669 16.3481 47.91L16.3469 47.9095C16.1032 47.8188 15.8615 47.7238 15.6236 47.622L15.6163 47.6148L15.5198 47.5766C15.5153 47.5748 15.5109 47.5731 15.5064 47.5713L15.4529 47.548H15.4488C15.3458 47.5058 15.2434 47.4608 15.131 47.4112L15.1229 47.4076L15.1154 47.4046C15.1147 47.4043 15.1119 47.403 15.1061 47.4001L15.0877 47.3907L15.0596 47.3764L15.0477 47.3705L15.0356 47.3652C14.9145 47.3125 14.8004 47.2599 14.681 47.2049C14.609 47.1718 14.5351 47.1377 14.4564 47.1021C14.4288 47.0886 14.4015 47.0752 14.3745 47.0619C14.2023 46.9774 14.0406 46.898 13.8786 46.8117L13.8546 46.799L13.8409 46.7935L13.8331 46.7888L13.816 46.7803C13.7449 46.7447 13.6737 46.7067 13.5967 46.6655C13.5706 46.6515 13.5438 46.6372 13.5161 46.6225L13.5145 46.6216L13.4867 46.6031L13.469 46.596C13.4677 46.5952 13.4663 46.5944 13.465 46.5936L13.4485 46.5837L13.4314 46.5751C13.3334 46.5261 13.237 46.4737 13.1321 46.4165C13.101 46.3985 13.0697 46.3809 13.0409 46.3646L13.04 46.3641C13.0242 46.3552 13.0092 46.3467 12.9946 46.3385C12.9799 46.3301 12.9658 46.322 12.9519 46.314L12.9519 46.3139L12.9442 46.3096C12.8064 46.2331 12.6685 46.1534 12.5304 46.0707C12.4936 46.0476 12.4558 46.0257 12.4321 46.0116C12.4036 45.9947 12.3847 45.9831 12.3683 45.9719L12.3516 45.9604L12.3341 45.9504C12.3115 45.9375 12.2971 45.9292 12.281 45.9192C12.2327 45.8888 12.1843 45.8598 12.1413 45.834C12.0964 45.8071 12.057 45.7834 12.0191 45.7595L12.0119 45.755L12.0046 45.7507C11.9771 45.7347 11.9506 45.7179 11.9178 45.6961L11.9117 45.692L11.9055 45.6881C11.7791 45.6091 11.657 45.5316 11.543 45.4527C11.5252 45.4402 11.508 45.4287 11.4979 45.422C11.4846 45.4131 11.4794 45.4096 11.476 45.4072L11.4554 45.3925L11.4334 45.3799L11.411 45.3671L11.3989 45.3602L11.3865 45.354C11.3438 45.3266 11.3037 45.2986 11.261 45.2666L11.2446 45.2543L11.2274 45.2435C11.1445 45.1913 11.0759 45.146 11.0135 45.0986L10.9476 45.0485L10.9373 45.0451C10.9135 45.0282 10.8914 45.0127 10.8708 44.9982L10.8695 44.9973L10.8674 44.9959C10.8504 44.9841 10.8335 44.9725 10.8168 44.961C10.7916 44.9436 10.7668 44.9266 10.7423 44.9098L10.7407 44.9087C10.7092 44.887 10.6782 44.8658 10.6471 44.8443L10.6431 44.8404L10.608 44.8156C10.4198 44.6829 10.2382 44.5475 10.0601 44.4062L10.0602 44.4062L10.0528 44.4005C9.93124 44.3078 9.8127 44.2173 9.69771 44.1272C9.5583 44.0156 9.41859 43.9008 9.28167 43.7857C9.28097 43.7851 9.28027 43.7845 9.27957 43.7839L9.27942 43.7837C9.26221 43.769 9.23197 43.743 9.19764 43.7173C9.01162 43.5639 8.82664 43.4001 8.64178 43.2307L8.64187 43.2306L8.63318 43.223C8.48488 43.0932 8.33969 42.9604 8.19761 42.8245L8.19765 42.8244L8.19188 42.8191C7.8132 42.4681 7.45123 42.1036 7.09645 41.7276C7.08052 41.709 7.06616 41.6949 7.05598 41.6855C6.78928 41.4029 6.53358 41.1132 6.2826 40.8158C5.91449 40.3784 5.55957 39.9292 5.22399 39.4714C4.95368 39.0985 4.69005 38.7246 4.44557 38.3471C4.4394 38.3357 4.4334 38.3255 4.42787 38.3167C4.42101 38.3057 4.41464 38.2964 4.41217 38.2929C4.13956 37.8728 3.88098 37.4488 3.64194 37.0172L3.63776 37.0097L3.63332 37.0023C3.60448 36.9542 3.58687 36.9231 3.57493 36.8962L3.56456 36.8729L3.55187 36.8507C3.383 36.556 3.22817 36.2528 3.06799 35.9357C2.96453 35.7287 2.86734 35.5281 2.77008 35.321C2.43726 34.5988 2.13907 33.8642 1.87541 33.1141C1.75478 32.7649 1.63938 32.4184 1.53708 32.0681L1.53445 32.0591L1.53147 32.0501L1.52702 32.0369L1.52362 32.0269L1.5206 32.0178L1.51697 31.9996L1.50983 31.9761C1.50105 31.9473 1.49297 31.9212 1.48525 31.8962C1.4712 31.8507 1.45834 31.809 1.44455 31.7618C1.38841 31.5653 1.3352 31.3682 1.2809 31.167C-0.354981 24.85 0.518759 17.8786 4.29061 11.9146L4.29073 11.9144C11.5182 0.474844 26.6484 -2.9363 38.0849 4.29118C49.5214 11.5187 52.9356 26.649 45.7082 38.0821L45.708 38.0825L25.4962 49.9839M25.4927 49.4839C25.4939 49.4839 25.4951 49.4839 25.4962 49.4839V49.9839M25.4927 49.4839C25.4917 49.4839 25.4907 49.4839 25.4897 49.4839L25.4962 49.9839M25.4927 49.4839C25.7311 49.4807 25.9574 49.4745 26.1841 49.4594L26.1954 49.4586L26.2067 49.4584C26.3435 49.4554 26.483 49.4467 26.6269 49.4344L26.6381 49.4335L26.6381 49.4336C26.7922 49.424 26.9302 49.4149 27.0726 49.4L27.0839 49.3989L27.0839 49.399C27.9705 49.3269 28.8551 49.2016 29.7312 49.0289M25.4962 49.9839C25.7398 49.9807 25.977 49.9743 26.2174 49.9582C26.368 49.955 26.5187 49.9454 26.6693 49.9326C26.8232 49.923 26.9706 49.9134 27.1244 49.8974C28.0315 49.8236 28.9353 49.6954 29.8296 49.5191M29.7312 49.0289C29.7308 49.029 29.7304 49.0291 29.73 49.0292L29.8296 49.5191M29.7312 49.0289C30.5016 48.8723 31.2619 48.6847 32.0123 48.4631C32.042 48.453 32.0662 48.4468 32.0741 48.4447C32.0742 48.4447 32.0743 48.4446 32.0744 48.4446L32.0784 48.4431L32.0928 48.4387C32.4602 48.3256 32.8258 48.2069 33.187 48.0794C33.2099 48.0705 33.2314 48.063 33.2404 48.0598C33.2487 48.0568 33.2524 48.0554 33.2535 48.055C33.2537 48.0549 33.2538 48.0548 33.2537 48.0549L33.2736 48.046L33.2965 48.0384C33.3223 48.0298 33.3407 48.023 33.3647 48.0142C33.3782 48.0093 33.3934 48.0037 33.4127 47.9968C33.4596 47.9783 33.5075 47.9613 33.5405 47.9494C33.58 47.935 33.6076 47.9245 33.6314 47.9141L33.6458 47.9077L33.6606 47.9023C34.0361 47.7646 34.4109 47.6147 34.7786 47.4526L34.7826 47.4509C35.3207 47.2194 35.854 46.9622 36.3763 46.6885L36.4292 46.6607L36.4348 46.6593M29.7312 49.0289C29.7318 49.0288 29.7323 49.0287 29.7329 49.0286L29.8296 49.5191M29.8296 49.5191C30.618 49.3589 31.3969 49.1666 32.1661 48.939C32.1789 48.9342 32.1909 48.931 32.203 48.9278C32.215 48.9246 32.227 48.9214 32.2398 48.9166C32.6148 48.8012 32.9898 48.6794 33.3616 48.548C33.3752 48.5426 33.3888 48.5377 33.4022 48.5329C33.4203 48.5264 33.438 48.5201 33.4546 48.5127C33.4866 48.5021 33.5158 48.4914 33.545 48.4807C33.5596 48.4753 33.5742 48.47 33.5892 48.4647C33.6222 48.4514 33.6558 48.4393 33.6895 48.4271C33.7375 48.4098 33.7857 48.3924 33.8328 48.3717C34.2174 48.2307 34.602 48.0768 34.9802 47.9102C35.5315 47.673 36.0764 47.4102 36.6084 47.1313C36.6157 47.1295 36.6219 47.1256 36.6277 47.122C36.6321 47.1193 36.6363 47.1167 36.6405 47.1153M22.6661 49.8749C22.7365 49.8845 22.807 49.8909 22.8774 49.8973L22.8776 49.8974C23.4706 49.9454 24.0635 49.9775 24.6597 49.9839L22.6661 49.8749ZM22.6661 49.8749C21.9001 49.8044 21.1373 49.6986 20.3744 49.5544C20.3431 49.5474 20.3109 49.5414 20.2782 49.5353C20.2507 49.5302 20.2228 49.525 20.195 49.5191M22.6661 49.8749L20.195 49.5191M20.195 49.5191C20.1677 49.5143 20.1412 49.5095 20.1148 49.5047C20.0884 49.4999 20.0619 49.4951 20.0347 49.4903M20.195 49.5191L20.0347 49.4903M20.0347 49.4903C20.027 49.489 20.0193 49.4867 20.0116 49.4844C20.0001 49.4809 19.9885 49.4775 19.977 49.4775C19.8873 49.4582 19.7975 49.439 19.7046 49.4198C18.6725 49.1986 17.6501 48.907 16.6373 48.548M20.0347 49.4903L16.6373 48.548M16.6373 48.548C16.4834 48.4935 16.3264 48.4358 16.1725 48.3781L16.6373 48.548ZM36.4348 46.6593L40.5347 44.5833C40.0892 44.939 39.6308 45.2788 39.1661 45.5961C38.7815 45.8589 38.3905 46.1121 37.9962 46.3525C37.6501 46.564 37.3007 46.7659 36.9417 46.9582C36.8456 47.0127 36.7462 47.064 36.6405 47.1153M36.4348 46.6593L36.4352 46.6592C36.4485 46.6533 36.4643 46.647 36.4824 46.6409L36.4844 46.6469M36.4348 46.6593L36.4844 46.6469M36.6405 47.1153L36.566 46.9618L36.4233 46.6673M36.6405 47.1153L36.4962 46.6823L36.4844 46.6469M36.4233 46.6673L36.4872 46.6462L36.4844 46.6469M36.4233 46.6673C36.4131 46.6715 36.4043 46.6755 36.397 46.6791C36.3889 46.6831 36.3821 46.6868 36.3769 46.6897C36.3757 46.6903 36.3746 46.691 36.3736 46.6916L36.3636 46.6975L36.3669 46.6954C36.3689 46.6942 36.3724 46.6921 36.3768 46.6894C36.3793 46.688 36.3821 46.6863 36.3851 46.6846C36.3937 46.6797 36.4062 46.6728 36.4217 46.6654C36.4252 46.6637 36.429 46.662 36.433 46.6602L36.4233 46.6673ZM10.9993 45.0904L10.998 45.0894L10.9965 45.0883C10.9978 45.0893 10.9989 45.09 10.9993 45.0904ZM10.9993 45.0904L10.9995 45.0905L10.9993 45.0904ZM11.2115 45.704L11.1629 45.8012L11.2114 45.7042L11.2115 45.704ZM41.3937 43.8749L41.0688 43.4949C41.0682 43.4954 41.0676 43.4959 41.067 43.4964C41.0664 43.4969 41.0658 43.4974 41.0652 43.498L41.3937 43.8749ZM20.1169 48.9971C20.1185 48.9974 20.1201 48.9976 20.1216 48.9979L20.1169 48.9971ZM13.5591 46.6526C13.5613 46.6543 13.5619 46.6548 13.5599 46.6532L13.5599 46.6532L13.5591 46.6526Z" fill="#F7F2DA" stroke="#E85D04"/>
<path d="M37.9943 46.3559C37.6481 46.5674 37.2988 46.7693 36.9398 46.9616C36.8437 47.0161 36.7443 47.0674 36.6385 47.1187C36.6289 47.1219 36.6193 47.1315 36.6065 47.1347C36.0744 47.4136 35.5295 47.6764 34.9783 47.9136C34.6001 48.0802 34.2154 48.2341 33.8308 48.3751C33.7507 48.4104 33.6674 48.436 33.5872 48.4681C33.5424 48.4841 33.5007 48.5001 33.4526 48.5161C33.4238 48.5289 33.3917 48.5386 33.3597 48.5514C32.9879 48.6828 32.6129 48.8046 32.2379 48.92C32.2122 48.9296 32.1898 48.9328 32.1642 48.9424C31.3949 49.17 30.6161 49.3623 29.8276 49.5225C28.9334 49.6988 28.0295 49.827 27.1225 49.9007C26.9687 49.9168 26.8212 49.9264 26.6674 49.936C26.5167 49.9488 26.3661 49.9584 26.2154 49.9616C25.9751 49.9777 25.7379 49.9841 25.4943 49.9873C25.443 49.9873 25.3917 49.9905 25.3436 49.9873C25.2763 49.9905 25.209 49.9905 25.1417 49.9873C25.0872 49.9873 25.036 49.9905 24.9783 49.9905C24.8725 49.9905 24.7635 49.9905 24.6578 49.9873C24.0616 49.9809 23.4687 49.9488 22.8757 49.9007C22.8052 49.8943 22.7347 49.8879 22.6642 49.8783C21.8981 49.8078 21.1353 49.702 20.3725 49.5578C20.3148 49.545 20.2539 49.5354 20.193 49.5225C20.1385 49.5129 20.0872 49.5033 20.0328 49.4937C20.0135 49.4905 19.9943 49.4809 19.9751 49.4809C19.8853 49.4616 19.7956 49.4424 19.7026 49.4232C18.6706 49.202 17.6481 48.9104 16.6353 48.5514C16.4815 48.4969 16.3244 48.4392 16.1706 48.3815C15.8949 48.2789 15.6193 48.17 15.3469 48.0514C15.3437 48.0514 15.3372 48.0482 15.334 48.045C15.1962 47.9905 15.0648 47.9328 14.927 47.8719C14.8949 47.8591 14.8661 47.8431 14.834 47.827C14.6353 47.7405 14.4398 47.6475 14.2411 47.5578C14.0392 47.4584 13.8404 47.3623 13.6417 47.2565C13.6257 47.2501 13.6065 47.2405 13.5904 47.2309C13.4879 47.1796 13.3821 47.1219 13.2795 47.0674C13.2699 47.0674 13.2603 47.0578 13.2507 47.0514C13.2347 47.045 13.2219 47.0354 13.2058 47.0257C13.0969 46.9713 12.9911 46.9136 12.8853 46.8559C12.8244 46.8206 12.7603 46.7854 12.6994 46.7501C12.5552 46.67 12.411 46.5866 12.2667 46.5001C12.2058 46.4616 12.1449 46.4296 12.084 46.3879C12.0616 46.3751 12.0392 46.3623 12.0135 46.3463C11.927 46.2918 11.8372 46.2405 11.7507 46.186C11.7122 46.1636 11.677 46.1411 11.6385 46.1155C11.5103 46.0354 11.3789 45.952 11.2539 45.8655C11.2571 45.7886 11.2667 45.7181 11.2699 45.6443C11.2924 45.3655 11.3244 45.1123 11.3629 44.8783C13.7411 43.7661 16.3436 41.4713 18.8629 40.3815C19.068 40.2918 19.2763 40.2116 19.4783 40.1379C19.6513 40.077 19.8244 40.0225 19.9943 39.9745L24.5616 38.8943C26.2411 38.6059 27.6962 38.5225 29.0295 38.6059C29.5488 38.6379 30.052 38.6956 30.5424 38.7757C32.9783 39.1796 34.7251 39.8334 37.3052 41.0674C37.3084 41.0674 37.3148 41.0674 37.318 41.0706C37.3981 41.1091 37.4815 41.1507 37.5648 41.1892C37.5744 41.1956 37.584 41.202 37.5937 41.2084C37.9398 41.4777 38.0552 43.4104 37.9815 46.3366L37.9943 46.3559Z" fill="#CCCCCC"/>
<path d="M30.5589 38.7948C29.6999 42.6154 25.2736 48.4102 23.6903 49.3814C23.3473 49.5929 23.0108 49.7692 22.6743 49.8878C21.9082 49.8173 21.1454 49.7115 20.3826 49.5673C20.3249 49.5545 20.264 49.5448 20.2031 49.532C18.7352 48.1378 18.1518 43.516 18.873 40.3942C19.0781 40.3045 19.2864 40.2243 19.4884 40.1506C19.6614 40.0897 19.8345 40.0352 20.0044 39.9872L24.5717 38.907C26.2512 38.6186 27.7063 38.5352 29.0396 38.6186C29.5589 38.6506 30.0621 38.7083 30.5525 38.7884L30.5589 38.7948Z" fill="#595857"/>
<path d="M21.5844 48.9904C17.8536 48.9071 20.001 35.1347 20.1068 34.484C20.4978 32.1154 19.6356 28.1187 19.6356 28.1187L28.4561 28.3174C28.4561 28.3174 27.5299 31.8398 27.6645 34.2404C27.7126 35.0802 27.7638 38.7629 29.5138 38.7084C30.0683 38.6924 25.3151 49.0738 21.5844 48.9904Z" fill="#F28C5F"/>
<path d="M27.6636 34.2436C26.7758 34.7468 25.7982 35.1282 24.7758 35.4135C24.3271 35.5385 23.8944 35.6058 23.4745 35.6282C23.0546 35.5898 22.6252 35.5 22.1828 35.3558C21.4617 35.1186 20.763 34.8302 20.1059 34.4872C20.4969 32.1186 19.6348 28.1218 19.6348 28.1218L28.4553 28.3205C28.4553 28.3205 27.529 31.843 27.6636 34.2436Z" fill="#E26939"/>
<path d="M30.6871 26.8558C30.6614 22.9488 30.3281 18.9969 30.3024 15.2372C30.3024 15.2372 27.0428 12.7853 26.514 12.5802C26.1839 12.452 25.8377 12.3526 25.4883 12.2885C25.1326 12.2789 24.7768 12.3014 24.4242 12.359C23.8633 12.452 20.1614 14.1635 20.1614 14.1635C19.3505 17.8334 18.0653 21.7308 17.2223 25.5449C16.8794 27.0994 17.046 28.8494 17.9371 30.2501C18.9339 31.8142 20.4018 32.8879 22.0492 33.6507C22.4306 33.827 22.8089 33.9456 23.1806 34.0161C23.5589 34.0257 23.9531 33.9905 24.3633 33.8975C26.1326 33.4969 27.796 32.7565 29.0973 31.436C30.264 30.2533 30.6935 28.452 30.6806 26.859L30.6871 26.8558Z" fill="#F28C5F"/>
<path d="M22.3631 22.8815C22.3182 22.8911 22.2733 22.8976 22.2285 22.9072C22.1836 22.9136 22.1419 22.9232 22.0971 22.9296C22.0586 22.936 22.0201 22.9424 21.9817 22.9456C21.9528 22.9488 21.9208 22.952 21.8887 22.9552C21.8567 22.9584 21.8214 22.9617 21.7926 22.9649C21.7285 22.9713 21.6676 22.9745 21.6067 22.9777C21.5297 22.9841 21.4528 22.9841 21.3791 22.9841C21.3406 22.9841 21.3054 22.9841 21.2701 22.9841C21.2349 22.9841 21.1996 22.9841 21.1644 22.9841C21.158 22.9841 21.1515 22.9841 21.1451 22.9841C21.0522 22.9777 20.9592 22.9713 20.8727 22.9617C20.8727 22.9617 20.8663 22.9617 20.8631 22.9617C20.799 22.952 20.7381 22.9424 20.6772 22.9328C20.5874 22.9168 20.5009 22.8976 20.4176 22.8751C20.3919 22.8687 20.3631 22.8591 20.3374 22.8527C20.3118 22.8431 20.2862 22.8367 20.2605 22.827C20.1836 22.8014 20.1099 22.7725 20.0394 22.7405C20.0169 22.7309 19.9945 22.7213 19.9721 22.7084C19.9496 22.6988 19.9272 22.686 19.9047 22.6764C19.8823 22.6668 19.8631 22.654 19.8406 22.6443C19.8214 22.6347 19.799 22.6219 19.7797 22.6091C19.7124 22.5706 19.6483 22.529 19.5874 22.4873C19.5746 22.4809 19.565 22.4713 19.5554 22.4649C19.5394 22.452 19.5201 22.4392 19.5041 22.4264C19.4688 22.4008 19.44 22.3751 19.408 22.3495C19.3791 22.3238 19.3503 22.2982 19.3214 22.2725C19.3054 22.2597 19.2958 22.2469 19.283 22.2341C19.2701 22.2213 19.2573 22.2084 19.2445 22.1956C19.2221 22.1732 19.1996 22.1475 19.1804 22.1251C19.1804 22.1251 19.1772 22.1219 19.174 22.1187C19.1387 22.0802 19.1099 22.0418 19.081 22.0065C19.0618 21.9809 19.0426 21.9584 19.0265 21.9328C19.0105 21.9104 18.9945 21.8847 18.9785 21.8655C18.9624 21.8431 18.9496 21.8206 18.9368 21.8014C18.9304 21.7918 18.924 21.7822 18.9208 21.7725C18.8406 21.6347 18.8086 21.5418 18.8086 21.5418C19.4015 20.8623 20.3663 19.8623 21.408 20.4745C22.2317 20.9584 21.9464 21.9328 22.3567 22.8911L22.3631 22.8815Z" fill="#E26939"/>
<path d="M21.3728 20.875C20.3312 20.2629 19.4113 20.8494 18.8184 21.5321C18.8184 21.5321 18.8985 24.4007 22.3664 22.8815C21.9562 21.9231 22.1998 21.359 21.3761 20.875H21.3728Z" fill="#E26939"/>
<path d="M22.3625 22.8815C22.3177 22.8911 22.2728 22.8976 22.2279 22.9072C22.183 22.9136 22.1414 22.9232 22.0965 22.9296C22.058 22.936 22.0196 22.9424 21.9811 22.9456C21.9523 22.9488 21.9202 22.952 21.8882 22.9552C21.8561 22.9584 21.8209 22.9617 21.792 22.9649C21.7279 22.9713 21.667 22.9745 21.6061 22.9777C21.558 22.9809 21.51 22.9841 21.4619 22.9841C21.433 22.9841 21.4074 22.9841 21.3818 22.9841C21.3433 22.9841 21.308 22.9841 21.2728 22.9841C21.2375 22.9841 21.2023 22.9841 21.167 22.9841C21.1606 22.9841 21.1542 22.9841 21.1478 22.9841C21.0548 22.9777 20.9619 22.9713 20.8753 22.9617C20.8753 22.9617 20.8689 22.9617 20.8657 22.9617C20.8016 22.952 20.7407 22.9424 20.6798 22.9328C20.5901 22.9168 20.5036 22.8976 20.4202 22.8751C20.3946 22.8687 20.3657 22.8591 20.3401 22.8527C20.3145 22.8431 20.2888 22.8367 20.2632 22.827C20.1862 22.8014 20.1125 22.7725 20.042 22.7405C20.0196 22.7309 19.9971 22.7213 19.9747 22.7084C19.9587 22.702 19.9427 22.6956 19.9298 22.686C19.9234 22.6828 19.917 22.6796 19.9106 22.6764C19.8882 22.6668 19.8689 22.654 19.8465 22.6443C19.8273 22.6347 19.8048 22.6219 19.7856 22.6091C19.7183 22.5706 19.6542 22.529 19.5933 22.4873C19.5805 22.4809 19.5709 22.4713 19.5612 22.4649C19.5452 22.452 19.526 22.4392 19.51 22.4264C19.4747 22.4008 19.4459 22.3751 19.4138 22.3495C19.385 22.3238 19.3561 22.2982 19.3273 22.2725C19.3112 22.2597 19.3016 22.2469 19.2888 22.2341C19.276 22.2213 19.2632 22.2084 19.2504 22.1956C19.2279 22.1732 19.2055 22.1475 19.1862 22.1251C19.1862 22.1251 19.183 22.1219 19.1798 22.1187C19.1478 22.0802 19.1157 22.0418 19.0869 22.0065C19.0677 21.9809 19.0484 21.9584 19.0324 21.9328C19.0164 21.9104 19.0004 21.8847 18.9843 21.8655C18.9683 21.8431 18.9555 21.8206 18.9427 21.8014C18.9362 21.7918 18.9298 21.7822 18.9266 21.7725C18.8465 21.6347 18.8145 21.5418 18.8145 21.5418C19.4074 20.8623 20.3721 19.8623 21.4138 20.4745C22.2375 20.9584 21.9523 21.9328 22.3625 22.8911V22.8815Z" fill="white"/>
<path d="M21.4526 21.577C21.3532 22.2853 20.8532 22.7982 20.334 22.7244C19.818 22.6507 19.4782 22.0193 19.5808 21.311C19.6801 20.6026 20.1801 20.0898 20.6994 20.1635C21.2154 20.2373 21.5551 20.8687 21.4526 21.577Z" fill="#56413D"/>
<path d="M21.0286 21.3591C20.9741 21.7405 20.6952 22.0161 20.4036 21.9744C20.1119 21.9328 19.9196 21.5898 19.9741 21.2084C20.0286 20.827 20.3074 20.5514 20.5991 20.593C20.8907 20.6347 21.083 20.9776 21.0286 21.3591Z" fill="#44322E"/>
<path d="M19.7163 20.3655C19.7451 20.2341 20.1939 20.1155 20.1939 20.1155L20.3541 21.2116C20.3541 21.2116 19.6586 20.6219 19.7163 20.3655Z" fill="white"/>
<path d="M22.3625 22.8815C21.9523 21.9231 22.2375 20.9456 21.4138 20.4648C20.3721 19.8526 19.4074 20.8526 18.8145 21.5321C19.3145 20.3719 20.4395 18.1122 21.4811 18.7212C22.3048 19.2052 22.5228 21.3462 22.3593 22.8815H22.3625Z" fill="#E26939"/>
<path d="M25.7173 22.8397C25.7558 22.8653 25.7943 22.8877 25.8327 22.9134C25.8712 22.9358 25.9097 22.9583 25.9449 22.9807C25.9802 22.9999 26.0122 23.0192 26.0443 23.0384C26.0731 23.0544 26.0988 23.0672 26.1244 23.0833C26.1532 23.0993 26.1821 23.1153 26.2109 23.1281C26.2686 23.157 26.3231 23.1858 26.3776 23.2115C26.4481 23.2435 26.5186 23.2756 26.5859 23.3012C26.6212 23.314 26.6532 23.3268 26.6885 23.3397C26.7206 23.3525 26.7558 23.3653 26.7879 23.3749C26.7943 23.3749 26.8007 23.3781 26.8071 23.3813C26.8968 23.4102 26.9834 23.439 27.0699 23.4615C27.0699 23.4615 27.0763 23.4615 27.0795 23.4615C27.1404 23.4775 27.2045 23.4903 27.2622 23.5031C27.352 23.5224 27.4385 23.5352 27.525 23.5448C27.5539 23.5448 27.5827 23.5512 27.6084 23.5512C27.6372 23.5512 27.6629 23.5544 27.6917 23.5576C27.7718 23.5608 27.852 23.564 27.9289 23.5576C27.9545 23.5576 27.9802 23.5576 28.0026 23.5544C28.025 23.5544 28.0507 23.5544 28.0763 23.548C28.0988 23.548 28.1244 23.5448 28.1468 23.5416C28.1693 23.5416 28.1949 23.5352 28.2173 23.532C28.2943 23.5192 28.368 23.5063 28.4385 23.4871C28.4513 23.4871 28.4641 23.4807 28.477 23.4775C28.4962 23.4711 28.5186 23.4679 28.5379 23.4615C28.5795 23.4518 28.618 23.439 28.6532 23.423C28.6917 23.4102 28.727 23.3974 28.7622 23.3813C28.7815 23.3749 28.7975 23.3685 28.8135 23.3589C28.8327 23.3525 28.8488 23.3429 28.8648 23.3365C28.8936 23.3236 28.9225 23.3076 28.9513 23.2948C28.9545 23.2948 28.9577 23.2948 28.9577 23.2916C29.0026 23.2692 29.0443 23.2435 29.0859 23.2211C29.1148 23.2051 29.1372 23.189 29.1629 23.173C29.1885 23.157 29.2109 23.141 29.2302 23.1281C29.2526 23.1121 29.2718 23.0961 29.2911 23.0833C29.3007 23.0768 29.3103 23.0704 29.3167 23.0608C29.4417 22.9615 29.5058 22.8877 29.5058 22.8877C29.2045 22.0384 28.6757 20.7531 27.4834 20.939C26.5411 21.0833 26.4481 22.0961 25.7109 22.8365L25.7173 22.8397Z" fill="#E26939"/>
<path d="M27.3771 21.3397C28.5726 21.157 29.2104 22.0384 29.5117 22.891C29.5117 22.891 28.3803 25.5288 25.7168 22.8397C26.4508 22.0993 26.4347 21.4871 27.3771 21.3397Z" fill="#E26939"/>
<path d="M25.7166 22.8398C25.7551 22.8655 25.7936 22.8879 25.832 22.9135C25.8705 22.936 25.909 22.9584 25.9442 22.9808C25.9795 23.0001 26.0115 23.0193 26.0436 23.0385C26.0724 23.0546 26.0981 23.0674 26.1237 23.0834C26.1525 23.0994 26.1814 23.1155 26.2102 23.1283C26.2679 23.1571 26.3224 23.186 26.3769 23.2116C26.4218 23.2341 26.4666 23.2533 26.5083 23.2725C26.534 23.2821 26.5596 23.2949 26.582 23.3046C26.6173 23.3174 26.6493 23.3302 26.6846 23.343C26.7166 23.3558 26.7519 23.3687 26.784 23.3783C26.7904 23.3783 26.7968 23.3815 26.8032 23.3847C26.8929 23.4135 26.9795 23.4424 27.066 23.4648C27.066 23.4648 27.0724 23.4648 27.0756 23.4648C27.1365 23.4808 27.2006 23.4937 27.2583 23.5065C27.3481 23.5257 27.4346 23.5385 27.5211 23.5482C27.55 23.5482 27.5788 23.5546 27.6045 23.5546C27.6333 23.5546 27.659 23.5578 27.6878 23.561C27.7679 23.5642 27.8481 23.5674 27.925 23.561C27.9506 23.561 27.9763 23.561 27.9987 23.5578C28.0147 23.5578 28.034 23.5578 28.05 23.5578C28.0564 23.5578 28.066 23.5578 28.0724 23.5578C28.0949 23.5578 28.1205 23.5546 28.1429 23.5514C28.1654 23.5514 28.191 23.5449 28.2134 23.5417C28.2904 23.5289 28.3641 23.5161 28.4346 23.4969C28.4474 23.4969 28.4602 23.4905 28.4731 23.4873C28.4923 23.4808 28.5147 23.4776 28.534 23.4712C28.5756 23.4616 28.6141 23.4488 28.6493 23.4328C28.6878 23.4199 28.7231 23.4071 28.7583 23.3911C28.7775 23.3847 28.7936 23.3783 28.8096 23.3687C28.8288 23.3623 28.8449 23.3526 28.8609 23.3462C28.8929 23.3334 28.9186 23.3174 28.9474 23.3046C28.9506 23.3046 28.9538 23.3046 28.9538 23.3014C28.9987 23.2789 29.0404 23.2565 29.082 23.2308C29.1109 23.2148 29.1333 23.1988 29.159 23.1828C29.1846 23.1667 29.207 23.1507 29.2263 23.1379C29.2487 23.1219 29.2679 23.1058 29.2872 23.093C29.2968 23.0866 29.3064 23.0802 29.3128 23.0706C29.4378 22.9712 29.5019 22.8975 29.5019 22.8975C29.2006 22.0482 28.6718 20.7629 27.4795 20.9488C26.5372 21.093 26.4442 22.1058 25.707 22.8462L25.7166 22.8398Z" fill="white"/>
<path d="M27.0428 21.9615C26.8761 22.657 27.1517 23.3173 27.6581 23.439C28.1646 23.5608 28.7126 23.0993 28.8793 22.4038C29.046 21.7083 28.7703 21.048 28.2639 20.9262C27.7575 20.8044 27.2094 21.266 27.0428 21.9615Z" fill="#56413D"/>
<path d="M27.5135 21.9134C27.4238 22.2884 27.5808 22.6474 27.8693 22.7179C28.1545 22.7884 28.4622 22.5384 28.552 22.1634C28.6417 21.7884 28.4847 21.4295 28.1962 21.359C27.9109 21.2917 27.6032 21.5384 27.5135 21.9134Z" fill="#44322E"/>
<path d="M29.1031 21.4776C29.1223 21.3462 28.7505 21.0706 28.7505 21.0706L28.1992 22.0321C28.1992 22.0321 29.0614 21.7404 29.1031 21.4776Z" fill="white"/>
<path d="M25.7168 22.8398C26.4508 22.0994 26.5469 21.0866 27.4892 20.9423C28.6815 20.7564 29.2136 22.0417 29.5117 22.891C29.4764 21.6282 29.2617 19.1122 28.0662 19.2981C27.1206 19.4423 26.1303 21.3558 25.7168 22.8398Z" fill="#E26939"/>
<path d="M28.1133 27.3783C27.4691 28.4104 25.0492 30.5931 23.2351 30.4553C21.8345 30.3495 20.1903 28.0033 19.6582 27.186C20.2031 27.279 21.187 27.3623 21.6774 27.3976C22.2255 27.4392 26.655 27.7598 28.1165 27.3783H28.1133Z" fill="#873421"/>
<path d="M26.5154 28.6956C26.3583 28.968 26.1404 29.2565 25.8968 29.468C25.8327 29.5257 25.7686 29.5834 25.7045 29.6443C25.5442 29.7885 25.384 29.9392 25.2141 30.0802C24.5506 30.4263 23.8615 30.6379 23.2301 30.5898C22.6372 30.5449 22.0154 30.1315 21.4449 29.5962L21.4096 29.4936C21.3455 29.4199 21.2974 29.3366 21.259 29.2469C21.1564 29.0161 21.1211 28.7501 21.041 28.5193C21.3743 28.5513 26.2814 28.6763 26.5186 28.6956H26.5154Z" fill="white"/>
<path d="M27.4602 27.3559C27.2038 27.9072 26.8897 28.5738 26.4826 28.7886C26.3897 28.8367 25.9025 28.8751 25.2583 28.8911C23.8063 28.9296 21.5403 28.8559 21.1172 28.5322C20.7903 28.279 20.5275 27.7565 20.332 27.2533C20.316 27.2149 20.3031 27.1764 20.2871 27.1379C20.3416 27.1443 20.3993 27.1508 20.4602 27.1572C20.6717 27.1796 20.9057 27.202 21.1621 27.2245C23.0467 27.3879 25.9345 27.5226 27.4602 27.3559Z" fill="white"/>
<path d="M26.4827 28.7886C26.159 28.8848 21.5404 28.8559 21.1173 28.5322C20.7904 28.279 20.5275 27.7566 20.332 27.2534L20.4602 27.1572C20.6718 27.1797 20.9057 27.2021 21.1622 27.2245C21.2038 27.5354 21.2807 27.8624 21.3705 28.1412C21.4186 28.2886 21.409 28.2886 21.5243 28.3527C21.7006 28.4489 25.9474 28.7438 26.4827 28.7886Z" fill="#E8E6E6"/>
<path d="M22.6809 27.4648H22.6873C22.6873 27.4648 22.6809 27.4648 22.6777 27.4648H22.6809ZM22.6809 27.4648H22.6873C22.6873 27.4648 22.6809 27.4648 22.6777 27.4648H22.6809ZM28.2514 27.1956C28.0719 27.2661 27.8027 27.3174 27.4629 27.3526C27.402 27.359 27.3379 27.3654 27.2706 27.3719C27.2546 27.3719 27.2418 27.3719 27.2226 27.3751C27.2065 27.3751 27.1905 27.3783 27.1745 27.3783C27.1392 27.3783 27.104 27.3815 27.0687 27.3847C27.0174 27.3879 26.9661 27.3911 26.9117 27.3943C26.9052 27.3943 26.8988 27.3943 26.8892 27.3943H26.8636C26.8476 27.3943 26.8315 27.3943 26.8155 27.3943C26.8027 27.3943 26.7899 27.3943 26.777 27.3943C26.7642 27.3943 26.7482 27.3943 26.7322 27.3943H26.7194C26.7194 27.3943 26.7065 27.3943 26.6969 27.3943C26.6841 27.3943 26.6745 27.3943 26.6585 27.3943H26.6264C26.5879 27.3943 26.5463 27.3943 26.5046 27.3975C26.4565 27.3975 26.4085 27.3975 26.3604 27.4007C26.3219 27.4007 26.2802 27.4007 26.2386 27.4007C26.2194 27.4007 26.1937 27.4007 26.1745 27.4007H26.0783C26.0495 27.4007 26.0238 27.4007 25.995 27.4007H25.7963C25.7963 27.4007 25.7899 27.4007 25.7867 27.4007C25.7835 27.4007 25.7802 27.4007 25.7738 27.4007H25.6008C25.5591 27.4007 25.5206 27.4007 25.479 27.4007H25.3924C25.3411 27.4007 25.2899 27.4007 25.2386 27.4007H25.2354C25.1809 27.4007 25.1264 27.4007 25.0719 27.4007C25.0431 27.4007 25.0174 27.4007 24.9918 27.4007C24.9117 27.4007 24.8283 27.4007 24.745 27.3975C24.6777 27.3975 24.6104 27.3975 24.5431 27.3943C24.4886 27.3943 24.4309 27.3943 24.3764 27.3911C24.3315 27.3911 24.2867 27.3911 24.2386 27.3879C24.1969 27.3879 24.1552 27.3879 24.1104 27.3847C24.0815 27.3847 24.0559 27.3847 24.0302 27.3847C23.9629 27.3847 23.8956 27.3783 23.8251 27.3751C23.8027 27.3751 23.777 27.3751 23.7546 27.3751C23.7386 27.3751 23.7226 27.3751 23.7065 27.3751H23.6841C23.6136 27.3751 23.5463 27.3687 23.479 27.3654C23.4309 27.3654 23.3828 27.3622 23.3347 27.359C23.2963 27.359 23.2642 27.3558 23.2258 27.3526C23.1392 27.3526 23.0527 27.343 22.9629 27.3398C22.8508 27.3334 22.7386 27.327 22.6296 27.3206C22.5399 27.3174 22.4501 27.3078 22.3636 27.3046C22.3476 27.3046 22.3315 27.3046 22.3155 27.3046C22.2867 27.3046 22.2578 27.3013 22.229 27.2981C22.2001 27.2981 22.1745 27.2949 22.1424 27.2917H22.1232C22.0527 27.2885 21.9822 27.2821 21.9117 27.2757H21.8988C21.8988 27.2757 21.8956 27.2757 21.8924 27.2757C21.8668 27.2757 21.8379 27.2757 21.8123 27.2725C21.7963 27.2725 21.7835 27.2725 21.7674 27.2725C21.7514 27.2725 21.7386 27.2725 21.7226 27.2693C21.6681 27.2661 21.6104 27.2629 21.5591 27.2565C21.5046 27.2533 21.4533 27.2469 21.3988 27.2437C21.3187 27.2404 21.245 27.2308 21.1713 27.2244C21.12 27.2212 21.0719 27.2148 21.0238 27.2116C21.0078 27.2116 20.995 27.2116 20.979 27.2116C20.9501 27.2116 20.9245 27.2084 20.8988 27.202C20.8924 27.202 20.886 27.202 20.8764 27.202C20.8732 27.202 20.8636 27.202 20.8604 27.202C20.8508 27.202 20.8444 27.202 20.8347 27.202C20.8251 27.202 20.8155 27.202 20.8059 27.202H20.7835C20.7642 27.202 20.7418 27.1988 20.7194 27.1956C20.6617 27.1892 20.604 27.1828 20.5463 27.1796C20.5238 27.1763 20.4982 27.1731 20.4726 27.1699C20.4117 27.1667 20.3572 27.1571 20.3027 27.1507C19.7899 27.0898 19.4501 27.0385 19.3828 26.9937C19.3828 26.9937 19.6905 27.5065 20.1681 28.1475C20.1969 28.186 20.2258 28.2276 20.2546 28.2629C20.5911 28.7084 21.0078 29.1956 21.4533 29.6122C21.5238 29.6795 21.5976 29.7437 21.6681 29.8078C21.7065 29.8366 21.7418 29.8719 21.7802 29.8975C21.8411 29.9456 21.902 29.9937 21.9597 30.0385C22.011 30.077 22.0623 30.1122 22.1136 30.1475C22.1424 30.1699 22.1681 30.186 22.1969 30.202C22.5078 30.4039 22.8219 30.5449 23.1296 30.5898C23.1681 30.5962 23.2033 30.6026 23.2418 30.6026C23.3091 30.6058 23.3796 30.609 23.4501 30.609H23.4694C23.4694 30.609 23.4822 30.609 23.4918 30.609C23.5559 30.609 23.62 30.6058 23.6873 30.5962C23.745 30.593 23.8027 30.5834 23.8636 30.5738H23.8668C23.9052 30.5706 23.9405 30.561 23.979 30.5546C24.027 30.5481 24.0751 30.5353 24.1232 30.5257C24.1905 30.5097 24.2546 30.4937 24.3187 30.4712C24.3347 30.468 24.3476 30.4616 24.3636 30.4584C24.4245 30.4392 24.4854 30.4199 24.5463 30.3975C24.5527 30.3975 24.5591 30.3943 24.5655 30.3911C24.6232 30.3687 24.6841 30.3462 24.7418 30.3238C24.8444 30.2821 24.9469 30.2372 25.0463 30.186C25.1072 30.1571 25.1681 30.1283 25.229 30.0962C26.1168 29.6347 26.9629 28.9424 27.5591 28.3142C27.6905 28.1763 27.8091 28.0449 27.9117 27.9167C28.0238 27.7853 28.1168 27.6603 28.1905 27.5449C28.2578 27.4456 28.3123 27.3558 28.3476 27.2725C28.37 27.2276 28.386 27.186 28.402 27.1443C28.3636 27.1699 28.3219 27.1924 28.2642 27.2148L28.2514 27.1956ZM28.027 27.5097C28.027 27.5097 28.027 27.5129 28.0238 27.5161C28.0078 27.5417 27.9886 27.5674 27.9694 27.593C27.9565 27.6154 27.9373 27.6347 27.9245 27.6539C27.7867 27.8334 27.6168 28.0257 27.4213 28.2308C27.4181 28.234 27.4117 28.2404 27.4085 28.2437C27.3924 28.2597 27.3796 28.2725 27.3636 28.2885C27.3251 28.327 27.2899 28.3654 27.2514 28.4039C27.2514 28.4039 27.2482 28.4071 27.245 28.4103C27.2354 28.4167 27.229 28.4231 27.2194 28.4328C27.2001 28.4552 27.1745 28.4744 27.1552 28.4969C27.1104 28.5385 27.0623 28.5834 27.0174 28.6251C26.9309 28.7052 26.8347 28.7885 26.7386 28.8687C26.7258 28.8783 26.7161 28.8879 26.7065 28.8975C26.6617 28.936 26.6168 28.9712 26.5719 29.0097C26.5174 29.0546 26.4694 29.093 26.4149 29.1347L26.4117 29.1379C26.3091 29.218 26.2065 29.2949 26.1008 29.3687C26.0815 29.3815 26.0623 29.3975 26.0399 29.4103C25.9854 29.4488 25.9309 29.4872 25.8764 29.5225C25.854 29.5385 25.8315 29.5513 25.8059 29.5674C25.8059 29.5674 25.8059 29.5674 25.8027 29.5674C25.7899 29.577 25.777 29.5866 25.761 29.593C25.761 29.593 25.761 29.593 25.7578 29.593C25.7578 29.593 25.7578 29.5962 25.7546 29.5962C25.7386 29.609 25.7193 29.6154 25.7065 29.6251C25.6777 29.6443 25.652 29.6603 25.6232 29.6763C25.5431 29.7276 25.4597 29.7757 25.3764 29.8206C25.3476 29.8398 25.3187 29.8526 25.2899 29.8687C25.2738 29.8783 25.2578 29.8879 25.245 29.8943C25.1841 29.9263 25.12 29.9584 25.0559 29.9904C25.011 30.0129 24.9629 30.0353 24.9149 30.0578C24.9149 30.0578 24.9085 30.0578 24.9052 30.061C24.8924 30.0674 24.8796 30.0738 24.8668 30.0802C24.8219 30.0994 24.7738 30.1219 24.7258 30.1411C24.6809 30.1603 24.6392 30.1763 24.5944 30.1956C24.5078 30.2276 24.4213 30.2597 24.3315 30.2853C24.3027 30.2949 24.277 30.3013 24.245 30.311C24.2386 30.311 24.2322 30.3142 24.2258 30.3174C24.1745 30.3302 24.1232 30.3462 24.0719 30.3558C24.0302 30.3654 23.9886 30.3751 23.9437 30.3847C23.9181 30.3879 23.8956 30.3943 23.87 30.3975C23.7899 30.4103 23.7129 30.4199 23.636 30.4263C23.6328 30.4263 23.6264 30.4263 23.6232 30.4263C23.5014 30.436 23.3796 30.436 23.261 30.4263C23.2226 30.4263 23.1809 30.4199 23.1392 30.4135C23.104 30.4103 23.0719 30.4007 23.0367 30.3943C23.0302 30.3943 23.0206 30.3943 23.0142 30.3911C22.995 30.3879 22.979 30.3815 22.9629 30.3783C22.9629 30.3783 22.9565 30.3783 22.9533 30.3783C22.9341 30.3719 22.9117 30.3654 22.8892 30.359C22.87 30.3558 22.8476 30.3462 22.8283 30.3366C22.8283 30.3366 22.7995 30.3238 22.7835 30.3206C22.7835 30.3206 22.7835 30.3206 22.7802 30.3206C22.7802 30.3206 22.7738 30.3206 22.7706 30.3206C22.7418 30.3078 22.7097 30.2917 22.6777 30.2789C22.6136 30.2501 22.5527 30.218 22.4918 30.186C22.4629 30.1667 22.4277 30.1507 22.3988 30.1315C22.3796 30.1187 22.3636 30.109 22.3476 30.1026C22.3123 30.0834 22.277 30.0578 22.2418 30.0321C22.2065 30.0097 22.1713 29.9872 22.1392 29.9616C22.1008 29.936 22.0687 29.9103 22.0335 29.8815C21.9982 29.8558 21.9629 29.827 21.9309 29.8013C21.886 29.7629 21.8444 29.7276 21.7995 29.6892C21.7867 29.6828 21.777 29.6731 21.7642 29.6603C21.7514 29.6507 21.745 29.6411 21.7322 29.6315C21.6809 29.5866 21.6296 29.5385 21.5783 29.4937C21.5399 29.4584 21.5078 29.4263 21.4726 29.3911C21.4661 29.3879 21.4597 29.3815 21.4565 29.3783C21.3988 29.3206 21.3379 29.2629 21.2835 29.202C21.2642 29.1795 21.245 29.1603 21.2258 29.1411C21.1841 29.0994 21.1424 29.0546 21.104 29.0097C21.0847 28.9872 21.0655 28.9648 21.0431 28.9424C20.9437 28.8334 20.8476 28.7212 20.7546 28.609C20.7001 28.5417 20.6456 28.4776 20.5944 28.4135C20.5399 28.3494 20.4918 28.2853 20.4405 28.2212C20.4181 28.1892 20.3956 28.1571 20.37 28.1251C20.3572 28.1058 20.3411 28.0834 20.3251 28.0642C20.3027 28.0385 20.2867 28.0161 20.2674 27.9904C20.12 27.7917 19.9886 27.6026 19.8796 27.4456C19.8572 27.4135 19.8347 27.3815 19.8155 27.3494C19.7738 27.2885 19.7354 27.2308 19.7033 27.1796C19.8315 27.1988 19.979 27.2212 20.1392 27.2404C20.1745 27.2404 20.2097 27.2501 20.245 27.2533C20.2674 27.2533 20.2899 27.2565 20.3155 27.2597C20.3379 27.2629 20.3604 27.2661 20.386 27.2693C20.4085 27.2693 20.4309 27.2725 20.4533 27.2757C20.4661 27.2757 20.479 27.2757 20.4918 27.2789C20.527 27.2789 20.5591 27.2853 20.5944 27.2917C20.6649 27.2981 20.7386 27.3045 20.8155 27.311C20.8379 27.311 20.8572 27.3142 20.8796 27.3142C20.902 27.3142 20.9245 27.3174 20.9469 27.3206C20.9918 27.3238 21.0399 27.3302 21.0847 27.3334C21.0976 27.3334 21.1136 27.3334 21.1264 27.3334H21.1328C21.1649 27.3334 21.1969 27.3398 21.229 27.343C21.245 27.343 21.261 27.343 21.277 27.3462C21.2835 27.3462 21.2899 27.3462 21.2963 27.3462L21.3988 27.3526C21.5206 27.3654 21.6264 27.3719 21.7194 27.3815C21.7418 27.3815 21.7674 27.3815 21.7995 27.3847H21.8091C21.8091 27.3847 21.8283 27.3847 21.8411 27.3879C21.8668 27.3879 21.8956 27.3879 21.9277 27.3911C21.9694 27.3943 22.0174 27.3975 22.0687 27.4007C22.0944 27.4007 22.1232 27.4039 22.1552 27.4071C22.1745 27.4071 22.1969 27.4071 22.2194 27.4103H22.245C22.2706 27.4103 22.2995 27.4135 22.3283 27.4167C22.402 27.4199 22.4822 27.4263 22.5655 27.4295C22.604 27.4295 22.6392 27.4328 22.6777 27.436C22.6809 27.436 22.6905 27.436 22.6937 27.436H22.7226H22.761C22.8155 27.4392 22.87 27.4424 22.9277 27.4456C22.9469 27.4456 22.9661 27.4488 22.9822 27.4488C23.027 27.4488 23.0719 27.452 23.12 27.4552C23.1809 27.4584 23.2482 27.4616 23.3123 27.4648C23.3764 27.468 23.4405 27.4712 23.5078 27.4744C23.5238 27.4744 23.5399 27.4744 23.5559 27.4744C23.5751 27.4744 23.6008 27.4744 23.6232 27.4776C23.6873 27.4776 23.7546 27.4808 23.8219 27.484C23.8347 27.484 23.8508 27.484 23.8668 27.484C23.902 27.484 23.9373 27.484 23.9694 27.4872H23.9726C24.1488 27.4937 24.3315 27.5001 24.511 27.5065C24.5431 27.5065 24.5751 27.5065 24.6072 27.5065C24.62 27.5065 24.6264 27.5065 24.6392 27.5065C24.6905 27.5065 24.745 27.5065 24.7995 27.5097C24.8892 27.5097 24.979 27.5097 25.0719 27.5129C25.1104 27.5129 25.1456 27.5129 25.1841 27.5129C25.261 27.5129 25.3347 27.5129 25.4085 27.5129H25.745C25.7835 27.5129 25.8187 27.5129 25.8572 27.5129C25.9277 27.5129 25.9982 27.5129 26.0687 27.5129H26.229C26.2835 27.5129 26.3411 27.5129 26.3988 27.5097H26.4245C26.4245 27.5097 26.4533 27.5097 26.4694 27.5097C26.5142 27.5097 26.5559 27.5097 26.5976 27.5065C26.7065 27.5033 26.8091 27.4969 26.9117 27.4937C26.9918 27.4904 27.0687 27.484 27.1424 27.4776H27.1617C27.1617 27.4776 27.1841 27.4776 27.1937 27.4776C27.2161 27.4776 27.2354 27.4744 27.2578 27.4712C27.3059 27.4712 27.354 27.4648 27.3956 27.4584C27.3988 27.4584 27.402 27.4584 27.4052 27.4584H27.4085H27.4277C27.511 27.4488 27.5911 27.4392 27.6713 27.4295C27.6905 27.4295 27.7161 27.4263 27.7354 27.4199C27.7802 27.4135 27.8219 27.4071 27.8636 27.4007C27.902 27.3943 27.9437 27.3847 27.9822 27.3783C27.9982 27.3783 28.011 27.3719 28.027 27.3687C28.0623 27.3622 28.0943 27.3558 28.1232 27.3462C28.1264 27.3462 28.1328 27.3462 28.136 27.3462C28.1392 27.3462 28.1456 27.343 28.1488 27.343C28.1488 27.343 28.1328 27.3719 28.1232 27.3847C28.1232 27.3847 28.1232 27.3847 28.1232 27.3879C28.1136 27.4039 28.104 27.4167 28.0911 27.436C28.0847 27.4488 28.0751 27.4616 28.0655 27.4744L28.027 27.5097ZM22.6809 27.4648H22.6873C22.6873 27.4648 22.6809 27.4648 22.6777 27.4648H22.6809ZM22.6809 27.4648H22.6873C22.6873 27.4648 22.6809 27.4648 22.6777 27.4648H22.6809Z" fill="#E26939"/>
<path d="M24.7203 31.484C23.8133 30.6955 21.9863 31.484 21.9863 31.484C22.3902 31.3974 24.2363 31.6795 24.5408 31.8397C24.5921 31.7404 24.8229 31.5673 24.7203 31.4808V31.484Z" fill="#E26939"/>
<path d="M23.3376 16.4648C23.1966 16.4424 22.9242 16.4199 22.9242 16.4199L22.5267 16.8943C22.5267 16.8943 22.5492 16.4359 22.469 16.4359C20.3985 16.4359 19.7383 17.8334 19.7383 17.8334C20.328 17.6251 20.9306 17.5033 21.5043 17.5C22.2928 17.5 22.7351 17.6795 23.0748 18.0802C23.2062 17.5513 23.3088 17.0129 23.3344 16.4648H23.3376Z" fill="#44322E"/>
<path d="M26.3932 17.6667C26.5374 17.6764 26.8067 17.7084 26.8067 17.7084L27.0951 18.2565C27.0951 18.2565 27.1721 17.8046 27.249 17.8206C29.2746 18.2565 29.624 19.7597 29.624 19.7597C29.0919 19.4328 28.5278 19.186 27.9669 19.0642C27.1945 18.8943 26.7265 18.9809 26.3067 19.3014C26.2907 18.7565 26.3035 18.2084 26.3932 17.67V17.6667Z" fill="#44322E"/>
<path d="M18.1619 21.2469C17.8125 20.5835 16.4792 20.3912 15.9311 20.888C15.3221 21.4425 16.1875 24.5995 16.8798 24.638C18.4856 24.7277 18.1619 21.2437 18.1619 21.2437V21.2469Z" fill="#F28C5F"/>
<path d="M17.912 22.872C17.9504 22.6412 17.9889 22.3816 17.9921 22.1476C17.9921 22.0226 17.9729 21.8848 17.96 21.763C17.9536 21.6957 17.9376 21.6124 17.9184 21.5675C17.7325 21.1316 17.2389 21.0899 16.8959 21.0355C16.7517 21.013 16.5049 20.9778 16.3767 21.0419C16.2741 21.0932 16.2132 21.247 16.1523 21.3335C16.4504 21.0643 17.0626 21.2502 17.3543 21.4682C17.6588 21.6957 17.7325 22.2823 17.5947 22.6284C17.2998 22.5771 17.0145 22.8944 17.0338 23.1733C17.0498 23.4521 17.5882 23.6412 17.6908 23.3784C17.2229 23.2566 17.6363 22.9008 17.9184 22.8752L17.912 22.872Z" fill="#E26939"/>
<path d="M30.6593 22.4391C31.14 21.8654 32.483 21.9519 32.9157 22.5577C33.3965 23.2275 31.8868 26.1314 31.2009 26.0256C29.6112 25.7756 30.6593 22.4391 30.6593 22.4391Z" fill="#F28C5F"/>
<path d="M30.5664 24.08C30.576 23.8461 30.592 23.5865 30.6401 23.3557C30.6658 23.2339 30.7138 23.1025 30.7523 22.9871C30.7715 22.923 30.8036 22.8429 30.8324 22.8044C31.1049 22.4166 31.5953 22.4807 31.9446 22.4999C32.0888 22.5063 32.3388 22.5223 32.451 22.6153C32.5408 22.689 32.5664 22.8493 32.6113 22.9486C32.3773 22.6217 31.7395 22.6762 31.4094 22.83C31.0664 22.9871 30.8709 23.548 30.9318 23.9134C31.2299 23.9262 31.4414 24.2948 31.3677 24.564C31.2908 24.8332 30.7299 24.907 30.685 24.6249C31.1658 24.6025 30.8388 24.1698 30.5696 24.0865L30.5664 24.08Z" fill="#E26939"/>
<path d="M31.8806 14.0994C31.5537 13.4231 29.0825 9.03532 28.0184 11.2308C27.7332 8.00327 21.6306 8.13147 23.2748 10.1411C21.9992 10.0578 19.0633 10.1988 20.5377 11.6379C20.7364 11.8302 20.0216 11.4039 19.1627 11.9007C15.4479 14.0417 19.0569 18.5001 19.3774 17.6122C19.6563 16.8366 20.246 15.8719 20.2909 15.0449C21.6595 15.2949 23.1114 14.5866 23.7524 13.4007C23.7268 13.6219 23.8293 16.5706 27.0793 14.8398C27.5377 15.6924 28.0152 16.5513 28.887 16.936C29.4383 17.1795 29.839 17.1251 30.1082 16.718C30.3742 17.7276 30.4159 19.4969 30.4672 20.436C30.5857 19.8687 33.5697 17.6058 31.8774 14.1026L31.8806 14.0994Z" fill="#44322E"/>
<path d="M19.0648 26.8527C19.4046 26.5739 21.5488 27.2117 22.2026 27.3559C22.5744 27.436 23.1546 27.6251 23.5296 27.4905C23.8982 27.3591 23.8661 26.8848 23.895 26.561C23.895 26.561 18.9398 25.7501 19.0648 26.8527Z" fill="#44322E"/>
<path d="M28.5014 27.6508C28.2098 27.3239 25.9918 27.6091 25.3219 27.6444C24.9405 27.6668 24.338 27.7565 23.9918 27.5642C23.6489 27.3751 23.7578 26.9136 23.7803 26.5867C23.7803 26.5867 28.8027 26.5803 28.5014 27.6476V27.6508Z" fill="#44322E"/>
<path d="M22.4099 25.5449C22.0573 25.5738 21.7656 25.7693 21.7656 26.1507C21.7688 26.8174 22.8842 26.8847 23.4034 26.9936C24.381 27.1956 25.6791 26.9071 26.3746 26.1827C23.9932 26.8783 22.4099 25.5449 22.4099 25.5449Z" fill="#E26939"/>
<path d="M21.7363 19.0288C21.7363 19.0288 23.3517 22.4295 22.262 26.3077C22.5536 26.4968 23.1017 26.407 23.3998 26.5769C23.9831 24.8686 22.5953 20.032 21.7363 19.0288Z" fill="#E26939"/>
<path d="M40.5364 44.5866C40.0908 44.9424 39.6325 45.2822 39.1678 45.5995C38.7832 45.8623 38.3921 46.1155 37.9979 46.3559C37.6517 46.5674 37.3024 46.7693 36.9434 46.9616C36.8473 47.0161 36.7479 47.0674 36.6421 47.1187C36.6325 47.1219 36.6229 47.1315 36.6101 47.1347C36.078 47.4136 35.5332 47.6764 34.9819 47.9136C34.6037 48.0802 34.2191 48.2341 33.8344 48.3751C33.7543 48.4104 33.671 48.436 33.5908 48.468C33.546 48.4841 33.5043 48.5001 33.4562 48.5161C33.4274 48.5289 33.3953 48.5386 33.3633 48.5514C33.3953 48.3815 33.4274 48.2148 33.4626 48.0514C34.3665 43.6155 35.6389 40.4648 37.3216 41.0834C37.3248 41.0834 37.3312 41.0834 37.3344 41.0866C37.4146 41.1155 37.4979 41.1572 37.5812 41.2052C37.5908 41.2116 37.6005 41.218 37.6101 41.2245C38.8953 41.9809 39.8537 43.1443 40.5364 44.5834V44.5866Z" fill="#CCCCCC"/>
<path d="M33.4562 48.5194C33.4274 48.5323 33.3953 48.5419 33.3633 48.5547C33.3953 48.3848 33.4274 48.2181 33.4626 48.0547C33.4626 48.1573 33.4626 48.3175 33.4562 48.5194Z" fill="#595857"/>
</g>
<defs>
<clipPath id="clip0_104_202">
<rect width="50" height="50" fill="white"/>
</clipPath>
</defs>
</svg>
