<svg width="50" height="50" viewBox="0 0 50 50" fill="none" xmlns="http://www.w3.org/2000/svg">
<g clip-path="url(#clip0_104_261)">
<path d="M45.7089 38.0825L45.7091 38.0821C52.9365 26.6489 49.5255 11.5187 38.0859 4.29121L38.0858 4.29118C26.6494 -2.9363 11.5191 0.474844 4.29167 11.9144L4.29154 11.9146C0.519665 17.8786 -0.354015 24.85 1.28503 31.1669C1.33929 31.368 1.39248 31.565 1.44859 31.7615C1.45055 31.7681 1.45514 31.7827 1.46117 31.8018C1.47808 31.8555 1.5063 31.9451 1.51944 31.9955L1.52309 32.0095L1.52475 32.0178L1.52777 32.0269L1.53117 32.0369L1.53561 32.0501L1.53859 32.0591L1.54122 32.0681C1.64355 32.4185 1.75897 32.7651 1.87962 33.1143C2.14326 33.8643 2.44143 34.5988 2.77422 35.321C2.83877 35.4584 2.90331 35.5902 2.97029 35.7269C3.00397 35.7957 3.03827 35.8657 3.0735 35.9384C3.23319 36.2545 3.38762 36.5568 3.55601 36.8507L3.5687 36.8729L3.57908 36.8962C3.59101 36.9231 3.60863 36.9542 3.63746 37.0023L3.6419 37.0097L3.64608 37.0172C3.88512 37.4488 4.14371 37.8728 4.41632 38.2929C4.4188 38.2965 4.42516 38.3057 4.432 38.3167C4.43753 38.3255 4.44354 38.3357 4.44971 38.3471C4.69419 38.7246 4.95782 39.0985 5.22813 39.4714C5.56371 39.9292 5.91863 40.3784 6.28675 40.8158C6.53772 41.1132 6.79342 41.4029 7.06012 41.6855C7.0703 41.6949 7.08466 41.709 7.10059 41.7276C7.45537 42.1036 7.81734 42.4681 8.19602 42.8191L8.2018 42.8244L8.20175 42.8245C8.34384 42.9604 8.48902 43.0932 8.63732 43.223L8.64602 43.2306L8.64593 43.2307C8.83021 43.3996 9.01461 43.5629 9.20006 43.7159C9.22358 43.7331 9.25954 43.7604 9.29562 43.7939C9.4294 43.9062 9.56577 44.0183 9.70185 44.1272C9.81684 44.2173 9.93538 44.3078 10.0569 44.4005L10.0643 44.4062L10.0643 44.4062C10.2424 44.5475 10.4239 44.6829 10.6122 44.8156L10.6472 44.8403L10.6512 44.8443C10.6824 44.8658 10.7133 44.887 10.7448 44.9087L10.7464 44.9098C10.7872 44.9377 10.8289 44.9664 10.8715 44.9959L10.8736 44.9973L10.8749 44.9983C10.8955 45.0127 10.9177 45.0282 10.9414 45.0451L10.9517 45.0485L11.0177 45.0986C11.0801 45.146 11.1486 45.1913 11.2315 45.2435L11.2488 45.2543L11.2651 45.2666C11.3079 45.2986 11.348 45.3266 11.3907 45.354L11.4185 45.3679L11.4444 45.3852L11.4636 45.398L11.4703 45.4025L11.4769 45.4072C11.4804 45.4096 11.4855 45.4131 11.4989 45.422C11.5089 45.4287 11.5261 45.4402 11.5439 45.4527C11.6579 45.5316 11.78 45.6091 11.9064 45.6881L11.9126 45.692L11.9187 45.6961C11.9516 45.7179 11.9781 45.7347 12.0055 45.7507L12.0128 45.755L12.02 45.7595C12.0579 45.7834 12.0974 45.8071 12.1422 45.834C12.1851 45.8597 12.2333 45.8886 12.2814 45.9189C12.2977 45.929 12.3122 45.9374 12.335 45.9504L12.3526 45.9605L12.3692 45.9719C12.3856 45.9831 12.4045 45.9947 12.433 46.0116C12.4374 46.0142 12.4423 46.0171 12.4475 46.0202C12.4707 46.0338 12.5013 46.0518 12.5313 46.0706C12.6694 46.1534 12.8073 46.2331 12.9451 46.3096L12.9529 46.3139L12.9528 46.314C12.9681 46.3228 12.9837 46.3317 13 46.341C13.0131 46.3484 13.0267 46.3561 13.0409 46.3641C13.07 46.3805 13.1016 46.3983 13.133 46.4165C13.238 46.4737 13.3343 46.5261 13.4323 46.5751L13.4495 46.5837L13.4659 46.5936C13.4673 46.5944 13.4686 46.5952 13.4699 46.596L13.5346 46.6219L13.5559 46.6432C13.57 46.6507 13.5838 46.6581 13.5975 46.6654C13.6746 46.7066 13.7458 46.7447 13.8169 46.7803L13.8341 46.7888L13.8418 46.7935L13.8496 46.7966L13.8682 46.8059C13.9168 46.8302 13.9648 46.8551 14.0092 46.878C14.0546 46.9016 14.0963 46.9231 14.1374 46.9437C14.2451 46.9976 14.35 47.05 14.4575 47.1023C14.5322 47.1365 14.6072 47.1698 14.6855 47.2045C14.7272 47.223 14.7697 47.2418 14.8135 47.2615L14.8251 47.2667L14.8251 47.2668C14.8662 47.2865 14.8967 47.2999 14.933 47.3157C14.9632 47.329 14.9975 47.344 15.0452 47.3659L15.0529 47.3694L15.0605 47.3732L15.0887 47.3875L15.107 47.3969C15.1136 47.4002 15.1163 47.4014 15.1165 47.4014L15.1238 47.4044L15.1319 47.408C15.2443 47.4576 15.3468 47.5026 15.4497 47.5448H15.4538L15.5076 47.5682C15.512 47.5699 15.5163 47.5717 15.5207 47.5734L15.6171 47.6115L15.6243 47.6187C15.8624 47.7205 16.1041 47.8156 16.3478 47.9063L16.3563 47.9095L16.3563 47.9095C16.4475 47.9454 16.5275 47.9767 16.6089 48.0048L16.6203 48.0087L16.6316 48.0132C16.6839 48.0342 16.7377 48.0531 16.8034 48.0761L16.806 48.077C17.6699 48.3848 18.5458 48.6423 19.4243 48.8462L19.4291 48.8473C19.5225 48.87 19.6169 48.8901 19.7185 48.9117C19.7327 48.9141 19.745 48.9166 19.7547 48.9187C19.7668 48.9214 19.7781 48.9242 19.7847 48.9258L19.7873 48.9261L19.8068 48.9302C19.8926 48.9479 19.9756 48.9656 20.0568 48.983C20.069 48.9847 20.0799 48.9867 20.0895 48.9885C20.1128 48.9932 20.1322 48.9985 20.143 49.0016L20.2052 49.0128L20.2828 49.0268L20.2909 49.0282L20.2989 49.0299C20.3224 49.0348 20.3464 49.0393 20.3786 49.0453C20.4061 49.0504 20.4402 49.0568 20.4755 49.0645C21.2199 49.205 21.9646 49.3081 22.7129 49.377L22.7238 49.378L22.7346 49.3795C22.7915 49.3873 22.8502 49.3927 22.9214 49.3992C23.5047 49.4464 24.0849 49.4777 24.666 49.4839L24.6758 49.484L24.6758 49.4841C24.7727 49.4871 24.874 49.4871 24.9811 49.4871C25.0015 49.4871 25.0216 49.4865 25.0491 49.4857L25.0523 49.4856C25.0774 49.4849 25.1101 49.4839 25.1446 49.4839H25.1565L25.1684 49.4845C25.2199 49.4869 25.2713 49.4869 25.3227 49.4845L25.3513 49.4831L25.3798 49.485C25.3933 49.4859 25.3985 49.4857 25.4106 49.4852C25.4237 49.4847 25.4449 49.4839 25.4937 49.4839M45.7089 38.0825L25.4972 49.9839M45.7089 38.0825C44.3996 40.1578 42.8267 41.9634 41.0681 43.4962M45.7089 38.0825L46.1318 38.3493M25.4937 49.4839C25.4948 49.4839 25.496 49.4839 25.4972 49.4839V49.9839M25.4937 49.4839C25.4926 49.4839 25.4916 49.4839 25.4906 49.4839L25.4972 49.9839M25.4937 49.4839C25.732 49.4807 25.9583 49.4745 26.1851 49.4594L26.1964 49.4586L26.2077 49.4584C26.3445 49.4554 26.4839 49.4467 26.6278 49.4344L26.639 49.4335L26.6391 49.4336C26.7931 49.424 26.9312 49.4149 27.0736 49.4L27.0849 49.3989L27.0849 49.399C27.972 49.3269 28.8571 49.2014 29.7338 49.0286L29.7817 49.0191H29.7927M25.4972 49.9839C25.7408 49.9807 25.9779 49.9743 26.2183 49.9582C26.369 49.955 26.5196 49.9454 26.6702 49.9326C26.8241 49.923 26.9715 49.9134 27.1254 49.8974C28.0324 49.8236 28.9363 49.6954 29.8305 49.5191H29.8433M29.7927 49.0191C29.7763 49.0225 29.76 49.0259 29.7436 49.0292L29.8305 49.4561L29.8433 49.5191M29.7927 49.0191C30.3165 48.9115 30.8413 48.786 31.3616 48.6483C31.5832 48.589 31.7953 48.5306 32.0089 48.4667C32.0368 48.4572 32.0601 48.451 32.0698 48.4484L32.0719 48.4479C32.072 48.4479 32.0721 48.4478 32.0722 48.4478L32.0761 48.4463L32.0905 48.4419C32.4579 48.3288 32.8235 48.2101 33.1847 48.0826C33.2042 48.075 33.2228 48.0684 33.2334 48.0647L33.2381 48.063C33.2464 48.06 33.2501 48.0586 33.2511 48.0582L33.2713 48.0492L33.2942 48.0416C33.32 48.033 33.3385 48.0262 33.3626 48.0174C33.3768 48.0122 33.393 48.0062 33.4138 47.9988C33.4576 47.9821 33.4864 47.972 33.5088 47.964C33.5382 47.9536 33.5567 47.9471 33.5836 47.935L33.6243 47.9167L33.6379 47.9133L33.651 47.9082C33.6663 47.9023 33.6824 47.8961 33.6992 47.8896C33.7618 47.8653 33.8331 47.8376 33.9049 47.8126C34.1757 47.7078 34.4393 47.6005 34.705 47.4846C34.7131 47.4808 34.7204 47.4775 34.7262 47.4749L34.7489 47.465L34.7584 47.4609L34.7672 47.4565L34.7803 47.4509C35.3184 47.2194 35.8518 46.9622 36.374 46.6885L36.4269 46.6607L36.4325 46.6594M29.7927 49.0191H29.8305H29.8305H29.8306H29.8306H29.8307H29.8307H29.8307H29.8308H29.8308H29.8309H29.8309H29.8309H29.831H29.831H29.8311H29.8311H29.8311H29.8312H29.8312H29.8313H29.8313H29.8314H29.8314H29.8314H29.8315H29.8315H29.8316H29.8316H29.8317H29.8317H29.8318H29.8318H29.8318H29.8319H29.8319H29.832H29.832H29.8321H29.8321H29.8322H29.8322H29.8323H29.8323H29.8324H29.8324H29.8325H29.8325H29.8326H29.8326H29.8326H29.8327H29.8327H29.8328H29.8328H29.8329H29.8329H29.833H29.833H29.8331H29.8332H29.8332H29.8333H29.8333H29.8334H29.8334H29.8335H29.8335H29.8336H29.8336H29.8337H29.8337H29.8338H29.8338H29.8339H29.8339H29.834H29.834H29.8341H29.8341H29.8342H29.8343H29.8343H29.8344H29.8344H29.8345H29.8345H29.8346H29.8346H29.8347H29.8347H29.8348H29.8348H29.8349H29.835H29.835H29.8351H29.8351H29.8352H29.8352H29.8353H29.8353H29.8354H29.8355H29.8355H29.8356H29.8356H29.8357H29.8357H29.8358H29.8358H29.8359H29.836H29.836H29.8361H29.8361H29.8362H29.8362H29.8363H29.8363H29.8364H29.8365H29.8365H29.8366H29.8366H29.8367H29.8367H29.8368H29.8369H29.8369H29.837H29.837H29.8371H29.8371H29.8372H29.8373H29.8373H29.8374H29.8374H29.8375H29.8375H29.8376H29.8376H29.8377H29.8378H29.8378H29.8379H29.8379H29.838H29.838H29.8381H29.8381H29.8382H29.8383H29.8383H29.8384H29.8384H29.8385H29.8385H29.8386H29.8386H29.8387H29.8388H29.8388H29.8389H29.8389H29.839H29.839H29.8391H29.8391H29.8392H29.8393H29.8393H29.8394H29.8394H29.8395H29.8395H29.8396H29.8396H29.8397H29.8397H29.8398H29.8398H29.8399H29.8399H29.84H29.8401H29.8401H29.8402H29.8402H29.8403H29.8403H29.8404H29.8404H29.8405H29.8405H29.8406H29.8406H29.8407H29.8407H29.8408H29.8408H29.8409H29.8409H29.841H29.841H29.8411H29.8411H29.8412H29.8412H29.8413H29.8413H29.8414H29.8414H29.8415H29.8415H29.8416H29.8416H29.8417H29.8417H29.8418H29.8418H29.8418H29.8419H29.8419H29.842H29.842H29.8421H29.8421H29.8422H29.8422H29.8423H29.8423H29.8423H29.8424H29.8424H29.8425H29.8425H29.8426H29.8426H29.8426H29.8427H29.8427H29.8428H29.8428H29.8429H29.8429H29.8429H29.843H29.843H29.8431H29.8431H29.8431H29.8432H29.8432H29.8432H29.8433H29.8433V49.5191M29.8433 49.5191C30.3946 49.407 30.9459 49.2756 31.4908 49.1313C31.7183 49.0704 31.9395 49.0095 32.1638 48.9422C32.1767 48.9374 32.1887 48.9342 32.2007 48.931C32.2127 48.9278 32.2247 48.9246 32.2376 48.9198C32.6126 48.8044 32.9876 48.6826 33.3593 48.5512C33.3729 48.5458 33.3865 48.5409 33.3999 48.5361C33.418 48.5296 33.4357 48.5233 33.4523 48.5159C33.4844 48.5052 33.5136 48.4946 33.5428 48.4839C33.5574 48.4785 33.572 48.4732 33.5869 48.4679C33.6093 48.4593 33.6321 48.4511 33.6549 48.4429C33.7005 48.4266 33.7461 48.4102 33.7888 48.3909C33.8017 48.3877 33.8177 48.3813 33.8305 48.3749C33.8487 48.3679 33.8667 48.3609 33.8847 48.354C33.949 48.329 34.0122 48.3045 34.0773 48.282C34.3593 48.173 34.635 48.0608 34.9138 47.939C34.9234 47.9342 34.9347 47.9294 34.9459 47.9246C34.9571 47.9198 34.9683 47.915 34.9779 47.9102C35.5292 47.673 36.0741 47.4102 36.6061 47.1313C36.6134 47.1295 36.6197 47.1256 36.6255 47.122C36.6299 47.1193 36.634 47.1167 36.6382 47.1153M22.667 49.8749C22.7375 49.8845 22.8079 49.8909 22.8783 49.8973L22.8786 49.8974C23.4715 49.9454 24.0645 49.9775 24.6606 49.9839L22.667 49.8749ZM22.667 49.8749C21.901 49.8044 21.1382 49.6986 20.3754 49.5544C20.3441 49.5474 20.3118 49.5414 20.2791 49.5353C20.2516 49.5302 20.2237 49.525 20.1959 49.5191M22.667 49.8749L20.1959 49.5191M20.1959 49.5191C20.1414 49.5095 20.0901 49.4999 20.0356 49.4903M20.1959 49.5191L20.0356 49.4903M20.0356 49.4903C20.0279 49.489 20.0202 49.4867 20.0126 49.4844C20.001 49.4809 19.9895 49.4775 19.9779 49.4775C19.8882 49.4582 19.7985 49.439 19.7055 49.4198M20.0356 49.4903L19.7055 49.4198M19.7055 49.4198C19.6927 49.4182 19.6799 49.415 19.667 49.4118C19.6542 49.4086 19.6414 49.4054 19.6286 49.4038L19.6282 49.4037C19.5225 49.3813 19.4169 49.3589 19.3113 49.3332M19.7055 49.4198L19.3113 49.3332M19.3113 49.3332C18.4138 49.1249 17.5196 48.8621 16.6382 48.548M19.3113 49.3332L16.6382 48.548M16.6382 48.548L16.638 48.5479C16.5739 48.5255 16.5099 48.5031 16.4459 48.4775M16.6382 48.548L16.4459 48.4775M16.4459 48.4775C16.353 48.4454 16.2633 48.4102 16.1736 48.375L16.1735 48.3749M16.4459 48.4775L16.1735 48.3749M16.1735 48.3749C15.8978 48.2724 15.6222 48.1634 15.3497 48.0448M16.1735 48.3749L15.3497 48.0448M15.3497 48.0448C15.3465 48.0448 15.3401 48.0416 15.3369 48.0384M15.3497 48.0448L15.3369 48.0384M15.3369 48.0384C15.1991 47.9839 15.0677 47.9262 14.9299 47.8653M15.3369 48.0384L14.9299 47.8653M14.9299 47.8653C14.9059 47.8557 14.8838 47.8444 14.8607 47.8326C14.8529 47.8285 14.845 47.8245 14.8369 47.8204M14.9299 47.8653L14.8369 47.8204M14.8369 47.8204C14.8054 47.806 14.7739 47.7921 14.7426 47.7783C14.6975 47.7584 14.6529 47.7387 14.6093 47.7179M14.8369 47.8204L14.6093 47.7179M14.6093 47.7179C14.5688 47.6997 14.5279 47.6816 14.487 47.6635C14.4051 47.6271 14.3231 47.5908 14.244 47.5544C14.1318 47.4999 14.0228 47.4454 13.9138 47.3909C13.869 47.3685 13.8241 47.3453 13.7792 47.322C13.7343 47.2988 13.6895 47.2756 13.6446 47.2531M14.6093 47.7179L13.6446 47.2531M13.6446 47.2531C13.6286 47.2467 13.6093 47.2371 13.5933 47.2275M13.6446 47.2531L13.5933 47.2275M13.5933 47.2275C13.5155 47.1886 13.4359 47.146 13.3573 47.1039C13.3322 47.0905 13.3072 47.0772 13.2824 47.064M13.5933 47.2275L13.2824 47.064M13.2824 47.064C13.2728 47.064 13.26 47.0544 13.2536 47.048M13.2824 47.064L13.2536 47.048M13.2536 47.048C13.242 47.0434 13.2322 47.0371 13.2215 47.0304C13.2174 47.0277 13.2132 47.025 13.2087 47.0224C13.0999 46.9679 12.9943 46.9103 12.8887 46.8527L12.8882 46.8525C12.8577 46.8348 12.8264 46.8172 12.7952 46.7995C12.7639 46.7819 12.7327 46.7643 12.7023 46.7467M13.2536 47.048L12.7023 46.7467M12.7023 46.7467C12.5581 46.6666 12.4138 46.5833 12.2696 46.4967C12.2452 46.4813 12.2209 46.467 12.1965 46.4526C12.16 46.4311 12.1235 46.4095 12.0869 46.3845M12.7023 46.7467L12.0869 46.3845M12.0869 46.3845C12.0645 46.3717 12.042 46.3589 12.0164 46.3429C11.9731 46.3156 11.9291 46.2892 11.885 46.2628C11.841 46.2363 11.7969 46.2099 11.7536 46.1826M12.0869 46.3845L11.7536 46.1826M11.7536 46.1826C11.7151 46.1602 11.6799 46.1377 11.6414 46.1121M11.7536 46.1826L11.6414 46.1121M11.6414 46.1121C11.5132 46.032 11.3818 45.9486 11.2568 45.8621C11.2456 45.8541 11.2335 45.8461 11.2215 45.8381C11.2095 45.83 11.1975 45.822 11.1863 45.814M11.6414 46.1121L11.1863 45.814M11.1863 45.814L11.167 45.8012M11.1863 45.814L11.167 45.8012M11.167 45.8012C11.167 45.8012 11.1606 45.798 11.1574 45.798M11.167 45.8012L11.2156 45.704M11.167 45.8012L11.2157 45.7038L11.2156 45.704M11.167 45.8012L10.9651 45.6666M11.1574 45.798C11.0901 45.7563 11.0292 45.7147 10.9651 45.6666M11.1574 45.798L11.2156 45.704M11.1574 45.798V45.4102V45.3611V45.298C11.171 45.298 11.184 45.2986 11.1962 45.2995C11.211 45.3007 11.2246 45.3023 11.2368 45.3043C11.267 45.309 11.2887 45.3152 11.2976 45.3177C11.3208 45.3243 11.339 45.3313 11.3491 45.3353C11.3602 45.3398 11.3694 45.3439 11.3755 45.3467L11.3841 45.3508L11.3876 45.3525L11.3892 45.3532L11.3899 45.3536L11.3903 45.3538L11.3904 45.3539L11.3905 45.3539L11.2156 45.704M10.9651 45.6666C10.8786 45.6121 10.7952 45.5576 10.7151 45.4967M10.9651 45.6666L10.7151 45.4967M10.7151 45.4967C10.7087 45.4946 10.7023 45.4896 10.6959 45.4846C10.6927 45.4821 10.6895 45.4796 10.6863 45.4775M10.7151 45.4967L10.5869 45.407M10.6863 45.4775C10.651 45.4518 10.619 45.4294 10.5869 45.407M10.6863 45.4775L10.7567 45.3718L10.9627 45.063L10.9769 45.0706C10.9875 45.078 10.9954 45.0841 10.9987 45.0867L11.0007 45.0883M10.6863 45.4775L10.7513 45.388L10.9799 45.0737C10.9907 45.0808 10.9981 45.0863 11.0007 45.0883M10.5869 45.407C10.5452 45.3781 10.5044 45.3501 10.4635 45.322C10.4226 45.294 10.3818 45.2659 10.3401 45.2371M10.5869 45.407L10.3401 45.2371M11.0007 45.0883L11.0021 45.0894L11.0036 45.0905L11.0037 45.0906C11.0037 45.0906 11.0025 45.0896 11.0007 45.0883ZM10.3401 45.2371C10.3351 45.2371 10.3301 45.2312 10.3266 45.2271C10.3256 45.226 10.3248 45.225 10.3241 45.2243M10.3401 45.2371L10.3241 45.2243M10.3241 45.2243C10.1286 45.0865 9.93948 44.9454 9.75358 44.798M10.3241 45.2243L9.75358 44.798M9.75358 44.798C9.63178 44.705 9.50999 44.6121 9.3914 44.5191C9.24717 44.4038 9.10294 44.2852 8.96191 44.1666C8.94268 44.1474 8.91704 44.1281 8.8946 44.1121C8.69589 43.9486 8.50037 43.7756 8.30807 43.5993M9.75358 44.798L8.30807 43.5993M8.30807 43.5993C8.15422 43.4647 8.00358 43.3268 7.85614 43.1858M8.30807 43.5993L7.85614 43.1858M7.85614 43.1858C7.46191 42.8204 7.08691 42.4422 6.72153 42.0544M7.85614 43.1858L6.70871 42.0416M6.70871 42.0416C6.71041 42.045 6.71393 42.0475 6.71685 42.0496C6.71942 42.0514 6.72153 42.0529 6.72153 42.0544M6.70871 42.0416C6.42986 41.7467 6.16384 41.4454 5.90422 41.1377L6.70871 42.0416ZM6.72153 42.0544L6.76501 42.0134L7.08453 41.7124L7.10583 41.7338L7.12285 41.7518L7.12884 41.7638C7.13194 41.7682 7.13504 41.7727 7.13813 41.7773C7.17256 41.8294 7.22153 41.9251 7.22153 42.0544H6.72153ZM46.1318 38.3493C44.7952 40.4679 43.1895 42.3108 41.3946 43.8749M46.1318 38.3493C53.5068 26.6826 50.026 11.2435 38.3529 3.86851C26.6831 -3.50649 11.244 -0.0257211 3.86896 11.6474C0.0196049 17.7339 -0.87142 24.8493 0.801656 31.2948L46.1318 38.3493ZM41.3946 43.8749L41.0697 43.4949C41.0692 43.4953 41.0687 43.4957 41.0681 43.4962M41.3946 43.8749L41.3944 43.8751C41.1958 44.0449 40.9971 44.2147 40.792 44.3781C40.7055 44.4486 40.6222 44.5159 40.5356 44.5833C40.0901 44.939 39.6318 45.2788 39.167 45.5961C39.0933 45.6474 39.0164 45.6986 38.9395 45.7467C38.6286 45.9582 38.3145 46.1602 37.994 46.3525C37.6478 46.564 37.2985 46.7659 36.9395 46.9582C36.8433 47.0127 36.744 47.064 36.6382 47.1153M41.3946 43.8749L36.4325 46.6594M41.0681 43.4962C40.8689 43.6665 40.6772 43.8303 40.4804 43.9871L40.4804 43.9871L40.4762 43.9905C40.3905 44.0603 40.3107 44.1248 40.2287 44.1886L40.2286 44.1885L40.2236 44.1925C39.7874 44.5409 39.3391 44.8732 38.8851 45.1831L38.8815 45.1856C38.8132 45.2332 38.7432 45.2798 38.6745 45.3227L38.6662 45.3279L38.6582 45.3333C38.3545 45.54 38.0484 45.7367 37.7367 45.9237L37.7332 45.9258C37.394 46.1331 37.0529 46.3302 36.7034 46.5175L36.7033 46.5174L36.693 46.5232C36.6118 46.5692 36.5263 46.6136 36.4325 46.6594M41.0681 43.4962L36.4325 46.6594M36.4325 46.6594L36.4328 46.6593C36.4461 46.6534 36.462 46.647 36.4801 46.641L36.4821 46.647M36.4325 46.6594L36.4821 46.647M36.6382 47.1153L36.5638 46.9618L36.421 46.6673M36.6382 47.1153L36.494 46.6827L36.4821 46.647M36.421 46.6673L36.4849 46.6463L36.4821 46.647M36.421 46.6673C36.4108 46.6715 36.4021 46.6756 36.3947 46.6792C36.3866 46.6831 36.3798 46.6868 36.3747 46.6897C36.3735 46.6904 36.3723 46.691 36.3713 46.6916L36.3613 46.6975L36.3647 46.6954C36.3666 46.6942 36.3701 46.6921 36.3745 46.6894C36.377 46.688 36.3798 46.6863 36.3828 46.6846C36.3914 46.6797 36.4039 46.6728 36.4194 46.6654C36.4229 46.6638 36.4267 46.662 36.4307 46.6602L36.421 46.6673ZM20.1575 49.0059L20.1566 49.0056C20.1585 49.0061 20.1594 49.0065 20.1575 49.0059Z" fill="#F7F2DA" stroke="#E85D04"/>
<path d="M19.6345 49.4168C19.5287 49.3943 19.4229 49.3719 19.3172 49.3463C18.4197 49.1379 17.5255 48.8751 16.6441 48.561C16.58 48.5386 16.5159 48.5161 16.4518 48.4905C16.3588 48.4585 16.2691 48.4232 16.1793 48.3879C15.9037 48.2854 15.6281 48.1764 15.3556 48.0578C15.3524 48.0578 15.346 48.0546 15.3428 48.0514C15.205 47.9969 15.0736 47.9392 14.9357 47.8783C14.9037 47.8655 14.8749 47.8495 14.8428 47.8335C14.7659 47.7982 14.689 47.7661 14.6152 47.7309C14.8268 45.1956 15.0191 42.7277 15.1601 40.6379H17.7531L19.9518 44.6828C20.0607 45.5194 19.9197 47.2758 19.6377 49.4168H19.6345Z" fill="#EA6CA0"/>
<path d="M19.3339 47.8944C19.3275 48.3751 19.3211 48.8591 19.3179 49.3463C18.4205 49.1379 17.5262 48.8751 16.6448 48.561C16.5807 48.5386 16.5166 48.5161 16.4525 48.4905C16.273 47.5033 16.0807 46.5033 15.9141 45.4873L19.3339 47.8912V47.8944Z" fill="#DB5290"/>
<path d="M24.6633 49.9936C24.0672 49.9872 23.4742 49.9552 22.8813 49.9071C22.8108 49.9007 22.7403 49.8943 22.6697 49.8847C21.9037 49.8141 21.1409 49.7084 20.3781 49.5641C20.3204 49.5513 20.2595 49.5417 20.1986 49.5289C20.1441 49.5193 20.0928 49.5097 20.0383 49.5C20.0191 49.4968 19.9999 49.4872 19.9806 49.4872C19.8909 49.468 19.8012 49.4488 19.7082 49.4295C19.6826 49.4263 19.6569 49.4167 19.6313 49.4135C19.5255 49.3911 19.4197 49.3686 19.314 49.343C18.4165 49.1347 17.5223 48.8718 16.6409 48.5577C16.5768 48.5353 16.5127 48.5129 16.4486 48.4872C16.3556 48.4552 16.2659 48.4199 16.1762 48.3847C15.9005 48.2821 15.6249 48.1731 15.3524 48.0545C15.3492 48.0545 15.3428 48.0513 15.3396 48.0481C15.2018 47.9936 15.0704 47.9359 14.9326 47.875C14.9005 47.8622 14.8717 47.8462 14.8396 47.8302C14.7627 47.7949 14.6858 47.7629 14.6121 47.7276C14.4903 47.6731 14.3653 47.6186 14.2467 47.5641C14.1345 47.5097 14.0255 47.4552 13.9165 47.4007C13.4967 46.5898 13.1665 45.8622 13.1056 45.2789C13.0768 45.0129 16.6217 34.5962 17.3204 34.4167C18.6088 34.0866 20.3813 33.7757 22.3076 33.5353C24.0832 33.3141 25.9903 33.1507 27.7691 33.0898C28.064 33.0802 28.3524 33.0706 28.6377 33.0673C29.0191 33.0609 29.3909 33.0577 29.7499 33.0673C31.6441 33.0898 33.2371 33.2629 34.1345 33.6539C34.1345 33.6539 34.1377 33.6539 34.1441 33.6539C34.6024 33.8558 34.8749 34.1122 34.9133 34.4327C35.0063 35.2404 34.6249 37.4263 34.1409 40.7693L34.0992 41.0609C34.0544 41.3654 34.0127 41.6635 33.9678 41.9488C33.7659 43.2789 33.5704 44.3494 33.4101 44.8173C33.3909 44.875 33.3717 44.9231 33.3556 44.9616C33.3268 45.0257 33.2915 45.0994 33.2531 45.1827C33.2531 45.1827 33.2531 45.1891 33.2499 45.1956C33.2306 45.2436 33.2018 45.2981 33.1762 45.3526C33.1633 45.3815 33.1473 45.4135 33.1313 45.4456C33.0992 45.5064 33.0704 45.5738 33.0351 45.6443C32.798 46.1411 32.4935 46.7885 32.1537 47.5641C31.9903 47.9359 31.8172 48.3398 31.6409 48.7725C31.5928 48.8911 31.5447 49.0097 31.4999 49.1314C30.955 49.2757 30.4037 49.4071 29.8524 49.5193C29.8492 49.5193 29.8428 49.5193 29.8396 49.5193C28.9454 49.6956 28.0415 49.8238 27.1345 49.8975C26.9806 49.9135 26.8332 49.9231 26.6794 49.9327C26.5287 49.9456 26.3781 49.9552 26.2274 49.9584C25.9871 49.9744 25.7499 49.9808 25.5063 49.984C25.455 49.984 25.4037 49.9872 25.3556 49.984C25.2883 49.9872 25.221 49.9872 25.1537 49.984C25.0992 49.984 25.048 49.9872 24.9903 49.9872C24.8845 49.9872 24.7755 49.9872 24.6697 49.984L24.6633 49.9936Z" fill="#EA6CA0"/>
<path d="M34.0997 41.0642C34.058 41.3687 34.0131 41.6668 33.9683 41.9488C33.7407 43.4424 33.5227 44.6059 33.3529 44.9648C33.1285 45.4456 32.6798 46.3463 32.1445 47.5642C31.9811 47.9392 31.808 48.3398 31.6317 48.7725C30.6157 49.2501 29.4682 49.5834 28.2118 49.5257C26.59 49.4488 25.2952 48.9264 24.0195 47.9168C25.3977 48.5514 34.2888 48.3559 33.7824 40.0898L34.1029 41.061L34.0997 41.0642Z" fill="#DB5290"/>
<path d="M28.3836 33.1444L27.765 33.1316L21.8163 33.6316C21.8163 33.6316 21.1048 37.1412 20.9541 38.3239C20.7362 40.0675 20.4766 45.3367 20.4766 45.3367C20.4766 45.3367 29.4926 33.5675 28.3836 33.1412V33.1444Z" fill="#DB5290"/>
<path d="M20.9544 43.997C20.9544 43.997 21.621 35.1733 22.3005 33.6444L22.3614 32.8752L22.3326 31.2854L22.2589 27.2309L28.7204 25.1572L28.5057 28.5803L27.7621 33.1316C28.871 33.5611 20.9512 43.997 20.9512 43.997H20.9544Z" fill="#FBA479"/>
<path d="M28.835 28.1443C28.835 28.1443 28.4119 31.0033 22.335 31.7629L22.3061 30.1732L22.2324 26.1187L26.4728 24.9424L27.6843 27.6796L27.9408 28.2565C27.8478 28.3238 28.9343 28.0802 28.835 28.1443Z" fill="#F48656"/>
<path d="M20.3253 26.1347L20.2676 26.1123C20.2868 26.1219 20.306 26.1283 20.3253 26.1347Z" fill="#EF7950"/>
<path d="M20.438 26.2051H20.3739C20.3675 26.2211 20.3995 26.2179 20.438 26.2051Z" fill="#EF7950"/>
<path d="M21.0276 25.8717L21.002 25.8589C21.002 25.8589 21.018 25.8685 21.0276 25.8717Z" fill="#EF7950"/>
<path d="M23.2041 22.218C23.6657 19.7051 24.2939 17.2019 25.3003 14.8654L23.1176 14.2276C23.3323 14.2596 24.7778 12.9295 25.1432 12.6218C25.5439 12.2853 27.3483 11.218 27.7426 10.8975C27.0599 10.141 25.0951 9.9904 24.124 10.0737C22.4381 10.218 20.624 11.7404 19.7041 13.1154C17.9253 15.7725 16.8644 19.0513 15.9477 22.093C15.483 23.6378 15.0182 25.1891 14.4573 26.6987C14.1721 27.4616 16.1721 29.1218 16.9189 29.391C17.0503 29.0705 17.4541 28.5257 17.5855 28.1987C17.4926 28.6026 17.749 29.1186 17.7522 29.5289C18.5823 29.7468 21.7426 30.3622 22.1336 30.0994C22.5951 29.7917 22.4381 27.7757 22.5118 27.2116C22.7266 25.5449 22.9028 23.875 23.2073 22.2212L23.2041 22.218Z" fill="#82112F"/>
<path d="M31.5816 24.0832C30.9854 25.4839 28.0271 28.6505 27.9245 28.7178C26.4694 29.6601 24.0367 30.1153 22.3316 30.2307C22.1296 30.2435 21.9341 30.2499 21.7482 30.2499C20.4117 30.2371 16.7354 25.0672 18.4662 20.6634C19.4918 18.0608 19.7995 15.0608 21.7771 13.08C24.0944 10.7595 29.4982 12.6057 30.3636 13.7916C32.2867 16.4134 32.7931 21.2307 31.5816 24.0832Z" fill="#FBA479"/>
<path d="M21.8746 22.1955C21.5957 22.3461 21.3265 22.4487 21.5445 22.8429C21.8489 23.391 22.6438 23.4167 22.9675 23.4038C22.7848 23.3333 21.9739 22.9679 21.7656 22.7115C21.6214 22.5352 22.8009 21.6923 21.8746 22.1955Z" fill="#F48656"/>
<path d="M20.1185 16.7853L20.0352 16.8782C20.3653 16.5641 21.8044 16.577 22.0063 17.0129C22.4999 15.3366 20.5896 16.2116 20.1185 16.7885V16.7853Z" fill="#82112F"/>
<path d="M29.342 19.468L29.3773 19.5994C29.2074 19.1122 27.6273 18.0866 27.1465 18.2949C27.6208 16.5962 29.1785 18.6667 29.342 19.468Z" fill="#82112F"/>
<path d="M20.5079 24.6185L20.4727 24.6089C20.4823 24.6506 21.4727 26.1057 21.7034 26.7403C21.8669 27.189 24.2483 28.4326 25.5336 25.3012C25.2803 25.9198 21.3028 24.8749 20.5047 24.6153L20.5079 24.6185Z" fill="#D85039"/>
<path d="M23.6297 27.2756C23.0239 27.4776 22.29 27.2468 21.9374 26.6955C21.9374 26.6955 21.5496 26.0833 21.7803 25.9519C21.8092 25.9359 21.8508 25.9263 21.9021 25.9263C22.322 25.9359 24.2098 26.0352 24.6906 26.1026C24.463 27.1442 24.1874 27.0897 23.6297 27.2756Z" fill="white"/>
<path d="M25.0537 25.5289C24.8935 25.8366 24.7621 26.1443 24.3999 26.2372C23.8839 26.3718 23.3005 26.3718 22.7685 26.2661C22.4191 26.1988 22.0922 26.1282 21.8133 25.9648C21.6371 25.8622 21.4832 25.7244 21.3582 25.5289C21.1916 25.2725 21.0185 24.9199 20.9512 24.5706L24.6691 25.4359L25.0537 25.5257V25.5289Z" fill="white"/>
<path d="M25.1503 25.3846C24.99 25.6922 24.7625 26.1442 24.3971 26.2371C23.8811 26.3717 23.2977 26.3717 22.7657 26.266C22.4163 26.1987 22.0894 26.1281 21.8105 25.9647C21.9484 26.0063 22.0894 26.0384 22.24 26.048C22.6343 26.0769 23.0157 26.1153 23.4163 26.1089C23.724 26.1025 24.0221 26.0705 24.2977 25.9326C24.5413 25.814 24.6118 25.6346 24.6663 25.4358L25.1471 25.3813L25.1503 25.3846Z" fill="#E8E6E6"/>
<path d="M29.0138 22.4744C29.0298 21.3237 28.5074 19.4487 26.2317 20.4936C25.5266 20.7276 24.9048 21.1443 24.7606 21.2436C24.751 21.25 24.7413 21.2564 24.7381 21.2596C24.7317 21.2596 24.7285 21.2628 24.7285 21.2628C24.7606 21.2853 24.7926 21.3077 24.8247 21.3302C24.9593 21.4263 25.0939 21.5225 25.2285 21.6154C25.3279 21.6827 25.4304 21.75 25.533 21.8173C25.5683 21.8398 25.6003 21.8622 25.6356 21.8814C25.6708 21.9039 25.7029 21.9231 25.7381 21.9455C25.7798 21.9712 25.8215 21.9968 25.8631 22.0225L26.0106 22.109C26.0907 22.1571 26.174 22.2019 26.2574 22.2468C26.2734 22.2564 26.2894 22.266 26.3086 22.2725C26.3567 22.2981 26.408 22.3237 26.4561 22.3494C26.4593 22.3526 26.4657 22.3558 26.4689 22.3558C26.5138 22.3782 26.5586 22.4039 26.6067 22.4231C26.6356 22.4391 26.6644 22.4519 26.6965 22.4648C26.7285 22.4808 26.7606 22.4968 26.7926 22.5096C26.8311 22.5289 26.8727 22.5449 26.9112 22.5641C26.9529 22.5834 26.9977 22.6026 27.0426 22.6218C27.049 22.6218 27.0586 22.6282 27.0651 22.6314C27.0843 22.6378 27.1003 22.6475 27.1195 22.6539C27.1548 22.6699 27.1933 22.6827 27.2285 22.6987C27.3022 22.7276 27.3792 22.7564 27.4529 22.7821C27.4913 22.7949 27.5298 22.8077 27.5651 22.8205C27.6035 22.8334 27.642 22.8462 27.6804 22.8558C27.7157 22.8654 27.7477 22.875 27.783 22.8846C27.7926 22.8846 27.799 22.8878 27.8086 22.891C27.8824 22.9103 27.9561 22.9295 28.0298 22.9487C28.1901 22.9872 28.3567 23.0193 28.5234 23.0449C28.5907 23.0545 28.658 23.0641 28.7253 23.0705C28.7926 23.0802 28.8599 23.0866 28.9272 23.0898C28.9336 23.0705 28.9368 23.0545 28.9433 23.0353C28.9945 22.8494 29.017 22.6571 29.0074 22.4648L29.0138 22.4744Z" fill="white"/>
<path d="M28.4365 21.7084C28.2794 22.4263 27.7602 22.9263 27.2794 22.8206C26.7987 22.7148 26.5326 22.0449 26.6897 21.327C26.8467 20.609 27.366 20.109 27.8467 20.2148C28.3275 20.3206 28.5935 20.9872 28.4365 21.7084Z" fill="#574984"/>
<path d="M28.1353 21.593C28.0264 22.093 27.6866 22.4455 27.3757 22.3782C27.0648 22.3109 26.9014 21.8494 27.0103 21.3494C27.1193 20.8494 27.459 20.4968 27.7699 20.5673C28.0808 20.6346 28.2443 21.0962 28.1353 21.5962V21.593Z" fill="#291C51"/>
<path d="M28.7861 21.2469L27.7637 21.218C27.7637 21.218 28.3919 21.811 28.6259 21.7244C28.7444 21.6796 28.7893 21.2469 28.7893 21.2469H28.7861Z" fill="white"/>
<path d="M28.931 23.1025C28.9759 22.9583 29.0079 22.7371 29.0111 22.4775C29.0271 21.3269 28.5047 19.4519 26.2291 20.4967C25.5079 20.8269 24.8188 21.2147 24.7323 21.2628C24.7259 21.2628 24.7227 21.266 24.7227 21.266C24.7227 21.266 27.04 18.032 28.9791 19.3461C29.9534 20.0032 29.4887 22.2884 28.9246 23.1025H28.931Z" fill="#EF7950"/>
<path d="M28.7261 23.08C26.755 23.3365 25.3575 22.0672 24.8223 21.3333C24.9569 21.4294 25.0915 21.5256 25.2261 21.6185C25.3255 21.6858 25.428 21.7531 25.5306 21.8204C25.5659 21.8429 25.5979 21.8653 25.6332 21.8845C25.6684 21.907 25.7005 21.9262 25.7357 21.9486C25.7774 21.9743 25.8191 21.9999 25.8607 22.0256L26.0082 22.1121C26.0883 22.1602 26.1716 22.205 26.255 22.2499C26.271 22.2595 26.287 22.2692 26.3062 22.2756C26.3543 22.3012 26.4056 22.3268 26.4537 22.3525C26.4569 22.3557 26.4633 22.3589 26.4665 22.3589C26.5114 22.3813 26.5562 22.407 26.6043 22.4262C26.6332 22.4422 26.662 22.455 26.6941 22.4679C26.7261 22.4839 26.7582 22.4999 26.7902 22.5127C26.8287 22.532 26.8703 22.548 26.9088 22.5672C26.9505 22.5865 26.9953 22.6057 27.0402 22.6249C27.0466 22.6249 27.0562 22.6313 27.0627 22.6345C27.0819 22.6409 27.0979 22.6506 27.1171 22.657C27.1524 22.673 27.1909 22.6858 27.2261 22.7018C27.2998 22.7307 27.3768 22.7595 27.4505 22.7852C27.4889 22.798 27.5274 22.8108 27.5627 22.8236C27.6011 22.8365 27.6396 22.8493 27.678 22.8589C27.7133 22.8685 27.7453 22.8781 27.7806 22.8877C27.7902 22.8877 27.7966 22.8909 27.8062 22.8942C27.88 22.9134 27.9537 22.9326 28.0274 22.9518C28.1877 22.9903 28.3543 23.0224 28.521 23.048C28.5883 23.0576 28.6556 23.0672 28.7229 23.0736L28.7261 23.08Z" fill="#EF7950"/>
<path d="M19.2614 18.968C19.9024 18.2501 21.2614 17.3879 21.9473 19.2757C22.2101 19.8045 22.3255 20.4039 22.3511 20.5449C22.3511 20.5545 22.3511 20.561 22.3511 20.5674C22.3511 20.5738 22.3511 20.5738 22.3511 20.5738C22.3191 20.5738 22.2902 20.5674 22.2582 20.5642C22.1268 20.5513 21.9985 20.5353 21.8703 20.5161C21.7742 20.5033 21.6812 20.4904 21.5851 20.4744C21.553 20.468 21.521 20.4648 21.4889 20.4584C21.4569 20.452 21.4248 20.4488 21.396 20.4424C21.3575 20.436 21.3191 20.4263 21.2806 20.4199L21.1492 20.3943C21.0755 20.3783 21.005 20.3622 20.9312 20.3462C20.9152 20.343 20.9024 20.3398 20.8864 20.3366C20.8447 20.327 20.7998 20.3142 20.7582 20.3045C20.755 20.3045 20.7518 20.3045 20.7453 20.3045C20.7069 20.2949 20.6684 20.2821 20.63 20.2725C20.6043 20.2661 20.5819 20.2565 20.5562 20.2501C20.5306 20.2404 20.5018 20.234 20.4761 20.2244C20.4441 20.2148 20.412 20.2052 20.3768 20.1924C20.3415 20.1795 20.3062 20.1699 20.271 20.1539C20.2646 20.1539 20.2582 20.1507 20.255 20.1475C20.2389 20.1411 20.2261 20.1379 20.2101 20.1315C20.1812 20.1219 20.1524 20.109 20.1235 20.0962C20.0659 20.0738 20.0082 20.0481 19.9505 20.0225C19.9216 20.0097 19.8928 19.9969 19.8639 19.984C19.8351 19.9712 19.8062 19.9584 19.7806 19.9424C19.755 19.9295 19.7325 19.9167 19.7069 19.9039C19.7005 19.9039 19.6941 19.8975 19.6909 19.8943C19.6396 19.8654 19.5851 19.8366 19.5338 19.8078C19.4216 19.7437 19.3094 19.6731 19.2005 19.5962C19.1588 19.5642 19.1139 19.5353 19.0723 19.5001C19.0306 19.468 18.9889 19.4328 18.9473 19.4007C18.9537 19.3879 18.9601 19.3719 18.9697 19.359C19.0466 19.2148 19.1428 19.0866 19.2582 18.9744L19.2614 18.968Z" fill="white"/>
<path d="M21.9502 19.3397C21.7931 20.0577 21.2739 20.5577 20.7931 20.4519C20.3123 20.3462 20.0463 19.6795 20.2034 18.9583C20.3604 18.2404 20.8796 17.7404 21.3604 17.8462C21.8412 17.9519 22.1072 18.6186 21.9502 19.3397Z" fill="#574984"/>
<path d="M21.649 19.2243C21.54 19.7243 21.2003 20.0769 20.8894 20.0096C20.5785 19.9423 20.415 19.4808 20.524 18.9808C20.633 18.4808 20.9727 18.1282 21.2836 18.1955C21.5945 18.2628 21.758 18.7243 21.649 19.2243Z" fill="#291C51"/>
<path d="M22.2998 18.8814L21.2773 18.8525C21.2773 18.8525 21.9055 19.4455 22.1395 19.3589C22.2581 19.3141 22.303 18.8814 22.303 18.8814H22.2998Z" fill="white"/>
<path d="M18.9505 19.3974C19.0082 19.2852 19.1139 19.1314 19.2582 18.9679C19.8992 18.25 21.2582 17.3878 21.9441 19.2756C22.162 19.875 22.3319 20.4903 22.3511 20.5673C22.3511 20.5737 22.3511 20.5737 22.3511 20.5737C22.3511 20.5737 22.88 17.3173 21.0434 17.0577C20.1235 16.9262 19.0915 18.5865 18.9473 19.3942L18.9505 19.3974Z" fill="#EF7950"/>
<path d="M19.0794 19.4968C20.0441 20.734 21.5473 20.7212 22.2621 20.5641C22.1307 20.5513 22.0025 20.5353 21.8742 20.5161C21.7781 20.5032 21.6851 20.4904 21.589 20.4744C21.5569 20.468 21.5249 20.4648 21.4928 20.4584C21.4608 20.452 21.4287 20.4487 21.3999 20.4423C21.3614 20.4359 21.323 20.4263 21.2845 20.4199L21.1531 20.3943C21.0794 20.3782 21.0089 20.3622 20.9351 20.3462C20.9191 20.343 20.9063 20.3398 20.8903 20.3366C20.8486 20.327 20.8037 20.3141 20.7621 20.3045C20.7589 20.3045 20.7557 20.3045 20.7492 20.3045C20.7108 20.2949 20.6723 20.2821 20.6339 20.2725C20.6082 20.2661 20.5858 20.2564 20.5601 20.25C20.5345 20.2404 20.5057 20.234 20.48 20.2244C20.448 20.2148 20.4159 20.2052 20.3807 20.1923C20.3454 20.1795 20.3101 20.1699 20.2749 20.1539C20.2685 20.1539 20.2621 20.1507 20.2589 20.1475C20.2428 20.1411 20.23 20.1379 20.214 20.1314C20.1851 20.1218 20.1563 20.109 20.1275 20.0962C20.0698 20.0737 20.0121 20.0481 19.9544 20.0225C19.9255 20.0096 19.8967 19.9968 19.8678 19.984C19.839 19.9712 19.8101 19.9584 19.7845 19.9423C19.7589 19.9295 19.7364 19.9167 19.7108 19.9039C19.7044 19.9039 19.698 19.8975 19.6948 19.8943C19.6435 19.8654 19.589 19.8366 19.5377 19.8077C19.4255 19.7436 19.3134 19.6731 19.2044 19.5962C19.1627 19.5641 19.1178 19.5353 19.0762 19.5L19.0794 19.4968Z" fill="#EF7950"/>
<path d="M22.841 24.5705C22.841 24.5705 22.8314 24.5641 22.825 24.5609C22.6616 24.6186 22.4564 24.7179 22.2769 24.7243C22.0975 24.7307 21.9372 24.5929 21.8026 24.4903C21.5654 24.3077 21.5654 24.2852 21.293 24.3846C21.1551 24.4327 20.8795 24.5448 20.6712 24.5448C20.4436 24.4839 20.293 24.4423 20.293 24.4423C20.293 24.4423 21.3603 26.3269 21.5718 26.7788C21.7417 27.1442 21.9917 27.4006 22.2577 27.5737C22.2577 27.5737 22.2609 27.5769 22.2641 27.5769C22.3346 27.625 22.4084 27.6634 22.4853 27.6987C22.966 27.9327 23.45 27.9359 23.6039 27.8846C24.341 27.625 24.9276 26.9038 25.3282 26.2468C25.6391 25.7371 25.841 25.2724 25.9084 25.0993C25.9276 25.0512 25.9372 25.0256 25.9372 25.0256C25.466 24.9166 24.1584 25.4871 22.8443 24.5705H22.841ZM24.8699 25.4968C24.8699 25.4968 24.8923 25.4968 24.9019 25.4968C24.9757 25.4936 25.043 25.4903 25.1007 25.4839C25.1359 25.4839 25.168 25.4807 25.1968 25.4775H25.2C25.2 25.4775 25.2193 25.4775 25.2289 25.4775C25.216 25.4968 25.1551 25.6218 25.0526 25.8044C24.9468 25.9871 24.7994 26.2243 24.6199 26.4775C24.6071 26.4968 24.591 26.5128 24.5782 26.532C24.5494 26.5737 24.5237 26.6121 24.4917 26.6538C24.3571 26.8269 23.4628 27.3653 22.6359 27.1153C22.5975 27.1057 22.5654 27.0961 22.5334 27.0801C22.4372 27.0416 22.3475 26.9968 22.2545 26.9359C22.1263 26.8493 22.0045 26.7403 21.8891 26.5993C21.7289 26.4006 21.5269 26.0769 21.3282 25.7468C21.1295 25.4134 20.934 25.0737 20.7834 24.8365C20.8667 24.8621 20.9596 24.8878 21.059 24.9134C21.0782 24.9198 21.1039 24.9262 21.1263 24.9327C21.4596 25.0224 21.8635 25.1282 22.2801 25.2243C22.309 25.2307 22.3314 25.2371 22.3603 25.2436C22.4981 25.2724 22.6295 25.3012 22.7577 25.3269C23.2128 25.4134 23.6199 25.4583 23.9693 25.4807C24.1231 25.4936 24.2641 25.5 24.3923 25.5H24.4789C24.5462 25.5 24.6071 25.5 24.6648 25.5C24.7353 25.5 24.793 25.5 24.8539 25.5H24.8795L24.8699 25.4968Z" fill="#FC5135"/>
<path d="M22.1621 28.1506C22.2198 28.3077 22.3095 28.4775 22.3736 28.641C22.7134 28.2019 23.1974 28.2628 23.7102 28.2147C23.7102 28.2147 22.473 27.9263 22.1621 28.1506Z" fill="#F48656"/>
<path d="M36.6398 21.7629C34.3033 9.93915 30.1142 9.85582 26.4956 11.3174C24.97 11.9327 23.9219 14.6026 23.9219 14.6026C23.9219 14.6026 28.4283 15.1891 29.1014 19.234C29.6014 22.2404 31.5308 22.1122 30.8834 23.5289C29.2969 27.0033 27.9091 30.0513 24.8866 31.5802C25.0565 31.6186 28.5597 33.5385 29.7392 33.0738C30.252 32.8718 30.8321 31.1635 30.8321 31.1635L30.6879 32.9231C30.6879 32.9231 34.7712 33.1795 36.736 30.3911C37.2264 29.6956 37.018 23.6891 36.6398 21.7661V21.7629Z" fill="#82112F"/>
<path d="M24.5566 11.359C23.8258 11.2532 22.9604 11.3782 22.2457 11.5513C21.7906 11.6635 20.8803 12.0801 20.6944 12.4808L20.0117 14.0032C20.5886 13.6667 21.4797 13.7853 22.1143 13.9231C22.5983 14.0289 23.1656 14.1571 23.547 14.4776C23.7136 13.8654 24.3386 13.2436 24.7745 12.8045C25.1976 12.375 25.6271 12.0673 26.1143 11.7532C25.6015 11.6122 25.0951 11.4359 24.5566 11.359Z" fill="#82112F"/>
<path d="M32.6816 22.3367C32.2104 22.0162 31.4604 22.2597 31.063 22.5258C30.4797 22.92 29.5245 24.577 29.9669 25.1187C30.6752 25.9873 32.5406 24.7854 32.9348 23.7854C33.0983 23.3687 33.1111 22.6251 32.6848 22.3367H32.6816Z" fill="#FBA479"/>
<path d="M32.7871 23.3238C32.8544 22.0578 31.0275 22.295 30.7743 23.2918C31.1878 23.1604 31.3512 23.7533 31.1685 24.0322C30.9666 24.3431 30.4762 24.3014 30.3608 23.9456C30.2679 24.5001 31.0852 24.5578 31.4057 24.2982C31.8063 23.9713 31.7102 23.279 31.2454 23.061C31.7198 22.4617 32.8352 22.8302 32.6878 23.6219L32.7871 23.3206V23.3238Z" fill="#F48656"/>
<path d="M31.4912 49.1346C30.9463 49.2788 30.395 49.4103 29.8438 49.5224C29.8694 49.4711 29.895 49.4231 29.9239 49.375C30.0841 49.0737 30.2604 48.7949 30.4527 48.5353L33.0296 45.6506C32.7925 46.1474 32.488 46.7949 32.1482 47.5705C31.9848 47.9423 31.8117 48.3462 31.6354 48.7788C31.5873 48.8974 31.5393 49.016 31.4944 49.1378L31.4912 49.1346Z" fill="#DB5290"/>
<path d="M36.6093 47.1346C36.0773 47.4135 35.5324 47.6763 34.9811 47.9135C34.9619 47.9231 34.9362 47.9327 34.917 47.9423C34.6382 48.0641 34.3625 48.1763 34.0805 48.2853C33.8593 47.1346 33.635 45.9712 33.4106 44.8205C33.4074 44.7917 33.3978 44.7629 33.3946 44.734C33.3497 44.4968 33.3016 44.2629 33.2568 44.0289C33.2471 43.9712 33.2375 43.9135 33.2247 43.8526C32.3818 39.5545 31.5677 35.5802 31.0645 33.5096C31.0645 33.5096 32.5869 33.1988 34.1382 33.6539C34.1382 33.6539 34.1414 33.6539 34.1478 33.6539C34.8048 33.8494 35.4683 34.1827 36.0196 34.734C37.3529 36.0673 38.3177 40.6923 38.9395 45.7468C38.6286 45.9584 38.3145 46.1603 37.9939 46.3526C37.6478 46.5641 37.2984 46.7661 36.9395 46.9584C36.8433 47.0129 36.7439 47.0641 36.6382 47.1154C36.6286 47.1186 36.6189 47.1282 36.6061 47.1314L36.6093 47.1346Z" fill="#EA6CA0"/>
<path d="M34.1423 40.7724C34.3025 42.516 34.5621 45.1282 34.9147 47.9423C34.6359 48.0641 34.3602 48.1763 34.0782 48.2853C33.9948 48.3141 33.9147 48.3462 33.8314 48.3782C33.8186 48.3846 33.8025 48.391 33.7897 48.3942C33.6038 47.4615 33.4211 46.5417 33.248 45.6506V45.1891C33.248 44.8013 33.248 44.4167 33.2513 44.0289C33.2513 43.9391 33.2513 43.8494 33.2545 43.7596C33.2865 41.8814 33.4211 40.0224 33.9468 38.5994C33.9468 38.5994 34.0109 39.4263 34.1359 40.7692L34.1423 40.7724Z" fill="#DB5290"/>
</g>
<defs>
<clipPath id="clip0_104_261">
<rect width="50" height="50" fill="white"/>
</clipPath>
</defs>
</svg>
