<svg width="25" height="25" viewBox="0 0 25 25" fill="none" xmlns="http://www.w3.org/2000/svg">
<g clip-path="url(#clip0_10_20)">
<path d="M6.03517 19.1064C6.66505 18.6475 7.48048 18.5303 8.2129 18.7939C9.50685 19.2627 10.957 19.5312 12.5 19.5312C18.5889 19.5312 22.6563 15.6006 22.6563 11.7188C22.6563 7.83691 18.5889 3.90625 12.5 3.90625C6.41115 3.90625 2.34376 7.83691 2.34376 11.7188C2.34376 13.2812 2.94923 14.7852 4.08693 16.0742C4.50685 16.5479 4.71193 17.1729 4.6631 17.8076C4.59474 18.6914 4.38478 19.502 4.11134 20.2197C4.94142 19.834 5.6299 19.4043 6.03517 19.1113V19.1064ZM1.03517 21.0889C1.12306 20.957 1.20607 20.8252 1.28419 20.6934C1.77247 19.8828 2.23634 18.8184 2.32912 17.6221C0.864271 15.957 1.36765e-05 13.9209 1.36765e-05 11.7188C1.36765e-05 6.1084 5.59572 1.5625 12.5 1.5625C19.4043 1.5625 25 6.1084 25 11.7188C25 17.3291 19.4043 21.875 12.5 21.875C10.6885 21.875 8.96974 21.5625 7.41701 21.001C6.83595 21.4258 5.88869 22.0068 4.76564 22.4951C4.02833 22.8174 3.18849 23.1104 2.31935 23.2812C2.28029 23.291 2.24122 23.2959 2.20216 23.3057C1.98732 23.3447 1.77736 23.3789 1.55763 23.3984C1.54787 23.3984 1.53322 23.4033 1.52345 23.4033C1.27443 23.4277 1.0254 23.4424 0.776381 23.4424C0.458998 23.4424 0.175795 23.252 0.0537246 22.959C-0.0683457 22.666 1.36662e-05 22.334 0.21974 22.1094C0.419936 21.9043 0.6006 21.6846 0.771498 21.4502C0.854506 21.3379 0.932631 21.2256 1.00587 21.1133C1.01076 21.1035 1.01564 21.0986 1.02052 21.0889H1.03517Z" fill="#E85D04"/>
</g>
<defs>
<clipPath id="clip0_10_20">
<rect width="25" height="25" fill="white"/>
</clipPath>
</defs>
</svg>
