<svg width="25" height="25" viewBox="0 0 25 25" fill="none" xmlns="http://www.w3.org/2000/svg">
<path d="M11.9141 4.10156L12.4561 4.6875L13.042 4.10254C14.6777 2.5083 16.9434 1.78271 19.1699 2.15332C22.5342 2.71387 25 5.625 25 9.03808V9.32129C25 11.3477 24.1602 13.2861 22.6758 14.668L13.8525 22.9053C13.4863 23.2471 13.0029 23.4375 12.5 23.4375C11.9971 23.4375 11.5137 23.2471 11.1475 22.9053L2.32373 14.668C0.841309 13.2861 0 11.3477 0 9.32129V9.03808C0 5.625 2.4668 2.71387 5.83008 2.15332C8.0127 1.78271 10.3223 2.5083 11.9141 4.10156C11.9141 4.10205 11.8701 4.10156 11.9141 4.10156ZM12.4561 8.00293L10.2588 5.71777C9.19922 4.70117 7.69531 4.21875 6.21582 4.46484C3.98193 4.8374 2.34375 6.77246 2.34375 9.03808V9.32129C2.34375 10.6982 2.91553 12.0166 3.92285 12.9541L12.5 20.9619L21.0791 12.9541C22.085 12.0166 22.6562 10.6982 22.6562 9.32129V9.03808C22.6562 6.77246 21.0156 4.8374 18.7842 4.46484C17.3047 4.21875 15.8008 4.70117 14.7412 5.71777L12.4561 8.00293Z" fill="#E85D04"/>
</svg>
