<svg width="31" height="38" viewBox="0 0 31 38" fill="none" xmlns="http://www.w3.org/2000/svg">
<g clip-path="url(#clip0_220_87)">
<path d="M25.1728 15.5701C25.1728 18.85 24.2736 21.8797 22.7588 24.3378L30.399 33.3912C31.1534 34.2844 31.1534 35.735 30.399 36.6282C29.6447 37.5214 28.4196 37.5214 27.6652 36.6282L20.025 27.5747C17.949 29.3754 15.3901 30.4329 12.6201 30.4329C5.68597 30.4329 0.0674438 23.7804 0.0674438 15.5701C0.0674438 7.35987 5.68597 0.707336 12.6201 0.707336C19.5543 0.707336 25.1728 7.35987 25.1728 15.5701ZM12.6201 25.8598C13.7613 25.8598 14.8914 25.5936 15.9457 25.0765C17.0001 24.5594 17.9581 23.8015 18.7651 22.846C19.5721 21.8905 20.2122 20.7562 20.6489 19.5078C21.0856 18.2594 21.3104 16.9214 21.3104 15.5701C21.3104 14.2189 21.0856 12.8809 20.6489 11.6325C20.2122 10.3841 19.5721 9.24975 18.7651 8.29427C17.9581 7.33879 17.0001 6.58086 15.9457 6.06376C14.8914 5.54666 13.7613 5.28051 12.6201 5.28051C11.4789 5.28051 10.3488 5.54666 9.29447 6.06376C8.24012 6.58086 7.28211 7.33879 6.47514 8.29427C5.66817 9.24975 5.02804 10.3841 4.59131 11.6325C4.15458 12.8809 3.9298 14.2189 3.9298 15.5701C3.9298 16.9214 4.15458 18.2594 4.59131 19.5078C5.02804 20.7562 5.66817 21.8905 6.47514 22.846C7.28211 23.8015 8.24012 24.5594 9.29447 25.0765C10.3488 25.5936 11.4789 25.8598 12.6201 25.8598Z" fill="#E85D04"/>
</g>
<defs>
<clipPath id="clip0_220_87">
<rect width="30.8989" height="36.5854" fill="white" transform="translate(0.0674438 0.707336)"/>
</clipPath>
</defs>
</svg>
