<svg width="50" height="50" viewBox="0 0 50 50" fill="none" xmlns="http://www.w3.org/2000/svg">
<g clip-path="url(#clip0_104_319)">
<mask id="path-1-inside-1_104_319" fill="white">
<path d="M45.1894 39.7422C44.3528 40.8866 43.4393 41.938 42.4617 42.8932C41.7629 43.5792 41.0321 44.2139 40.2692 44.8005C40.2115 44.8454 40.1474 44.8935 40.0897 44.9384C39.9679 45.0281 39.8525 45.1179 39.7307 45.2044C39.641 45.2717 39.548 45.3358 39.4551 45.4C39.3685 45.4609 39.2788 45.5218 39.1922 45.5859C39.1922 45.5859 39.189 45.5859 39.1858 45.5891C38.7819 45.868 38.3717 46.134 37.955 46.3873C37.8876 46.4257 37.8203 46.4674 37.753 46.5091C37.6761 46.5539 37.596 46.602 37.5158 46.6437C37.3556 46.7399 37.1953 46.8296 37.035 46.9194C36.8683 47.0091 36.7017 47.0989 36.5318 47.1854C36.4452 47.2303 36.3619 47.272 36.2722 47.3169C36.1375 47.3874 35.9997 47.4547 35.8619 47.522C35.8587 47.522 35.8555 47.5252 35.8491 47.5284C35.7144 47.5925 35.5766 47.6567 35.4388 47.7208C35.3362 47.7656 35.2336 47.8137 35.1278 47.8586C35.1182 47.8618 35.1054 47.8714 35.0958 47.8714C34.8009 48.0028 34.4996 48.1279 34.1983 48.2465C33.9996 48.3266 33.7944 48.4035 33.5957 48.4741C33.5733 48.4837 33.5508 48.4933 33.5252 48.5029C33.4899 48.5157 33.4547 48.5286 33.4194 48.5414C33.4002 48.551 33.3745 48.5574 33.3521 48.5638C33.3265 48.5766 33.3008 48.583 33.272 48.5927C33.2143 48.6119 33.1534 48.6375 33.0925 48.6536C32.9739 48.692 32.8553 48.7337 32.7335 48.7722C32.679 48.7914 32.6277 48.8074 32.5732 48.8235C32.5476 48.8331 32.5187 48.8427 32.4931 48.8523C32.4193 48.8748 32.3488 48.8972 32.2751 48.9164C32.2623 48.9164 32.2527 48.9228 32.2398 48.9292C32.2238 48.9325 32.211 48.9389 32.195 48.9421C32.1277 48.9645 32.0571 48.9837 31.9898 49.003C31.945 49.0158 31.9001 49.0318 31.852 49.0447C31.8232 49.0543 31.7911 49.0639 31.7558 49.0735C31.7302 49.0799 31.7014 49.0863 31.6757 49.0927C31.5956 49.1152 31.5186 49.1376 31.4385 49.1568C31.3712 49.1761 31.3039 49.1953 31.2334 49.2113C31.0282 49.2626 30.8231 49.3139 30.6179 49.3588C30.6179 49.3588 30.6147 49.3588 30.6115 49.3588C30.5859 49.3652 30.5635 49.3684 30.5378 49.378C30.4929 49.3876 30.4481 49.3973 30.4032 49.4069C30.3872 49.4069 30.3711 49.4133 30.3519 49.4165C30.2557 49.4389 30.1596 49.4582 30.0634 49.4774C30.0442 49.4774 30.0185 49.487 29.9993 49.4902C29.9544 49.503 29.9032 49.5095 29.8551 49.5191C29.807 49.5319 29.7589 49.5383 29.7108 49.5479C29.6019 49.5704 29.4929 49.5864 29.3839 49.6088C29.3518 49.612 29.3198 49.6217 29.2845 49.6281C29.2589 49.6313 29.2364 49.6345 29.2108 49.6409C29.0634 49.6665 28.9127 49.6922 28.7653 49.7178C28.7076 49.7274 28.6499 49.7338 28.5858 49.7402C28.4543 49.7627 28.3197 49.7819 28.1851 49.798C28.1819 49.798 28.1755 49.798 28.1723 49.798C28.1498 49.8012 28.1242 49.8044 28.1018 49.8076C27.8966 49.8332 27.6915 49.8557 27.4895 49.8781C27.1209 49.9166 26.7523 49.9422 26.3837 49.9646C26.3036 49.9678 26.2202 49.9743 26.1369 49.9775C25.9959 49.9839 25.858 49.9903 25.7138 49.9903C25.6272 49.9935 25.5375 49.9967 25.451 49.9999C25.2971 50.0031 25.1464 50.0031 24.9958 49.9999C24.8451 50.0031 24.6945 49.9999 24.5438 49.9967C24.3034 49.9967 24.0662 49.9839 23.8226 49.9743H23.8194C23.7714 49.9743 23.7201 49.9743 23.6752 49.9678H23.6399C23.5854 49.9678 23.5278 49.9646 23.4733 49.955C23.4188 49.955 23.3675 49.955 23.3098 49.9486C23.2457 49.9486 23.1816 49.9422 23.1175 49.9358C23.0758 49.9358 23.0309 49.9262 22.9893 49.923C22.7745 49.9069 22.5565 49.8877 22.345 49.8621C21.9668 49.8236 21.5917 49.7755 21.2167 49.7178C21.1462 49.705 21.0757 49.6986 21.0084 49.6826C20.9122 49.6697 20.816 49.6537 20.7231 49.6345C20.5276 49.6024 20.3352 49.5672 20.1429 49.5287C19.8576 49.4742 19.5756 49.4165 19.2935 49.3492C19.1108 49.3043 18.9249 49.2626 18.7422 49.2113C18.6877 49.1985 18.6268 49.1825 18.5659 49.1665C18.5146 49.1536 18.4633 49.1408 18.4088 49.128C18.3928 49.1248 18.3704 49.1152 18.3543 49.112C18.2646 49.0863 18.178 49.0639 18.0851 49.035C18.0595 49.0286 18.0338 49.019 18.0082 49.0126C17.9024 48.9837 17.803 48.9517 17.7005 48.9196C17.3222 48.801 16.9408 48.676 16.5658 48.5414C16.5273 48.5286 16.4888 48.5125 16.4536 48.5029C16.4247 48.4933 16.3991 48.4837 16.3702 48.4741C15.9407 48.3138 15.508 48.1439 15.0849 47.958C15.0849 47.958 15.0817 47.958 15.0785 47.958C15.0176 47.9291 14.9567 47.9035 14.899 47.8778C14.8092 47.8394 14.7195 47.7977 14.6362 47.756C14.524 47.7047 14.415 47.6567 14.306 47.6022C14.306 47.6022 14.3028 47.6022 14.2996 47.6022C14.2259 47.5637 14.1554 47.5316 14.0816 47.4964C14.0271 47.4739 13.9759 47.4483 13.9278 47.4226C13.8957 47.4066 13.8669 47.3938 13.8348 47.3778C13.8316 47.3778 13.8252 47.3746 13.822 47.3714C13.8028 47.3617 13.7867 47.3521 13.7675 47.3425C13.7515 47.3329 13.7323 47.3265 13.7162 47.3169C13.697 47.3072 13.6778 47.2976 13.6553 47.288C13.5784 47.2495 13.5015 47.2079 13.4277 47.1662C13.3957 47.1502 13.3668 47.1341 13.338 47.1149C13.2643 47.0764 13.1905 47.038 13.1168 46.9963C13.0495 46.961 12.9822 46.9258 12.9181 46.8905C12.8668 46.8617 12.8155 46.836 12.7642 46.8072C12.6585 46.7463 12.5527 46.6854 12.4469 46.6245C12.3604 46.57 12.2738 46.5187 12.1873 46.4674C12.1713 46.461 12.152 46.4482 12.136 46.4385C12.0366 46.3808 11.9373 46.3167 11.8379 46.2558C11.8283 46.2558 11.8187 46.243 11.809 46.2366C11.793 46.2302 11.7802 46.2174 11.7674 46.2077C11.6616 46.1468 11.559 46.0795 11.4565 46.0154C11.4084 45.9834 11.3603 45.9513 11.3122 45.9193C11.2994 45.9128 11.2866 45.9064 11.2738 45.8968C11.2129 45.8551 11.1488 45.8167 11.0878 45.7718C11.075 45.7654 11.059 45.7558 11.043 45.7429C10.9821 45.7045 10.9212 45.6628 10.8571 45.6179C10.7994 45.5763 10.7385 45.5378 10.6808 45.4961C10.6808 45.4961 10.6744 45.4961 10.6712 45.4897C10.6519 45.4769 10.6327 45.4641 10.6167 45.4512C10.5878 45.432 10.559 45.4096 10.5301 45.3903C10.4756 45.3519 10.4179 45.3134 10.3666 45.2749C10.3314 45.2493 10.2961 45.2236 10.2609 45.198C10.2224 45.1724 10.1872 45.1435 10.1519 45.1179C10.0782 45.0634 10.0077 45.0089 9.93393 44.9544C9.92111 44.9416 9.90508 44.9319 9.89226 44.9191C9.87944 44.9127 9.86982 44.9031 9.86021 44.8935C9.85059 44.8839 9.83456 44.8774 9.82495 44.8646L9.80572 44.8518C9.80572 44.8518 9.7993 44.8486 9.7961 44.8454C9.73199 44.8005 9.6743 44.7556 9.6134 44.7011C9.53647 44.6466 9.46274 44.589 9.39223 44.528C9.38902 44.5248 9.37941 44.5216 9.3762 44.5152C9.36979 44.512 9.36017 44.4992 9.35056 44.4928C9.31851 44.4639 9.28645 44.4383 9.2544 44.4126C9.22555 44.387 9.19029 44.3646 9.16465 44.3421C9.11657 44.3005 9.06849 44.262 9.02041 44.2235C9.014 44.2235 9.01079 44.2139 9.00759 44.2107C8.82168 44.0568 8.64218 43.9062 8.46909 43.7491C8.35049 43.6465 8.23831 43.5471 8.12292 43.4446C7.98829 43.3163 7.85046 43.1913 7.71904 43.0631C7.69981 43.0439 7.67737 43.0246 7.65494 43.0022C7.46903 42.8259 7.28312 42.64 7.10682 42.4541C6.96258 42.3098 6.82155 42.1592 6.68372 42.0085C6.64205 41.9668 6.60359 41.9251 6.56512 41.8803C6.45614 41.7649 6.35357 41.6495 6.251 41.5309C6.18689 41.4603 6.12279 41.3898 6.06189 41.3193C5.93367 41.1718 5.80866 41.0212 5.68686 40.8705C5.66763 40.8481 5.6484 40.8256 5.63237 40.8064C5.63237 40.8 5.62276 40.7968 5.62276 40.7904C5.54583 40.7006 5.47211 40.6109 5.40159 40.5179C5.26376 40.3448 5.13234 40.1717 5.00733 39.9986C4.96246 39.9441 4.92079 39.8864 4.88232 39.8351C4.53615 39.3639 4.206 38.8831 3.89508 38.3926C3.71879 38.1138 3.5489 37.8381 3.38543 37.556C3.35658 37.5079 3.33094 37.4598 3.29889 37.4117C3.25401 37.3316 3.20914 37.2483 3.16106 37.1649C3.16106 37.1553 3.15785 37.1521 3.15144 37.1425C2.90463 36.6969 2.66744 36.2417 2.44948 35.7801C2.42063 35.732 2.39498 35.6743 2.37255 35.6166C2.21869 35.2961 2.07766 34.9723 1.94303 34.6454C1.85328 34.4274 1.76674 34.2158 1.68019 33.9978C1.38851 33.2381 1.13529 32.4688 0.917326 31.6899C0.81796 31.3276 0.725006 30.9686 0.641667 30.6C0.635256 30.5711 0.628846 30.5423 0.622435 30.5134C0.606408 30.4397 0.587176 30.366 0.567944 30.289C0.52307 30.0839 0.4814 29.8755 0.442936 29.6704C-0.800733 23.1118 0.564739 16.0725 4.81181 10.2576C12.9534 -0.89445 28.5954 -3.33066 39.7435 4.81141C50.8917 12.9535 53.3309 28.5933 45.1894 39.7422Z"/>
</mask>
<path d="M45.1894 39.7422C44.3528 40.8866 43.4393 41.938 42.4617 42.8932C41.7629 43.5792 41.0321 44.2139 40.2692 44.8005C40.2115 44.8454 40.1474 44.8935 40.0897 44.9384C39.9679 45.0281 39.8525 45.1179 39.7307 45.2044C39.641 45.2717 39.548 45.3358 39.4551 45.4C39.3685 45.4609 39.2788 45.5218 39.1922 45.5859C39.1922 45.5859 39.189 45.5859 39.1858 45.5891C38.7819 45.868 38.3717 46.134 37.955 46.3873C37.8876 46.4257 37.8203 46.4674 37.753 46.5091C37.6761 46.5539 37.596 46.602 37.5158 46.6437C37.3556 46.7399 37.1953 46.8296 37.035 46.9194C36.8683 47.0091 36.7017 47.0989 36.5318 47.1854C36.4452 47.2303 36.3619 47.272 36.2722 47.3169C36.1375 47.3874 35.9997 47.4547 35.8619 47.522C35.8587 47.522 35.8555 47.5252 35.8491 47.5284C35.7144 47.5925 35.5766 47.6567 35.4388 47.7208C35.3362 47.7656 35.2336 47.8137 35.1278 47.8586C35.1182 47.8618 35.1054 47.8714 35.0958 47.8714C34.8009 48.0028 34.4996 48.1279 34.1983 48.2465C33.9996 48.3266 33.7944 48.4035 33.5957 48.4741C33.5733 48.4837 33.5508 48.4933 33.5252 48.5029C33.4899 48.5157 33.4547 48.5286 33.4194 48.5414C33.4002 48.551 33.3745 48.5574 33.3521 48.5638C33.3265 48.5766 33.3008 48.583 33.272 48.5927C33.2143 48.6119 33.1534 48.6375 33.0925 48.6536C32.9739 48.692 32.8553 48.7337 32.7335 48.7722C32.679 48.7914 32.6277 48.8074 32.5732 48.8235C32.5476 48.8331 32.5187 48.8427 32.4931 48.8523C32.4193 48.8748 32.3488 48.8972 32.2751 48.9164C32.2623 48.9164 32.2527 48.9228 32.2398 48.9292C32.2238 48.9325 32.211 48.9389 32.195 48.9421C32.1277 48.9645 32.0571 48.9837 31.9898 49.003C31.945 49.0158 31.9001 49.0318 31.852 49.0447C31.8232 49.0543 31.7911 49.0639 31.7558 49.0735C31.7302 49.0799 31.7014 49.0863 31.6757 49.0927C31.5956 49.1152 31.5186 49.1376 31.4385 49.1568C31.3712 49.1761 31.3039 49.1953 31.2334 49.2113C31.0282 49.2626 30.8231 49.3139 30.6179 49.3588C30.6179 49.3588 30.6147 49.3588 30.6115 49.3588C30.5859 49.3652 30.5635 49.3684 30.5378 49.378C30.4929 49.3876 30.4481 49.3973 30.4032 49.4069C30.3872 49.4069 30.3711 49.4133 30.3519 49.4165C30.2557 49.4389 30.1596 49.4582 30.0634 49.4774C30.0442 49.4774 30.0185 49.487 29.9993 49.4902C29.9544 49.503 29.9032 49.5095 29.8551 49.5191C29.807 49.5319 29.7589 49.5383 29.7108 49.5479C29.6019 49.5704 29.4929 49.5864 29.3839 49.6088C29.3518 49.612 29.3198 49.6217 29.2845 49.6281C29.2589 49.6313 29.2364 49.6345 29.2108 49.6409C29.0634 49.6665 28.9127 49.6922 28.7653 49.7178C28.7076 49.7274 28.6499 49.7338 28.5858 49.7402C28.4543 49.7627 28.3197 49.7819 28.1851 49.798C28.1819 49.798 28.1755 49.798 28.1723 49.798C28.1498 49.8012 28.1242 49.8044 28.1018 49.8076C27.8966 49.8332 27.6915 49.8557 27.4895 49.8781C27.1209 49.9166 26.7523 49.9422 26.3837 49.9646C26.3036 49.9678 26.2202 49.9743 26.1369 49.9775C25.9959 49.9839 25.858 49.9903 25.7138 49.9903C25.6272 49.9935 25.5375 49.9967 25.451 49.9999C25.2971 50.0031 25.1464 50.0031 24.9958 49.9999C24.8451 50.0031 24.6945 49.9999 24.5438 49.9967C24.3034 49.9967 24.0662 49.9839 23.8226 49.9743H23.8194C23.7714 49.9743 23.7201 49.9743 23.6752 49.9678H23.6399C23.5854 49.9678 23.5278 49.9646 23.4733 49.955C23.4188 49.955 23.3675 49.955 23.3098 49.9486C23.2457 49.9486 23.1816 49.9422 23.1175 49.9358C23.0758 49.9358 23.0309 49.9262 22.9893 49.923C22.7745 49.9069 22.5565 49.8877 22.345 49.8621C21.9668 49.8236 21.5917 49.7755 21.2167 49.7178C21.1462 49.705 21.0757 49.6986 21.0084 49.6826C20.9122 49.6697 20.816 49.6537 20.7231 49.6345C20.5276 49.6024 20.3352 49.5672 20.1429 49.5287C19.8576 49.4742 19.5756 49.4165 19.2935 49.3492C19.1108 49.3043 18.9249 49.2626 18.7422 49.2113C18.6877 49.1985 18.6268 49.1825 18.5659 49.1665C18.5146 49.1536 18.4633 49.1408 18.4088 49.128C18.3928 49.1248 18.3704 49.1152 18.3543 49.112C18.2646 49.0863 18.178 49.0639 18.0851 49.035C18.0595 49.0286 18.0338 49.019 18.0082 49.0126C17.9024 48.9837 17.803 48.9517 17.7005 48.9196C17.3222 48.801 16.9408 48.676 16.5658 48.5414C16.5273 48.5286 16.4888 48.5125 16.4536 48.5029C16.4247 48.4933 16.3991 48.4837 16.3702 48.4741C15.9407 48.3138 15.508 48.1439 15.0849 47.958C15.0849 47.958 15.0817 47.958 15.0785 47.958C15.0176 47.9291 14.9567 47.9035 14.899 47.8778C14.8092 47.8394 14.7195 47.7977 14.6362 47.756C14.524 47.7047 14.415 47.6567 14.306 47.6022C14.306 47.6022 14.3028 47.6022 14.2996 47.6022C14.2259 47.5637 14.1554 47.5316 14.0816 47.4964C14.0271 47.4739 13.9759 47.4483 13.9278 47.4226C13.8957 47.4066 13.8669 47.3938 13.8348 47.3778C13.8316 47.3778 13.8252 47.3746 13.822 47.3714C13.8028 47.3617 13.7867 47.3521 13.7675 47.3425C13.7515 47.3329 13.7323 47.3265 13.7162 47.3169C13.697 47.3072 13.6778 47.2976 13.6553 47.288C13.5784 47.2495 13.5015 47.2079 13.4277 47.1662C13.3957 47.1502 13.3668 47.1341 13.338 47.1149C13.2643 47.0764 13.1905 47.038 13.1168 46.9963C13.0495 46.961 12.9822 46.9258 12.9181 46.8905C12.8668 46.8617 12.8155 46.836 12.7642 46.8072C12.6585 46.7463 12.5527 46.6854 12.4469 46.6245C12.3604 46.57 12.2738 46.5187 12.1873 46.4674C12.1713 46.461 12.152 46.4482 12.136 46.4385C12.0366 46.3808 11.9373 46.3167 11.8379 46.2558C11.8283 46.2558 11.8187 46.243 11.809 46.2366C11.793 46.2302 11.7802 46.2174 11.7674 46.2077C11.6616 46.1468 11.559 46.0795 11.4565 46.0154C11.4084 45.9834 11.3603 45.9513 11.3122 45.9193C11.2994 45.9128 11.2866 45.9064 11.2738 45.8968C11.2129 45.8551 11.1488 45.8167 11.0878 45.7718C11.075 45.7654 11.059 45.7558 11.043 45.7429C10.9821 45.7045 10.9212 45.6628 10.8571 45.6179C10.7994 45.5763 10.7385 45.5378 10.6808 45.4961C10.6808 45.4961 10.6744 45.4961 10.6712 45.4897C10.6519 45.4769 10.6327 45.4641 10.6167 45.4512C10.5878 45.432 10.559 45.4096 10.5301 45.3903C10.4756 45.3519 10.4179 45.3134 10.3666 45.2749C10.3314 45.2493 10.2961 45.2236 10.2609 45.198C10.2224 45.1724 10.1872 45.1435 10.1519 45.1179C10.0782 45.0634 10.0077 45.0089 9.93393 44.9544C9.92111 44.9416 9.90508 44.9319 9.89226 44.9191C9.87944 44.9127 9.86982 44.9031 9.86021 44.8935C9.85059 44.8839 9.83456 44.8774 9.82495 44.8646L9.80572 44.8518C9.80572 44.8518 9.7993 44.8486 9.7961 44.8454C9.73199 44.8005 9.6743 44.7556 9.6134 44.7011C9.53647 44.6466 9.46274 44.589 9.39223 44.528C9.38902 44.5248 9.37941 44.5216 9.3762 44.5152C9.36979 44.512 9.36017 44.4992 9.35056 44.4928C9.31851 44.4639 9.28645 44.4383 9.2544 44.4126C9.22555 44.387 9.19029 44.3646 9.16465 44.3421C9.11657 44.3005 9.06849 44.262 9.02041 44.2235C9.014 44.2235 9.01079 44.2139 9.00759 44.2107C8.82168 44.0568 8.64218 43.9062 8.46909 43.7491C8.35049 43.6465 8.23831 43.5471 8.12292 43.4446C7.98829 43.3163 7.85046 43.1913 7.71904 43.0631C7.69981 43.0439 7.67737 43.0246 7.65494 43.0022C7.46903 42.8259 7.28312 42.64 7.10682 42.4541C6.96258 42.3098 6.82155 42.1592 6.68372 42.0085C6.64205 41.9668 6.60359 41.9251 6.56512 41.8803C6.45614 41.7649 6.35357 41.6495 6.251 41.5309C6.18689 41.4603 6.12279 41.3898 6.06189 41.3193C5.93367 41.1718 5.80866 41.0212 5.68686 40.8705C5.66763 40.8481 5.6484 40.8256 5.63237 40.8064C5.63237 40.8 5.62276 40.7968 5.62276 40.7904C5.54583 40.7006 5.47211 40.6109 5.40159 40.5179C5.26376 40.3448 5.13234 40.1717 5.00733 39.9986C4.96246 39.9441 4.92079 39.8864 4.88232 39.8351C4.53615 39.3639 4.206 38.8831 3.89508 38.3926C3.71879 38.1138 3.5489 37.8381 3.38543 37.556C3.35658 37.5079 3.33094 37.4598 3.29889 37.4117C3.25401 37.3316 3.20914 37.2483 3.16106 37.1649C3.16106 37.1553 3.15785 37.1521 3.15144 37.1425C2.90463 36.6969 2.66744 36.2417 2.44948 35.7801C2.42063 35.732 2.39498 35.6743 2.37255 35.6166C2.21869 35.2961 2.07766 34.9723 1.94303 34.6454C1.85328 34.4274 1.76674 34.2158 1.68019 33.9978C1.38851 33.2381 1.13529 32.4688 0.917326 31.6899C0.81796 31.3276 0.725006 30.9686 0.641667 30.6C0.635256 30.5711 0.628846 30.5423 0.622435 30.5134C0.606408 30.4397 0.587176 30.366 0.567944 30.289C0.52307 30.0839 0.4814 29.8755 0.442936 29.6704C-0.800733 23.1118 0.564739 16.0725 4.81181 10.2576C12.9534 -0.89445 28.5954 -3.33066 39.7435 4.81141C50.8917 12.9535 53.3309 28.5933 45.1894 39.7422Z" fill="#F7F2DA" stroke="#E85D04" stroke-width="2" mask="url(#path-1-inside-1_104_319)"/>
<path d="M20.1906 48.4935C20.1778 48.83 20.1618 49.173 20.1426 49.5256C19.8573 49.4711 19.5752 49.4135 19.2931 49.3461C19.1104 49.3013 18.9245 49.2596 18.7418 49.2083C18.6873 49.1955 18.6264 49.1794 18.5655 49.1634C18.5142 49.1506 18.463 49.1378 18.4085 49.125C18.3924 49.1217 18.37 49.1121 18.354 49.1089C18.2642 49.0833 18.1777 49.0608 18.0847 49.032C18.0591 49.0256 18.0334 49.016 18.0078 49.0096C17.902 48.9807 17.8027 48.9486 17.7001 48.9166C17.3219 48.798 16.9404 48.673 16.5654 48.5383C16.5269 48.5255 16.4885 48.5095 16.4532 48.4999C16.4244 48.4903 16.3987 48.4806 16.3699 48.471C15.9404 48.3107 15.5076 48.1409 15.0845 47.9549C15.0845 47.9549 15.0813 47.9549 15.0781 47.9549C15.123 47.3555 15.1743 46.7561 15.2192 46.1534C15.2448 45.8617 15.2672 45.5668 15.2897 45.2751C15.3153 44.9513 15.3378 44.6276 15.3602 44.3038L15.5878 44.2621L15.8987 44.2012L16.232 44.1403L16.4468 44.1019L17.1808 43.964L17.2225 43.9576L17.9052 43.8294L19.0624 43.6114L19.2515 43.5762C19.2867 43.5762 20.1169 43.355 20.1522 43.355C20.1778 43.4608 20.2291 44.291 20.2387 45.5444C20.2451 46.3746 20.2387 47.3908 20.1938 48.5031L20.1906 48.4935Z" fill="#EF7950"/>
<path fill-rule="evenodd" clip-rule="evenodd" d="M20.8256 44.1757C20.9154 44.3712 20.9378 44.6052 20.8769 44.8392C20.7487 45.3393 20.2839 45.6566 19.8416 45.5412C19.6717 45.4963 19.5307 45.397 19.4249 45.2591C19.4185 45.3136 19.4089 45.3681 19.396 45.4258C19.2678 45.9259 18.8031 46.24 18.3607 46.1278C18.0947 46.0605 17.8992 45.8522 17.8094 45.5893C17.8094 45.6726 17.7998 45.756 17.7774 45.8393C17.6491 46.3426 17.1844 46.6567 16.742 46.5413C16.3798 46.4484 16.1426 46.0958 16.1426 45.6983C15.9471 46.0477 15.5721 46.24 15.2099 46.1471C14.8317 46.0509 14.5913 45.6694 14.6105 45.2495C14.4342 45.3521 14.229 45.3906 14.0271 45.3393C13.7707 45.272 13.5784 45.0796 13.4854 44.8296C13.4181 44.6469 13.4053 44.4385 13.4598 44.2269C13.5175 44.0058 13.6393 43.8198 13.7963 43.6916C13.3925 42.4831 13.5559 40.797 13.9181 39.3834C14.5047 37.0946 15.6554 35.322 17.678 35.8413C17.8479 35.8861 18.0145 35.9567 18.178 36.056C19.723 36.976 20.9026 40.1303 20.8256 42.3164C20.8993 42.3132 20.9763 42.3164 21.05 42.3357C21.4923 42.4479 21.7488 42.9479 21.6173 43.448C21.5116 43.8583 21.1846 44.1404 20.8288 44.1725L20.8256 44.1757Z" fill="#FFF5F5"/>
<g style="mix-blend-mode:multiply" opacity="0.2">
<path d="M20.8265 44.1756C20.9163 44.3711 20.9387 44.6051 20.8778 44.8391C20.7496 45.3392 20.2848 45.6565 19.8425 45.5411C19.6726 45.4963 19.5316 45.3969 19.4258 45.259C19.4194 45.3135 19.4098 45.368 19.397 45.4257C19.2687 45.9258 18.804 46.2399 18.3616 46.1277C18.0956 46.0604 17.9001 45.8521 17.8103 45.5892C17.8103 45.6726 17.8007 45.7559 17.7783 45.8392C17.6501 46.3425 17.1853 46.6567 16.7429 46.5413C16.3807 46.4483 16.1435 46.0957 16.1435 45.6982C15.948 46.0476 15.573 46.2399 15.2108 46.147C14.8326 46.0508 14.5922 45.6694 14.6114 45.2494C14.4351 45.352 14.23 45.3905 14.028 45.3392C13.7716 45.2719 13.5793 45.0795 13.4863 44.8295C13.7107 44.9898 13.98 45.0314 14.2845 44.8103C14.621 45.4193 15.5057 45.3841 15.9961 44.977C16.3359 45.7399 17.2045 45.5123 17.525 44.8231C18.1437 45.4193 19.1566 44.5602 19.0796 43.7268C19.0444 43.3678 18.8585 42.9799 18.5892 42.7812C18.2559 42.5375 17.9353 42.7331 17.5699 42.6209C18.5572 41.8996 19.0316 40.6944 19.086 39.3961C19.1341 38.2581 18.7944 37.2644 18.3136 36.306C18.2847 36.2515 18.2398 36.1617 18.1821 36.0527C19.7271 36.9727 20.9067 40.127 20.8297 42.3132C20.9035 42.3099 20.9804 42.3132 21.0541 42.3324C21.4965 42.4446 21.7529 42.9446 21.6215 43.4447C21.5157 43.855 21.1887 44.1371 20.833 44.1692L20.8265 44.1756Z" fill="#7C4949"/>
</g>
<path d="M35.5061 39.8544C35.115 40.6494 33.9771 41.2488 32.4322 41.688C31.8841 41.845 31.2815 41.9797 30.6468 42.0983C26.294 42.8997 20.2359 42.842 17.2902 42.4733C16.319 42.3515 15.6875 42.1944 15.5625 42.0278C15.6747 41.7585 15.7933 41.486 15.9119 41.2135C15.9407 41.1462 15.9728 41.0789 16.0016 41.0116C16.1427 40.6942 16.2901 40.3833 16.4408 40.0756C16.4728 40.0115 16.5017 39.9474 16.5337 39.8865C16.5658 39.8255 16.5946 39.7614 16.6267 39.7005C16.6587 39.6396 16.6876 39.5787 16.7196 39.5178C16.9761 39.0242 17.2389 38.5626 17.4985 38.1587C17.5274 38.117 17.553 38.0753 17.5819 38.0336C17.6524 37.9247 17.7261 37.8253 17.7966 37.7291C17.8126 37.7067 17.8287 37.6842 17.8447 37.6618C17.8607 37.6394 17.8768 37.6169 17.8928 37.5977C17.9088 37.5753 17.9248 37.556 17.9409 37.5368C17.9569 37.5176 17.9729 37.4951 17.9889 37.4759C18.005 37.4567 18.021 37.4374 18.037 37.4182C18.0691 37.3797 18.1011 37.3413 18.1332 37.306C18.1492 37.2868 18.1652 37.2707 18.1813 37.2515C18.2165 37.213 18.2518 37.1746 18.287 37.1393C18.3127 37.1137 18.3415 37.088 18.364 37.0656C18.3832 37.0495 18.4024 37.0303 18.4185 37.0143C18.4345 37.0015 18.4505 36.9854 18.4665 36.9726C18.4665 36.9726 18.4665 36.9726 18.4697 36.9694C18.4954 36.9502 18.5178 36.9309 18.5435 36.9117C18.5659 36.8957 18.5851 36.8797 18.6076 36.8636C18.6685 36.822 18.8384 36.7386 19.1044 36.6264C20.7199 35.9468 25.7843 34.2319 29.8647 34.5941C29.9 34.5941 29.9384 34.6005 29.9737 34.6037C30.0923 34.6133 30.2077 34.6294 30.3231 34.6422C30.3711 34.6486 30.416 34.655 30.4641 34.6614C30.509 34.6678 30.5571 34.6742 30.6019 34.6839C30.6436 34.6903 30.6821 34.6967 30.7237 34.7031C30.7526 34.7063 30.7782 34.7127 30.8071 34.7191C30.8295 34.7223 30.8519 34.7287 30.8744 34.7319C30.9193 34.7416 30.9641 34.748 31.009 34.7576C31.0314 34.7608 31.0571 34.7672 31.0795 34.7736C31.118 34.7832 31.1564 34.7896 31.1949 34.7993C31.2334 34.8089 31.2718 34.8185 31.3103 34.8281C31.5058 34.8762 31.6982 34.9307 31.8841 34.9916C31.9193 35.0044 31.9514 35.014 31.9866 35.0269C32.0475 35.0493 32.1084 35.0685 32.1693 35.091C32.2302 35.1134 32.2879 35.139 32.3488 35.1615C32.3713 35.1711 32.3905 35.1807 32.4129 35.1871C32.4129 35.1871 32.4161 35.1871 32.4193 35.1871C32.4578 35.2032 32.4963 35.2192 32.5315 35.2384C32.5988 35.2673 32.663 35.2993 32.7303 35.3314C32.7623 35.3474 32.7944 35.3634 32.8264 35.3827C32.9194 35.4308 33.0091 35.482 33.0989 35.5333C33.1277 35.5526 33.1598 35.5686 33.1886 35.5878C33.304 35.6583 33.413 35.7353 33.522 35.8154C33.554 35.8411 33.5861 35.8635 33.6181 35.8891C33.6502 35.9148 33.6855 35.9404 33.7175 35.9661C33.7496 35.9917 33.7816 36.0206 33.8137 36.0494C33.8393 36.0719 33.865 36.0911 33.8874 36.1135C33.8906 36.1135 33.897 36.1199 33.9002 36.1231C33.9387 36.1584 33.9771 36.1969 34.0156 36.2353C34.0413 36.2578 34.0637 36.2834 34.0893 36.3091C34.1182 36.3411 34.147 36.37 34.1759 36.402C34.2047 36.4341 34.2336 36.4629 34.2592 36.4982C34.2881 36.5303 34.3137 36.5591 34.3393 36.5944C34.3393 36.5944 34.3393 36.5944 34.3426 36.6008C34.3682 36.6328 34.3938 36.6649 34.4195 36.7001C34.4419 36.729 34.4644 36.7578 34.4868 36.7867C34.5413 36.8604 34.5958 36.9374 34.6471 37.0175C34.6727 37.0528 34.6951 37.0912 34.7176 37.1297C34.7432 37.1714 34.7689 37.2162 34.7945 37.2611C34.8137 37.2964 34.833 37.3284 34.849 37.3637C34.8714 37.4022 34.8907 37.4438 34.9099 37.4855C34.9259 37.5208 34.9452 37.556 34.9612 37.5945C34.9644 37.6041 34.9708 37.6137 34.974 37.6233C35.0093 37.7035 35.0445 37.7836 35.0766 37.867C35.0926 37.9118 35.1118 37.9567 35.1279 38.0016C35.1439 38.0465 35.1599 38.0913 35.1759 38.1394C35.192 38.1843 35.2048 38.2324 35.2208 38.2805C35.2368 38.3286 35.2497 38.3766 35.2625 38.4215C35.2753 38.4696 35.2881 38.5177 35.3009 38.569C35.3009 38.5754 35.3009 38.5818 35.3041 38.5882C35.3651 38.8286 35.4099 39.0851 35.4452 39.3511C35.4516 39.3992 35.458 39.4505 35.4644 39.4986C35.4772 39.6172 35.4869 39.7358 35.4933 39.8608L35.5061 39.8544Z" fill="#F9AE7A"/>
<path d="M28.643 34.325L28.4379 35.7643C28.3225 35.5848 26.9698 35.2674 26.8096 35.1135C26.4057 34.7321 27.1269 33.6069 26.5467 33.6967C26.5019 33.7031 26.4634 33.7127 26.4281 33.7255L24.0562 34.9725C23.944 35.0911 23.8094 35.4213 23.6844 35.9117L23.4889 35.9438L23.335 34.9821L23.1619 33.8986L23.1138 33.5941L23.0978 33.4851L23.0305 33.0652L23.0048 32.9017L22.0657 27.0131L21.6426 24.3782L27.0884 23.5127L27.1173 23.7018L27.4122 25.5514L27.4378 25.7117L27.7071 27.3978L28.1109 29.943L28.1238 30.0167L28.6398 34.325H28.643Z" fill="#F9AE7A"/>
<path d="M35.2823 42.7779C35.2567 42.9222 35.2278 43.0728 35.1958 43.2203C35.1733 43.3325 35.1477 43.4415 35.122 43.5569C35.0804 43.73 35.0419 43.9031 35.0099 44.0697C35.0099 44.0762 35.0099 44.0826 35.0067 44.0922C34.981 44.2044 34.9586 44.3166 34.9361 44.4288C34.8496 44.8295 34.7598 45.2077 34.6765 45.5507C34.5707 45.9867 34.4714 46.3681 34.3816 46.6758C34.2855 47.006 34.1957 47.2496 34.1252 47.3811C33.92 47.7561 33.7213 48.1312 33.529 48.5062C33.4937 48.519 33.4585 48.5319 33.4232 48.5447C33.404 48.5543 33.3783 48.5607 33.3559 48.5671C33.3303 48.5799 33.3046 48.5864 33.2758 48.596C33.2181 48.6152 33.1572 48.6408 33.0963 48.6569C32.9777 48.6953 32.8591 48.737 32.7373 48.7755C32.6828 48.7947 32.6315 48.8107 32.577 48.8268C32.5514 48.8364 32.5225 48.846 32.4969 48.8556C32.4232 48.8781 32.3526 48.9005 32.2789 48.9197C32.2661 48.9197 32.2565 48.9261 32.2437 48.9325C32.2276 48.9358 32.2148 48.9422 32.1988 48.9454C32.1315 48.9678 32.061 48.987 31.9936 49.0063C31.9488 49.0191 31.9039 49.0351 31.8558 49.0479C31.827 49.0576 31.7949 49.0672 31.7597 49.0768C31.734 49.0832 31.7052 49.0896 31.6795 49.096C31.5994 49.1185 31.5225 49.1409 31.4423 49.1601C31.375 49.1794 31.3077 49.1986 31.2372 49.2146C31.032 49.2659 30.8269 49.3172 30.6218 49.3621C30.6218 49.3621 30.6186 49.3621 30.6153 49.3621C30.5897 49.3685 30.5673 49.3717 30.5416 49.3813C30.4967 49.3909 30.4519 49.4006 30.407 49.4102C30.391 49.4102 30.3749 49.4166 30.3557 49.4198C30.2596 49.4422 30.1634 49.4615 30.0672 49.4807C30.048 49.4807 30.0224 49.4903 30.0031 49.4935C29.9583 49.5063 29.907 49.5128 29.8589 49.5224C29.8108 49.5352 29.7627 49.5416 29.7146 49.5512C29.6057 49.5737 29.4967 49.5897 29.3877 49.6121C29.3557 49.6153 29.3236 49.6249 29.2883 49.6314C29.2627 49.6346 29.2403 49.6378 29.2146 49.6442C29.0672 49.6698 28.9165 49.6955 28.7691 49.7211C28.7114 49.7307 28.6537 49.7371 28.5896 49.7435C28.4582 49.766 28.3235 49.7852 28.1889 49.8013C28.1857 49.8013 28.1793 49.8013 28.1761 49.8013C28.1537 49.8045 28.128 49.8077 28.1056 49.8109C27.9004 49.8365 27.6953 49.8589 27.4934 49.8814C27.1247 49.9199 26.7561 49.9455 26.3875 49.9679C26.3074 49.9711 26.224 49.9776 26.1407 49.9808C25.9997 49.9872 25.8618 49.9936 25.7176 49.9936C25.6311 49.9968 25.5413 50 25.4548 50.0032C25.3009 50.0064 25.1503 50.0064 24.9996 50.0032C24.849 50.0064 24.6983 50.0032 24.5477 50C24.3073 50 24.0701 49.9872 23.8265 49.9776H23.8232C23.7752 49.9776 23.7239 49.9776 23.679 49.9711H23.6437C23.5893 49.9711 23.5316 49.9679 23.4771 49.9583C23.4226 49.9583 23.3713 49.9583 23.3136 49.9519C23.2495 49.9519 23.1854 49.9455 23.1213 49.9391C23.0796 49.9391 23.0347 49.9295 22.9931 49.9263C22.7783 49.9102 22.5603 49.891 22.3488 49.8654C21.9706 49.8269 21.5955 49.7788 21.2205 49.7211C21.15 49.7083 21.0795 49.7019 21.0122 49.6859C20.916 49.673 20.8198 49.657 20.7269 49.6378C20.5314 49.6057 20.339 49.5705 20.1467 49.532C19.8615 49.4775 19.5794 49.4198 19.2973 49.3525C19.1146 49.3076 18.9287 49.2659 18.746 49.2146C18.6915 49.2018 18.6306 49.1858 18.5697 49.1698C18.5184 49.1569 18.4671 49.1441 18.4126 49.1313C18.3966 49.1281 18.3742 49.1185 18.3582 49.1153C18.2684 49.0896 18.1819 49.0672 18.0889 49.0383C18.0633 49.0319 18.0376 49.0223 18.012 49.0159C17.9062 48.987 17.8068 48.955 17.7043 48.9229C17.326 48.8043 16.9446 48.6793 16.5696 48.5447C16.5311 48.5319 16.4926 48.5158 16.4574 48.5062C16.4285 48.4966 16.4029 48.487 16.3741 48.4774C15.9445 48.3171 15.5118 48.1472 15.0887 47.9613C15.0887 47.9613 15.0855 47.9613 15.0823 47.9613C15.0214 47.9324 14.9605 47.9068 14.9028 47.8811C14.8131 47.8427 14.7233 47.801 14.64 47.7593C14.5278 47.708 14.4188 47.6599 14.3098 47.6055C14.1399 47.1342 14.0245 46.7111 14.0117 46.3457C14.0117 46.2976 14.1175 45.9322 14.3098 45.368C14.3483 45.2558 14.3899 45.1372 14.4316 45.009C14.6432 44.4063 14.922 43.6466 15.249 42.8324C15.2618 42.7939 15.2778 42.7619 15.2906 42.7234C15.3804 42.499 15.4766 42.2682 15.5727 42.0374C15.6016 42.0791 15.6593 42.1176 15.7426 42.156C15.765 42.1689 15.7907 42.1753 15.8163 42.1849C15.8323 42.1913 15.8484 42.1977 15.8676 42.2041C15.9125 42.2202 15.9574 42.2362 16.0118 42.249C16.076 42.2682 16.1497 42.2875 16.2266 42.3035C16.3067 42.3227 16.3965 42.342 16.4926 42.358C16.5856 42.3772 16.685 42.3932 16.7875 42.4093C16.7875 42.4093 16.7939 42.4093 16.7972 42.4093C16.8997 42.4253 17.0055 42.4381 17.1177 42.4542C17.1273 42.4542 17.1337 42.4542 17.1433 42.4574C17.2331 42.4702 17.3292 42.4798 17.4286 42.4926C17.5151 42.5054 17.6081 42.5119 17.7011 42.5247C17.7748 42.5311 17.8517 42.5375 17.9286 42.5471C17.9639 42.5471 17.9992 42.5535 18.0376 42.5567H18.044C18.0825 42.5599 18.1242 42.5631 18.1658 42.5696C18.5024 42.5984 18.8646 42.624 19.2492 42.6497C19.3871 42.6561 19.5281 42.6657 19.6691 42.6721C19.9063 42.685 20.1499 42.6946 20.3999 42.701C20.5923 42.7074 20.7878 42.7138 20.9865 42.717C21.0955 42.7202 21.2077 42.7234 21.3167 42.7234C21.3904 42.7234 21.4609 42.7266 21.5378 42.7266C21.5859 42.7266 21.634 42.7266 21.6853 42.7266C21.8071 42.7266 21.9321 42.7266 22.0571 42.7266C22.5315 42.7298 23.0187 42.7266 23.5123 42.7202C23.5444 42.7202 23.5764 42.7202 23.6085 42.7202H23.6534C23.9483 42.7138 24.2399 42.7074 24.538 42.6946C24.6823 42.6914 24.8265 42.685 24.9708 42.6785C25.0156 42.6785 25.0669 42.6753 25.115 42.6721C25.4355 42.6593 25.7561 42.6433 26.0766 42.6208C26.1054 42.6208 26.1311 42.6208 26.1599 42.6176C26.2433 42.6144 26.3234 42.608 26.4067 42.6016C26.6183 42.5888 26.8298 42.5728 27.0382 42.5535C27.0414 42.5535 27.0478 42.5535 27.051 42.5535C27.1055 42.5503 27.1568 42.5471 27.2081 42.5407C27.3427 42.5279 27.4773 42.5183 27.6119 42.5022C27.6216 42.5022 27.6312 42.5022 27.6408 42.5022C27.6793 42.5022 27.7177 42.4958 27.7562 42.4894C27.9325 42.4734 28.1088 42.4542 28.2819 42.4349C28.455 42.4157 28.628 42.3965 28.8011 42.374C28.971 42.3548 29.1441 42.3291 29.314 42.3067C29.4807 42.2843 29.6473 42.2618 29.814 42.2362C29.9775 42.2105 30.141 42.1849 30.3012 42.156C30.3621 42.1464 30.4198 42.1336 30.4775 42.1272C30.5352 42.1144 30.5929 42.1048 30.6474 42.0951C30.657 42.0951 30.6698 42.0951 30.6762 42.0919C30.6891 42.0919 30.6987 42.0887 30.7083 42.0855C30.7275 42.0855 30.75 42.0791 30.7692 42.0727H30.7724C30.7724 42.0727 30.7852 42.0695 30.7884 42.0695C30.7981 42.0695 30.8045 42.0695 30.8141 42.0663H30.8205C30.9263 42.047 31.0256 42.0278 31.125 42.0054C31.1763 41.9926 31.2244 41.9829 31.2756 41.9733C31.3333 41.9605 31.391 41.9509 31.4455 41.9349C31.5321 41.9156 31.6186 41.8964 31.7052 41.874C31.9327 41.8227 32.1507 41.7682 32.3623 41.7073C32.3655 41.7073 32.3687 41.7073 32.3719 41.7041C32.3815 41.7041 32.3911 41.7009 32.4007 41.6976C32.4007 41.6976 32.4167 41.6944 32.4232 41.6912C33.9681 41.2553 35.1092 40.6558 35.4971 39.8577C35.5516 40.7039 35.4843 41.672 35.2759 42.7811L35.2823 42.7779Z" fill="#FFF5F5"/>
<path d="M35.006 44.0698C35.006 44.0698 35.006 44.0826 35.0027 44.0922C34.9771 44.2044 34.9547 44.3166 34.9322 44.4288C34.8457 44.8295 34.7559 45.2078 34.6726 45.5507C34.5668 45.9867 34.4675 46.3682 34.3777 46.6759C34.2815 47.0061 34.1918 47.2497 34.1213 47.3811C33.9161 47.7562 33.7174 48.1312 33.5251 48.5063C33.4898 48.5191 33.4546 48.5319 33.4193 48.5447C33.4001 48.5543 33.3744 48.5607 33.352 48.5672C33.3264 48.58 33.3007 48.5864 33.2719 48.596C33.2142 48.6152 33.1533 48.6409 33.0924 48.6569C32.9738 48.6954 32.8552 48.7371 32.7334 48.7755C32.6789 48.7948 32.6276 48.8108 32.5731 48.8268C32.5475 48.8364 32.5186 48.846 32.493 48.8557C32.4193 48.8781 32.3487 48.9005 32.275 48.9198C32.2622 48.9198 32.2526 48.9262 32.2397 48.9326C32.2237 48.9358 32.2109 48.9422 32.1949 48.9454C32.1276 48.9679 32.057 48.9871 31.9897 49.0063C31.9449 49.0191 31.9 49.0352 31.8519 49.048C31.8231 49.0576 31.791 49.0672 31.7557 49.0768C31.7301 49.0833 31.7013 49.0897 31.6756 49.0961C31.5955 49.1185 31.5186 49.141 31.4384 49.1602C31.3711 49.1794 31.3038 49.1986 31.2333 49.2147C31.0281 49.266 30.823 49.3173 30.6178 49.3621C30.6178 49.3621 30.6146 49.3621 30.6114 49.3621C30.5858 49.3685 30.5634 49.3718 30.5377 49.3814C30.4928 49.391 30.448 49.4006 30.4031 49.4102C30.3871 49.4102 30.371 49.4166 30.3518 49.4198C30.2556 49.4423 30.1595 49.4615 30.0633 49.4807C30.0441 49.4807 30.0185 49.4904 29.9992 49.4936C29.9543 49.5064 29.9031 49.5128 29.855 49.5224C29.8069 49.5352 29.7588 49.5416 29.7107 49.5513C29.6018 49.5737 29.4928 49.5897 29.3838 49.6122C29.3517 49.6154 29.3197 49.625 29.2844 49.6314C29.2588 49.6346 29.2364 49.6378 29.2107 49.6442C29.0633 49.6699 28.9126 49.6955 28.7652 49.7212C28.7075 49.7308 28.6498 49.7372 28.5857 49.7436C28.4543 49.766 28.3196 49.7853 28.185 49.8013C28.1818 49.8013 28.1754 49.8013 28.1722 49.8013C28.1497 49.8045 28.1241 49.8077 28.1017 49.8109C27.8965 49.8366 27.6914 49.859 27.4894 49.8814C27.1208 49.9199 26.7522 49.9455 26.3836 49.968C26.3035 49.9712 26.2201 49.9776 26.1368 49.9808C25.9958 49.9872 25.8579 49.9936 25.7137 49.9936C25.6271 49.9968 25.5374 50 25.4509 50.0032C25.297 50.0064 25.1463 50.0064 24.9957 50.0032C24.845 50.0064 24.6944 50.0032 24.5437 50C24.3033 50 24.0661 49.9872 23.8225 49.9776H23.8193C23.7713 49.9776 23.72 49.9776 23.6751 49.9712H23.6398C23.5853 49.9712 23.5277 49.968 23.4732 49.9584C23.4187 49.9584 23.3674 49.9584 23.3097 49.952C23.2456 49.952 23.1815 49.9455 23.1174 49.9391C23.0757 49.9391 23.0308 49.9295 22.9892 49.9263C22.7744 49.9103 22.5564 49.891 22.3449 49.8654C21.9667 49.8269 21.5916 49.7789 21.2166 49.7212C21.1461 49.7083 21.0756 49.7019 21.0083 49.6859C20.9121 49.6731 20.8159 49.657 20.723 49.6378C20.5275 49.6058 20.3351 49.5705 20.1428 49.532C19.8575 49.4775 19.5755 49.4198 19.2934 49.3525C19.1107 49.3076 18.9248 49.266 18.7421 49.2147C18.6876 49.2019 18.6267 49.1858 18.5658 49.1698C18.5145 49.157 18.4632 49.1442 18.4087 49.1313C18.3927 49.1281 18.3703 49.1185 18.3542 49.1153C18.2645 49.0897 18.178 49.0672 18.085 49.0384C18.0594 49.032 18.0337 49.0223 18.0081 49.0159C17.9023 48.9871 17.8029 48.955 17.7004 48.923C17.3221 48.8044 16.9407 48.6794 16.5657 48.5447C16.5272 48.5319 16.4887 48.5159 16.4535 48.5063C16.4246 48.4966 16.399 48.487 16.3701 48.4774C15.9406 48.3171 15.5079 48.1472 15.0848 47.9613C15.0848 47.9613 15.0816 47.9613 15.0784 47.9613C15.0175 47.9325 14.9566 47.9068 14.8989 47.8812C14.8091 47.8427 14.7194 47.801 14.6361 47.7594C14.5239 47.7081 14.4149 47.66 14.3059 47.6055C14.136 47.1343 14.0206 46.7112 14.0078 46.3457C14.0078 46.2976 14.1136 45.9322 14.3059 45.368C14.3444 45.2558 14.386 45.1372 14.4277 45.009C14.6393 44.4064 14.9181 43.6467 15.2451 42.8324C15.2579 42.794 15.2739 42.7619 15.2867 42.7235C15.3765 42.4991 15.4726 42.2683 15.5688 42.0375C15.5977 42.0791 15.6554 42.1176 15.7387 42.1561C15.9022 42.7106 16.0945 43.2588 16.3157 43.7909C16.3573 43.8967 16.4022 44.0025 16.4471 44.1083C16.5945 44.448 16.7516 44.7814 16.9215 45.1052C16.9471 45.1565 16.9727 45.2078 17.0016 45.259C17.0208 45.2943 17.0369 45.3264 17.0561 45.3584C17.2356 45.6822 17.4183 45.9546 17.6202 46.2079C17.9472 46.6182 18.3158 46.9708 18.7741 47.3843C19.1812 47.7562 19.7261 48.1184 20.1941 48.5063C20.4505 48.7178 20.6877 48.939 20.864 49.1762C22.9539 47.9389 25.1399 47.0317 27.1369 45.6149C28.2651 44.8135 29.7781 43.5281 30.6499 42.108C30.6595 42.108 30.6691 42.1048 30.6788 42.1016C30.6916 42.1016 30.7012 42.0984 30.7108 42.0952C30.73 42.0952 30.7525 42.0888 30.7717 42.0824H30.7749C30.7749 42.0824 30.7877 42.0791 30.7909 42.0791C30.8006 42.0791 30.807 42.0791 30.8166 42.0759H30.823C30.9192 42.0567 31.0185 42.0343 31.1275 42.0086C31.1788 41.9958 31.2301 41.9862 31.2814 41.9766C31.6692 41.89 32.0859 41.7906 32.368 41.7169C32.3712 41.7169 32.3744 41.7169 32.3808 41.7169C32.3904 41.7169 32.4 41.7137 32.4096 41.7105C32.4096 41.7105 32.4257 41.7073 32.4321 41.7041C32.4545 41.733 32.4737 41.7618 32.493 41.7906C33.1725 42.7299 33.9322 43.5216 35.006 44.0858V44.0698Z" fill="#C92727"/>
<path d="M35.4574 39.3447C35.4222 39.0754 35.3773 38.8222 35.3164 38.5818C35.3773 38.8222 35.4222 39.0786 35.4574 39.3447Z" fill="white"/>
<path d="M23.2265 21.8394L20.0179 23.362C21.877 26.3207 20.3289 30.3404 19.1269 33.2863C18.2903 35.3411 17.2678 37.1138 16.6523 39.4217L17.63 39.8128C18.6973 36.7932 20.9283 34.3602 22.1174 32.8824C23.3098 31.3983 24.0791 29.5166 24.2939 27.6125C24.4798 25.9521 24.2618 23.2113 23.2297 21.8394H23.2265Z" fill="#4C1B05"/>
<path d="M17.9414 42.6593C18.0504 43.5441 17.794 44.5185 17.4382 45.3071C17.3933 44.8167 17.3612 44.3198 17.1849 43.8614C17.0696 44.9256 16.6561 45.8488 16.1913 46.7784C16.1657 46.1085 15.3868 43.7075 15.2746 43.0825C15.2297 42.826 15.2073 42.5888 15.2041 42.3612C15.1624 40.3962 16.5343 39.4858 17.1978 38.8928L17.6722 38.9441L18.0985 38.989C17.3933 40.0308 17.8004 41.5117 17.9414 42.6561V42.6593Z" fill="#592009"/>
<g style="mix-blend-mode:screen" opacity="0.4">
<path d="M17.269 40.7809C17.2433 41.4829 17.5575 42.4285 17.3684 43.0696C17.3171 42.6849 17.0094 42.2169 16.7882 41.8868C16.8202 42.4638 16.7401 42.9799 16.676 43.5376C16.6215 43.3357 16.5318 43.1465 16.3971 42.9799C16.4388 43.653 16.1022 44.3102 16.1055 44.9705C15.9901 44.0345 15.3426 43.294 15.208 42.3644C15.1663 40.3994 16.5382 39.489 17.2017 38.896L17.6761 38.9473C17.6184 39.1492 17.5671 39.3512 17.5158 39.5211C17.3908 39.9346 17.285 40.3545 17.269 40.7841V40.7809Z" fill="#592009"/>
</g>
<path d="M19.6166 32.9143C19.6166 32.9143 16.5459 35.8955 17.1774 39.6876C17.8184 39.5658 22.6649 37.8669 19.6166 32.9143Z" fill="#3F1307"/>
<path d="M20.0873 32.2444C20.0873 32.2444 17.0166 35.2255 17.6481 39.0177C18.2891 38.8959 23.1356 37.1969 20.0873 32.2444Z" fill="#592009"/>
<path d="M14.7388 38.6523C14.851 38.6972 14.9664 38.7453 15.0754 38.7837C15.0145 38.8126 14.883 38.7613 14.8061 38.7933C14.7356 38.8222 14.5593 39.5627 14.6362 39.8095C14.6715 39.9249 14.6715 39.9281 14.7644 39.9473C14.9728 39.9954 16.444 39.755 16.8127 40.0307L16.9665 39.2838C16.9569 39.2485 16.9216 39.1716 16.8543 39.069C16.6235 38.7036 16.0338 38.0304 15.1331 37.883C15.101 37.8766 15.069 37.8734 15.0337 37.8669C14.8702 38.117 14.8125 38.3702 14.7324 38.6523H14.7388Z" fill="#664472"/>
<path d="M14.7388 38.6523C14.851 38.6972 14.9664 38.7453 15.0754 38.7838C15.0145 38.8126 14.883 38.7613 14.8061 38.7934C14.7356 38.8222 14.5593 39.5627 14.6362 39.8095C14.6715 39.9249 14.6715 39.9281 14.7644 39.9474C14.9728 39.9955 16.444 39.755 16.8127 40.0307L16.9665 39.2838C16.9569 39.2486 16.9216 39.1716 16.8543 39.0691C16.5883 38.8383 16.2485 38.6716 15.9408 38.5594C16.1427 38.7229 16.319 38.9665 16.4729 39.1716C16.3543 39.1492 16.2421 39.1268 16.1235 39.1075C16.1812 39.162 16.2581 39.1941 16.319 39.2454C16.3831 39.2999 16.4248 39.3704 16.4857 39.4281C16.3992 39.4986 16.2806 39.5114 16.1716 39.5339C16.0177 39.5691 15.8607 39.6172 15.7036 39.6364C15.4664 39.6685 15.1972 39.6621 14.9792 39.5467C14.9055 39.5082 14.8221 39.4249 14.7901 39.3479C14.7548 39.271 14.7356 39.0114 14.8157 38.944C14.8702 38.8992 15.101 38.9184 15.1779 38.9184C15.3062 38.9152 15.4376 38.9408 15.5594 38.9408C15.3991 38.7485 15.1138 38.694 15.0433 38.4504C14.9856 38.2548 15.0433 38.0593 15.1363 37.8798C15.1042 37.8734 15.0722 37.8702 15.0369 37.8638C14.8734 38.1138 14.8157 38.367 14.7356 38.6491L14.7388 38.6523Z" fill="#473051"/>
<path d="M17.3358 40.1814C16.9608 40.4218 16.4993 40.4763 16.3326 39.9699C16.2524 39.7198 16.2396 39.3544 16.3326 39.0499C16.3999 38.8383 16.5185 38.6556 16.7012 38.5658C16.9672 38.4344 17.5314 38.412 17.9064 38.5274C18.1083 38.5883 18.259 38.6876 18.2814 38.8351C18.3455 39.2422 17.5698 40.0372 17.3326 40.1878L17.3358 40.1814Z" fill="#664472"/>
<path d="M17.3358 40.1814C16.9608 40.4218 16.4993 40.4763 16.3326 39.9699C16.2524 39.7198 16.2396 39.3544 16.3326 39.0499C16.3518 39.3256 16.4512 39.5884 16.6499 39.7807C16.7813 39.5147 16.8775 39.1781 17.1435 38.9986C17.0281 39.2679 17.0025 39.489 17.0089 39.7775C17.3262 39.6012 17.5666 39.4217 17.7622 39.098C17.8583 38.9409 17.9192 38.7646 17.916 38.5787C17.916 38.5658 17.916 38.5466 17.9096 38.5242C18.1115 38.5851 18.2622 38.6844 18.2846 38.8319C18.3487 39.239 17.573 40.034 17.3358 40.1846V40.1814Z" fill="#473051"/>
<path d="M20.2136 40.3065C20.0854 40.2616 19.9507 40.2103 19.8289 40.159C19.8578 40.2295 20.0084 40.2872 20.0469 40.3706C20.0854 40.4507 19.6687 41.204 19.4186 41.3547C19.3001 41.4252 19.3001 41.4284 19.2039 41.3739C18.9923 41.2553 17.9346 39.9346 17.4121 39.8866L17.8512 39.1429C17.8865 39.1204 17.9762 39.082 18.1077 39.0467C18.5821 38.9153 19.5917 38.7967 20.4636 39.3512C20.4956 39.3705 20.5277 39.3929 20.5565 39.4153C20.5053 39.7487 20.361 40.0084 20.2136 40.3065Z" fill="#664472"/>
<path d="M20.2136 40.3064C20.0854 40.2615 19.9507 40.2102 19.8289 40.159C19.8578 40.2295 20.0084 40.2872 20.0469 40.3705C20.0854 40.4507 19.6687 41.204 19.4186 41.3546C19.3001 41.4251 19.3001 41.4283 19.2039 41.3739C18.9923 41.2553 17.9346 39.9346 17.4121 39.8865L17.8512 39.1428C17.8865 39.1204 17.9762 39.0819 18.1077 39.0466C18.5083 39.0562 18.9218 39.1716 19.268 39.3127C18.9731 39.2999 18.6398 39.3672 18.3545 39.4249C18.4731 39.4954 18.5853 39.5595 18.6974 39.6365C18.6045 39.6397 18.5212 39.6076 18.425 39.6044C18.3288 39.6044 18.2391 39.63 18.1461 39.6332C18.1654 39.7583 18.2583 39.8608 18.3288 39.9602C18.4314 40.1077 18.5308 40.2647 18.6462 40.4026C18.8225 40.6109 19.0564 40.8097 19.3257 40.877C19.4186 40.8994 19.5501 40.893 19.6366 40.8546C19.7232 40.8161 19.9411 40.6141 19.9219 40.4955C19.9123 40.4186 19.6975 40.2583 19.6366 40.2006C19.5308 40.098 19.4026 40.0243 19.2968 39.9282C19.5789 39.8865 19.861 40.0564 20.1046 39.9057C20.3001 39.7839 20.4059 39.5788 20.4604 39.3576C20.4924 39.3768 20.5245 39.3992 20.5533 39.4217C20.5021 39.7551 20.3578 40.0147 20.2104 40.3128L20.2136 40.3064Z" fill="#473051"/>
<path d="M21.2586 29.6128C21.2586 29.6128 17.7455 33.0235 18.4667 37.367C19.1975 37.2259 24.7492 35.2802 21.2586 29.6128Z" fill="#3F1307"/>
<path d="M21.7976 28.8499C21.7976 28.8499 18.2846 32.2605 19.0058 36.6041C19.7366 36.463 25.285 34.5172 21.7976 28.8499Z" fill="#592009"/>
<path d="M21.9798 26.6123C21.9798 26.6123 18.7616 30.7026 20.1367 35.1775C20.89 34.9275 26.4576 32.0938 21.9798 26.6123Z" fill="#3F1307"/>
<path d="M22.4388 25.7275C22.4388 25.7275 19.2206 29.8178 20.5957 34.2927C21.3457 34.0427 26.9166 31.209 22.4388 25.7275Z" fill="#592009"/>
<path d="M20.6679 23.1213C20.6679 23.1213 19.1614 28.5227 22.386 32.4046C23.0302 31.8436 27.3959 26.7212 20.6679 23.1213Z" fill="#3F1307"/>
<path d="M20.7578 22.054C20.7578 22.054 19.2513 27.4553 22.4758 31.3372C23.1201 30.7762 27.4858 25.6538 20.7578 22.054Z" fill="#592009"/>
<path d="M19.248 19.9641C19.248 19.9641 19.2288 25.5706 23.3669 28.462C23.8381 27.7504 26.6908 21.6566 19.248 19.9641Z" fill="#3F1307"/>
<path d="M19.0527 18.9094C19.0527 18.9094 19.0335 24.5159 23.1716 27.4073C23.6428 26.6957 26.4955 20.6019 19.0527 18.9094Z" fill="#592009"/>
<path d="M27.9027 28.8563C27.2776 31.2316 24.989 33.8602 23.1652 33.8986L23.1171 33.5941L23.1011 33.4851L23.0338 33.0652L23.0466 33.0588L21.8574 27.885L27.4443 25.7117L27.7136 27.3978L27.9059 28.8563H27.9027Z" fill="#EF7950"/>
<path d="M29.3749 13.6044C28.2658 12.4696 22.2045 11.3156 20.0762 14.1493C18.262 16.5663 18.3902 19.8167 17.6882 22.7562C16.5055 27.7248 21.2269 32.6902 22.6597 32.5042C25.1502 32.1773 28.3203 29.8853 29.3268 27.9588C30.0736 26.5227 29.6826 24.9648 30.1057 23.3781C30.9679 20.1437 31.8302 16.1143 29.3749 13.6044Z" fill="#F9AE7A"/>
<path d="M19.6136 26.5835L19.5527 26.561C19.5752 26.5707 19.5944 26.5771 19.6136 26.5835Z" fill="#EF7950"/>
<path d="M19.7392 26.6509H19.6687C19.6623 26.6733 19.6976 26.6637 19.7392 26.6509Z" fill="#EF7950"/>
<path d="M21.5693 23.875C21.2936 24.0801 21.0212 24.2308 21.3129 24.6186C21.7199 25.1604 22.5758 25.0642 22.9219 25.0001C22.7136 24.952 21.7905 24.686 21.5308 24.4423C21.3513 24.2757 22.4828 23.1986 21.5693 23.875Z" fill="#EF7950"/>
<path d="M19.6132 26.0001L19.5684 25.9937C19.5844 26.0514 21.0076 27.9811 21.3698 28.8562C21.6262 29.4749 22.0557 30.2282 22.8442 30.2506C24.8283 30.3019 25.5687 26.8912 26.1233 26.1828C25.5495 26.9168 20.6646 26.2437 19.6132 26.0001Z" fill="#60281F"/>
<path d="M23.5884 28.6863C23.441 28.5837 23.1141 28.5837 22.9442 28.6062C22.6108 28.651 22.2518 28.76 21.9665 28.9459C21.8544 29.0197 21.5691 29.2921 21.5723 29.4428C21.5755 29.5935 21.8255 29.7698 21.9153 29.8691C22.1332 30.1031 22.4217 30.1801 22.7422 30.2121C23.2775 30.2666 23.6237 30.0839 23.9763 29.6896C24.1814 29.4588 24.6013 29.3018 24.8289 29.0966L25.6655 27.4425C24.9347 27.3496 23.6782 27.8881 23.5884 28.6863Z" fill="#EA6453"/>
<path d="M20.1758 25.8623C20.2912 26.1957 20.522 26.5259 20.7335 26.7631C20.9899 27.0516 21.3073 27.1926 21.6631 27.2727C21.881 27.3208 22.1118 27.3465 22.3522 27.3721C22.9388 27.4298 23.5702 27.3881 24.1119 27.2182C24.4934 27.0996 24.5991 26.7919 24.7338 26.4778L20.1758 25.8655V25.8623Z" fill="white"/>
<path d="M22.5566 30.0678C22.5085 30.055 22.4604 30.0389 22.4188 30.0197C22.4412 30.071 22.4636 30.1223 22.4797 30.1736C22.5085 30.18 22.5406 30.1864 22.5726 30.1928L22.5534 30.071L22.5566 30.0678ZM26.5985 25.7243C26.4671 25.8685 25.6305 26.1506 24.4445 26.266C24.4317 26.266 24.4221 26.266 24.4093 26.266C24.39 26.266 24.3708 26.2692 24.3516 26.2692C24.2907 26.2756 24.233 26.282 24.1721 26.2853C24.1176 26.2885 24.0631 26.2917 24.0086 26.2949C23.9541 26.2981 23.8964 26.3013 23.8387 26.3045C23.7842 26.3045 23.7362 26.3077 23.6785 26.3077C23.64 26.3077 23.6079 26.3077 23.5695 26.3077C23.3483 26.3077 23.1175 26.3077 22.8835 26.2949C22.6271 26.2852 22.3643 26.2628 22.0918 26.2276C22.0566 26.2276 22.0213 26.2211 21.9828 26.2147C21.97 26.2147 21.9604 26.2147 21.9476 26.2115C21.9091 26.2083 21.8707 26.1987 21.8322 26.1923C21.8194 26.1923 21.8098 26.1923 21.8001 26.1891C21.579 26.1602 21.3386 26.1218 21.1014 26.0833C21.0212 26.0705 20.9443 26.0577 20.8674 26.0448C20.7264 26.0224 20.5853 25.9968 20.4507 25.9743C20.409 25.9679 20.3674 25.9615 20.3289 25.9551C20.2904 25.9487 20.252 25.9423 20.2167 25.9326C20.0757 25.9102 19.941 25.8878 19.8257 25.8621C19.5276 25.8076 19.332 25.7724 19.332 25.7724C19.332 25.7724 19.8898 26.6379 20.4026 27.4809V27.4841C20.5308 27.6925 20.6558 27.8976 20.768 28.09C20.8001 28.1445 20.8289 28.1958 20.8578 28.2438C20.8578 28.2438 20.8578 28.2438 20.8578 28.247C20.8802 28.2887 20.9026 28.3272 20.9219 28.3656C20.9347 28.3881 20.9507 28.4137 20.9603 28.4362C21.0725 28.6381 21.1591 28.8048 21.2072 28.9138C21.2456 29.0035 21.3001 29.1414 21.3834 29.2985C21.579 29.6735 21.9091 30.1575 22.4284 30.3435C22.4733 30.3595 22.5245 30.3723 22.5726 30.3851C22.5854 30.3883 22.6015 30.3915 22.6111 30.3948C22.6399 30.398 22.6656 30.4044 22.6912 30.4076C22.7393 30.414 22.7874 30.414 22.8387 30.4172C22.9829 30.43 23.1207 30.4204 23.2554 30.398C23.2938 30.3948 23.3355 30.3851 23.374 30.3787C23.4541 30.3627 23.5278 30.3403 23.6015 30.3146C23.6336 30.305 23.6624 30.2954 23.6945 30.2826C23.7554 30.2569 23.8195 30.2281 23.8804 30.196C23.8804 30.196 23.9028 30.1832 23.9189 30.1768C23.9958 30.1351 24.0695 30.0902 24.1432 30.0389C25.2491 29.2856 25.9703 27.6155 26.3293 26.5834C26.3998 26.3814 26.4575 26.2019 26.4992 26.0609C26.5601 25.8621 26.5921 25.7307 26.5953 25.7083H26.5921L26.5985 25.7243ZM24.3003 29.2953C24.2618 29.3337 24.2202 29.369 24.1785 29.4042C24.1689 29.4107 24.1593 29.4171 24.1529 29.4267C24.0567 29.5036 23.9605 29.5773 23.8548 29.6447C23.8003 29.6799 23.7458 29.712 23.6913 29.744C23.6881 29.744 23.6817 29.7472 23.6785 29.7504C23.6624 29.7601 23.6464 29.7697 23.6304 29.7793C23.5695 29.8113 23.5054 29.8434 23.4381 29.8755C23.2586 29.9588 23.0662 30.0229 22.8547 30.071C22.7521 30.0966 22.656 30.0966 22.563 30.071C22.5149 30.0582 22.4668 30.0421 22.4252 30.0229C22.3963 30.0101 22.3707 29.9941 22.345 29.9748C22.1175 29.8306 21.9155 29.5517 21.7264 29.1799C21.6976 29.1254 21.6719 29.0709 21.6463 29.0164C21.6142 28.9458 21.5822 28.8689 21.5501 28.7888C21.4636 28.5772 21.3129 28.3079 21.143 28.0194C21.1366 28.0098 21.1302 28.0002 21.1238 27.9906C21.0373 27.8431 20.9379 27.6925 20.8417 27.5386C20.7616 27.4168 20.6815 27.2918 20.6045 27.17C20.518 27.0386 20.4283 26.9071 20.3481 26.7885C20.2103 26.593 20.0853 26.4103 19.9859 26.2628C20.0917 26.2853 20.2071 26.3077 20.3321 26.3301C20.3641 26.3365 20.3994 26.3429 20.4315 26.3494C20.4507 26.3494 20.4667 26.3558 20.486 26.359C20.6142 26.3814 20.7488 26.4071 20.8898 26.4295C21.0533 26.4583 21.22 26.484 21.3931 26.5096C21.5533 26.5321 21.7168 26.5545 21.8835 26.5802C21.9027 26.5802 21.9219 26.5834 21.938 26.5866C21.9636 26.5866 21.986 26.593 22.0085 26.5962C22.0213 26.5962 22.0309 26.5962 22.0373 26.5994C22.0982 26.6058 22.1559 26.6122 22.2136 26.6186C22.5438 26.6571 22.8579 26.6795 23.1496 26.6891C23.281 26.6924 23.4124 26.6956 23.5342 26.6956C23.624 26.6956 23.7137 26.6956 23.8003 26.6956C23.8996 26.6924 23.9958 26.6891 24.0887 26.6827H24.124C24.124 26.6827 24.1529 26.6827 24.1625 26.6827C24.2298 26.6827 24.2939 26.6763 24.358 26.6699C24.3933 26.6699 24.4285 26.6667 24.4638 26.6635C24.5343 26.6571 24.6016 26.6507 24.6689 26.6443C24.8805 26.6218 25.0696 26.5962 25.2331 26.5705C25.4542 26.5353 25.6305 26.5 25.7523 26.4712C25.7395 26.5032 25.7139 26.625 25.6658 26.811C25.6209 26.9744 25.56 27.1892 25.4702 27.4328C25.3805 27.6861 25.2587 27.9617 25.108 28.2438C24.9093 28.6061 24.6465 28.9715 24.3099 29.2888C24.3099 29.2888 24.3067 29.2888 24.3067 29.292L24.3003 29.2953ZM22.5566 30.071C22.5085 30.0582 22.4604 30.0421 22.4188 30.0229C22.4412 30.0742 22.4636 30.1255 22.4797 30.1768C22.5085 30.1832 22.5406 30.1896 22.5726 30.196L22.5534 30.0742L22.5566 30.071Z" fill="#FC5135"/>
<path d="M19.6431 25.8589L19.5918 25.8364C19.5918 25.8364 19.6239 25.8525 19.6431 25.8589Z" fill="#EF7950"/>
<path d="M22.5723 25.548C22.3703 25.657 22.1171 25.8333 21.8863 25.8718C21.6587 25.9071 21.4376 25.7372 21.2549 25.6089C20.9311 25.3878 20.9311 25.3525 20.5914 25.5384C20.3798 25.6538 19.9022 25.9391 19.6426 25.859L20.524 26.2372C20.5593 26.3142 21.0754 26.311 21.2196 26.3302C21.5305 26.3719 21.8382 26.4135 22.1491 26.4552C22.5081 26.5033 22.8607 26.5193 23.2165 26.5514C23.473 26.577 25.9699 26.6379 26.6014 25.7147C25.9827 25.6314 24.3608 26.6668 22.569 25.5448L22.5723 25.548Z" fill="#FC5135"/>
<path d="M18.6558 18.9736L18.582 19.0826C18.8865 18.6979 20.4315 18.4896 20.7104 18.9255C20.986 17.0599 19.0724 18.2844 18.659 18.9704L18.6558 18.9736Z" fill="#602618"/>
<path d="M28.2614 19.8327L28.3191 19.9706C28.0627 19.4769 26.2164 18.621 25.7324 18.916C25.9792 17.0279 27.9633 19.0057 28.2614 19.8359V19.8327Z" fill="#602618"/>
<path d="M28.4532 22.567C28.184 21.4547 27.216 19.7782 25.2831 21.3457C24.6613 21.7432 24.1645 22.2977 24.0491 22.4292C24.0427 22.4388 24.0363 22.4452 24.0298 22.4516C24.0234 22.4548 24.0234 22.458 24.0234 22.458C24.0587 22.474 24.0972 22.4869 24.1324 22.4997C24.2863 22.5606 24.4401 22.6183 24.5908 22.6728C24.7062 22.7144 24.8184 22.7529 24.9338 22.7914C24.9722 22.8042 25.0107 22.817 25.0491 22.8298C25.0876 22.8427 25.1261 22.8555 25.1645 22.8651C25.2126 22.8811 25.2575 22.894 25.3056 22.91L25.469 22.9581C25.5588 22.9837 25.6485 23.0094 25.7415 23.0318C25.7607 23.035 25.7768 23.0414 25.796 23.0446C25.8505 23.0574 25.905 23.0703 25.9595 23.0831C25.9659 23.0831 25.9691 23.0831 25.9755 23.0863C26.0268 23.0991 26.0749 23.1087 26.1261 23.1183C26.1582 23.1248 26.1902 23.1312 26.2223 23.1376C26.2576 23.144 26.2928 23.1504 26.3249 23.1568C26.3665 23.1632 26.4114 23.1728 26.4531 23.1792C26.498 23.1857 26.546 23.1953 26.5941 23.2017C26.6005 23.2017 26.6101 23.2017 26.6166 23.2049C26.6358 23.2049 26.655 23.2113 26.6742 23.2113C26.7127 23.2177 26.7512 23.2209 26.7896 23.2273C26.8698 23.2369 26.9467 23.2434 27.0268 23.253C27.0685 23.2562 27.107 23.2594 27.1454 23.2626C27.1839 23.2626 27.2256 23.2658 27.264 23.269C27.2993 23.269 27.3345 23.269 27.3698 23.2722C27.3794 23.2722 27.3858 23.2722 27.3954 23.2722C27.4724 23.2722 27.5493 23.2722 27.623 23.2722C27.7897 23.2722 27.9532 23.2594 28.1231 23.2434C28.1904 23.237 28.2577 23.2273 28.325 23.2177H28.3282C28.3955 23.2081 28.4628 23.1985 28.5269 23.1857C28.5269 23.1664 28.5269 23.1472 28.5269 23.128C28.5301 22.9356 28.5045 22.7465 28.4468 22.5638L28.4532 22.567Z" fill="white"/>
<path d="M26.9879 21.9484C27.0136 22.6793 26.6386 23.2851 26.1481 23.3043C25.6577 23.3204 25.2378 22.7434 25.2122 22.0125C25.1865 21.2817 25.5616 20.6758 26.052 20.6566C26.5424 20.6405 26.9623 21.2175 26.9879 21.9484Z" fill="#574984"/>
<path d="M26.6669 21.9098C26.6861 22.4195 26.4425 22.8427 26.1284 22.8523C25.811 22.8651 25.5418 22.4612 25.5225 21.9515C25.5033 21.4418 25.7469 21.0219 26.061 21.0091C26.3784 20.9963 26.6476 21.4002 26.6669 21.9098Z" fill="#291C51"/>
<path d="M27.2124 21.4194L26.2188 21.6438C26.2188 21.6438 26.9688 22.0605 27.1739 21.9195C27.2765 21.849 27.2124 21.4194 27.2124 21.4194Z" fill="white"/>
<path d="M28.5301 23.189C28.5365 23.0383 28.5141 22.8171 28.4532 22.5671C28.184 21.4548 27.216 19.7783 25.2831 21.3458C24.6709 21.8426 24.1004 22.3876 24.0298 22.4517C24.0234 22.4549 24.0234 22.4581 24.0234 22.4581C24.0234 22.4581 25.4562 18.7749 27.6519 19.5603C28.7545 19.9546 28.8699 22.269 28.5269 23.189H28.5301Z" fill="#EF7950"/>
<path d="M28.3254 23.221C26.4887 23.9551 24.8284 23.0768 24.1328 22.4998C24.2867 22.5607 24.4405 22.6184 24.5912 22.6729C24.7066 22.7145 24.8188 22.753 24.9341 22.7915C24.9726 22.8043 25.0111 22.8171 25.0495 22.8299C25.088 22.8427 25.1265 22.8556 25.1649 22.8652C25.213 22.8812 25.2579 22.894 25.306 22.9101L25.4694 22.9581C25.5592 22.9838 25.6489 23.0094 25.7419 23.0319C25.7611 23.0351 25.7771 23.0415 25.7964 23.0447C25.8509 23.0575 25.9054 23.0703 25.9599 23.0832C25.9663 23.0832 25.9695 23.0832 25.9759 23.0864C26.0272 23.0992 26.0752 23.1088 26.1265 23.1184C26.1586 23.1248 26.1906 23.1312 26.2227 23.1377C26.2579 23.1441 26.2932 23.1505 26.3253 23.1569C26.3669 23.1633 26.4118 23.1729 26.4535 23.1793C26.4983 23.1857 26.5464 23.1954 26.5945 23.2018C26.6009 23.2018 26.6105 23.2018 26.6169 23.205C26.6362 23.205 26.6554 23.2114 26.6746 23.2114C26.7131 23.2178 26.7516 23.221 26.79 23.2274C26.8702 23.237 26.9471 23.2434 27.0272 23.2531C27.0689 23.2563 27.1074 23.2595 27.1458 23.2627C27.1843 23.2627 27.226 23.2659 27.2644 23.2691C27.2997 23.2691 27.3349 23.2691 27.3702 23.2723C27.3798 23.2723 27.3862 23.2723 27.3958 23.2723C27.4728 23.2723 27.5497 23.2723 27.6234 23.2723C27.7901 23.2723 27.9536 23.2595 28.1235 23.2434C28.1908 23.237 28.2581 23.2274 28.3254 23.2178V23.221Z" fill="#EF7950"/>
<path d="M18.1872 21.5958C18.6295 20.7463 19.7225 19.5795 20.8508 21.2271C21.2354 21.6727 21.4951 22.2177 21.5528 22.3491C21.556 22.3587 21.5592 22.3651 21.5624 22.3715C21.5624 22.3747 21.5656 22.3779 21.5656 22.3779C21.5367 22.3811 21.5047 22.3876 21.4758 22.3908C21.3476 22.41 21.2194 22.426 21.0912 22.442C20.995 22.4517 20.9021 22.4645 20.8059 22.4709C20.7739 22.4741 20.7418 22.4773 20.7098 22.4805C20.6777 22.4805 20.6457 22.4837 20.6168 22.4869C20.5783 22.4869 20.5399 22.4933 20.5014 22.4933L20.3668 22.4997C20.2931 22.4997 20.2193 22.5062 20.1456 22.5062C20.1296 22.5062 20.1168 22.5062 20.1007 22.5062C20.0559 22.5062 20.0142 22.5062 19.9693 22.5062C19.9661 22.5062 19.9629 22.5062 19.9565 22.5062C19.9148 22.5062 19.8764 22.5062 19.8379 22.5062C19.8123 22.5062 19.7866 22.5062 19.761 22.5062C19.7321 22.5062 19.7065 22.503 19.6776 22.4997C19.6456 22.4997 19.6103 22.4965 19.5751 22.4933C19.5366 22.4933 19.5013 22.4869 19.4629 22.4837C19.4565 22.4837 19.4501 22.4837 19.4437 22.4837C19.4276 22.4837 19.4116 22.4837 19.3988 22.4773C19.3667 22.4773 19.3379 22.4709 19.3058 22.4645C19.2449 22.4581 19.184 22.4485 19.1199 22.4388C19.0879 22.4324 19.059 22.4292 19.027 22.4228C18.9981 22.4164 18.9661 22.41 18.934 22.4036C18.9084 22.3972 18.8795 22.3908 18.8539 22.3843C18.8475 22.3843 18.841 22.3843 18.8346 22.3779C18.7769 22.3651 18.7192 22.3491 18.6616 22.3331C18.5365 22.2978 18.4115 22.2593 18.2897 22.2112C18.2417 22.192 18.1904 22.1728 18.1423 22.1503C18.0942 22.1311 18.0461 22.1087 17.998 22.0862C18.0013 22.0702 18.0045 22.0542 18.0077 22.0414C18.0461 21.8843 18.107 21.7368 18.1904 21.599L18.1872 21.5958Z" fill="white"/>
<path d="M20.2379 21.2592C20.2636 21.9901 19.8886 22.5959 19.3981 22.6151C18.9077 22.6312 18.4878 22.0542 18.4622 21.3233C18.4365 20.5924 18.8116 19.9866 19.3052 19.9674C19.7956 19.9513 20.2155 20.5283 20.2411 21.2592H20.2379Z" fill="#574984"/>
<path d="M19.9208 21.2206C19.94 21.7303 19.6964 22.1502 19.3823 22.1631C19.0649 22.1727 18.7957 21.772 18.7765 21.2623C18.7572 20.7526 19.0008 20.3327 19.315 20.3199C19.6323 20.3071 19.9015 20.711 19.9208 21.2206Z" fill="#291C51"/>
<path d="M20.4624 20.7302L19.4688 20.9546C19.4688 20.9546 20.2188 21.3713 20.4239 21.2303C20.5265 21.1598 20.4624 20.7302 20.4624 20.7302Z" fill="white"/>
<path d="M17.9946 22.0863C18.0202 21.9645 18.0875 21.7882 18.1869 21.5958C18.6292 20.7464 19.7223 19.5795 20.8505 21.2272C21.2095 21.7497 21.5237 22.301 21.5621 22.3684C21.5621 22.3716 21.5653 22.3748 21.5653 22.3748C21.5653 22.3748 21.2704 19.1083 19.437 19.3135C18.5171 19.4161 17.9337 21.2656 17.9946 22.0799V22.0863Z" fill="#EF7950"/>
<path d="M18.1426 22.1504C19.3766 23.1056 20.8222 22.721 21.4761 22.3908C21.3479 22.41 21.2197 22.4261 21.0915 22.4421C20.9953 22.4517 20.9024 22.4645 20.8062 22.4709C20.7742 22.4742 20.7421 22.4774 20.7101 22.4806C20.678 22.4806 20.6459 22.4838 20.6171 22.487C20.5786 22.487 20.5402 22.4934 20.5017 22.4934L20.3671 22.4998C20.2934 22.4998 20.2196 22.5062 20.1459 22.5062C20.1299 22.5062 20.1171 22.5062 20.101 22.5062C20.0562 22.5062 20.0145 22.5062 19.9696 22.5062C19.9664 22.5062 19.9632 22.5062 19.9568 22.5062C19.9151 22.5062 19.8767 22.5062 19.8382 22.5062C19.8126 22.5062 19.7869 22.5062 19.7613 22.5062C19.7324 22.5062 19.7068 22.503 19.6779 22.4998C19.6459 22.4998 19.6106 22.4966 19.5754 22.4934C19.5369 22.4934 19.5016 22.487 19.4632 22.4838C19.4568 22.4838 19.4504 22.4838 19.4439 22.4838C19.4279 22.4838 19.4119 22.4838 19.3991 22.4774C19.367 22.4774 19.3382 22.4709 19.3061 22.4645C19.2452 22.4581 19.1843 22.4485 19.1202 22.4389C19.0882 22.4325 19.0593 22.4293 19.0273 22.4229C18.9984 22.4164 18.9663 22.41 18.9343 22.4036C18.9087 22.3972 18.8798 22.3908 18.8542 22.3844C18.8478 22.3844 18.8413 22.3844 18.8349 22.378C18.7772 22.3652 18.7195 22.3491 18.6618 22.3331C18.5368 22.2978 18.4118 22.2594 18.29 22.2113C18.2419 22.1921 18.1907 22.1728 18.1426 22.1504Z" fill="#EF7950"/>
<path d="M28.5275 34.2094C28.0339 33.7446 26.6043 33.3503 26.0017 33.5715L23.2868 34.7127C23.0913 35.5558 22.2322 40.1557 23.867 41.8322C26.8287 40.6365 31.2008 36.7258 28.5275 34.2126V34.2094Z" fill="#F9AE7A"/>
<path d="M32.9003 21.3523L29.6918 22.8749C31.5509 25.8336 30.0027 29.8534 28.8007 32.7993C27.9641 34.854 26.9416 36.6267 26.3262 38.9347L27.3006 39.3258C28.368 36.3061 30.5989 33.8731 31.7881 32.3954C32.9804 30.9112 33.7497 29.0296 33.9645 27.1255C34.1504 25.465 33.9324 22.7243 32.9003 21.3523Z" fill="#4C1B05"/>
<path d="M27.6152 42.1723C27.7242 43.057 27.4678 44.0315 27.112 44.82C27.0671 44.3296 27.0351 43.8327 26.8588 43.3743C26.7402 44.4386 26.3299 45.3618 25.8651 46.2914C25.8395 45.6214 25.0606 43.2205 24.9484 42.5954C24.9035 42.3422 24.8811 42.1018 24.8779 41.8742C24.8362 39.9092 26.2081 38.9988 26.8716 38.4058L27.346 38.4571L27.7723 38.5019C27.0671 39.5437 27.4742 41.0247 27.6152 42.1691V42.1723Z" fill="#592009"/>
<g style="mix-blend-mode:screen" opacity="0.4">
<path d="M26.9389 40.2938C26.9133 40.9958 27.2274 41.9414 27.0383 42.5825C26.987 42.1979 26.6793 41.7299 26.4581 41.3997C26.4902 41.9767 26.41 42.4928 26.3459 43.0506C26.2914 42.8486 26.2017 42.6595 26.0671 42.4928C26.1087 43.166 25.7722 43.8231 25.7754 44.4834C25.66 43.5474 25.0125 42.8069 24.8779 41.8773C24.8362 39.9123 26.2081 39.002 26.8716 38.4089L27.346 38.4602C27.2883 38.6622 27.237 38.8641 27.1857 39.034C27.0607 39.4475 26.9549 39.8675 26.9389 40.297V40.2938Z" fill="#592009"/>
</g>
<path d="M29.2904 32.4272C29.2904 32.4272 26.2197 35.4084 26.8512 39.2005C27.4923 39.0787 32.3387 37.3766 29.2904 32.4272Z" fill="#3F1307"/>
<path d="M29.7592 31.7605C29.7592 31.7605 26.6885 34.7416 27.3199 38.5338C27.961 38.412 32.8075 36.7131 29.7592 31.7605Z" fill="#592009"/>
<path d="M24.409 38.1652C24.5212 38.2101 24.6365 38.2582 24.7455 38.2967C24.6846 38.3255 24.5532 38.2742 24.4763 38.3063C24.4026 38.3351 24.2295 39.0756 24.3064 39.3224C24.3417 39.4378 24.3417 39.441 24.4346 39.4603C24.643 39.5084 26.1142 39.2679 26.4828 39.5436L26.6367 38.7967C26.6271 38.7615 26.5918 38.6845 26.5245 38.582C26.2937 38.2197 25.7039 37.5434 24.8032 37.3959C24.7712 37.3895 24.7391 37.3863 24.7039 37.3799C24.5404 37.6299 24.4827 37.8832 24.4026 38.1652H24.409Z" fill="#664472"/>
<path d="M24.409 38.1653C24.5212 38.2101 24.6365 38.2582 24.7455 38.2967C24.6846 38.3255 24.5532 38.2743 24.4763 38.3063C24.4026 38.3352 24.2295 39.0756 24.3064 39.3225C24.3417 39.4379 24.3417 39.4411 24.4346 39.4603C24.643 39.5084 26.1142 39.268 26.4828 39.5437L26.6367 38.7968C26.6271 38.7615 26.5918 38.6846 26.5245 38.582C26.2584 38.3512 25.9187 38.1845 25.611 38.0723C25.8129 38.2358 25.9892 38.4794 26.1431 38.6846C26.0245 38.6621 25.9123 38.6397 25.7937 38.6205C25.8514 38.675 25.9283 38.707 25.9892 38.7583C26.0533 38.8128 26.095 38.8833 26.1559 38.941C26.0693 39.0115 25.9507 39.0244 25.8418 39.0468C25.6879 39.0821 25.5308 39.1301 25.3738 39.1494C25.1366 39.1814 24.8673 39.175 24.6494 39.0596C24.5756 39.0212 24.4923 38.9378 24.4603 38.8609C24.425 38.7839 24.4058 38.5243 24.4859 38.457C24.5404 38.4121 24.7712 38.4313 24.8481 38.4313C24.9763 38.4281 25.1077 38.4538 25.2295 38.4538C25.0693 38.2614 24.784 38.2069 24.7135 37.9633C24.6558 37.7678 24.7135 37.5722 24.8064 37.3927C24.7744 37.3863 24.7423 37.3831 24.7071 37.3767C24.5436 37.6267 24.4859 37.88 24.4058 38.1621L24.409 38.1653Z" fill="#473051"/>
<path d="M27.0058 39.6975C26.6307 39.938 26.1692 39.9924 26.0025 39.486C25.9224 39.2359 25.9095 38.8705 26.0025 38.566C26.0698 38.3544 26.1852 38.1717 26.3711 38.0819C26.6372 37.9505 27.2013 37.9281 27.5763 38.0435C27.7783 38.1044 27.9289 38.207 27.9513 38.3512C28.0154 38.7583 27.2398 39.5533 27.0026 39.7039L27.0058 39.6975Z" fill="#664472"/>
<path d="M27.0058 39.6975C26.6307 39.938 26.1692 39.9925 26.0025 39.486C25.9224 39.2359 25.9095 38.8705 26.0025 38.566C26.0217 38.8417 26.1211 39.1045 26.3198 39.2969C26.4512 39.0308 26.5474 38.6974 26.8134 38.5147C26.6981 38.784 26.6724 39.0052 26.6788 39.2937C26.9962 39.1173 27.2365 38.9378 27.4321 38.6141C27.5282 38.457 27.5891 38.2807 27.5859 38.0948C27.5859 38.082 27.5859 38.0627 27.5795 38.0403C27.7815 38.1012 27.9321 38.2038 27.9545 38.348C28.0187 38.7551 27.243 39.5501 27.0058 39.7008V39.6975Z" fill="#473051"/>
<path d="M29.8874 39.8226C29.7592 39.7777 29.6246 39.7264 29.5028 39.6751C29.5316 39.7457 29.6823 39.8034 29.7207 39.8867C29.7592 39.9668 29.3425 40.7201 29.0925 40.8708C28.9739 40.9413 28.9739 40.9445 28.8777 40.89C28.6662 40.7714 27.6084 39.4507 27.0859 39.4027L27.5251 38.659C27.5603 38.6365 27.6501 38.5981 27.7815 38.5628C28.2559 38.4314 29.2656 38.3128 30.1342 38.8673C30.1663 38.8866 30.1983 38.909 30.2272 38.9315C30.1759 39.2648 30.0316 39.5245 29.8842 39.8226H29.8874Z" fill="#664472"/>
<path d="M29.8874 39.8225C29.7592 39.7776 29.6246 39.7264 29.5028 39.6751C29.5316 39.7456 29.6823 39.8033 29.7207 39.8866C29.7592 39.9668 29.3425 40.7201 29.0925 40.8707C28.9739 40.9413 28.9739 40.9445 28.8777 40.89C28.6662 40.7714 27.6084 39.4507 27.0859 39.4026L27.5251 38.6589C27.5603 38.6365 27.6501 38.598 27.7815 38.5627C28.1822 38.5724 28.5956 38.6878 28.9418 38.8288C28.6469 38.816 28.3136 38.8833 28.0283 38.941C28.1469 39.0115 28.2591 39.0788 28.3713 39.1526C28.2783 39.1558 28.195 39.1237 28.0988 39.1205C28.0027 39.1205 27.9129 39.1462 27.82 39.1494C27.8392 39.2744 27.9321 39.377 28.0027 39.4763C28.1052 39.6206 28.2046 39.7808 28.32 39.9187C28.4963 40.127 28.7303 40.3258 28.9995 40.3931C29.0925 40.4155 29.2239 40.4091 29.3104 40.3707C29.397 40.3322 29.6117 40.1303 29.5957 40.0116C29.5861 39.9347 29.3713 39.7744 29.3104 39.7167C29.2047 39.6142 29.0764 39.5404 28.9707 39.4443C29.2527 39.4026 29.5348 39.5725 29.7784 39.4218C29.9739 39.3 30.0797 39.0949 30.1342 38.8737C30.1663 38.8929 30.1983 38.9154 30.2272 38.9378C30.1759 39.2712 30.0316 39.5308 29.8842 39.8289L29.8874 39.8225Z" fill="#473051"/>
<path d="M30.9324 29.1289C30.9324 29.1289 27.4193 32.5396 28.1405 36.8831C28.8714 36.7421 34.423 34.7963 30.9324 29.1289Z" fill="#3F1307"/>
<path d="M31.4676 28.3628C31.4676 28.3628 27.9545 31.7735 28.6757 36.117C29.4065 35.9759 34.955 34.0302 31.4676 28.3628Z" fill="#592009"/>
<path d="M31.6497 26.1252C31.6497 26.1252 28.4315 30.2155 29.8066 34.6904C30.5599 34.4404 36.1276 31.6067 31.6497 26.1252Z" fill="#3F1307"/>
<path d="M32.1087 25.2437C32.1087 25.2437 28.8905 29.3339 30.2656 33.8089C31.0157 33.5588 36.5865 30.7251 32.1087 25.2437Z" fill="#592009"/>
<path d="M30.3417 22.6343C30.3417 22.6343 28.8352 28.0356 32.0598 31.9175C32.7041 31.3565 37.0697 26.2341 30.3417 22.6343Z" fill="#3F1307"/>
<path d="M30.4316 21.5669C30.4316 21.5669 28.9251 26.9682 32.1496 30.8501C32.7939 30.2892 37.1596 25.1667 30.4316 21.5669Z" fill="#592009"/>
<path d="M28.9219 19.4771C28.9219 19.4771 28.9026 25.0835 33.0407 27.9749C33.5119 27.2633 36.3647 21.1696 28.9219 19.4771Z" fill="#3F1307"/>
<path d="M28.7266 18.4224C28.7266 18.4224 28.7073 24.0289 32.8454 26.9202C33.3166 26.2086 36.1693 20.1149 28.7266 18.4224Z" fill="#592009"/>
<path d="M32.2615 16.2522C31.8127 15.0693 31.021 13.6685 29.819 12.9633C27.008 11.3124 23.45 11.8542 20.9082 13.614L22.3153 15.1206C22.1935 15.2072 22.0781 15.0565 22.0589 15.2521C24.3475 15.4412 26.3605 16.8837 27.5881 18.8262C28.5946 20.4226 28.5818 22.2465 29.4408 23.7788C30.146 25.0386 31.6909 25.5482 32.9122 24.5161C34.2424 23.3909 34.1751 21.0765 34.1462 19.5667C32.707 19.2494 32.6814 17.3517 32.2647 16.2522H32.2615Z" fill="#4C1B05"/>
<path d="M29.1467 19.9707C29.1403 20.1278 29.1307 20.2848 29.1211 20.4387C29.1467 20.2848 29.1531 20.1278 29.1467 19.9707Z" fill="#592009"/>
<path d="M29.0122 14.4924C29.5892 14.5276 30.0668 14.6591 30.4834 15.1014C29.8873 14.2359 29.4289 13.4826 28.3551 13.1428C27.3134 12.8159 26.2107 12.9152 25.1305 12.8447L23.1016 14.4283C24.4574 14.8514 25.8421 15.3899 26.9448 16.358C27.8615 17.1626 29.0795 18.5987 29.1468 19.9674C29.2077 18.5602 29.1308 17.1466 28.4416 15.8708C29.0507 16.124 30.1341 17.0344 30.1661 17.73C30.3328 16.8004 29.7847 15.0469 29.0122 14.4892V14.4924Z" fill="#592009"/>
<path d="M32.1889 22.5925C31.6343 22.3233 30.8715 22.6951 30.4836 23.0413C29.9195 23.551 29.147 25.4647 29.7047 25.9776C30.5958 26.795 32.41 25.2307 32.6793 24.1024C32.7915 23.6311 32.6889 22.8362 32.1889 22.5925Z" fill="#F9AE7A"/>
<path d="M32.4515 23.628C32.3329 22.2657 30.4129 22.7946 30.2943 23.9005C30.7174 23.6954 30.9802 24.3044 30.8296 24.6346C30.6629 24.9968 30.1308 25.0289 29.9513 24.6634C29.9385 25.2725 30.82 25.2084 31.1245 24.8814C31.5027 24.4743 31.2975 23.7466 30.7623 23.5832C31.1757 22.8715 32.429 23.0927 32.3906 23.9646L32.4515 23.628Z" fill="#EF7950"/>
<path d="M24.8642 12.056C23.0564 11.0078 18.6747 12.0849 16.2226 15.8258C14.9309 17.794 13.5141 22.583 16.1233 24.1057C15.4341 21.1245 18.5657 18.3357 21.005 17.8709C20.7614 18.4255 20.5338 19.0249 20.2806 19.5794C24.0725 17.3356 24.8899 12.2291 24.8642 12.0528V12.056Z" fill="#4C1B05"/>
<path d="M24.1016 12.3799C24.1016 12.3799 20.1943 12.3927 17.9922 15.5982C18.8063 14.7776 20.2968 14.4795 21.4123 14.4795C20.5949 14.6943 19.5436 15.4444 19.0339 16.0919C19.4186 15.8899 19.9186 15.8258 20.3449 15.8515C20.1077 15.906 19.9763 16.3483 19.7936 16.5888C20.0628 16.4125 23.0406 17.3709 24.0951 12.3831L24.1016 12.3799Z" fill="#592009"/>
<path d="M32.4327 41.6849C32.4262 41.9734 32.4198 42.2427 32.4102 42.4863L30.6152 42.5632C30.6249 42.4062 30.6345 42.2491 30.6441 42.092C30.7274 40.7201 30.7787 39.3321 31.0512 37.9953C31.221 37.1619 31.6506 35.822 32.3557 35.1584C32.3782 35.1681 32.3974 35.1777 32.4198 35.1841C32.4198 35.1841 32.423 35.1841 32.4262 35.1841C32.4647 35.2001 32.5032 35.2161 32.5384 35.2354C32.6057 35.2642 32.6699 35.2963 32.7372 35.3283C32.7692 35.3444 32.8013 35.3604 32.8333 35.3796C32.9263 35.4277 33.016 35.479 33.1058 35.5303C33.1346 35.5495 33.1667 35.5656 33.1955 35.5848C33.3109 35.6553 33.4199 35.7322 33.5289 35.8124C33.5609 35.838 33.593 35.8605 33.625 35.8861C33.6571 35.9117 33.6924 35.9374 33.7244 35.963C33.7565 35.9887 33.7885 36.0175 33.8206 36.0464C33.8462 36.0688 33.8719 36.0881 33.8943 36.1105C33.8975 36.1105 33.9039 36.1169 33.9071 36.1201C32.5737 37.2997 32.4743 39.8417 32.4295 41.6817L32.4327 41.6849Z" fill="#352020"/>
<g style="mix-blend-mode:multiply" opacity="0.3">
<path d="M35.0064 44.0698C35.0064 44.0698 35.0064 44.0826 35.0032 44.0922C34.9775 44.2044 34.9551 44.3166 34.9327 44.4288C34.8461 44.8295 34.7564 45.2077 34.673 45.5507C34.5673 45.9867 34.4679 46.3681 34.3782 46.6759C34.282 47.006 34.1922 47.2497 34.1217 47.3811C33.9166 47.7561 33.7179 48.1312 33.5255 48.5062C33.4903 48.5191 33.455 48.5319 33.4198 48.5447C33.4005 48.5543 33.3749 48.5607 33.3524 48.5671C33.3268 48.58 33.3012 48.5864 33.2723 48.596C33.2146 48.6152 33.1537 48.6409 33.0928 48.6569C32.9742 48.6954 32.8556 48.737 32.7338 48.7755C32.6793 48.7947 32.628 48.8108 32.5736 48.8268C32.5479 48.8364 32.5191 48.846 32.4934 48.8556C32.4197 48.8781 32.3492 48.9005 32.2755 48.9197C32.2626 48.9197 32.253 48.9262 32.2402 48.9326C32.2242 48.9358 32.2113 48.9422 32.1953 48.9454C32.128 48.9678 32.0575 48.9871 31.9902 49.0063C31.9453 49.0191 31.9004 49.0351 31.8524 49.048C31.8235 49.0576 31.7914 49.0672 31.7562 49.0768C31.7305 49.0832 31.7017 49.0896 31.6761 49.096C31.5959 49.1185 31.519 49.1409 31.4389 49.1602C31.6408 48.5479 31.8203 47.9389 31.9806 47.349C32.1569 46.6983 32.144 46.0957 32.0447 45.5123C32.0158 45.3424 31.9774 45.1757 31.9357 45.0122C31.7626 44.3294 31.4998 43.6659 31.3139 42.9767C31.2754 42.8324 31.2401 42.6882 31.2113 42.5471C31.1728 42.3676 31.144 42.1913 31.1247 42.0086C31.1247 42.0086 31.1247 42.0054 31.1247 42.0022C31.0895 41.6913 31.0831 41.3739 31.1119 41.0405L31.3331 41.1591L32.362 41.7105L32.4229 41.7457L32.487 41.781C33.1665 42.7202 33.9262 43.512 35 44.0762L35.0064 44.0698Z" fill="#7C4949"/>
</g>
<path d="M37.9559 46.3872C37.8886 46.4256 37.8212 46.4673 37.7539 46.509C37.677 46.5538 37.5969 46.6019 37.5167 46.6436C37.3565 46.7398 37.1962 46.8295 37.0359 46.9193C36.8693 47.009 36.7026 47.0988 36.5327 47.1853C36.4462 47.2302 36.3628 47.2719 36.2731 47.3168C36.1384 47.3873 36.0006 47.4546 35.8628 47.5219C35.8596 47.5219 35.8564 47.5251 35.85 47.5283C35.7153 47.5924 35.5775 47.6565 35.4397 47.7207C35.3371 47.7655 35.2345 47.8136 35.1288 47.8585C35.1191 47.8617 35.1063 47.8713 35.0967 47.8713C34.8018 48.0027 34.5005 48.1278 34.1992 48.2464C34.0005 48.3265 33.7953 48.4034 33.5966 48.474C33.5742 48.4836 33.5517 48.4932 33.5261 48.5028C33.4908 48.5156 33.4556 48.5284 33.4203 48.5413C33.4011 48.5509 33.3754 48.5573 33.353 48.5637C33.3274 48.5765 33.3017 48.5829 33.2729 48.5926C33.2152 48.6118 33.1543 48.6374 33.0934 48.6535C32.9748 48.6919 32.8562 48.7336 32.7344 48.7721C32.7953 47.9515 32.8626 47.1308 32.9299 46.307C32.9555 46.0153 32.9748 45.7204 33.0004 45.4287C33.0261 45.1049 33.0485 44.7812 33.0709 44.4574L35.0005 44.0952L36.7699 43.765L36.9622 43.7266C36.9975 43.7266 37.8276 43.5054 37.8629 43.5054C37.8886 43.6112 37.9398 44.4414 37.9495 45.6948C37.9495 45.9159 37.9495 46.1499 37.9495 46.3936L37.9559 46.3872Z" fill="#F9AE7A"/>
<path fill-rule="evenodd" clip-rule="evenodd" d="M38.5424 44.3292C38.6322 44.5248 38.6546 44.7588 38.5937 44.9928C38.4655 45.4928 38.0007 45.8102 37.5584 45.6948C37.3885 45.6499 37.2475 45.5505 37.1417 45.4127C37.1353 45.4672 37.1289 45.5217 37.1128 45.5794C36.9846 46.0794 36.5199 46.3936 36.0775 46.2814C35.8115 46.2141 35.616 46.0057 35.5262 45.7429C35.5262 45.8262 35.5166 45.9096 35.4942 45.9929C35.3659 46.4962 34.9012 46.8103 34.4588 46.6949C34.0966 46.602 33.8594 46.2493 33.8594 45.8519C33.6639 46.2013 33.2889 46.3936 32.9267 46.3006C32.5484 46.2045 32.308 45.823 32.3273 45.4031C32.151 45.5057 31.9458 45.5441 31.7439 45.4928C31.4875 45.4255 31.2952 45.2332 31.2022 44.9832C31.1349 44.8004 31.1221 44.5921 31.1766 44.3805C31.2343 44.1593 31.3561 43.9734 31.5131 43.8452C31.1093 42.6399 31.2727 40.9506 31.6349 39.5369C32.2215 37.2482 33.3722 35.4755 35.3948 35.9948C35.5647 36.0397 35.7313 36.1102 35.8948 36.2096C37.4398 37.1296 38.6193 40.2838 38.5424 42.47C38.6161 42.4668 38.6931 42.47 38.7668 42.4892C39.2091 42.6014 39.4656 43.1015 39.3341 43.6016C39.2284 44.0119 38.9014 44.294 38.5456 44.326L38.5424 44.3292Z" fill="#FFF5F5"/>
<g style="mix-blend-mode:multiply" opacity="0.2">
<path d="M38.5433 44.3291C38.6331 44.5247 38.6555 44.7587 38.5946 44.9927C38.4664 45.4927 38.0016 45.8101 37.5593 45.6947C37.3894 45.6498 37.2484 45.5504 37.1426 45.4126C37.1362 45.4671 37.1298 45.5216 37.1138 45.5793C36.9855 46.0794 36.5208 46.3935 36.0784 46.2813C35.8124 46.214 35.6169 46.0056 35.5271 45.7428C35.5271 45.8261 35.5175 45.9095 35.4951 45.9928C35.3669 46.4961 34.9021 46.8102 34.4597 46.6948C34.0975 46.6019 33.8603 46.2493 33.8603 45.8518C33.6648 46.2012 33.2898 46.3935 32.9276 46.3005C32.5494 46.2044 32.309 45.8229 32.3282 45.403C32.1519 45.5056 31.9468 45.544 31.7448 45.4927C31.4884 45.4254 31.2961 45.2331 31.2031 44.9831C31.4275 45.1433 31.6967 45.185 32.0013 44.9638C32.3378 45.5729 33.2225 45.5376 33.7129 45.1305C34.0527 45.8934 34.9213 45.6658 35.2418 44.9767C35.8605 45.5729 36.8734 44.7138 36.7964 43.8804C36.7612 43.5213 36.5753 43.1335 36.306 42.9347C35.9727 42.6911 35.6521 42.8866 35.2867 42.7745C36.274 42.0532 36.7484 40.8479 36.8028 39.5497C36.8509 38.4117 36.5112 37.418 36.0304 36.4595C36.0015 36.405 35.9566 36.3153 35.8989 36.2063C37.4439 37.1263 38.6235 40.2805 38.5465 42.4667C38.6203 42.4635 38.6972 42.4667 38.7709 42.4859C39.2133 42.5981 39.4697 43.0982 39.3383 43.5983C39.2325 44.0086 38.9055 44.2907 38.5498 44.3227L38.5433 44.3291Z" fill="#7C4949"/>
</g>
</g>
<defs>
<clipPath id="clip0_104_319">
<rect width="50" height="50" fill="white"/>
</clipPath>
</defs>
</svg>
