<svg width="25" height="25" viewBox="0 0 25 25" fill="none" xmlns="http://www.w3.org/2000/svg">
<g clip-path="url(#clip0_13_4)">
<path d="M0.78614 12.7051C-0.317376 13.335 -0.214837 15.0147 0.961921 15.5029L7.81251 18.3594V23.4033C7.81251 24.2871 8.5254 25 9.40919 25C9.88282 25 10.332 24.79 10.6348 24.4238L13.6621 20.7959L19.7119 23.3154C20.6348 23.7012 21.7041 23.0957 21.8555 22.1094L24.9805 1.79688C25.0732 1.20606 24.8145 0.610355 24.3213 0.273441C23.8281 -0.063473 23.1836 -0.0927698 22.6611 0.205082L0.78614 12.7051ZM3.33009 13.9502L20.0049 4.42383L9.28223 16.4063L9.34083 16.4551L3.33009 13.9502ZM19.6924 20.7715L11.5576 17.3779L22.0117 5.69336L19.6924 20.7715Z" fill="#E85D04"/>
</g>
<defs>
<clipPath id="clip0_13_4">
<rect width="25" height="25" fill="white"/>
</clipPath>
</defs>
</svg>
