<svg width="80" height="80" viewBox="0 0 80 80" fill="none" xmlns="http://www.w3.org/2000/svg">
<path d="M36.2143 43.75V43.25H35.7143H24.2857C22.1221 43.25 20.5 41.7414 20.5 40C20.5 38.2586 22.1221 36.75 24.2857 36.75H35.7143H36.2143V36.25V26.25C36.2143 24.5086 37.8363 23 40 23C42.1637 23 43.7857 24.5086 43.7857 26.25V36.25V36.75H44.2857H55.7143C57.8779 36.75 59.5 38.2586 59.5 40C59.5 41.7414 57.8779 43.25 55.7143 43.25H44.2857H43.7857V43.75V53.75C43.7857 55.4914 42.1637 57 40 57C37.8363 57 36.2143 55.4914 36.2143 53.75V43.75ZM0.5 15C0.5 9.81333 5.32741 5.5 11.4286 5.5H68.5714C74.6639 5.5 79.5 9.81357 79.5 15V65C79.5 70.1789 74.6637 74.5 68.5714 74.5H11.4286C5.32768 74.5 0.5 70.1791 0.5 65V15ZM8.07143 15V65C8.07143 66.711 9.6378 68 11.4286 68H68.5714C70.3542 68 71.9286 66.7118 71.9286 65V15C71.9286 13.2812 70.3533 12 68.5714 12H11.4286C9.63866 12 8.07143 13.282 8.07143 15Z" fill="#FDFFFC" stroke="black"/>
</svg>
