<svg width="50" height="50" viewBox="0 0 50 50" fill="none" xmlns="http://www.w3.org/2000/svg">
<g clip-path="url(#clip0_112_784)">
<mask id="path-1-inside-1_112_784" fill="white">
<path d="M46.1316 38.3493C45.3752 39.5448 44.5355 40.6538 43.622 41.6762C43.4169 41.9038 43.2086 42.1313 42.9938 42.3525C42.5355 42.83 42.0579 43.2884 41.5643 43.7275C41.5098 43.7756 41.4522 43.8268 41.3945 43.8749C41.2823 43.9711 41.1669 44.0704 41.0547 44.1634C40.9682 44.2339 40.8816 44.3076 40.7919 44.3781C40.7086 44.4454 40.6252 44.5127 40.5419 44.58C40.5419 44.58 40.5387 44.58 40.5355 44.5833C40.09 44.939 39.6316 45.2788 39.1669 45.5961C39.0932 45.6474 39.0163 45.6986 38.9393 45.7467C38.8624 45.798 38.7855 45.8493 38.7118 45.8974C38.6348 45.9518 38.5579 45.9999 38.4778 46.0512C38.3175 46.1538 38.1573 46.2531 37.997 46.3525C37.9906 46.3557 37.9842 46.3621 37.9778 46.3653C37.9009 46.4134 37.824 46.4582 37.7502 46.5031C37.622 46.5832 37.4874 46.6602 37.356 46.7339C37.3528 46.7339 37.3496 46.7371 37.3432 46.7403C37.215 46.814 37.0804 46.8877 36.949 46.9615C36.8528 47.0159 36.7534 47.0672 36.6477 47.1185C36.6381 47.1217 36.6252 47.1313 36.6156 47.1345C36.3272 47.2852 36.0387 47.4294 35.7438 47.5672C35.6284 47.6249 35.5098 47.6794 35.3913 47.7307C35.3111 47.7691 35.2342 47.8012 35.1541 47.8365C35.0996 47.8621 35.0419 47.8877 34.9842 47.9134C34.965 47.923 34.9393 47.9326 34.9201 47.9422C34.8945 47.955 34.8688 47.9647 34.8432 47.9743C34.8047 47.9903 34.7695 48.0063 34.731 48.0224C34.7086 48.032 34.6893 48.0384 34.6701 48.048C34.6605 48.0512 34.6509 48.0576 34.6413 48.0608C34.481 48.1281 34.3272 48.1922 34.1637 48.2531C34.1381 48.2659 34.1092 48.2756 34.0836 48.2852C34.0131 48.3108 33.9425 48.3397 33.872 48.3653C33.8592 48.3685 33.8496 48.3749 33.8368 48.3781C33.824 48.3845 33.8079 48.3909 33.7951 48.3941C33.731 48.423 33.6605 48.4454 33.5932 48.4711C33.5483 48.4871 33.5066 48.5031 33.4586 48.5191C33.4297 48.532 33.3977 48.5416 33.3656 48.5544C33.34 48.564 33.3111 48.5736 33.2855 48.5832C33.1413 48.6345 32.997 48.6826 32.8528 48.7307C32.6509 48.7948 32.449 48.8589 32.2502 48.9198C32.2502 48.9198 32.247 48.9198 32.2438 48.9198C32.2182 48.9294 32.1957 48.9326 32.1701 48.9422C32.1252 48.955 32.0836 48.9679 32.0387 48.9807C32.0227 48.9839 32.0066 48.9903 31.9906 48.9935C31.8945 49.0224 31.8015 49.048 31.7054 49.0736C31.6829 49.0768 31.6605 49.0865 31.6413 49.0897C31.5964 49.1025 31.5451 49.1153 31.497 49.1281C31.4489 49.1409 31.4009 49.1538 31.3528 49.1666C31.247 49.1954 31.1381 49.2211 31.0323 49.2499C31.0002 49.2563 30.9682 49.2659 30.9361 49.2724C30.9105 49.2788 30.8881 49.2852 30.8624 49.2916C30.715 49.3268 30.5675 49.3621 30.4233 49.3974C30.3656 49.4102 30.3079 49.423 30.247 49.4358C30.1156 49.4647 29.9842 49.4935 29.8528 49.5191C29.8496 49.5191 29.8432 49.5191 29.84 49.5191C29.8175 49.5224 29.7919 49.5288 29.7695 49.532C29.5675 49.5704 29.3656 49.6089 29.1637 49.6409C28.7983 49.7018 28.4329 49.7563 28.0643 49.8012C27.9906 49.814 27.9201 49.8204 27.8432 49.83C27.8368 49.83 27.8272 49.83 27.8207 49.83C27.6797 49.8461 27.5419 49.8589 27.4009 49.8717C27.3913 49.8717 27.3784 49.8717 27.372 49.8717C27.2919 49.8813 27.2182 49.8877 27.1381 49.8941C26.9842 49.9102 26.8368 49.9198 26.6829 49.9294C26.5323 49.9422 26.3816 49.9518 26.231 49.955C25.9906 49.9711 25.7534 49.9743 25.5098 49.9807H25.5066C25.4586 49.9807 25.4073 49.9839 25.3624 49.9807C25.3496 49.9807 25.34 49.9807 25.3272 49.9807C25.2727 49.9807 25.215 49.9807 25.1605 49.9807C25.106 49.9807 25.0547 49.9839 24.997 49.9839C24.9329 49.9839 24.8688 49.9839 24.8015 49.9839C24.7598 49.9839 24.715 49.9839 24.6733 49.9839C24.5611 49.9839 24.4522 49.9839 24.34 49.9807C24.2438 49.9775 24.1541 49.9743 24.0579 49.9679C24.0451 49.9679 24.0387 49.9679 24.0259 49.9679C23.6477 49.955 23.2695 49.9294 22.8913 49.9006C22.8207 49.8941 22.7502 49.8877 22.6797 49.8813C22.5836 49.8717 22.4874 49.8621 22.3913 49.8525C21.9073 49.8076 21.4265 49.7403 20.9457 49.6634C20.7598 49.6313 20.574 49.5993 20.3881 49.564C20.3304 49.5512 20.2695 49.5416 20.2086 49.5288C20.1541 49.5191 20.1028 49.5095 20.0483 49.4999C20.0291 49.4967 20.0098 49.4871 19.9906 49.4871C19.9009 49.4679 19.8111 49.4486 19.7182 49.4294C19.6925 49.4262 19.6669 49.4166 19.6413 49.4134C19.5355 49.3909 19.4329 49.3685 19.3272 49.3429C18.9393 49.2531 18.5547 49.1538 18.1701 49.0448C18.1348 49.0352 18.106 49.0256 18.0739 49.0159C18.0707 49.0159 18.0611 49.0159 18.0579 49.0127C18.0451 49.0127 18.0323 49.0063 18.0195 48.9999C18.0066 48.9967 17.9906 48.9903 17.9746 48.9871C17.5323 48.8589 17.0932 48.7179 16.6541 48.5576C16.59 48.5352 16.5259 48.5127 16.4618 48.4871C16.3688 48.455 16.2791 48.4198 16.1893 48.3845C16.0739 48.3397 15.9586 48.298 15.8432 48.2499C15.7663 48.2211 15.6925 48.189 15.6188 48.1602C15.5643 48.1409 15.5131 48.1185 15.4618 48.0961C15.4297 48.0832 15.3977 48.0704 15.3656 48.0576C15.3624 48.0576 15.356 48.0544 15.3528 48.0512C15.3336 48.0448 15.3143 48.0384 15.2983 48.0288C15.2823 48.0224 15.2631 48.0159 15.247 48.0063C15.2246 47.9967 15.2054 47.9903 15.1861 47.9807C15.1765 47.9775 15.1637 47.9711 15.1573 47.9679C15.1188 47.955 15.0772 47.9358 15.0387 47.9166C15.0098 47.9038 14.9778 47.8909 14.949 47.8781C14.9201 47.8653 14.8881 47.8525 14.8624 47.8365C14.8624 47.8365 14.8624 47.8365 14.8592 47.8365C14.7823 47.8012 14.7054 47.7691 14.6316 47.7339C14.5611 47.705 14.4938 47.673 14.4265 47.6409C14.372 47.6185 14.3207 47.5929 14.2663 47.5704C14.1541 47.5159 14.0451 47.4615 13.9361 47.407C13.8464 47.3621 13.7566 47.314 13.6669 47.2691C13.6509 47.2627 13.6316 47.2531 13.6156 47.2435C13.5131 47.1922 13.4073 47.1345 13.3047 47.08C13.2951 47.08 13.2855 47.0704 13.2759 47.064C13.2598 47.0576 13.247 47.048 13.231 47.0384C13.122 46.9839 13.0163 46.9262 12.9105 46.8685C12.9009 46.8653 12.8945 46.8589 12.8848 46.8525C12.8432 46.8332 12.8015 46.8076 12.7598 46.782C12.747 46.7756 12.7342 46.7691 12.7214 46.7595C12.6573 46.7211 12.5932 46.6858 12.5259 46.6474C12.5131 46.6441 12.497 46.6345 12.481 46.6217C12.4169 46.5865 12.3528 46.5512 12.2855 46.5095C12.2246 46.4711 12.1637 46.439 12.1028 46.3974C12.1028 46.3974 12.0964 46.3974 12.0932 46.3909C12.074 46.3813 12.0547 46.3717 12.0323 46.3557C12.0034 46.3365 11.9714 46.3172 11.9425 46.3012C11.8848 46.2659 11.8272 46.2307 11.7727 46.1986C11.7342 46.1762 11.699 46.1538 11.6605 46.1281C11.622 46.1057 11.5836 46.08 11.5483 46.0576C11.4714 46.0095 11.3945 45.9583 11.3207 45.9102C11.3079 45.9006 11.2919 45.8909 11.2759 45.8813C11.2631 45.8749 11.2534 45.8653 11.2406 45.8589C11.2278 45.8493 11.215 45.8429 11.2022 45.8332L11.1797 45.8204C11.1797 45.8204 11.1733 45.8172 11.1701 45.8172C11.1028 45.7756 11.0419 45.7339 10.9778 45.6858C10.8977 45.6377 10.8207 45.5832 10.7438 45.5288C10.7406 45.5256 10.731 45.5224 10.7278 45.5159C10.7182 45.5127 10.7086 45.5031 10.699 45.4967C10.6637 45.4711 10.6316 45.4486 10.5996 45.4262C10.5675 45.4038 10.5355 45.3813 10.5034 45.3621C10.4522 45.3236 10.4009 45.2916 10.3528 45.2563C10.3464 45.2563 10.34 45.2467 10.3368 45.2435C10.1413 45.1057 9.95216 44.9647 9.76626 44.8172C9.64446 44.7243 9.52267 44.6313 9.40408 44.5384C9.25985 44.423 9.11562 44.3044 8.97459 44.1858C8.95216 44.1666 8.92972 44.1474 8.90728 44.1313C8.70857 43.9679 8.51305 43.7948 8.32074 43.6185C8.1669 43.4839 8.01626 43.3461 7.86882 43.205C7.82395 43.1666 7.78228 43.1249 7.74062 43.0832C7.62523 42.9775 7.51305 42.8685 7.40408 42.7563C7.33357 42.6922 7.26626 42.6249 7.19895 42.5544C7.06113 42.4166 6.92972 42.2756 6.7951 42.1345C6.77267 42.1121 6.75344 42.0929 6.73421 42.0704C6.73421 42.0672 6.72459 42.064 6.72139 42.0576C6.64126 41.9711 6.55792 41.8877 6.48421 41.798C6.33677 41.6345 6.19254 41.4743 6.05472 41.3076C6.00664 41.2563 5.96177 41.205 5.9169 41.1538C5.5419 40.7082 5.17972 40.2499 4.83677 39.782C4.64446 39.5191 4.45857 39.2531 4.27587 38.9807C4.24382 38.9358 4.21498 38.8877 4.17972 38.8429C4.12844 38.7659 4.07716 38.689 4.02587 38.6089C4.02267 38.5993 4.01946 38.5961 4.01305 38.5865C3.73421 38.157 3.46818 37.7211 3.22139 37.2756C3.19254 37.2275 3.16049 37.173 3.13485 37.1153C2.95856 36.8076 2.79831 36.4935 2.63805 36.1762C2.53228 35.9647 2.43292 35.7595 2.33357 35.548C1.99382 34.8108 1.68933 34.0608 1.4201 33.2948C1.29831 32.9422 1.17972 32.5865 1.07395 32.2243C1.06433 32.1954 1.05472 32.1698 1.04831 32.1377C1.02587 32.064 1.00344 31.9935 0.981001 31.9166C0.923309 31.7147 0.868822 31.5127 0.814334 31.3108C-0.871563 24.8493 0.0194623 17.7339 3.86882 11.6474C11.2438 -0.0257211 26.6829 -3.50649 38.3528 3.86851C50.0259 11.2435 53.5066 26.6826 46.1316 38.3493Z"/>
</mask>
<path d="M46.1316 38.3493C45.3752 39.5448 44.5355 40.6538 43.622 41.6762C43.4169 41.9038 43.2086 42.1313 42.9938 42.3525C42.5355 42.83 42.0579 43.2884 41.5643 43.7275C41.5098 43.7756 41.4522 43.8268 41.3945 43.8749C41.2823 43.9711 41.1669 44.0704 41.0547 44.1634C40.9682 44.2339 40.8816 44.3076 40.7919 44.3781C40.7086 44.4454 40.6252 44.5127 40.5419 44.58C40.5419 44.58 40.5387 44.58 40.5355 44.5833C40.09 44.939 39.6316 45.2788 39.1669 45.5961C39.0932 45.6474 39.0163 45.6986 38.9393 45.7467C38.8624 45.798 38.7855 45.8493 38.7118 45.8974C38.6348 45.9518 38.5579 45.9999 38.4778 46.0512C38.3175 46.1538 38.1573 46.2531 37.997 46.3525C37.9906 46.3557 37.9842 46.3621 37.9778 46.3653C37.9009 46.4134 37.824 46.4582 37.7502 46.5031C37.622 46.5832 37.4874 46.6602 37.356 46.7339C37.3528 46.7339 37.3496 46.7371 37.3432 46.7403C37.215 46.814 37.0804 46.8877 36.949 46.9615C36.8528 47.0159 36.7534 47.0672 36.6477 47.1185C36.6381 47.1217 36.6252 47.1313 36.6156 47.1345C36.3272 47.2852 36.0387 47.4294 35.7438 47.5672C35.6284 47.6249 35.5098 47.6794 35.3913 47.7307C35.3111 47.7691 35.2342 47.8012 35.1541 47.8365C35.0996 47.8621 35.0419 47.8877 34.9842 47.9134C34.965 47.923 34.9393 47.9326 34.9201 47.9422C34.8945 47.955 34.8688 47.9647 34.8432 47.9743C34.8047 47.9903 34.7695 48.0063 34.731 48.0224C34.7086 48.032 34.6893 48.0384 34.6701 48.048C34.6605 48.0512 34.6509 48.0576 34.6413 48.0608C34.481 48.1281 34.3272 48.1922 34.1637 48.2531C34.1381 48.2659 34.1092 48.2756 34.0836 48.2852C34.0131 48.3108 33.9425 48.3397 33.872 48.3653C33.8592 48.3685 33.8496 48.3749 33.8368 48.3781C33.824 48.3845 33.8079 48.3909 33.7951 48.3941C33.731 48.423 33.6605 48.4454 33.5932 48.4711C33.5483 48.4871 33.5066 48.5031 33.4586 48.5191C33.4297 48.532 33.3977 48.5416 33.3656 48.5544C33.34 48.564 33.3111 48.5736 33.2855 48.5832C33.1413 48.6345 32.997 48.6826 32.8528 48.7307C32.6509 48.7948 32.449 48.8589 32.2502 48.9198C32.2502 48.9198 32.247 48.9198 32.2438 48.9198C32.2182 48.9294 32.1957 48.9326 32.1701 48.9422C32.1252 48.955 32.0836 48.9679 32.0387 48.9807C32.0227 48.9839 32.0066 48.9903 31.9906 48.9935C31.8945 49.0224 31.8015 49.048 31.7054 49.0736C31.6829 49.0768 31.6605 49.0865 31.6413 49.0897C31.5964 49.1025 31.5451 49.1153 31.497 49.1281C31.4489 49.1409 31.4009 49.1538 31.3528 49.1666C31.247 49.1954 31.1381 49.2211 31.0323 49.2499C31.0002 49.2563 30.9682 49.2659 30.9361 49.2724C30.9105 49.2788 30.8881 49.2852 30.8624 49.2916C30.715 49.3268 30.5675 49.3621 30.4233 49.3974C30.3656 49.4102 30.3079 49.423 30.247 49.4358C30.1156 49.4647 29.9842 49.4935 29.8528 49.5191C29.8496 49.5191 29.8432 49.5191 29.84 49.5191C29.8175 49.5224 29.7919 49.5288 29.7695 49.532C29.5675 49.5704 29.3656 49.6089 29.1637 49.6409C28.7983 49.7018 28.4329 49.7563 28.0643 49.8012C27.9906 49.814 27.9201 49.8204 27.8432 49.83C27.8368 49.83 27.8272 49.83 27.8207 49.83C27.6797 49.8461 27.5419 49.8589 27.4009 49.8717C27.3913 49.8717 27.3784 49.8717 27.372 49.8717C27.2919 49.8813 27.2182 49.8877 27.1381 49.8941C26.9842 49.9102 26.8368 49.9198 26.6829 49.9294C26.5323 49.9422 26.3816 49.9518 26.231 49.955C25.9906 49.9711 25.7534 49.9743 25.5098 49.9807H25.5066C25.4586 49.9807 25.4073 49.9839 25.3624 49.9807C25.3496 49.9807 25.34 49.9807 25.3272 49.9807C25.2727 49.9807 25.215 49.9807 25.1605 49.9807C25.106 49.9807 25.0547 49.9839 24.997 49.9839C24.9329 49.9839 24.8688 49.9839 24.8015 49.9839C24.7598 49.9839 24.715 49.9839 24.6733 49.9839C24.5611 49.9839 24.4522 49.9839 24.34 49.9807C24.2438 49.9775 24.1541 49.9743 24.0579 49.9679C24.0451 49.9679 24.0387 49.9679 24.0259 49.9679C23.6477 49.955 23.2695 49.9294 22.8913 49.9006C22.8207 49.8941 22.7502 49.8877 22.6797 49.8813C22.5836 49.8717 22.4874 49.8621 22.3913 49.8525C21.9073 49.8076 21.4265 49.7403 20.9457 49.6634C20.7598 49.6313 20.574 49.5993 20.3881 49.564C20.3304 49.5512 20.2695 49.5416 20.2086 49.5288C20.1541 49.5191 20.1028 49.5095 20.0483 49.4999C20.0291 49.4967 20.0098 49.4871 19.9906 49.4871C19.9009 49.4679 19.8111 49.4486 19.7182 49.4294C19.6925 49.4262 19.6669 49.4166 19.6413 49.4134C19.5355 49.3909 19.4329 49.3685 19.3272 49.3429C18.9393 49.2531 18.5547 49.1538 18.1701 49.0448C18.1348 49.0352 18.106 49.0256 18.0739 49.0159C18.0707 49.0159 18.0611 49.0159 18.0579 49.0127C18.0451 49.0127 18.0323 49.0063 18.0195 48.9999C18.0066 48.9967 17.9906 48.9903 17.9746 48.9871C17.5323 48.8589 17.0932 48.7179 16.6541 48.5576C16.59 48.5352 16.5259 48.5127 16.4618 48.4871C16.3688 48.455 16.2791 48.4198 16.1893 48.3845C16.0739 48.3397 15.9586 48.298 15.8432 48.2499C15.7663 48.2211 15.6925 48.189 15.6188 48.1602C15.5643 48.1409 15.5131 48.1185 15.4618 48.0961C15.4297 48.0832 15.3977 48.0704 15.3656 48.0576C15.3624 48.0576 15.356 48.0544 15.3528 48.0512C15.3336 48.0448 15.3143 48.0384 15.2983 48.0288C15.2823 48.0224 15.2631 48.0159 15.247 48.0063C15.2246 47.9967 15.2054 47.9903 15.1861 47.9807C15.1765 47.9775 15.1637 47.9711 15.1573 47.9679C15.1188 47.955 15.0772 47.9358 15.0387 47.9166C15.0098 47.9038 14.9778 47.8909 14.949 47.8781C14.9201 47.8653 14.8881 47.8525 14.8624 47.8365C14.8624 47.8365 14.8624 47.8365 14.8592 47.8365C14.7823 47.8012 14.7054 47.7691 14.6316 47.7339C14.5611 47.705 14.4938 47.673 14.4265 47.6409C14.372 47.6185 14.3207 47.5929 14.2663 47.5704C14.1541 47.5159 14.0451 47.4615 13.9361 47.407C13.8464 47.3621 13.7566 47.314 13.6669 47.2691C13.6509 47.2627 13.6316 47.2531 13.6156 47.2435C13.5131 47.1922 13.4073 47.1345 13.3047 47.08C13.2951 47.08 13.2855 47.0704 13.2759 47.064C13.2598 47.0576 13.247 47.048 13.231 47.0384C13.122 46.9839 13.0163 46.9262 12.9105 46.8685C12.9009 46.8653 12.8945 46.8589 12.8848 46.8525C12.8432 46.8332 12.8015 46.8076 12.7598 46.782C12.747 46.7756 12.7342 46.7691 12.7214 46.7595C12.6573 46.7211 12.5932 46.6858 12.5259 46.6474C12.5131 46.6441 12.497 46.6345 12.481 46.6217C12.4169 46.5865 12.3528 46.5512 12.2855 46.5095C12.2246 46.4711 12.1637 46.439 12.1028 46.3974C12.1028 46.3974 12.0964 46.3974 12.0932 46.3909C12.074 46.3813 12.0547 46.3717 12.0323 46.3557C12.0034 46.3365 11.9714 46.3172 11.9425 46.3012C11.8848 46.2659 11.8272 46.2307 11.7727 46.1986C11.7342 46.1762 11.699 46.1538 11.6605 46.1281C11.622 46.1057 11.5836 46.08 11.5483 46.0576C11.4714 46.0095 11.3945 45.9583 11.3207 45.9102C11.3079 45.9006 11.2919 45.8909 11.2759 45.8813C11.2631 45.8749 11.2534 45.8653 11.2406 45.8589C11.2278 45.8493 11.215 45.8429 11.2022 45.8332L11.1797 45.8204C11.1797 45.8204 11.1733 45.8172 11.1701 45.8172C11.1028 45.7756 11.0419 45.7339 10.9778 45.6858C10.8977 45.6377 10.8207 45.5832 10.7438 45.5288C10.7406 45.5256 10.731 45.5224 10.7278 45.5159C10.7182 45.5127 10.7086 45.5031 10.699 45.4967C10.6637 45.4711 10.6316 45.4486 10.5996 45.4262C10.5675 45.4038 10.5355 45.3813 10.5034 45.3621C10.4522 45.3236 10.4009 45.2916 10.3528 45.2563C10.3464 45.2563 10.34 45.2467 10.3368 45.2435C10.1413 45.1057 9.95216 44.9647 9.76626 44.8172C9.64446 44.7243 9.52267 44.6313 9.40408 44.5384C9.25985 44.423 9.11562 44.3044 8.97459 44.1858C8.95216 44.1666 8.92972 44.1474 8.90728 44.1313C8.70857 43.9679 8.51305 43.7948 8.32074 43.6185C8.1669 43.4839 8.01626 43.3461 7.86882 43.205C7.82395 43.1666 7.78228 43.1249 7.74062 43.0832C7.62523 42.9775 7.51305 42.8685 7.40408 42.7563C7.33357 42.6922 7.26626 42.6249 7.19895 42.5544C7.06113 42.4166 6.92972 42.2756 6.7951 42.1345C6.77267 42.1121 6.75344 42.0929 6.73421 42.0704C6.73421 42.0672 6.72459 42.064 6.72139 42.0576C6.64126 41.9711 6.55792 41.8877 6.48421 41.798C6.33677 41.6345 6.19254 41.4743 6.05472 41.3076C6.00664 41.2563 5.96177 41.205 5.9169 41.1538C5.5419 40.7082 5.17972 40.2499 4.83677 39.782C4.64446 39.5191 4.45857 39.2531 4.27587 38.9807C4.24382 38.9358 4.21498 38.8877 4.17972 38.8429C4.12844 38.7659 4.07716 38.689 4.02587 38.6089C4.02267 38.5993 4.01946 38.5961 4.01305 38.5865C3.73421 38.157 3.46818 37.7211 3.22139 37.2756C3.19254 37.2275 3.16049 37.173 3.13485 37.1153C2.95856 36.8076 2.79831 36.4935 2.63805 36.1762C2.53228 35.9647 2.43292 35.7595 2.33357 35.548C1.99382 34.8108 1.68933 34.0608 1.4201 33.2948C1.29831 32.9422 1.17972 32.5865 1.07395 32.2243C1.06433 32.1954 1.05472 32.1698 1.04831 32.1377C1.02587 32.064 1.00344 31.9935 0.981001 31.9166C0.923309 31.7147 0.868822 31.5127 0.814334 31.3108C-0.871563 24.8493 0.0194623 17.7339 3.86882 11.6474C11.2438 -0.0257211 26.6829 -3.50649 38.3528 3.86851C50.0259 11.2435 53.5066 26.6826 46.1316 38.3493Z" fill="#F7F2DA" stroke="#E85D04" stroke-width="2" mask="url(#path-1-inside-1_112_784)"/>
<path d="M37.9748 46.3687C37.8978 46.4167 37.8209 46.4616 37.7472 46.5065C37.619 46.5866 37.4844 46.6635 37.353 46.7373C37.3498 46.7373 37.3466 46.7405 37.3401 46.7437C37.2119 46.8174 37.0773 46.8911 36.9459 46.9648C36.8498 47.0193 36.7504 47.0706 36.6446 47.1219C36.635 47.1251 36.6222 47.1347 36.6126 47.1379C36.3241 47.2885 36.0357 47.4328 35.7408 47.5706C35.6254 47.6283 35.5068 47.6828 35.3882 47.734C35.3081 47.7725 35.2312 47.8046 35.151 47.8398C35.0966 47.8655 35.0389 47.8911 34.9812 47.9167C34.9619 47.9264 34.9363 47.936 34.9171 47.9456C34.8914 47.9584 34.8658 47.968 34.8401 47.9776C34.8017 47.9937 34.7664 48.0097 34.728 48.0257C34.7055 48.0353 34.6863 48.0417 34.6671 48.0514C34.6575 48.0546 34.6478 48.061 34.6382 48.0642C34.478 48.1315 34.3241 48.1956 34.1607 48.2565C34.135 48.2693 34.1062 48.2789 34.0805 48.2885C34.01 48.3142 33.9395 48.343 33.869 48.3687C33.8562 48.3719 33.8466 48.3783 33.8337 48.3815C33.8209 48.3879 33.8049 48.3943 33.7921 48.3975C33.728 48.4264 33.6575 48.4488 33.5901 48.4744C33.5453 48.4905 33.5036 48.5065 33.4555 48.5225C33.4267 48.5353 33.3946 48.5449 33.3626 48.5578C33.3369 48.5674 33.3081 48.577 33.2825 48.5866C33.1382 48.6379 32.994 48.686 32.8498 48.7341C32.6478 48.7982 32.4459 48.8623 32.2472 48.9232C32.2472 48.9232 32.244 48.9232 32.2408 48.9232C32.2151 48.9328 32.1927 48.936 32.1671 48.9456C32.1222 48.9584 32.0805 48.9712 32.0357 48.984C32.0196 48.9873 32.0036 48.9937 31.9876 48.9969C31.8914 49.0257 31.7985 49.0514 31.7023 49.077C31.6799 49.0802 31.6575 49.0898 31.6382 49.093C31.5933 49.1058 31.5421 49.1187 31.494 49.1315C31.4459 49.1443 31.3978 49.1571 31.3498 49.1699C31.244 49.1988 31.135 49.2244 31.0292 49.2533C30.9972 49.2597 30.9651 49.2693 30.9331 49.2757C30.9075 49.2821 30.885 49.2885 30.8594 49.2949C30.7119 49.3302 30.5645 49.3655 30.4203 49.4007C30.3626 49.4135 30.3049 49.4264 30.244 49.4392C30.1126 49.468 29.9812 49.4969 29.8498 49.5225C29.8466 49.5225 29.8401 49.5225 29.8369 49.5225C29.8145 49.5257 29.7889 49.5321 29.7664 49.5353C29.5645 49.5738 29.3626 49.6123 29.1607 49.6443C28.7953 49.7052 28.4299 49.7597 28.0613 49.8046C27.9876 49.8174 27.9171 49.8238 27.8401 49.8334C27.8337 49.8334 27.8241 49.8334 27.8177 49.8334C27.6767 49.8494 27.5389 49.8623 27.3978 49.8751C27.3882 49.8751 27.3754 49.8751 27.369 49.8751C27.2889 49.8847 27.2151 49.8911 27.135 49.8975C26.9812 49.9135 26.8337 49.9231 26.6799 49.9328C26.5292 49.9456 26.3786 49.9552 26.228 49.9584C25.9876 49.9744 25.7504 49.9776 25.5068 49.984H25.5036C25.4555 49.984 25.4042 49.9873 25.3594 49.984C25.3466 49.984 25.3369 49.984 25.3241 49.984C25.2696 49.984 25.2119 49.984 25.1575 49.984C25.103 49.984 25.0517 49.9873 24.994 49.9873C24.9299 49.9873 24.8658 49.9873 24.7985 49.9873C24.7568 49.9873 24.7119 49.9873 24.6703 49.9873C24.5581 49.9873 24.4491 49.9873 24.3369 49.984C24.2408 49.9808 24.151 49.9776 24.0549 49.9712C24.0421 49.9712 24.0357 49.9712 24.0228 49.9712C23.6446 49.9584 23.2664 49.9328 22.8882 49.9039C22.8177 49.8975 22.7472 49.8911 22.6767 49.8847C22.5805 49.8751 22.4844 49.8655 22.3882 49.8558C21.9042 49.811 21.4235 49.7437 20.9427 49.6667C20.7568 49.6347 20.5709 49.6026 20.385 49.5674C20.3273 49.5546 20.2664 49.5449 20.2055 49.5321C20.151 49.5225 20.0998 49.5129 20.0453 49.5033C20.026 49.5001 20.0068 49.4905 19.9876 49.4905C19.8978 49.4712 19.8081 49.452 19.7151 49.4328C19.6895 49.4296 19.6639 49.4199 19.6382 49.4167C19.5325 49.3943 19.4299 49.3719 19.3241 49.3462C18.9363 49.2565 18.5517 49.1571 18.1671 49.0482C18.1318 49.0385 18.103 49.0289 18.0709 49.0193C18.0677 49.0193 18.0581 49.0193 18.0549 49.0161C18.0421 49.0161 18.0292 49.0097 18.0164 49.0033C18.0036 49.0001 17.9876 48.9937 17.9716 48.9905C17.5292 48.8623 17.0901 48.7212 16.651 48.561C16.5869 48.5385 16.5228 48.5161 16.4587 48.4905C16.3658 48.4584 16.276 48.4232 16.1863 48.3879C16.0709 48.343 15.9555 48.3014 15.8401 48.2533C15.7632 48.2244 15.6895 48.1924 15.6158 48.1635C15.5613 48.1443 15.51 48.1219 15.4587 48.0994C15.4267 48.0866 15.3946 48.0738 15.3626 48.061C15.3594 48.061 15.353 48.0578 15.3498 48.0546C15.3305 48.0482 15.3113 48.0417 15.2953 48.0321C15.2792 48.0257 15.26 48.0193 15.244 48.0097C15.2216 48.0001 15.2023 47.9937 15.1831 47.9841C15.1735 47.9808 15.1607 47.9744 15.1542 47.9712C15.1158 47.9584 15.0741 47.9392 15.0357 47.9199C15.0068 47.9071 14.9748 47.8943 14.9459 47.8815C14.9171 47.8687 14.885 47.8558 14.8594 47.8398C15.0485 42.3815 16.2921 39.1219 18.103 36.452C18.103 36.452 18.103 36.4456 18.1062 36.4424C18.1158 36.4424 18.1254 36.4424 18.135 36.4392C18.5485 36.3783 19.6542 36.0257 20.9555 35.577C20.9748 35.5706 20.994 35.5642 21.0132 35.5546C21.635 35.343 22.3017 35.1058 22.9587 34.8719C23.1254 34.811 23.2921 34.7501 23.4587 34.6924C25.2055 34.0642 26.7792 33.4776 27.135 33.343C27.1831 33.327 27.2087 33.3174 27.2087 33.3174C27.5613 33.6571 29.2216 33.5834 30.3818 33.6956C30.526 33.7116 30.6607 33.7276 30.7857 33.7501C30.8818 33.7661 30.9908 33.7885 31.1094 33.8206C31.1927 33.843 31.2825 33.8655 31.3786 33.8975C32.2023 34.1475 33.353 34.6507 34.5581 35.2661C34.8177 35.3975 35.0773 35.5353 35.3401 35.6796C36.7344 36.4328 38.1222 37.3014 39.0901 38.077C39.7696 38.6219 40.244 39.1219 40.3594 39.5065C40.9876 41.5738 39.2055 43.6699 37.9876 46.3687H37.9748Z" fill="#51415E"/>
<path d="M38.8303 45.641C38.7919 45.7276 38.7502 45.8141 38.7085 45.9007C38.6316 45.9552 38.5547 46.0032 38.4746 46.0545C38.3143 46.1571 38.154 46.2564 37.9938 46.3558C37.9874 46.359 37.981 46.3654 37.9746 46.3686C37.8976 46.4167 37.8207 46.4616 37.747 46.5064C37.6188 46.5866 37.4842 46.6635 37.3528 46.7372C37.3496 46.7372 37.3464 46.7404 37.3399 46.7436C37.2117 46.8173 37.0771 46.891 36.9457 46.9648C36.8496 47.0193 36.7502 47.0705 36.6444 47.1218C36.6348 47.125 36.622 47.1346 36.6124 47.1378C36.3239 47.2885 36.0355 47.4327 35.7406 47.5705C35.6252 47.6282 35.5066 47.6827 35.388 47.734C35.3079 47.7725 35.231 47.8045 35.1508 47.8398C35.0964 47.8654 35.0387 47.891 34.981 47.9167C34.9617 47.9263 34.9361 47.9359 34.9169 47.9455C34.8912 47.9584 34.8656 47.968 34.8399 47.9776C34.8015 47.9936 34.7662 48.0096 34.7278 48.0257C34.7053 48.0353 34.6861 48.0417 34.6669 48.0513C34.6573 48.0545 34.6476 48.0609 34.638 48.0641C34.4778 48.1314 34.3239 48.1955 34.1605 48.2564C34.1348 48.2693 34.106 48.2789 34.0803 48.2885C34.0098 48.3141 33.9393 48.343 33.8688 48.3686C33.856 48.3718 33.8464 48.3782 33.8335 48.3814C33.8207 48.3878 33.8047 48.3943 33.7919 48.3975C33.7278 48.4263 33.6573 48.4487 33.5899 48.4744C33.5451 48.4904 33.5034 48.5064 33.4553 48.5225C33.4265 48.5353 33.3944 48.5449 33.3624 48.5577C33.3367 48.5673 33.3079 48.5769 33.2822 48.5866C33.138 48.6378 32.9938 48.6859 32.8496 48.734C32.6476 48.7981 32.4457 48.8622 32.247 48.9231C32.247 48.9231 32.2438 48.9231 32.2406 48.9231C32.2149 48.9327 32.1925 48.9359 32.1669 48.9455C32.122 48.9584 32.0803 48.9712 32.0355 48.984C32.0194 48.9872 32.0034 48.9936 31.9874 48.9968C31.8912 49.0257 31.7983 49.0513 31.7021 49.0769C31.6797 49.0801 31.6573 49.0898 31.638 49.093C31.5931 49.1058 31.5419 49.1186 31.4938 49.1314C31.4457 49.1443 31.3976 49.1571 31.3496 49.1699C31.2438 49.1987 31.1348 49.2244 31.029 49.2532C30.997 49.2596 30.9649 49.2693 30.9329 49.2757C30.9073 49.2821 30.8848 49.2885 30.8592 49.2949C30.7117 49.3302 30.5643 49.3654 30.4201 49.4007C30.3624 49.4135 30.3047 49.4263 30.2438 49.4391C30.1124 49.468 29.981 49.4968 29.8496 49.5225C29.8464 49.5225 29.8399 49.5225 29.8367 49.5225C29.8143 49.5257 29.7887 49.5321 29.7662 49.5353C29.5643 49.5737 29.3624 49.6122 29.1605 49.6443C28.7951 49.7052 28.4297 49.7596 28.0611 49.8045C27.9874 49.8173 27.9169 49.8237 27.8399 49.8334C27.8335 49.8334 27.8239 49.8334 27.8175 49.8334C27.6765 49.8494 27.5387 49.8622 27.3976 49.875C27.388 49.875 27.3752 49.875 27.3688 49.875C27.2887 49.8846 27.2149 49.891 27.1348 49.8975C26.981 49.9135 26.8335 49.9231 26.6797 49.9327C26.529 49.9455 26.3784 49.9552 26.2278 49.9584C25.9874 49.9744 25.7502 49.9776 25.5066 49.984H25.5034C25.4553 49.984 25.404 49.9872 25.3592 49.984C25.3464 49.984 25.3367 49.984 25.3239 49.984C25.2694 49.984 25.2117 49.984 25.1572 49.984C25.1028 49.984 25.0515 49.9872 24.9938 49.9872C24.9297 49.9872 24.8656 49.9872 24.7983 49.9872C24.7566 49.9872 24.7117 49.9872 24.6701 49.9872C24.5579 49.9872 24.4489 49.9872 24.3367 49.984C24.2406 49.9808 24.1508 49.9776 24.0547 49.9712C24.529 48.7693 24.997 47.5609 25.4457 46.343C26.247 44.1699 29.904 36.4455 31.3015 34.0128C31.3271 33.968 31.3496 33.9263 31.372 33.8878C31.3944 33.8494 31.4169 33.8077 31.4425 33.7725C31.4425 33.7725 33.3303 34.5128 35.4393 35.593C36.9457 36.3622 38.5675 37.3045 39.7085 38.2757C39.7374 38.2981 39.7662 38.3237 39.7951 38.3494C42.106 40.3686 39.8143 43.4776 38.8367 45.6314L38.8303 45.641Z" fill="#066FB7"/>
<path d="M31.7403 43.0033L31.8942 43.4585L27.8333 49.8335C27.8333 49.8335 27.8173 49.8335 27.8108 49.8335C27.6698 49.8495 27.532 49.8623 27.391 49.8751C27.3814 49.8751 27.3685 49.8751 27.3621 49.8751C27.282 49.8848 27.2083 49.8912 27.1282 49.8976C26.9743 49.9136 26.8269 49.9232 26.673 49.9328C26.5224 49.9457 26.3717 49.9553 26.2211 49.9585C25.9807 49.9745 25.7435 49.9777 25.4999 49.9841H25.4967C25.4487 49.9841 25.3974 49.9873 25.3525 49.9841C25.3397 49.9841 25.3301 49.9841 25.3173 49.9841C25.2628 49.9841 25.2051 49.9841 25.1506 49.9841C25.0961 49.9841 25.0448 49.9873 24.9871 49.9873C24.923 49.9873 24.8589 49.9873 24.7916 49.9873C24.7499 49.9873 24.7051 49.9873 24.6634 49.9873C24.5512 49.9873 24.4423 49.9873 24.3301 49.9841C24.7179 48.9905 25.1025 47.9905 25.4743 46.9873C26.2756 44.8142 29.9326 37.0899 31.3301 34.6604L34.8557 36.0066L35.4679 36.2405L30.7628 39.5707L30.6121 39.6764L31.7403 43.0001V43.0033Z" fill="#066396"/>
<path d="M35.432 35.6027L35.3263 35.6764L34.8551 36.0097L30.5795 39.0386L30.7622 39.5738L31.8615 42.8142L31.7397 43.0033L27.3551 49.8783C27.275 49.8879 27.2013 49.8943 27.1211 49.9007C26.9673 49.9168 26.8199 49.9264 26.666 49.936C26.5154 49.9488 26.3647 49.9584 26.2141 49.9616C25.9737 49.9777 25.7365 49.9809 25.4929 49.9873H25.4897C25.4417 49.9873 25.3904 49.9905 25.3455 49.9873C25.3327 49.9873 25.3231 49.9873 25.3102 49.9873C25.2558 49.9873 25.1981 49.9873 25.1436 49.9873C25.0891 49.9873 25.0378 49.9905 24.9801 49.9905C24.916 49.9905 24.8519 49.9905 24.7846 49.9905C24.7429 49.9905 24.6981 49.9905 24.6564 49.9905C24.5442 49.9905 24.4352 49.9905 24.3231 49.9873C24.2269 49.9841 24.1372 49.9809 24.041 49.9744C24.5154 48.7725 24.9833 47.5642 25.432 46.3462C26.2333 44.1732 29.8904 36.4488 31.2878 34.0161L34.541 35.2597L35.4288 35.5962L35.432 35.6027Z" fill="#0D8FD6"/>
<path d="M21.0064 35.5354C21.0064 35.5354 21.0064 35.5418 21.0032 35.5546C20.9135 35.9745 19.4583 42.7309 18.0641 49.0194C18.0609 49.0194 18.0513 49.0194 18.0481 49.0162C18.0353 49.0162 18.0224 49.0098 18.0096 49.0033C17.9968 49.0001 17.9808 48.9937 17.9647 48.9905C17.5224 48.8623 17.0833 48.7213 16.6442 48.561C16.5801 48.5386 16.516 48.5162 16.4519 48.4905C16.359 48.4585 16.2692 48.4232 16.1795 48.388C16.0641 48.3431 15.9487 48.3014 15.8333 48.2533C15.7564 48.2245 15.6827 48.1925 15.609 48.1636C15.5545 48.1444 15.5032 48.1219 15.4519 48.0995C15.4199 48.0867 15.3878 48.0739 15.3558 48.061C15.3526 48.061 15.3462 48.0578 15.3429 48.0546C15.3237 48.0482 15.3045 48.0418 15.2885 48.0322C15.2724 48.0258 15.2532 48.0194 15.2372 48.0098C15.2147 48.0001 15.1955 47.9937 15.1763 47.9841C15.1667 47.9809 15.1538 47.9745 15.1474 47.9713C15.109 47.9585 15.0673 47.9392 15.0288 47.92C15 47.9072 14.9679 47.8944 14.9391 47.8816C14.9103 47.8687 14.8782 47.8559 14.8526 47.8399C14.8526 47.8399 14.8526 47.8399 14.8494 47.8399C14.7724 47.8046 14.6955 47.7726 14.6218 47.7373C14.5513 47.7085 14.484 47.6764 14.4167 47.6444C14.3622 47.6219 14.3109 47.5963 14.2564 47.5739C14.1442 47.5194 14.0353 47.4649 13.9263 47.4104C13.8365 47.3655 13.7468 47.3175 13.6571 47.2726C13.641 47.2662 13.6218 47.2566 13.6058 47.2469C13.5032 47.1957 13.3974 47.138 13.2949 47.0835C13.2853 47.0835 13.2756 47.0739 13.266 47.0675C13.25 47.061 13.2372 47.0514 13.2212 47.0418C13.1122 46.9873 13.0064 46.9296 12.9006 46.8719C12.891 46.8687 12.8846 46.8623 12.875 46.8559C13.0224 45.811 13.1795 44.7694 13.3462 43.7277C13.6186 42.029 13.8173 39.9937 14.5673 38.4425C15.1667 37.1989 16.9135 36.8976 18.0962 36.4553C18.109 36.4521 18.1186 36.4457 18.1314 36.4424C18.1506 36.436 18.1699 36.4296 18.1859 36.4232L21.0128 35.5386L21.0064 35.5354Z" fill="#066FB7"/>
<path d="M20.8587 35.936C20.8587 35.936 19.4164 42.6315 18.0062 49.0033C17.9933 49.0001 17.9773 48.9937 17.9613 48.9905C17.519 48.8623 17.0799 48.7213 16.6408 48.561C16.5767 48.5386 16.5126 48.5162 16.4485 48.4905C16.3555 48.4585 16.2658 48.4232 16.176 48.388C16.0606 48.3431 15.9453 48.3014 15.8299 48.2533C15.753 48.2245 15.6792 48.1924 15.6055 48.1636C15.551 48.1444 15.4997 48.1219 15.4485 48.0995C15.4164 48.0867 15.3844 48.0739 15.3523 48.061C15.3491 48.061 15.3427 48.0578 15.3395 48.0546C15.3203 48.0482 15.301 48.0418 15.285 48.0322C15.269 48.0258 15.2497 48.0194 15.2337 48.0098C15.2113 48.0001 15.1921 47.9937 15.1728 47.9841C15.1632 47.9809 15.1504 47.9745 15.144 47.9713C15.1055 47.9585 15.0639 47.9392 15.0254 47.92L15.2369 44.4296L15.3651 44.3463L18.2754 42.42L18.1889 42.17L16.9549 38.5354L17.1856 38.3815L20.8587 35.936Z" fill="#066396"/>
<path d="M21.0055 35.5354C21.0055 35.5354 21.0055 35.5418 21.0023 35.5547C20.9125 35.9745 19.4574 42.7309 18.0632 49.0194C18.0599 49.0194 18.0503 49.0194 18.0471 49.0162C18.0343 49.0162 18.0215 49.0098 18.0087 49.0034C17.9958 49.0002 17.9798 48.9938 17.9638 48.9906C17.5215 48.8624 17.0824 48.7213 16.6433 48.5611C16.5792 48.5386 16.5151 48.5162 16.451 48.4906C16.358 48.4585 16.2683 48.4233 16.1785 48.388C16.0632 48.3431 15.9478 48.3015 15.8324 48.2534C15.7555 48.2245 15.6817 48.1925 15.608 48.1636C15.5535 48.1444 15.5023 48.122 15.451 48.0995C15.4189 48.0867 15.3869 48.0739 15.3548 48.0611C15.3516 48.0611 15.3452 48.0579 15.342 48.0547C15.3228 48.0482 15.3035 48.0418 15.2875 48.0322C15.2715 48.0258 15.2523 48.0194 15.2362 48.0098C15.2138 48.0002 15.1946 47.9938 15.1753 47.9842C15.1657 47.9809 15.1529 47.9745 15.1465 47.9713L15.3676 44.3463L15.3869 44.0258L18.1914 42.17L18.4221 42.0162L17.1882 38.3784L17.1048 38.1316L20.9478 35.5739L21.0087 35.5322L21.0055 35.5354Z" fill="#0D8FD6"/>
<path d="M42.9913 42.3527C42.533 42.8302 42.0554 43.2886 41.5618 43.7277C41.5074 43.7757 41.4497 43.827 41.392 43.8751C41.2798 43.9713 41.1644 44.0706 41.0522 44.1636C40.9657 44.2341 40.8792 44.3078 40.7894 44.3783C40.7061 44.4456 40.6227 44.5129 40.5394 44.5802C40.5394 44.5802 40.5362 44.5802 40.533 44.5834C40.0875 44.9392 39.6292 45.2789 39.1644 45.5963C39.0907 45.6475 39.0138 45.6988 38.9369 45.7469C38.8599 45.7982 38.783 45.8495 38.7093 45.8975C38.6324 45.952 38.5554 46.0001 38.4753 46.0514C38.3151 46.1539 38.1548 46.2533 37.9945 46.3527C37.9881 46.3559 37.9817 46.3623 37.9753 46.3655C37.8984 46.4136 37.8215 46.4584 37.7477 46.5033C37.6195 46.5834 37.4849 46.6604 37.3535 46.7341C37.3503 46.7341 37.3471 46.7373 37.3407 46.7405C37.2125 46.8142 37.0779 46.8879 36.9465 46.9616C36.8503 47.0161 36.751 47.0674 36.6452 47.1187C36.6356 47.1219 36.6227 47.1315 36.6131 47.1347C36.3247 47.2854 36.0362 47.4296 35.7413 47.5674C35.626 47.6251 35.5074 47.6796 35.3888 47.7309C35.3086 47.7693 35.2317 47.8014 35.1516 47.8366C35.0971 47.8623 35.0394 47.8879 34.9817 47.9136C34.9625 47.9232 34.9369 47.9328 34.9176 47.9424C34.892 47.9552 34.8663 47.9648 34.8407 47.9745C34.8022 47.9905 34.767 48.0065 34.7285 48.0225C34.8311 47.5354 34.9336 47.0674 35.0266 46.6315C35.3086 45.3398 35.5522 44.311 35.7285 43.7213C35.767 43.5834 35.8086 43.452 35.8503 43.3174C35.8503 43.3078 35.8535 43.3014 35.8567 43.2918C35.9465 42.9937 36.0362 42.7052 36.1292 42.4232C36.1356 42.4007 36.142 42.3783 36.1516 42.3527C37.0458 39.6315 37.9497 37.9777 39.0779 38.0706C39.2317 38.0802 39.3856 38.1251 39.5458 38.202C39.6003 38.2277 39.6516 38.2533 39.6997 38.2822C41.3984 39.154 42.4401 40.577 42.9881 42.3495L42.9913 42.3527Z" fill="#0D8FD6"/>
<path d="M36.1515 42.356C36.1162 42.6861 35.8021 44.8495 35.3887 47.731C35.3085 47.7694 35.2316 47.8015 35.1515 47.8367C35.097 47.8624 35.0393 47.888 34.9816 47.9137C34.9624 47.9233 34.9367 47.9329 34.9175 47.9425C34.8919 47.9553 34.8662 47.9649 34.8406 47.9745C34.8021 47.9906 34.7669 48.0066 34.7284 48.0226C34.706 48.0322 34.6868 48.0387 34.6675 48.0483C34.6579 48.0515 34.6483 48.0579 34.6387 48.0611C35.1419 45.8367 35.6515 43.8367 36.1323 42.4265C36.1387 42.404 36.1451 42.3816 36.1547 42.356H36.1515Z" fill="#066396"/>
<path d="M24.6421 40.2599C26.5716 39.9842 29.9594 35.5932 31.1645 33.7246C30.9017 33.6413 30.6517 33.5644 30.4113 33.497C30.4081 33.497 30.4049 33.4938 30.3985 33.4938H30.3953C30.3023 33.465 30.2094 33.4394 30.1228 33.4169C30.0107 33.3656 29.9081 33.2855 29.812 33.1926C29.4434 33.1477 29.0555 33.1188 28.6453 33.0996L25.5107 33.1573C25.2511 33.1701 24.985 33.2054 24.7158 33.2599C24.3728 33.3272 24.0235 33.4233 23.6709 33.5355C23.4914 33.5932 23.312 33.6541 23.1293 33.7182C22.735 36.8272 21.2318 40.7438 24.6421 40.2567V40.2599Z" fill="white"/>
<path d="M24.4085 39.3559C22.7995 39.5194 23.0944 37.3784 23.4565 34.997V34.9905C23.5238 34.4873 22.902 31.7982 22.87 31.1155C22.8219 30.1668 22.4405 28.8655 22.1392 27.9585C21.9309 27.3335 21.7578 26.8976 21.7578 26.8976L28.8379 26.4841C28.8379 26.4841 28.5142 28.8944 28.8027 30.4745C28.8828 30.9168 29.1392 32.513 29.8123 33.1893C29.9085 33.2854 30.011 33.3623 30.1232 33.4136C30.2097 33.4553 30.2995 33.4809 30.3988 33.4905C30.3988 33.4905 30.4085 33.4905 30.4117 33.4937C30.6649 33.6764 26.854 39.1059 24.4052 39.3559H24.4085Z" fill="#FEAC74"/>
<path d="M28.8021 30.4713C27.2669 34.5643 24.6835 35.0258 23.456 34.997V34.9905C23.5233 34.4873 22.9015 31.7982 22.8694 31.1155C22.8214 30.1668 22.44 28.8655 22.1387 27.9585C22.5874 27.4329 22.9784 27.0803 22.9784 27.0803L28.8374 26.4841C28.8374 26.4841 28.5137 28.8944 28.8021 30.4745V30.4713Z" fill="#E3784C"/>
<path d="M29.7127 28.0641C30.1871 24.6698 29.4627 21.1121 29.9211 17.8461C29.9211 17.8461 27.4018 15.3044 26.9691 15.0577C26.6999 14.9038 26.4114 14.7756 26.1166 14.6762C25.8089 14.6218 25.4948 14.5961 25.1839 14.6025C24.6871 14.6121 21.2544 15.625 21.2544 15.625C20.6678 17.1666 20.2736 17.8237 19.7993 20.2468C19.4243 22.1634 20.1614 20.016 19.2768 23.1506C18.8986 24.4968 16.9852 26.1186 17.7352 28.9615C18.1454 30.5224 16.8473 36.8141 26.8185 31.7532C28.1166 31.0929 29.5204 29.4487 29.7127 28.0673V28.0641Z" fill="#FEAC74"/>
<path d="M23.4297 24.1154C23.4714 24.1314 23.513 24.1474 23.5547 24.1634C23.5964 24.1795 23.638 24.1923 23.6765 24.2083C23.7117 24.2211 23.7502 24.234 23.7855 24.2468C23.8143 24.2564 23.8464 24.266 23.872 24.2756C23.904 24.2852 23.9361 24.2949 23.9649 24.3045C24.0258 24.3237 24.0867 24.3397 24.1444 24.3558C24.2182 24.375 24.2951 24.391 24.3656 24.407C24.4008 24.4135 24.4361 24.4231 24.4746 24.4295C24.5098 24.4359 24.5451 24.4423 24.5803 24.4487C24.5867 24.4487 24.5931 24.4487 24.5996 24.4519C24.6925 24.4679 24.7855 24.4776 24.872 24.4872C24.872 24.4872 24.8784 24.4872 24.8816 24.4872C24.9457 24.4936 25.0098 24.4968 25.0707 24.5C25.1637 24.5032 25.2534 24.5032 25.3367 24.5C25.3656 24.5 25.3944 24.5 25.4233 24.4968C25.4521 24.4968 25.4778 24.4968 25.5066 24.4904C25.5867 24.484 25.6669 24.4743 25.7406 24.4615C25.7662 24.4583 25.7887 24.4519 25.8143 24.4487C25.8367 24.4455 25.8624 24.4391 25.8848 24.4359C25.9073 24.4327 25.9329 24.4263 25.9553 24.4199C25.9778 24.4135 26.0002 24.407 26.0226 24.4038C26.0964 24.3846 26.1701 24.3622 26.2374 24.3365C26.2502 24.3333 26.263 24.3269 26.2758 24.3237C26.2951 24.3173 26.3143 24.3077 26.3335 24.3013C26.372 24.2884 26.4073 24.2692 26.4425 24.2532C26.4778 24.2372 26.5098 24.2211 26.5451 24.2051C26.5611 24.1987 26.5771 24.1891 26.5932 24.1795C26.6092 24.1699 26.6252 24.1634 26.6412 24.1538C26.6669 24.1378 26.6957 24.1218 26.7214 24.1058C26.7214 24.1058 26.7278 24.1058 26.7278 24.1026C26.7694 24.0769 26.8079 24.0513 26.8431 24.0256C26.8688 24.0064 26.8912 23.9904 26.9105 23.9743C26.9329 23.9583 26.9521 23.9423 26.9714 23.9263C26.9906 23.9102 27.0098 23.8942 27.0258 23.8782C27.0355 23.8718 27.0419 23.8654 27.0483 23.8558C27.1573 23.7532 27.2085 23.6827 27.2085 23.6827C26.7694 22.9808 26.029 21.9359 24.8752 22.2468C23.9649 22.4936 24.0387 23.3846 23.4329 24.1218L23.4297 24.1154Z" fill="#E3784C"/>
<path d="M27.2059 23.6765C27.2059 23.6765 27.1546 23.7502 27.0488 23.8495C27.0424 23.856 27.0328 23.8624 27.0264 23.872C27.0104 23.888 26.9911 23.904 26.9719 23.9201C26.9527 23.9361 26.9334 23.9521 26.911 23.9681C26.8886 23.9874 26.8661 24.0034 26.8437 24.0194C26.8084 24.0451 26.77 24.0707 26.7283 24.0963C26.7283 24.0963 26.7251 24.0963 26.7219 24.0995C26.6963 24.1156 26.6706 24.1316 26.6418 24.1476C26.6258 24.1572 26.6129 24.1636 26.5937 24.1733C26.5777 24.1829 26.5649 24.1893 26.5456 24.1989C26.5104 24.2149 26.4783 24.2342 26.4431 24.2502C26.4078 24.2662 26.3725 24.2822 26.3341 24.2983C26.3149 24.3079 26.2956 24.3143 26.2764 24.3207C26.2636 24.3239 26.2508 24.3303 26.2379 24.3335C26.1706 24.356 26.1001 24.3784 26.0232 24.4008C26.0008 24.4072 25.9783 24.4136 25.9559 24.4169C25.9302 24.4233 25.9078 24.4265 25.8854 24.4329C25.879 24.4329 25.8693 24.4361 25.8629 24.4393C25.8469 24.4393 25.8309 24.4457 25.8116 24.4489C25.786 24.4521 25.7636 24.4585 25.7379 24.4617C25.661 24.4745 25.5841 24.4842 25.504 24.4906C25.4783 24.4906 25.4495 24.4938 25.4206 24.497C25.3918 24.497 25.3629 24.5002 25.3341 24.5002C25.2475 24.5034 25.161 24.5002 25.0681 24.5002C25.0072 24.5002 24.9431 24.4938 24.879 24.4874C24.8758 24.4874 24.8725 24.4874 24.8693 24.4874C24.7796 24.4778 24.6899 24.4681 24.5969 24.4521C24.5905 24.4521 24.5841 24.4521 24.5777 24.4521C24.5424 24.4457 24.5072 24.4393 24.4719 24.4329C24.4366 24.4265 24.4014 24.4201 24.3629 24.4104C24.3373 24.404 24.3116 24.3976 24.2828 24.3944C24.2347 24.3848 24.1899 24.372 24.1418 24.3592C24.0841 24.3431 24.0232 24.3271 23.9623 24.3079C23.9302 24.2983 23.9014 24.2886 23.8693 24.279C23.8405 24.2694 23.8116 24.2598 23.7828 24.2502C23.7475 24.2374 23.7091 24.2245 23.6738 24.2117C23.6322 24.1989 23.5905 24.1829 23.552 24.1669C23.5104 24.1508 23.4687 24.1348 23.4238 24.1188C24.0296 23.3816 23.911 22.8528 24.8245 22.606C25.9623 22.2983 26.7379 22.9617 27.1802 23.6508C27.1802 23.6508 27.1802 23.654 27.1834 23.6572C27.1866 23.6669 27.1931 23.6765 27.1995 23.6829L27.2059 23.6765Z" fill="#E3784C"/>
<path d="M27.2059 23.6763C27.2059 23.6763 27.1546 23.7501 27.0488 23.8494C27.0424 23.8558 27.0328 23.8622 27.0264 23.8718C27.0104 23.8879 26.9911 23.9039 26.9719 23.9199C26.9527 23.9359 26.9334 23.952 26.911 23.968C26.8886 23.9872 26.8661 24.0033 26.8437 24.0193C26.8084 24.0449 26.77 24.0706 26.7283 24.0962C26.7283 24.0962 26.7251 24.0962 26.7219 24.0994C26.6963 24.1154 26.6706 24.1315 26.6418 24.1475C26.6258 24.1571 26.6129 24.1635 26.5937 24.1731C26.5777 24.1827 26.5649 24.1892 26.5456 24.1988C26.5104 24.2148 26.4783 24.234 26.4431 24.2501C26.4078 24.2661 26.3725 24.2821 26.3341 24.2981C26.3149 24.3077 26.2956 24.3142 26.2764 24.3206C26.2636 24.3238 26.2508 24.3302 26.2379 24.3334C26.1706 24.3558 26.1001 24.3783 26.0232 24.4007C26.0008 24.4071 25.9783 24.4135 25.9559 24.4167C25.9302 24.4231 25.9078 24.4263 25.8854 24.4327C25.879 24.4327 25.8693 24.436 25.8629 24.4392C25.8469 24.4392 25.8309 24.4456 25.8116 24.4488C25.786 24.452 25.7636 24.4584 25.7379 24.4616C25.661 24.4744 25.5841 24.484 25.504 24.4904C25.4783 24.4904 25.4495 24.4936 25.4206 24.4968C25.3918 24.4968 25.3629 24.5001 25.3341 24.5001C25.2475 24.5033 25.161 24.5001 25.0681 24.5001C25.0072 24.5001 24.9431 24.4936 24.879 24.4872C24.8758 24.4872 24.8725 24.4872 24.8693 24.4872C24.7796 24.4776 24.6899 24.468 24.5969 24.452C24.5905 24.452 24.5841 24.452 24.5777 24.452C24.5424 24.4456 24.5072 24.4392 24.4719 24.4327C24.4366 24.4263 24.4014 24.4199 24.3629 24.4103C24.3373 24.4039 24.3116 24.3975 24.2828 24.3943C24.2347 24.3847 24.1899 24.3718 24.1418 24.359C24.0841 24.343 24.0232 24.327 23.9623 24.3077C23.9302 24.2981 23.9014 24.2885 23.8693 24.2789C23.8405 24.2693 23.8116 24.2597 23.7828 24.2501C23.7475 24.2372 23.7091 24.2244 23.6738 24.2116C23.6322 24.1988 23.5905 24.1827 23.552 24.1667C23.5104 24.1507 23.4687 24.1347 23.4238 24.1186C24.0296 23.3815 24.3693 21.7212 25.2796 21.4744C26.4174 21.1667 26.7475 22.9295 27.1802 23.6507C27.1802 23.6507 27.1802 23.6539 27.1834 23.6571C27.1866 23.6667 27.1931 23.6763 27.1995 23.6827L27.2059 23.6763Z" fill="white"/>
<path d="M24.3825 23.3013C24.2543 24.0096 24.5941 24.6795 25.1357 24.7949C25.6806 24.9103 26.2255 24.4295 26.3505 23.718C26.4787 23.0096 26.1389 22.3398 25.5973 22.2244C25.0524 22.109 24.5075 22.5898 24.3825 23.3013Z" fill="#580801"/>
<path d="M24.6492 23.7596C24.5787 24.1442 24.7742 24.5064 25.0787 24.5705C25.3864 24.6346 25.6908 24.3782 25.7581 23.9936C25.8287 23.609 25.6331 23.2468 25.3287 23.1827C25.021 23.1186 24.7165 23.375 24.6492 23.7596Z" fill="#440502"/>
<path d="M26.5932 23.8172C26.7182 23.7051 26.5899 23.2307 26.5899 23.2307L25.3047 23.8172C25.3047 23.8172 26.3432 24.0384 26.5932 23.8172Z" fill="white"/>
<path d="M23.4297 24.1156C24.0579 23.4361 24.6637 21.9393 25.6188 22.013C26.5515 22.0835 26.7214 23.0354 27.2053 23.6797C27.1765 22.4713 26.7053 20.6572 25.5515 20.9681C24.638 21.2149 23.5931 22.7726 23.4297 24.1156Z" fill="#580801"/>
<path d="M23.4297 24.1155C24.0355 23.3783 24.6637 21.8366 25.6188 21.9103C26.5515 21.9808 26.763 22.9744 27.2053 23.6764C27.1765 22.468 26.7053 20.5546 25.5515 20.8655C24.638 21.1122 23.5931 22.7693 23.4297 24.1155Z" fill="#E3784C"/>
<path d="M27.2092 23.6763C27.2092 23.6763 26.5265 26.1122 23.4336 24.1154C23.4753 24.1314 23.5169 24.1475 23.5618 24.1635C23.6035 24.1795 23.6451 24.1923 23.6836 24.2084C23.7221 24.2212 23.7573 24.234 23.7926 24.2468C23.8214 24.2564 23.8535 24.2661 23.8791 24.2757C23.9112 24.2853 23.9432 24.2949 23.9721 24.3045C24.033 24.3237 24.0938 24.3398 24.1515 24.3558C24.1996 24.3686 24.2477 24.3814 24.2926 24.3911C24.3214 24.3975 24.3471 24.4039 24.3727 24.4071C24.408 24.4167 24.4464 24.4231 24.4817 24.4295C24.5169 24.4359 24.5522 24.4423 24.5874 24.4487C24.5938 24.4487 24.6003 24.4487 24.6067 24.4487C24.7028 24.4648 24.7926 24.4744 24.8791 24.484C24.8791 24.484 24.8855 24.484 24.8887 24.484C24.9528 24.4872 25.0169 24.4936 25.0778 24.4968C25.1708 24.5 25.2605 24.5032 25.3438 24.4968C25.3727 24.4968 25.4015 24.4968 25.4304 24.4936C25.4592 24.4936 25.4849 24.4936 25.5137 24.4872C25.5938 24.4808 25.674 24.4712 25.7477 24.4584C25.7733 24.4552 25.7958 24.4487 25.8214 24.4455C25.8374 24.4455 25.8535 24.4391 25.8727 24.4359C25.8791 24.4359 25.8887 24.4327 25.8951 24.4295C25.9176 24.4231 25.9432 24.4199 25.9656 24.4135C25.9881 24.4103 26.0105 24.4039 26.033 24.3975C26.1099 24.3782 26.1804 24.3558 26.2477 24.3302C26.2605 24.3269 26.2733 24.3205 26.2862 24.3173C26.3054 24.3109 26.3246 24.3013 26.3439 24.2949C26.3823 24.2821 26.4176 24.2628 26.4528 24.2468C26.4881 24.2308 26.5201 24.2148 26.5554 24.1955C26.5714 24.1891 26.5874 24.1795 26.6035 24.1699C26.6195 24.1603 26.6355 24.1539 26.6515 24.1443C26.6804 24.1282 26.706 24.1122 26.7317 24.0962C26.7317 24.0962 26.7349 24.0962 26.7381 24.093C26.7797 24.0673 26.8182 24.0417 26.8535 24.0161C26.8791 24 26.9015 23.984 26.9208 23.9648C26.9432 23.9487 26.9624 23.9295 26.9817 23.9167C27.0009 23.9007 27.0169 23.8846 27.0362 23.8686C27.0426 23.859 27.0522 23.8526 27.0586 23.8462C27.1676 23.7436 27.2156 23.6731 27.2156 23.6731C27.2124 23.6667 27.206 23.6571 27.1996 23.6475C27.206 23.6571 27.2092 23.6635 27.2156 23.6731L27.2092 23.6763Z" fill="#E3784C"/>
<path d="M21.5776 23.2085C21.5488 23.2182 21.5199 23.231 21.4911 23.2406C21.4622 23.2502 21.4366 23.2598 21.4078 23.2694C21.3821 23.2791 21.3565 23.2855 21.334 23.2919C21.3148 23.2983 21.2956 23.3015 21.2763 23.3079C21.2539 23.3143 21.2347 23.3175 21.2154 23.3239C21.1738 23.3335 21.1353 23.3432 21.0969 23.3496C21.0488 23.3592 20.9975 23.3656 20.9526 23.372C20.9302 23.372 20.9045 23.3784 20.8821 23.3784C20.8597 23.3784 20.8372 23.3816 20.8148 23.3848C20.8084 23.3848 20.8052 23.3848 20.802 23.3848C20.7411 23.3848 20.6834 23.3848 20.6257 23.3848C20.6257 23.3848 20.6225 23.3848 20.6193 23.3848C20.5776 23.3848 20.5392 23.3784 20.4975 23.372C20.4398 23.3624 20.3821 23.3528 20.3308 23.34C20.3148 23.3335 20.2956 23.3303 20.2763 23.3239C20.2603 23.3175 20.2411 23.3143 20.2251 23.3079C20.1738 23.2919 20.1257 23.2726 20.0808 23.2502C20.0648 23.2438 20.052 23.2342 20.036 23.2278C20.0199 23.2214 20.0071 23.2118 19.9911 23.2053C19.9783 23.1989 19.9622 23.1893 19.9494 23.1797C19.9366 23.1701 19.9238 23.1637 19.9078 23.1541C19.8629 23.1252 19.8212 23.0932 19.7828 23.0611C19.7763 23.0547 19.7667 23.0483 19.7603 23.0419C19.7475 23.0323 19.7379 23.0226 19.7283 23.013C19.7058 22.9938 19.6834 22.9714 19.6642 22.9521C19.6449 22.9329 19.6257 22.9105 19.6065 22.8912C19.5969 22.8816 19.5872 22.8688 19.5808 22.8592C19.5712 22.8496 19.5648 22.8368 19.5552 22.8271C19.5392 22.8079 19.5263 22.7887 19.5103 22.7694C19.5103 22.7694 19.5103 22.7662 19.5071 22.763C19.4847 22.731 19.4622 22.7021 19.443 22.6701C19.4302 22.6476 19.4174 22.6284 19.4078 22.6092C19.3949 22.59 19.3853 22.5707 19.3757 22.5515C19.3661 22.5323 19.3565 22.5162 19.3469 22.497C19.3437 22.4874 19.3372 22.481 19.334 22.4714C19.2795 22.356 19.2539 22.2791 19.2539 22.2791C19.6129 21.6412 20.2026 20.7021 20.8917 21.1605C21.4366 21.5226 21.2828 22.3944 21.5776 23.2021V23.2085Z" fill="#E3784C"/>
<path d="M21.5776 23.2085C21.5488 23.2181 21.5199 23.2309 21.4943 23.2405C21.4654 23.2501 21.4398 23.2597 21.411 23.2694C21.3885 23.2758 21.3629 23.2854 21.3372 23.2918C21.318 23.2982 21.2956 23.3014 21.2795 23.3078C21.2571 23.3142 21.2379 23.3206 21.2154 23.3238C21.1738 23.3335 21.1353 23.3431 21.0969 23.3495C21.0648 23.3559 21.0328 23.3591 21.0039 23.3655C20.9879 23.3655 20.9687 23.3719 20.9526 23.3719C20.9302 23.3751 20.9045 23.3783 20.8821 23.3783C20.8597 23.3783 20.8372 23.3815 20.8148 23.3847C20.8116 23.3847 20.8052 23.3847 20.802 23.3847C20.7411 23.3847 20.6834 23.3847 20.6257 23.3847C20.6257 23.3847 20.6257 23.3847 20.6193 23.3847C20.5776 23.3847 20.536 23.3783 20.4975 23.3719C20.4398 23.3623 20.3821 23.3527 20.3276 23.3399C20.3116 23.3335 20.2924 23.3303 20.2763 23.3238C20.2603 23.3174 20.2411 23.3142 20.2251 23.3078C20.1738 23.2918 20.1257 23.2726 20.0808 23.2501C20.0648 23.2437 20.052 23.2341 20.036 23.2277C20.0263 23.2245 20.0167 23.2181 20.0039 23.2117C20.0007 23.2117 19.9943 23.2053 19.9911 23.2053C19.9783 23.1988 19.9622 23.1892 19.9494 23.1796C19.9366 23.17 19.9238 23.1636 19.9078 23.154C19.8629 23.1251 19.8212 23.0931 19.7828 23.061C19.7763 23.0546 19.7667 23.0482 19.7603 23.0418C19.7507 23.0322 19.7379 23.0226 19.7283 23.0129C19.7058 22.9937 19.6866 22.9713 19.6642 22.9521C19.6449 22.9296 19.6257 22.9104 19.6065 22.8879C19.5969 22.8783 19.5872 22.8655 19.5808 22.8559C19.5712 22.8431 19.5616 22.8335 19.5552 22.8238C19.5392 22.8046 19.5231 22.7854 19.5103 22.7662C19.5103 22.7662 19.5103 22.7629 19.5071 22.7597C19.4847 22.7277 19.4622 22.6988 19.443 22.6668C19.4302 22.6444 19.4174 22.6251 19.4078 22.6059C19.3981 22.5867 19.3853 22.5674 19.3757 22.5482C19.3661 22.529 19.3565 22.5129 19.3469 22.4937C19.3437 22.4841 19.3372 22.4777 19.334 22.4681C19.2795 22.3527 19.2539 22.2758 19.2539 22.2758C19.6129 21.6379 20.1866 21.061 20.8757 21.5194C21.4013 21.8687 21.2892 22.3591 21.5488 23.1219C21.5584 23.1476 21.5648 23.1764 21.5744 23.1988L21.5776 23.2085Z" fill="#E3784C"/>
<path d="M21.5776 23.2083C21.5488 23.218 21.5199 23.2308 21.4943 23.2404C21.4654 23.25 21.4398 23.2596 21.411 23.2692C21.3885 23.2756 21.3629 23.2853 21.3372 23.2917C21.318 23.2981 21.2956 23.3013 21.2795 23.3077C21.2571 23.3141 21.2379 23.3205 21.2154 23.3237C21.1738 23.3333 21.1353 23.343 21.0969 23.3494C21.0648 23.3558 21.0328 23.359 21.0039 23.3654C20.9879 23.3654 20.9687 23.3718 20.9526 23.3718C20.9302 23.375 20.9045 23.3782 20.8821 23.3782C20.8597 23.3782 20.8372 23.3814 20.8148 23.3846C20.8116 23.3846 20.8052 23.3846 20.802 23.3846C20.7411 23.3846 20.6834 23.3846 20.6257 23.3846C20.6257 23.3846 20.6257 23.3846 20.6193 23.3846C20.5776 23.3846 20.536 23.3782 20.4975 23.3718C20.4398 23.3622 20.3821 23.3526 20.3276 23.3397C20.3116 23.3333 20.2924 23.3301 20.2763 23.3237C20.2603 23.3173 20.2411 23.3141 20.2251 23.3077C20.1738 23.2917 20.1257 23.2724 20.0808 23.25C20.0648 23.2436 20.052 23.234 20.036 23.2276C20.0263 23.2244 20.0167 23.218 20.0039 23.2115C20.0007 23.2115 19.9943 23.2051 19.9911 23.2051C19.9783 23.1987 19.9622 23.1891 19.9494 23.1795C19.9366 23.1699 19.9238 23.1635 19.9078 23.1539C19.8629 23.125 19.8212 23.093 19.7828 23.0609C19.7763 23.0545 19.7667 23.0481 19.7603 23.0417C19.7507 23.0321 19.7379 23.0224 19.7283 23.0128C19.7058 22.9936 19.6866 22.9712 19.6642 22.9519C19.6449 22.9295 19.6257 22.9103 19.6065 22.8878C19.5969 22.8782 19.5872 22.8654 19.5808 22.8558C19.5712 22.843 19.5616 22.8333 19.5552 22.8237C19.5392 22.8045 19.5231 22.7853 19.5103 22.766C19.5103 22.766 19.5103 22.7628 19.5071 22.7596C19.4847 22.7276 19.4622 22.6987 19.443 22.6667C19.4302 22.6442 19.4174 22.625 19.4078 22.6058C19.3981 22.5865 19.3853 22.5673 19.3757 22.5481C19.3661 22.5289 19.3565 22.5128 19.3469 22.4936C19.3437 22.484 19.3372 22.4776 19.334 22.468C19.2795 22.3526 19.2539 22.2756 19.2539 22.2756C19.6129 21.6378 20.0328 19.8814 20.7219 20.3397C21.2507 20.6891 21.2828 22.2853 21.5488 23.1218C21.5584 23.1474 21.5648 23.1763 21.5744 23.1987L21.5776 23.2083Z" fill="white"/>
<path d="M20.9133 22.4263C20.9229 23.0802 20.6473 23.6315 20.2947 23.6571C19.9422 23.6828 19.6505 23.1731 19.6409 22.5193C19.6313 21.8654 19.9069 21.3142 20.2595 21.2885C20.612 21.2629 20.9037 21.7725 20.9133 22.4263Z" fill="#580801"/>
<path d="M20.5697 22.7181C20.5761 23.0707 20.4191 23.372 20.2203 23.3848C20.0216 23.4008 19.8582 23.1252 19.8518 22.7694C19.8453 22.4168 20.0024 22.1155 20.2011 22.1027C20.3998 22.0899 20.5665 22.3623 20.5697 22.7181Z" fill="#440502"/>
<path d="M19.6152 21.9104C19.5927 21.9649 19.5703 22.0194 19.5447 22.0707C19.5286 22.1155 19.5126 22.1572 19.4934 22.2021C19.4774 22.2405 19.4613 22.2886 19.4453 22.3399C19.6633 22.4905 20.1793 22.4521 20.1793 22.4521L19.612 21.9104H19.6152Z" fill="white"/>
<path d="M21.5783 23.2789C21.2867 22.4712 21.0302 20.9584 20.4213 20.9071C19.8283 20.8558 19.6424 21.6891 19.2578 22.2885C19.2642 22.2532 19.2674 22.218 19.2738 22.1795C19.277 22.1539 19.2835 22.125 19.2867 22.0994C19.2931 22.0577 19.2995 22.0193 19.3059 21.9776C19.3123 21.9424 19.3187 21.9103 19.3251 21.875C19.3251 21.875 19.3251 21.8718 19.3251 21.8686C19.5399 20.7276 20.0206 19.3847 20.6296 19.7917C21.1392 20.1315 21.5751 21.7084 21.5815 23.0161C21.5815 23.1058 21.5815 23.1956 21.5783 23.2853V23.2789Z" fill="#580801"/>
<path d="M21.5808 23.0097C21.5808 23.077 21.5808 23.1443 21.5776 23.2084C21.286 22.4007 21.0295 20.8399 20.4174 20.7886C19.8244 20.7373 19.6161 21.6475 19.2539 22.2822C19.2603 22.2469 19.2635 22.2116 19.2699 22.1732C19.2731 22.1475 19.2795 22.1187 19.2828 22.0931C19.2892 22.0514 19.2956 22.0129 19.302 21.9713C19.3084 21.936 19.3116 21.904 19.3212 21.8687C19.3212 21.8687 19.3212 21.8655 19.3212 21.8623C19.536 20.7213 20.0167 19.3783 20.6257 19.7854C21.1353 20.1251 21.5712 21.702 21.5776 23.0097H21.5808Z" fill="#E3784C"/>
<path d="M21.5783 23.2085C19.3988 24.7854 19.2578 22.2854 19.2578 22.2854C19.2578 22.2854 19.2802 22.3623 19.3379 22.4777C19.3411 22.4873 19.3476 22.4937 19.3508 22.5033C19.3604 22.5226 19.37 22.5386 19.3796 22.5578C19.3892 22.5771 19.402 22.5963 19.4117 22.6155C19.4213 22.6348 19.4341 22.654 19.4469 22.6764C19.4661 22.7053 19.4886 22.7373 19.511 22.7694C19.511 22.7694 19.511 22.7694 19.5142 22.7758C19.527 22.795 19.5431 22.8142 19.5591 22.8335C19.5687 22.8431 19.5751 22.8527 19.5847 22.8655C19.5943 22.8751 19.6008 22.8848 19.6104 22.8976C19.6296 22.92 19.6488 22.9392 19.6681 22.9617C19.6873 22.9809 19.7097 23.0034 19.7322 23.0226C19.745 23.0322 19.7546 23.0418 19.7642 23.0514C19.7706 23.0578 19.7802 23.0642 19.7867 23.0707C19.8251 23.1027 19.87 23.1348 19.9117 23.1636C19.9245 23.1732 19.9373 23.1828 19.9533 23.1892C19.9661 23.1989 19.9822 23.2053 19.995 23.2149C19.9982 23.2149 20.0046 23.2213 20.0078 23.2213C20.0174 23.2277 20.027 23.2309 20.0399 23.2373C20.0559 23.2437 20.0687 23.2533 20.0847 23.2598C20.1296 23.2822 20.1777 23.3014 20.229 23.3175C20.245 23.3239 20.2642 23.3303 20.2802 23.3335C20.2963 23.3399 20.3155 23.3431 20.3315 23.3495C20.386 23.3623 20.4405 23.3751 20.5014 23.3816C20.5399 23.388 20.5815 23.3912 20.6232 23.3944C20.6232 23.3944 20.6264 23.3944 20.6296 23.3944C20.6873 23.3944 20.745 23.3944 20.8059 23.3944C20.8091 23.3944 20.8155 23.3944 20.8187 23.3944C20.8411 23.3944 20.8636 23.3944 20.886 23.388C20.9085 23.388 20.9341 23.3848 20.9565 23.3816C20.9726 23.3816 20.9918 23.3783 21.0078 23.3751C21.0399 23.3687 21.0687 23.3655 21.1008 23.3591C21.1392 23.3495 21.1809 23.3431 21.2193 23.3335C21.2386 23.3271 21.261 23.3239 21.2835 23.3175C21.3027 23.311 21.3219 23.3078 21.3411 23.3014C21.3636 23.295 21.3892 23.2854 21.4149 23.279C21.4437 23.2694 21.4694 23.2598 21.4982 23.2501C21.527 23.2405 21.5559 23.2309 21.5815 23.2181L21.5783 23.2085Z" fill="#E3784C"/>
<path d="M21.6743 18.4199C21.5493 18.4424 21.3185 18.5001 21.3185 18.5001L21.123 19.0065C21.123 19.0065 21.0108 18.6186 20.9467 18.6411C19.2288 19.2308 19.0781 20.577 19.0781 20.577C19.5076 20.2372 19.9724 19.9648 20.4499 19.7981C21.1038 19.5706 21.5204 19.5962 21.9179 19.8334C21.8762 19.359 21.8057 18.8815 21.6743 18.4199Z" fill="#440502"/>
<path d="M25.4176 18.0417C25.5394 18.0706 25.7702 18.1411 25.7702 18.1411L25.9401 18.6571C25.9401 18.6571 26.0715 18.2757 26.1388 18.3014C27.8247 18.9808 27.9048 20.3302 27.9048 20.3302C27.4913 19.968 27.0426 19.6732 26.5747 19.4808C25.9336 19.2212 25.5138 19.2244 25.1035 19.4392C25.1708 18.9648 25.2638 18.4937 25.4208 18.0417H25.4176Z" fill="#440502"/>
<path d="M21.3275 31.6634C20.3852 31.1762 19.9141 31.9455 19.9141 31.9455C19.975 31.7307 20.0102 31.4295 20.2346 31.3077C20.5775 31.1186 21.1384 31.3525 21.3275 31.6634Z" fill="#E3784C"/>
<path d="M18.3887 26.8301C18.3887 26.8301 19.1643 31.2147 20.9239 30.9423C23.456 30.548 24.206 28.923 24.2444 28.1185C23.0361 27.8237 19.0105 26.9775 18.3919 26.8301H18.3887Z" fill="#873421"/>
<path d="M24.2675 28.189C24.2515 28.2948 24.2291 28.4133 24.2034 28.5383C24.1265 28.9037 24.0047 29.298 23.8701 29.3653C23.8637 29.3685 23.8573 29.3717 23.8477 29.3749C23.8156 29.3877 23.7771 29.4005 23.7291 29.4069C22.8989 29.5864 19.7579 29.3525 19.4086 29.3364C19.3509 29.1313 19.2932 28.923 19.2419 28.7178C19.1105 28.1986 19.0047 27.673 18.9791 27.1313C18.9727 27.0351 18.9727 26.9358 18.9727 26.8364C19.0303 26.8525 19.088 26.8653 19.1521 26.8813C19.4502 26.9582 19.8092 27.0448 20.1938 27.1409C21.6361 27.4999 23.4278 27.9486 24.1746 28.1601L24.2643 28.1858L24.2675 28.189Z" fill="white"/>
<path d="M24.2037 28.5385C24.1268 28.9038 24.005 29.2981 23.8704 29.3654C23.864 29.3686 23.8576 29.3718 23.848 29.375C23.8159 29.3878 23.7774 29.4006 23.7294 29.407C22.8992 29.5865 19.7582 29.3526 19.4089 29.3365C19.3512 29.1314 19.2935 28.9231 19.2422 28.7179C19.3736 28.8846 19.5435 28.8141 19.7326 28.9038C19.63 28.4391 19.6172 27.8269 19.7871 27.375C19.6813 29.3718 20.7678 29.0833 21.1653 29.1346C21.1877 28.8942 21.2005 28.4263 21.2422 28.1923C21.2486 28.3718 21.2486 28.891 21.3159 29.0545C21.396 29.2468 22.473 29.1699 22.8544 29.125C23.3159 29.0705 23.8063 28.8846 24.1973 28.5385H24.2037Z" fill="#E8E6E6"/>
<path d="M23.8555 29.4614C23.7465 29.6153 23.6183 29.7659 23.4644 29.9134C22.9484 30.4134 22.1728 30.8525 21.0382 31.0448C21.0061 31.0512 20.9709 31.0576 20.9388 31.0608C20.8619 31.0736 20.7882 31.0768 20.7144 31.0736C20.5734 31.0672 20.4356 31.032 20.3074 30.9743C20.2593 30.9518 20.2112 30.9294 20.1664 30.9005C20.0029 30.8012 19.8491 30.6666 19.708 30.5031C19.6888 30.4678 19.6696 30.4294 19.6535 30.3909C19.567 30.1986 19.5029 29.9871 19.4869 29.7659C19.4805 29.705 19.4805 29.6441 19.4805 29.5832C19.4805 29.5448 19.4869 29.5063 19.4901 29.4678C20.8555 29.455 22.2401 29.4743 23.5894 29.423C23.6375 29.423 23.6856 29.4198 23.7337 29.4166C23.7753 29.4166 23.8138 29.4166 23.8555 29.4102C23.8555 29.4166 23.8555 29.4262 23.8555 29.4326C23.8555 29.4422 23.8555 29.4486 23.8555 29.4582V29.4614Z" fill="white"/>
<path d="M23.856 29.4614C23.747 29.6153 23.6188 29.7659 23.465 29.9134C22.949 30.4134 22.1733 30.8525 21.0387 31.0448C21.2567 30.9711 21.4522 30.8845 21.5611 30.8236C21.6861 30.7563 21.8111 30.6698 21.9169 30.5704C22.1092 30.3909 22.247 30.1602 22.2438 29.8973C22.0003 29.6922 19.5772 29.5832 19.4746 29.5832C19.4746 29.5448 19.481 29.5063 19.4842 29.4678C20.8496 29.455 22.2342 29.4743 23.5836 29.423C23.6317 29.423 23.6797 29.4198 23.7278 29.4166C23.7695 29.4166 23.8079 29.4166 23.8496 29.4102C23.8496 29.4166 23.8496 29.4262 23.8496 29.4326C23.8496 29.4422 23.8496 29.4486 23.8496 29.4582L23.856 29.4614Z" fill="#E8E6E6"/>
<path d="M24.3633 28.0256L24.2735 28.0032C23.8857 27.907 23.219 27.7596 22.4658 27.5961C22.3056 27.5609 22.1453 27.5256 21.9787 27.4904C21.5203 27.3878 21.046 27.2852 20.5908 27.1859C20.5492 27.1795 20.5107 27.1699 20.4691 27.1602C20.3825 27.141 20.2992 27.125 20.2191 27.1058C19.8248 27.0224 19.4594 26.9423 19.1582 26.8782C19.1293 26.875 19.1069 26.8686 19.0812 26.8654C19.0588 26.859 19.0364 26.8525 19.0107 26.8493C19.0043 26.8493 18.9979 26.8493 18.9915 26.8461C18.9883 26.8461 18.9819 26.8429 18.9755 26.8429C18.7126 26.7852 18.5171 26.7436 18.4178 26.7179L18.2383 26.6763L18.2671 26.8558C18.2671 26.8558 18.2735 26.8878 18.2799 26.9199C18.3569 27.3333 18.7992 29.4711 19.703 30.5096C19.8441 30.6731 19.9979 30.8077 20.1614 30.9038C20.2094 30.9327 20.2575 30.9551 20.3056 30.9776C20.3312 30.9904 20.3569 30.9968 20.3825 31.0064C20.4049 31.016 20.4274 31.0224 20.453 31.0288C20.4787 31.0352 20.5043 31.0417 20.5299 31.0481C20.5556 31.0513 20.5812 31.0577 20.6069 31.0609C20.6421 31.0641 20.6774 31.0673 20.7126 31.0705C20.7287 31.0705 20.7479 31.0705 20.7639 31.0705C20.8216 31.0705 20.8793 31.0673 20.9402 31.0577C20.9723 31.0513 21.0043 31.0449 21.0396 31.0384C21.1293 31.0224 21.2191 31.0064 21.3056 30.9872C21.3505 30.9743 21.3985 30.9679 21.4434 30.9551C21.4626 30.9551 21.4819 30.9455 21.4979 30.9423C21.546 30.9295 21.594 30.9199 21.6357 30.9038C21.7607 30.8718 21.8825 30.8333 21.9979 30.7917C22.0556 30.7724 22.1101 30.75 22.1678 30.7276C22.2126 30.7115 22.2575 30.6891 22.3024 30.6731C22.3216 30.6667 22.3408 30.6602 22.3569 30.6506C22.3985 30.6282 22.4402 30.6122 22.4819 30.5897C22.5876 30.5384 22.6902 30.484 22.7864 30.4263C22.8216 30.407 22.8537 30.3878 22.8857 30.3654C22.8857 30.3654 22.8921 30.3622 22.8953 30.359C22.8953 30.359 22.9017 30.359 22.9049 30.3558C22.9434 30.3301 22.9819 30.3045 23.0171 30.2788C23.0267 30.2724 23.0364 30.266 23.046 30.2564C23.0524 30.2532 23.0588 30.2468 23.0652 30.2436C23.0908 30.2243 23.1165 30.2051 23.1421 30.1859C23.1678 30.1667 23.1902 30.1474 23.2158 30.1282C23.2543 30.0961 23.296 30.0673 23.328 30.032C23.3312 30.032 23.3344 30.0256 23.3408 30.0224C23.3825 29.984 23.421 29.9487 23.4626 29.9102C23.6133 29.766 23.7415 29.6122 23.8505 29.4583C24.1998 28.9679 24.3408 28.4711 24.3569 28.1218V28.0224L24.3633 28.0256ZM22.7479 30.1731C22.5107 30.3237 22.2351 30.4583 21.921 30.5705C21.6229 30.6763 21.2832 30.766 20.9049 30.8237C20.8473 30.8333 20.7864 30.8365 20.7287 30.8333C20.5171 30.8237 20.3184 30.7372 20.1357 30.5929C19.9338 30.4359 19.7479 30.2051 19.5844 29.9391C19.5492 29.8814 19.5171 29.8269 19.4883 29.7692C18.9562 28.8109 18.6485 27.4808 18.546 27C18.6582 27.0224 18.8088 27.0545 18.9819 27.0897H18.9851C19.0652 27.109 19.1549 27.1282 19.2511 27.1506C19.5171 27.2083 19.8312 27.2756 20.1678 27.3461C20.171 27.3461 20.1774 27.3461 20.1806 27.3493H20.187C20.3697 27.3878 20.5588 27.4295 20.7511 27.4711C21.187 27.5641 21.6325 27.6602 22.0652 27.7564C22.1357 27.7692 22.203 27.7852 22.2703 27.8013C22.421 27.8365 22.5684 27.8654 22.7126 27.9006C22.7223 27.9006 22.7319 27.9006 22.7415 27.9038C23.296 28.0256 23.7799 28.1346 24.1069 28.2147C24.0908 28.359 24.0524 28.5256 23.9851 28.7019C23.9466 28.8077 23.8985 28.9199 23.8344 29.032C23.8312 29.0384 23.8248 29.0481 23.8216 29.0545C23.8024 29.0929 23.7832 29.125 23.7607 29.1602C23.7062 29.2468 23.6453 29.3333 23.5812 29.4231C23.578 29.4263 23.5748 29.4295 23.5716 29.4327C23.3665 29.6955 23.094 29.9519 22.7415 30.1731H22.7479Z" fill="#E3784C"/>
<path d="M16.722 26.6955C17.0521 26.4615 18.6771 27.0545 19.1835 27.1891C19.472 27.266 19.9079 27.4391 20.238 27.3301C20.5617 27.2244 20.629 26.8109 20.7123 26.5288C20.7123 26.5288 16.8277 25.734 16.7188 26.6955H16.722Z" fill="#440502"/>
<path d="M25.5482 28.5095C25.3078 28.0992 22.8816 27.939 22.1604 27.8364C21.7501 27.7787 21.0867 27.7499 20.7566 27.4742C20.4328 27.2018 20.6412 26.7306 20.7341 26.3877C20.7341 26.3877 26.0931 27.4358 25.5482 28.5127V28.5095Z" fill="#440502"/>
<path d="M22.4618 26.4744C21.84 26.8302 20.8913 26.7629 20.2631 26.4264C20.2086 26.3975 20.1413 26.3655 20.0676 26.327C19.8336 26.2116 19.5419 26.0674 19.3945 25.8751C19.3112 25.7693 19.2759 25.6507 19.3144 25.5161C19.3913 25.2533 19.6317 25.1796 19.8785 25.2308C19.8785 25.2308 19.8785 25.2308 19.8849 25.2373C19.9137 25.2789 20.0676 25.4937 20.3592 25.734C20.7759 26.077 21.4682 26.468 22.465 26.4712L22.4618 26.4744Z" fill="#E3784C"/>
<path d="M20.2883 25.766C20.096 25.9231 19.9229 26.0705 19.7627 26.1635C19.6056 25.9551 19.4101 25.6923 19.3652 25.4551C19.6345 25.3494 19.8749 25.234 20.0896 25.1058C22.3941 23.7404 21.6793 20.5994 21.6793 20.5994C22.4934 21.9423 21.814 24.5192 20.2915 25.766H20.2883Z" fill="#E3784C"/>
<path d="M29.2694 25.7853C29.2694 25.7853 29.2662 25.7693 29.263 25.7629C28.5162 22.8398 29.3367 19.0834 28.7983 19.2501C27.6284 19.609 27.7726 18.3334 27.4233 17.4488C26.856 17.9392 25.6989 18.0321 25.481 17.3558C25.4457 17.3494 25.4072 17.343 25.372 17.3398C25.138 17.9135 24.5547 18.2565 23.9585 18.093C23.4585 17.9552 22.7662 17.5129 22.9521 16.9007C22.3624 17.4488 21.3335 17.7469 20.6284 17.2212C20.0867 16.8174 20.3528 16.311 20.7374 15.9167C19.5739 15.6603 17.8239 15.5642 17.5515 14.093C17.1989 12.1571 20.0515 12.7757 21.0611 13.1475C20.7758 12.9969 20.5002 12.4552 20.3848 12.0193C20.3463 11.8719 20.3271 11.7373 20.3303 11.6347C20.3592 10.9488 21.1701 10.6123 21.7534 10.7405C22.5643 10.9167 22.9713 11.561 23.4137 12.1635C23.6316 10.5321 27.606 10.6123 28.5771 12.6187C29.1572 12.4199 29.7758 12.4392 30.2822 12.9039C30.372 12.984 30.4489 13.077 30.5194 13.1796C32.2598 13.4167 33.5258 15.8014 33.4745 17.2405C33.3175 21.7725 29.4425 25.2725 29.2662 25.7885L29.2694 25.7853Z" fill="#580801"/>
<path d="M31.779 17.9071C31.2021 18.359 30.888 19.2821 30.6669 19.9808C30.3944 20.8398 30.0226 21.6795 29.856 22.5737C29.6861 23.4872 29.5867 24.4071 29.3816 25.3205C29.3495 25.468 29.3079 25.6154 29.263 25.7661C28.5162 22.843 29.3367 19.0866 28.7983 19.2532C27.6284 19.6122 27.7726 18.3366 27.4233 17.4519C26.856 17.9423 25.6989 18.0353 25.481 17.359C25.4457 17.3526 25.4072 17.3462 25.372 17.343C25.138 17.9167 24.5547 18.2596 23.9585 18.0962C23.4585 17.9584 22.7662 17.5161 22.9521 16.9039C22.3624 17.4519 21.3335 17.75 20.6284 17.2244C20.0867 16.8205 20.3528 16.3141 20.7374 15.9199C19.5739 15.6635 17.8239 15.5673 17.5515 14.0962C17.1989 12.1603 20.0515 12.7789 21.0611 13.1507C20.7758 13 20.5002 12.4584 20.3848 12.0225C20.3848 12.0225 25.8399 17.5673 27.3239 14.4231C27.981 14.8366 28.6893 17.1859 29.0162 17.359C29.5098 17.6218 30.4393 16.3846 30.6925 16.0193C30.5803 16.4487 30.0899 17.2212 30.3528 17.6411C30.5995 18.0385 31.4137 17.9648 31.779 17.9103V17.9071Z" fill="#440502"/>
<path d="M23.9972 14.3975C23.9972 14.3623 23.9908 14.327 23.9844 14.2917C23.9844 14.327 23.9844 14.3623 23.9972 14.3975Z" fill="#44322E"/>
<path d="M29.4366 23.3784C29.8564 22.6765 31.3244 22.5419 31.8949 23.122C32.5295 23.7662 31.3917 27.1604 30.6353 27.1636C28.8757 27.1636 29.4366 23.3816 29.4366 23.3816V23.3784Z" fill="#FEAC74"/>
<path d="M29.6153 25.17C29.5864 24.9168 29.5608 24.6315 29.5704 24.3751C29.5768 24.2373 29.6089 24.0899 29.6281 23.9585C29.6409 23.8847 29.6602 23.795 29.6858 23.7469C29.9134 23.279 30.455 23.2661 30.8364 23.2277C30.9935 23.2117 31.2659 23.186 31.4037 23.2661C31.5127 23.3302 31.5704 23.5001 31.6313 23.5995C31.3204 23.2886 30.6409 23.4553 30.3108 23.6764C29.9646 23.904 29.8525 24.545 29.9775 24.9296C30.3012 24.8911 30.5929 25.2533 30.5576 25.5578C30.5223 25.8623 29.9262 26.0354 29.83 25.7405C30.3461 25.6347 29.9166 25.2213 29.6121 25.1764L29.6153 25.17Z" fill="#E3784C"/>
</g>
<defs>
<clipPath id="clip0_112_784">
<rect width="50" height="50" fill="white"/>
</clipPath>
</defs>
</svg>
